<?xml version="1.0" encoding="UTF-8"?>
<svg width="543px" height="440px" viewBox="0 0 543 440" version="1.1" xmlns="http://www.w3.org/2000/svg" xmlns:xlink="http://www.w3.org/1999/xlink">
    <!-- Generator: sketchtool 57.1 (101010) - https://sketch.com -->
    <title>6BA3E269-F183-4583-891A-0D6EABDB3A7C</title>
    <desc>Created with sketchtool.</desc>
    <g id="Screens_v2" stroke="none" stroke-width="1" fill="none" fill-rule="evenodd">
        <g id="About" transform="translate(-795.000000, -192.000000)">
            <g id="880" transform="translate(795.000000, 192.000000)">
                <polyline id="Fill-19" fill="#DA3685" points="441.03857 207.2392 431.88894 201.9584 431.88894 212.52 441.03857 217.80241 441.03857 207.2392"></polyline>
                <polyline id="Fill-20" fill="#F9D364" points="455.48832 206.85763 446.3403 201.57522 446.3403 220.86463 455.48832 226.14543 455.48832 206.85763"></polyline>
                <polyline id="Fill-21" fill="#D4EAF2" points="469.93968 220.71007 460.79166 215.42927 460.79166 229.20765 469.93968 234.48845 469.93968 220.71007"></polyline>
                <polyline id="Fill-22" fill="#D4EAF2" points="484.39104 225.07478 475.24302 219.79237 475.24302 237.55067 484.39104 242.83308 484.39104 225.07478"></polyline>
                <polyline id="Fill-23" fill="#2951BC" points="498.8424 234.49006 489.69438 229.20765 489.69438 245.89369 498.8424 251.1761 498.8424 234.49006"></polyline>
                <polyline id="Fill-24" fill="#6C498C" points="513.29215 238.63259 504.14574 233.35018 504.14574 254.23832 513.29215 259.51912 513.29215 238.63259"></polyline>
                <polyline id="Fill-25" fill="#D4EAF2" points="527.74512 244.74737 518.59549 239.46496 518.59549 262.58134 527.74512 267.86375 527.74512 244.74737"></polyline>
                <polyline id="Fill-26" fill="#3368F5" points="542.19648 247.45378 533.04685 242.17137 533.04685 270.92436 542.19648 276.20516 542.19648 247.45378"></polyline>
                <polyline id="Fill-27" fill="#D4EAF2" points="239.33133 426.36342 225.39517 418.31825 211.45901 426.36342 225.39517 434.4102 239.33133 426.36342"></polyline>
                <polyline id="Fill-28" fill="#3B6397" points="225.39517 426.94624 225.39517 417.88033 242.04579 408.26702 242.04579 417.33293 225.39517 426.94624"></polyline>
                <polyline id="Fill-29" fill="#7BA2B9" points="225.39517 417.88033 208.74455 408.26702 208.74455 417.33293 225.39517 426.94624 225.39517 417.88033"></polyline>
                <polyline id="Fill-30" fill="#D4EAF2" points="242.04579 408.26702 225.39517 398.65371 208.74455 408.26702 225.39517 417.88033 242.04579 408.26702"></polyline>
                <path d="M257.19267,270.50415 L263.14484,219.43173 C298.55196,221.54244 333.31991,228.00015 364.85337,238.82418 L316.82868,281.88202 C298.18649,275.77207 277.89566,271.98052 257.19267,270.50415" id="Fill-31" fill="#D4EAF2"></path>
                <path d="M257.19267,251.33388 L263.14484,200.25985 C298.55196,202.37217 333.31991,208.82827 364.85337,219.6523 L316.82868,262.70853 C298.18649,256.59858 277.89566,252.80864 257.19267,251.33388" id="Fill-32" fill="#2951BC"></path>
                <polyline id="Fill-33" fill="#2951BC" points="257.19267 143.05816 315.6405 145.6728 316.82868 154.43442 316.82868 262.70853 271.34779 245.50729 257.19267 251.33388 257.19267 143.05816"></polyline>
                <polyline id="Fill-34" fill="#2951BC" points="364.85337 111.37819 364.85337 219.6523 316.82868 262.70853 316.82868 154.43442 364.85337 111.37819"></polyline>
                <path d="M257.19267,143.05816 L263.14484,91.98574 C298.55196,94.09645 333.31991,100.55416 364.85337,111.37819 L316.82868,154.43442 C298.18649,148.32447 277.89566,144.53453 257.19267,143.05816" id="Fill-35" fill="#3368F5"></path>
                <path d="M316.82868,156.75443 C298.24123,150.6638 277.83126,146.84488 257.19267,145.35885 L257.19267,146.98012 C277.89566,148.45488 298.18649,152.24643 316.82868,158.35638 L364.85337,115.30015 C364.85337,114.92502 364.85337,114.1812 364.85337,113.70142 L316.82868,156.75443" id="Fill-36" fill="#4D6FC9"></path>
                <path d="M239.0689,269.50273 C200.06504,269.26284 160.94848,277.13413 129.96242,293.14075 L67.31249,256.96888 C117.18385,230.16399 181.38421,217.32907 245.01946,218.45285 L239.0689,269.50273" id="Fill-37" fill="#D4EAF2"></path>
                <path d="M239.0689,250.62548 C200.06504,250.38398 160.94848,258.25849 129.96242,274.2635 L67.31249,238.09163 C117.18385,211.28835 181.38421,198.45182 245.01946,199.5756 L239.0689,250.62548" id="Fill-38" fill="#3B6397"></path>
                <polyline id="Fill-39" fill="#3B6397" points="239.0689 250.62548 239.0689 213.24933 245.01946 162.19945 245.01946 199.5756 239.0689 250.62548"></polyline>
                <polyline id="Fill-40" fill="#3B6397" points="129.96242 236.88574 199.74465 174.15048 239.0689 213.24933 239.0689 250.62548 137.58255 249.97665 129.96242 274.2635 129.96242 236.88574"></polyline>
                <polyline id="Fill-41" fill="#7BA2B9" points="67.31249 200.71387 67.31249 238.09163 129.96242 274.2635 129.96242 236.88574 67.31249 200.71387"></polyline>
                <path d="M239.0689,213.24933 C200.06504,213.00622 160.94848,220.88073 129.96242,236.88574 L67.31249,200.71387 C117.18385,173.91059 181.38421,161.07406 245.01946,162.19945 L239.0689,213.24933" id="Fill-42" fill="#D4EAF2"></path>
                <path d="M239.0689,215.28276 C200.06504,215.04126 160.94848,222.91577 129.96242,238.92078 L67.31249,202.74086 C67.31249,203.08057 67.31249,204.19147 67.31249,204.52796 L129.96242,240.69822 C160.94848,224.69321 200.06504,216.82031 239.0689,217.06181 L245.01946,165.31641 L244.89227,165.3148 L239.0689,215.28276" id="Fill-43" fill="#17355D"></path>
                <path d="M374.59548,410.79794 C412.90382,374.92714 405.17099,327.31139 351.31166,296.21424 C345.25001,292.71571 338.81967,289.56172 332.10436,286.73617 L380.07914,243.72341 C391.96738,248.51638 403.32754,253.93403 413.93583,260.05847 C498.61378,308.94773 509.726,384.19913 447.36426,440.04198 L374.59548,410.79794" id="Fill-44" fill="#D4EAF2"></path>
                <path d="M374.59548,392.44072 C412.90382,356.56992 405.17099,308.95417 351.31166,277.85863 C345.25001,274.3601 338.81967,271.20611 332.10436,268.38056 L380.07914,225.3678 C391.96738,230.16238 403.32754,235.57842 413.93583,241.70286 C498.61378,290.59212 509.726,365.84352 447.36426,421.68637 L374.59548,392.44072" id="Fill-45" fill="#865E98"></path>
                <path d="M332.10436,201.8457 L332.10436,268.38056 L374.59548,284.16661 C374.59548,284.16661 429.77984,254.04512 429.77984,253.34316 C429.77984,252.63959 420.46599,188.84495 413.65247,185.97915 C406.83573,183.11496 332.10436,201.8457 332.10436,201.8457" id="Fill-46" fill="#865E98"></path>
                <polyline id="Fill-47" fill="#734F8F" points="374.59548 392.44072 374.59548 325.90586 447.36426 355.1499 447.36426 421.68637 374.59548 392.44072"></polyline>
                <path d="M447.36426,313.41226 L447.36426,421.68637 C447.36426,421.68637 485.34416,389.67152 487.05559,347.18845 L486.96543,277.68636 L442.76932,271.28661 L447.36426,313.41226" id="Fill-48" fill="#5F4388"></path>
                <path d="M374.59548,325.90586 C412.90382,290.03506 405.17099,242.41931 351.31166,211.32216 C345.25001,207.82363 338.81967,204.67125 332.10436,201.8457 L380.07914,158.83294 C391.96738,163.6243 403.32754,169.04356 413.93583,175.16639 C498.61378,224.05726 509.726,299.30866 447.36426,355.1499 L374.59548,325.90586" id="Fill-49" fill="#6C498C"></path>
                <path d="M447.36426,357.71141 L374.59548,328.45932 C374.59548,329.02443 374.59548,329.61852 374.59548,330.18846 L447.36426,359.4325 C474.03874,335.54815 487.25845,308.11214 487.03949,280.70672 C486.70139,307.53737 473.48007,334.32616 447.36426,357.71141" id="Fill-50" fill="#6C498C"></path>
                <path d="M398.46212,281.16074 C399.13993,256.85779 383.43599,232.43248 351.31166,213.88367 C345.64285,210.61215 338.35116,207.12167 332.10436,204.43941 L332.10436,206.1283 C338.81967,208.95385 345.25001,212.10784 351.31166,215.60637 C382.67768,233.71726 398.36874,257.42773 398.46212,281.16074" id="Fill-51" fill="#6C498C"></path>
                <path d="M314.22048,128.12863 C307.35866,132.08923 296.23356,132.08923 289.37174,128.12863 C282.50992,124.16803 282.50992,117.74252 289.37013,113.78192 C296.23356,109.81971 307.35866,109.81971 314.22048,113.78192 C321.08391,117.74413 321.08391,124.16803 314.22048,128.12863" id="Fill-52" fill="#FFFFFF" opacity="0.200000003"></path>
                <path d="M302.85066,115.48208 C302.65102,115.9844 299.18952,120.19777 295.72963,121.25071 C294.22267,121.70956 293.21159,121.76913 292.54827,121.68863 C291.88334,121.61135 291.47118,120.92549 291.69658,120.29276 C292.29228,118.61675 293.99888,115.12305 298.33783,112.9737 C304.20628,110.06443 302.85066,115.48208 302.85066,115.48208" id="Fill-53" fill="#734F8F"></path>
                <path d="M304.00503,117.10174 C304.00503,117.10174 302.70254,120.16074 302.30165,122.71903 C302.05532,124.28073 302.91345,126.30772 303.61702,127.65207 C304.05494,128.48444 305.16423,128.6712 305.86297,128.04008 C306.99319,127.0129 308.43253,125.23063 308.67242,122.66912 C309.07331,118.35432 308.67242,117.60245 308.67242,117.60245 L304.00503,117.10174" id="Fill-54" fill="#734F8F"></path>
                <path d="M312.34483,64.95545 C312.34483,64.95545 312.79563,70.39886 312.34483,76.41704 C311.89403,82.43844 310.27759,110.5909 309.97491,117.36256 C309.97491,117.36256 310.12625,119.4137 306.15599,118.9629 C302.18734,118.51049 302.50773,116.23556 302.50773,116.23556 C302.50773,116.23556 296.9323,116.15989 296.75681,112.87388 C296.58132,109.58787 291.04614,73.63496 291.04614,60.70827 L312.34483,64.95545" id="Fill-55" fill="#D4EAF2"></path>
                <path d="M302.50773,116.23556 C302.50773,116.23556 301.81704,116.22429 300.91383,116.06973 L299.82386,72.30832 L302.50773,116.23556" id="Fill-56" fill="#3B6397"></path>
                <path d="M306.44901,25.02262 C315.45535,28.75621 315.27342,34.07887 315.27342,34.07887 C315.27342,34.07887 313.51047,53.59529 314.11261,66.62824 C314.36377,72.07648 285.1632,72.49347 289.51825,57.95678 C294.65415,40.81833 292.72698,26.94335 295.13232,24.85035 C297.53605,22.75735 304.12095,24.05662 306.44901,25.02262" id="Fill-57" fill="#734F8F"></path>
                <path d="M309.34701,29.74153 C308.87528,31.57049 306.4796,32.53327 303.99537,31.8941 C301.51114,31.25493 299.88021,29.2537 300.35033,27.42635 C300.82206,25.59739 303.21774,24.633 305.70197,25.27378 C308.18459,25.91295 309.81713,27.91418 309.34701,29.74153" id="Fill-58" fill="#F3BCA9"></path>
                <path d="M304.1612,25.50401 C302.48841,25.50401 301.08932,26.28325 300.76732,27.53261 C300.35677,29.12812 301.85246,30.89751 304.10324,31.47711 C306.35563,32.06154 308.51786,31.23078 308.93002,29.63527 C309.34057,28.03815 307.84327,26.27037 305.59571,25.68916 C305.10788,25.56358 304.62327,25.50401 304.1612,25.50401 Z M305.51521,32.52039 C304.98874,32.52039 304.43973,32.45277 303.88911,32.31109 C301.17787,31.61235 299.40526,29.37445 299.93334,27.31848 C300.46142,25.26251 303.10504,24.16127 305.80823,24.85679 C308.51786,25.55553 310.29208,27.79343 309.76239,29.8494 C309.34218,31.48677 307.58245,32.52039 305.51521,32.52039 L305.51521,32.52039 Z" id="Fill-59" fill="#FFFFFE"></path>
                <path d="M302.83939,24.6169 C302.83939,24.6169 302.91506,24.97754 302.7605,27.83207 C302.7122,28.72723 305.85331,29.56604 306.66475,28.7546 C307.47619,27.94155 307.15097,27.09791 307.34578,24.04374 C307.5422,20.99279 302.83939,24.6169 302.83939,24.6169" id="Fill-60" fill="#F3BCA9"></path>
                <path d="M307.34578,24.04374 C307.34578,24.04374 306.57298,26.87573 302.7605,27.96248 L302.81685,25.38809 L307.34578,24.04374" id="Fill-61" fill="#E09689"></path>
                <path d="M309.76239,16.85187 C310.72034,20.55809 308.4921,24.33998 304.78749,25.29793 C301.07966,26.25588 297.29777,24.02764 296.34143,20.32303 C295.38187,16.61681 297.61011,12.83331 301.31472,11.87536 C305.02255,10.91741 308.80444,13.14565 309.76239,16.85187" id="Fill-62" fill="#F3BCA9"></path>
                <path d="M304.6442,18.84183 C304.6442,18.84183 300.82689,20.47598 298.18327,20.4953 C295.54126,20.51462 296.12408,18.30087 296.12408,18.30087 L303.968,17.16743 L304.6442,18.84183" id="Fill-63" fill="#E09689"></path>
                <path d="M297.39598,19.2717 C297.39598,19.2717 300.72063,17.85973 303.63795,18.44899 C304.32381,18.58745 304.95815,18.95453 305.39929,19.4971 C305.54419,19.6742 305.72773,19.83681 305.93381,19.88189 C306.45062,19.99942 307.29748,17.85329 308.30212,17.80499 C309.30676,17.75669 309.97813,18.46831 309.15381,19.7869 C308.3311,21.1071 308.60963,22.58508 308.98798,22.79599 C309.36633,23.0069 313.38972,19.92536 309.84128,12.89771 C306.29284,5.86845 297.28006,9.65517 295.87775,11.07841 C295.87775,11.07841 294.39977,12.3648 293.19871,11.22009 C293.19871,11.22009 291.85275,21.30513 297.39598,19.2717" id="Fill-64" fill="#3368F5"></path>
                <path d="M290.72575,23.42389 L285.88287,21.33572 C285.32903,21.09744 284.90077,20.63537 284.70435,20.06382 L279.92104,6.20655 L277.70568,6.59134 L281.57129,23.83605 C281.75161,24.64105 282.2652,25.33174 282.98487,25.73585 L291.04614,30.26317 L290.72575,23.42389" id="Fill-65" fill="#F3BCA9"></path>
                <path d="M341.10748,25.67789 L342.21999,25.16752 C343.16506,24.73443 344.02963,24.13873 344.77023,23.40779 L345.54303,22.64304 C345.97934,22.21156 346.10975,21.55951 345.86986,20.9944 C345.68471,20.55326 345.16468,20.36328 344.73642,20.57902 L342.41641,21.74949 C342.41641,21.74949 342.77866,20.72392 342.60478,20.45666 C342.42929,20.1894 340.63414,22.17131 339.80499,23.57684 C338.97262,24.98237 341.10748,25.67789 341.10748,25.67789" id="Fill-66" fill="#F3BCA9"></path>
                <path d="M321.78104,31.22112 L325.92518,30.75744 C326.90406,30.64957 327.85074,30.34206 328.70887,29.85584 L339.80499,23.57684 L341.10748,25.67789 L329.76342,34.4379 C329.41244,34.70838 329.02926,34.93378 328.62193,35.10605 L321.85671,37.99922 L321.78104,31.22112" id="Fill-67" fill="#F3BCA9"></path>
                <path d="M277.70568,6.59134 L277.28386,6.10512 C276.79764,5.54323 276.48208,4.85415 276.3726,4.11838 L276.07797,2.09783 C275.98459,1.46993 276.23092,0.82915 276.7429,0.45241 L276.79925,0.41216 C277.33538,0.04186 278.08403,0.31073 278.33197,0.91287 L279.32856,3.31982 C279.32856,3.31982 279.01461,2.07368 279.41711,1.93522 C279.71174,1.83379 280.27202,3.381 279.94036,4.24074 C279.61031,5.10209 279.92104,6.20655 279.92104,6.20655 L277.70568,6.59134" id="Fill-68" fill="#F3BCA9"></path>
                <path d="M300.30042,23.35949 L298.5101,22.86844 C298.5101,22.86844 299.36501,24.21279 300.61276,24.55411 C301.86051,24.89704 302.05371,23.84249 302.05371,23.84249 L300.30042,23.35949" id="Fill-69" fill="#FFFFFE"></path>
                <path d="M297.61655,23.85376 C297.61655,23.85376 289.52791,22.25664 287.05817,21.50638 C284.58843,20.75451 283.55481,27.54066 283.74318,29.25853 C283.92994,30.97962 292.34219,32.89874 293.342,35.84665 C294.34181,38.79617 297.61655,23.85376 297.61655,23.85376" id="Fill-70" fill="#734F8F"></path>
                <path d="M309.98457,26.83065 C309.98457,26.83065 315.89649,29.36962 325.78994,30.60449 C326.19244,30.6544 326.53698,30.92166 326.67061,31.30484 C327.05218,32.40125 327.70262,34.7921 327.19547,37.25218 C326.98617,38.26648 326.06525,38.97649 325.03163,38.97166 C321.93399,38.94912 315.26698,39.24536 314.18506,42.14175 C312.76987,45.93491 309.98457,26.83065 309.98457,26.83065" id="Fill-71" fill="#734F8F"></path>
                <path d="M306.50697,32.16619 L304.8857,33.92592 C304.67479,34.15293 304.57497,34.46366 304.61039,34.77117 L305.72451,44.40863 C305.7551,44.6775 305.68104,44.94959 305.51682,45.16694 L302.02795,49.72968 C301.87339,49.93093 301.55461,49.87619 301.47733,49.63469 L299.57914,43.65837 C299.50669,43.43136 299.51313,43.18664 299.59846,42.96446 L302.93921,34.2125 C303.01166,34.02091 303.02937,33.81161 302.9859,33.61036 L302.49807,31.29196 L306.50697,32.16619" id="Fill-72" fill="#FFFFFE"></path>
                <path d="M138.36662,152.83086 C138.36662,152.83086 139.50167,159.00521 144.41861,160.43489 C149.33394,161.86457 148.94271,166.20996 148.94271,166.20996 C148.94271,166.20996 151.41245,159.1002 147.03325,155.34085 C142.65405,151.57989 138.3634,152.25287 138.3634,152.25287 L138.36662,152.83086" id="Fill-73" fill="#5F4388"></path>
                <path d="M133.29029,155.64192 C133.29029,156.91382 132.25828,157.94583 130.98638,157.94583 C129.71448,157.94583 128.68569,156.91382 128.68569,155.64192 C128.68569,154.37002 129.71448,153.33962 130.98638,153.33962 C132.25828,153.33962 133.29029,154.37002 133.29029,155.64192" id="Fill-74" fill="#734F8F"></path>
                <path d="M140.2793,152.20618 C140.2793,153.47808 139.24729,154.50848 137.97539,154.50848 C136.7051,154.50848 135.6747,153.47808 135.6747,152.20618 C135.6747,150.93428 136.7051,149.90388 137.97539,149.90388 C139.24729,149.90388 140.2793,150.93428 140.2793,152.20618" id="Fill-75" fill="#734F8F"></path>
                <path d="M148.78332,254.94994 C148.78332,254.94994 151.23374,253.71346 152.73748,255.55369 C154.24283,257.39392 156.39379,261.7377 156.46141,264.67112 C156.52742,267.60615 154.13657,267.40812 152.71655,266.71421 C151.29814,266.01869 147.14756,260.00212 146.89801,258.82199 C146.64685,257.64347 147.19425,256.04957 147.59353,255.73562 C147.99281,255.42489 148.78332,254.94994 148.78332,254.94994" id="Fill-76" fill="#263764"></path>
                <path d="M148.2488,254.35907 L148.1361,256.89804 C148.11034,257.43739 148.38243,257.95098 148.85255,258.21824 C149.28081,258.46135 149.90227,258.6465 150.74269,258.51126 C152.58775,258.21502 152.75358,257.68694 152.8856,255.14958 C153.01601,252.61222 148.2488,254.35907 148.2488,254.35907" id="Fill-77" fill="#F9D364"></path>
                <path d="M157.75102,250.07003 C157.75102,250.07003 160.20144,248.83355 161.70518,250.67378 C163.21053,252.5124 165.36149,256.85618 165.42911,259.79121 C165.49512,262.72463 163.10749,262.5266 161.68586,261.83269 C160.26584,261.13878 156.11848,255.11899 155.86732,253.94047 C155.61455,252.76195 156.16195,251.16644 156.56123,250.85571 C156.96051,250.54498 157.75102,250.07003 157.75102,250.07003" id="Fill-78" fill="#263764"></path>
                <path d="M157.2165,249.47916 L157.1038,252.01652 C157.07965,252.55748 157.35013,253.07107 157.82025,253.33672 C158.24851,253.57983 158.87158,253.76659 159.71039,253.63135 C161.55706,253.33511 161.72128,252.80703 161.8533,250.26967 C161.98532,247.73231 157.2165,249.47916 157.2165,249.47916" id="Fill-79" fill="#F9D364"></path>
                <path d="M135.35431,202.8761 C136.08042,191.07802 148.13288,204.61168 148.13288,204.61168 L156.38252,212.69871 L163.81106,220.85819 C165.26006,222.45048 165.93626,224.60305 165.65612,226.74113 L162.65025,249.62084 C162.50213,250.75106 161.53613,251.58343 160.39625,251.575438 C160.07425,251.57216 159.70395,251.54479 159.28374,251.47878 C156.60309,251.06018 156.80112,248.51155 156.80112,248.51155 L157.34852,227.11143 L141.74923,217.70742 C141.74923,217.70742 134.62981,214.67418 135.35431,202.8761" id="Fill-80" fill="#2951BC"></path>
                <path d="M151.3883,223.0655 L153.60688,222.25084 C153.6584,222.25084 157.38072,225.85241 157.34852,227.11143 L155.67895,227.64756 L151.48651,223.57748 L151.3883,223.0655" id="Fill-81" fill="#7BA2B9"></path>
                <path d="M138.49864,227.25311 C138.49864,227.25311 129.22987,221.95943 128.11897,219.74085 C127.68588,218.87145 127.00968,217.9618 129.71448,216.64965 L147.36008,229.74539 L144.095,230.69851 L138.49864,227.25311" id="Fill-82" fill="#7BA2B9"></path>
                <path d="M126.38661,207.42918 C127.15941,195.63432 139.16518,209.16637 139.16518,209.16637 L147.41482,217.25179 L154.84175,225.41127 C156.29236,227.00517 156.96695,229.15613 156.68681,231.29421 L153.68255,254.17553 C153.53282,255.30414 152.56682,256.13651 151.42855,256.128518 C151.10494,256.12524 150.73625,256.09787 150.31443,256.03186 C147.63378,255.61326 147.8302,253.06463 147.8302,253.06463 L148.38082,231.66451 L132.78153,222.2605 C132.78153,222.2605 125.68143,218.21457 126.38661,207.42918" id="Fill-83" fill="#3368F5"></path>
                <path d="M133.5173,169.49758 C124.38055,173.28591 124.56248,178.68746 124.56248,178.68746 C124.56248,178.68746 126.35119,198.49046 125.74261,211.715 C125.48501,217.24213 155.11545,217.66556 150.69761,202.91635 C145.48604,185.52513 147.43897,171.44568 145.00143,169.32209 C142.56228,167.1985 135.88078,168.51709 133.5173,169.49758" id="Fill-84" fill="#734F8F"></path>
                <path d="M130.57744,174.28572 C131.054,176.14205 133.4851,177.11932 136.00797,176.47049 C138.52762,175.82166 140.1827,173.79145 139.70453,171.93512 C139.22797,170.0804 136.79687,169.10313 134.27561,169.75196 C131.75596,170.40079 130.10088,172.431 130.57744,174.28572" id="Fill-85" fill="#F3BCA9"></path>
                <path d="M135.8357,169.98702 C135.36236,169.98702 134.87131,170.04981 134.38509,170.17539 C132.10211,170.76304 130.58388,172.55819 131.00087,174.17785 C131.19568,174.93777 131.7946,175.5544 132.68815,175.91182 C133.62839,176.29178 134.76505,176.33686 135.89849,176.04706 C138.18147,175.45941 139.6997,173.66426 139.28271,172.0446 C139.08629,171.28468 138.48737,170.66805 137.59382,170.31063 C137.0593,170.09489 136.46199,169.98702 135.8357,169.98702 Z M134.44788,177.10805 C133.7105,177.10805 132.99888,176.97925 132.36293,176.72326 C131.20534,176.25636 130.42127,175.43043 130.15562,174.3952 C129.61788,172.31025 131.41786,170.03693 134.16774,169.32853 C135.47506,168.99526 136.80975,169.05 137.91904,169.49919 C139.07824,169.96609 139.8607,170.79202 140.12796,171.82725 C140.6657,173.9122 138.86572,176.18552 136.11584,176.89392 C135.55717,177.0356 134.99528,177.10805 134.44788,177.10805 L134.44788,177.10805 Z" id="Fill-86" fill="#FFFFFE"></path>
                <path d="M137.18166,169.08542 C137.18166,169.08542 137.10116,169.4525 137.26055,172.34728 C137.31046,173.25854 134.12266,174.10862 133.29834,173.28269 C132.47402,172.45998 132.80407,171.60185 132.60604,168.50582 C132.40801,165.40818 137.18166,169.08542 137.18166,169.08542" id="Fill-87" fill="#F3BCA9"></path>
                <path d="M132.60604,168.50582 C132.60604,168.50582 133.39172,171.37806 137.26055,172.4793 L137.20259,169.86788 L132.60604,168.50582" id="Fill-88" fill="#E09689"></path>
                <path d="M130.15562,161.20608 C129.18318,164.96704 131.44362,168.80528 135.20458,169.77772 C138.96393,170.75016 142.80217,168.48972 143.77461,164.72876 C144.74705,160.9678 142.48661,157.12956 138.72565,156.15873 C134.96469,155.18468 131.12645,157.44512 130.15562,161.20608" id="Fill-89" fill="#F3BCA9"></path>
                <path d="M135.34948,163.22502 C135.34948,163.22502 139.22314,164.88493 141.90379,164.90264 C144.58605,164.92196 143.99518,162.67762 143.99518,162.67762 L136.03373,161.52808 L135.34948,163.22502" id="Fill-90" fill="#E09689"></path>
                <path d="M142.70396,163.66294 C142.70396,163.66294 139.3294,162.23004 136.37022,162.82735 C135.6747,162.96742 135.02909,163.34094 134.58151,163.88995 C134.435,164.07027 134.25146,164.23449 134.04055,164.28279 C133.51569,164.40193 132.65756,162.2236 131.63682,162.17369 C130.61608,162.12539 129.93505,162.84667 130.77225,164.18619 C131.60784,165.5241 131.32609,167.02301 130.9413,167.23875 C130.55651,167.45288 126.47516,164.32787 130.07512,157.19396 C133.67508,150.06327 142.82149,153.90312 144.24473,155.3489 L144.40895,155.47609 C146.34739,156.83976 147.36169,159.2129 146.69032,161.48622 C146.16707,163.25722 145.03846,164.51946 142.70396,163.66294" id="Fill-91" fill="#734F8F"></path>
                <path d="M129.68872,193.15492 L129.68872,198.50495 C129.68872,199.11836 129.94632,199.7044 130.40034,200.11495 L141.39181,210.1372 L140.14406,212.04827 L125.62669,201.51887 C124.94888,201.02943 124.51257,200.27273 124.42402,199.43875 L123.44353,190.1088 L129.68872,193.15492" id="Fill-92" fill="#F3BCA9"></path>
                <path d="M125.33689,176.01164 C125.33689,176.01164 122.00097,181.02679 120.75966,194.22718 C120.75966,194.22718 126.45584,196.07063 129.68872,195.02413 C132.92321,193.97763 125.33689,176.01164 125.33689,176.01164" id="Fill-93" fill="#734F8F"></path>
                <path d="M130.29891,182.35182 C130.29891,182.35182 131.60301,189.33922 131.67707,192.62362 C131.698,193.52683 131.14577,194.33988 130.29891,194.64739 L130.29891,182.35182" id="Fill-94" fill="#5F4388"></path>
                <path d="M133.14861,217.09562 L135.57971,216.77523 L151.26111,207.72059 C151.76504,207.42918 152.6441,207.46621 153.2237,207.8027 L164.33592,214.21533 L165.80424,214.02052 L165.80424,215.4824 L165.80263,215.48401 C165.81229,215.6756 165.70442,215.86236 165.46614,215.99921 L147.69335,226.26135 C147.19103,226.54954 146.31197,226.51412 145.73237,226.17924 L133.63,219.19345 C133.30317,219.00508 133.13895,218.76197 133.14861,218.53496 L133.14861,217.09562" id="Fill-95" fill="#263764"></path>
                <path d="M144.93381,211.37529 L146.04793,210.73129 L158.29681,210.73129 L164.33592,214.21533 L165.80424,214.02052 L165.80424,215.4824 L165.80263,215.48401 C165.81229,215.6756 165.70442,215.86236 165.46614,215.99921 L147.69335,226.26135 C147.4277,226.41269 147.0574,226.47387 146.68066,226.44972 L144.93381,211.37529" id="Fill-96" fill="#3B6397"></path>
                <path d="M165.15219,214.10746 L165.80424,214.02052 L165.80424,215.4824 L165.80263,215.48401 C165.81229,215.6756 165.70442,215.86236 165.46614,215.99921 L165.15219,216.17953 L165.15219,214.10746" id="Fill-97" fill="#5589BB"></path>
                <path d="M147.51464,226.34185 C147.03808,226.52378 146.35544,226.48353 145.84829,226.24042 L145.84829,223.75136 L147.51464,223.75136 L147.51464,226.34185" id="Fill-98" fill="#2B4876"></path>
                <path d="M147.69335,224.79786 L165.46614,214.53733 C165.96846,214.24753 165.90567,213.73877 165.32607,213.40389 L153.2237,206.41971 C152.6441,206.08483 151.76504,206.0478 151.26111,206.33921 L133.48832,216.59974 C132.986,216.88954 133.04879,217.3983 133.63,217.73318 L145.73237,224.71736 C146.31197,225.05224 147.19103,225.08927 147.69335,224.79786" id="Fill-99" fill="#FFFFFE"></path>
                <path d="M147.99442,223.24421 L162.77261,214.71121 C163.1896,214.46971 163.13808,214.04789 162.65508,213.76936 L156.17,210.12271 C155.687,209.84257 154.95606,209.81359 154.53746,210.05509 L139.76088,218.58648 C139.34228,218.82798 139.39541,219.2498 139.87841,219.52833 L146.36188,223.17659 C146.84488,223.45512 147.57582,223.4841 147.99442,223.24421" id="Fill-100" fill="#D4EAF2"></path>
                <path d="M152.53623,206.08161 L152.71977,207.30843 C152.87594,208.35493 152.85018,209.41914 152.64088,210.45276 L152.42192,211.53468 C152.29795,212.14326 151.81495,212.6166 151.20315,212.72769 C150.72498,212.81463 150.27418,212.47975 150.22105,211.99675 L149.92642,209.37406 C149.92642,209.37406 149.25666,210.25312 148.93305,210.25312 C148.60944,210.25312 149.29369,207.62721 150.02785,206.14279 C150.7604,204.65676 152.53623,206.08161 152.53623,206.08161" id="Fill-101" fill="#F3BCA9"></path>
                <path d="M146.51161,186.59256 L148.41946,190.36801 C148.87026,191.25834 149.13591,192.234 149.1987,193.2322 L150.02785,206.14279 L152.53623,206.08161 L153.6745,191.58517 C153.70992,191.13598 153.68899,190.68679 153.6101,190.24565 L152.30922,182.89117 L146.51161,186.59256" id="Fill-102" fill="#F3BCA9"></path>
                <path d="M148.29388,225.78479 L149.78474,223.83991 L165.45809,214.76595 C165.9588,214.47454 166.36613,213.6953 166.36452,213.02554 L166.35164,200.19384 L167.25324,199.01854 L166.40477,198.52749 L166.40477,198.5291 C166.24377,198.42445 166.02803,198.42767 165.79136,198.56452 L148.02984,208.84598 C147.52752,209.13739 147.1218,209.91663 147.1218,210.58639 L147.1379,224.56119 C147.1379,224.93793 147.2667,225.19875 147.46956,225.30662 L148.29388,225.78479" id="Fill-103" fill="#263764"></path>
                <path d="M159.1324,218.42548 L160.24652,217.78148 L166.35808,207.16514 L166.35164,200.19384 L167.25324,199.01854 L166.40477,198.52749 L166.40477,198.5291 C166.24377,198.42445 166.02803,198.42767 165.79136,198.56452 L148.02984,208.84598 C147.76419,209.00054 147.52752,209.29195 147.36008,209.63005 L159.1324,218.42548" id="Fill-104" fill="#3B6397"></path>
                <path d="M166.85396,199.54018 L167.25324,199.01854 L166.40477,198.52749 L166.40477,198.5291 C166.24377,198.42445 166.02803,198.42767 165.79136,198.56452 L165.47741,198.74484 L166.85396,199.54018" id="Fill-105" fill="#5589BB"></path>
                <path d="M147.86884,208.9619 C147.47439,209.2839 147.16849,209.89409 147.12663,210.45598 L148.86221,211.4574 L149.69458,210.01484 L147.86884,208.9619" id="Fill-106" fill="#2B4876"></path>
                <path d="M148.8767,209.33703 L166.63661,199.05396 C167.13893,198.76416 167.54626,199.07006 167.54787,199.74143 L167.562365,213.71462 C167.56397,214.38438 167.15664,215.16362 166.65432,215.45503 L148.8928,225.73649 C148.39209,226.0279 147.98315,225.722 147.98315,225.05063 L147.96705,211.07744 C147.96705,210.40768 148.37277,209.62844 148.8767,209.33703" id="Fill-107" fill="#734F8F"></path>
                <path d="M140.14406,212.04827 L140.42903,212.63753 C140.75586,213.31695 141.27106,213.88689 141.91345,214.28295 L143.6764,215.3697 C144.22541,215.70941 144.92093,215.73678 145.47638,215.41156 L145.53756,215.37614 C146.09784,215.02355 146.14775,214.21855 145.68729,213.74521 L143.84384,211.84863 C143.84384,211.84863 144.87907,212.64397 145.17048,212.32358 C145.383,212.09013 144.16584,210.94703 143.23043,210.91 C142.29663,210.87136 141.39181,210.1372 141.39181,210.1372 L140.14406,212.04827" id="Fill-108" fill="#F3BCA9"></path>
                <path d="M144.81789,169.29472 C144.81789,169.29472 151.57506,176.64759 154.3024,183.3951 C154.3024,183.3951 151.99044,187.55856 146.33451,189.1911 C140.67697,190.82525 144.81789,169.29472 144.81789,169.29472" id="Fill-109" fill="#734F8F"></path>
                <path d="M147.60802,188.7564 L146.51161,178.17387 L149.09244,188.08825 C148.63198,188.32814 148.13449,188.55032 147.60802,188.7564" id="Fill-110" fill="#5F4388"></path>
                <path d="M139.75605,167.8103 L141.57213,167.3112 C141.57213,167.3112 140.70595,168.67487 139.43888,169.02424 C138.17342,169.372 137.97539,168.29974 137.97539,168.29974 L139.75605,167.8103" id="Fill-111" fill="#FFFFFE"></path>
                <path d="M130.11859,155.82224 C130.11859,155.82224 131.80104,161.87101 128.00788,165.30675 C124.21311,168.74249 126.46872,172.4793 126.46872,172.4793 C126.46872,172.4793 121.13479,167.16952 123.42582,161.87101 C125.71685,156.5725 129.86904,155.3006 129.86904,155.3006 L130.11859,155.82224" id="Fill-112" fill="#805F99"></path>
                <path d="M387.55115,242.83469 L352.69948,222.71452 C352.01201,222.31524 351.38733,222.30236 350.8995,222.56962 L350.90111,222.54708 L347.52172,224.50001 C347.52172,224.50001 349.01741,225.0458 349.89647,225.3678 L349.89647,250.74784 C349.89647,252.81186 351.15066,255.21076 352.69948,256.10431 L386.01038,275.33576 L386.01038,278.31426 L389.42519,276.34684 L389.40587,276.3404 C389.98386,275.98781 390.35416,275.21662 390.35416,274.10411 L390.35416,248.19277 C390.35416,246.12875 389.09997,243.72824 387.55115,242.83469" id="Fill-113" fill="#D4EAF2"></path>
                <path d="M384.10736,278.208 L349.25891,258.08783 C347.71009,257.19589 346.45268,254.79538 346.45268,252.73136 L346.45268,226.81841 C346.45268,224.75278 347.71009,223.80449 349.25891,224.69804 L384.10736,244.81982 C385.65618,245.71337 386.91198,248.11227 386.91198,250.17629 L386.91198,276.08924 C386.91198,278.15487 385.65618,279.10316 384.10736,278.208" id="Fill-114" fill="#D4EAF2"></path>
                <path d="M384.10736,244.81982 L349.25891,224.69804 C348.37824,224.19089 347.60061,224.29393 347.08702,224.84455 C347.46215,224.81235 347.87753,224.9009 348.32511,225.1585 L383.17517,245.27867 C384.72238,246.17383 385.97818,248.57112 385.97818,250.63675 L385.97818,276.5497 C385.97818,277.44164 385.73507,278.10818 385.34545,278.52517 C386.26959,278.44789 386.91198,277.55917 386.91198,276.08924 L386.91198,250.17629 C386.91198,248.11227 385.65618,245.71337 384.10736,244.81982" id="Fill-115" fill="#FFFFFE"></path>
                <path d="M360.9781,249.15877 C360.9781,250.65929 359.92516,251.26626 358.62589,250.516 C357.32662,249.76574 356.27529,247.94322 356.27529,246.44431 C356.27529,244.94379 357.32662,244.33682 358.62589,245.08708 C359.92516,245.83573 360.9781,247.65986 360.9781,249.15877" id="Fill-116" fill="#FFFFFE"></path>
                <path d="M368.10074,253.27232 C368.10074,254.77123 367.0478,255.37981 365.75014,254.62955 C364.45087,253.87929 363.39793,252.05516 363.39793,250.55625 C363.39793,249.05734 364.45087,248.44876 365.75014,249.19902 C367.0478,249.94928 368.10074,251.7718 368.10074,253.27232" id="Fill-117" fill="#FFFFFE"></path>
                <path d="M375.22499,257.38426 C375.22499,258.88317 374.17044,259.49175 372.87278,258.74149 C371.57512,257.99284 370.52218,256.16871 370.52218,254.66819 C370.52218,253.17089 371.57512,252.56231 372.87278,253.31096 C374.17044,254.06122 375.22499,255.88535 375.22499,257.38426" id="Fill-118" fill="#FFFFFE"></path>
                <polyline id="Fill-119" fill="#D4EAF2" points="75.66356 312.41406 50.47833 297.87254 25.29149 312.41406 50.47833 326.95558 75.66356 312.41406"></polyline>
                <polyline id="Fill-120" fill="#D4EAF2" points="50.47833 297.87254 25.29149 283.33102 0.10304 297.87254 25.29149 312.41406 50.47833 297.87254"></polyline>
                <polyline id="Fill-121" fill="#5F4388" points="54.26988 285.52062 54.26988 241.97012 75.66356 229.61981 75.66356 273.1687 54.26988 285.52062"></polyline>
                <polyline id="Fill-122" fill="#865E98" points="54.26988 241.97012 32.8762 229.61981 32.8762 273.1687 54.26988 285.52062 54.26988 241.97012"></polyline>
                <polyline id="Fill-123" fill="#6C498C" points="75.66356 229.61981 54.26988 217.2695 32.8762 229.61981 54.26988 241.97012 75.66356 229.61981"></polyline>
                <polyline id="Fill-124" fill="#8FC35C" points="75.66356 289.639 54.26988 277.28708 54.26988 285.52062 75.66356 297.87254 75.66356 289.639"></polyline>
                <polyline id="Fill-125" fill="#AF3C2B" points="32.8762 297.87254 32.8762 231.99617 54.26988 219.64425 54.26988 285.52062 32.8762 297.87254"></polyline>
                <polyline id="Fill-126" fill="#CA4E2C" points="32.8762 231.99617 11.48252 219.64425 11.48252 285.52062 32.8762 297.87254 32.8762 231.99617"></polyline>
                <polyline id="Fill-127" fill="#DE5933" points="54.26988 219.64425 32.8762 207.29233 11.48252 219.64425 32.8762 231.99617 54.26988 219.64425"></polyline>
                <polyline id="Fill-128" fill="#2951BC" points="32.8762 297.87254 32.8762 231.99617 54.26988 219.64425 54.26988 285.52062 32.8762 297.87254"></polyline>
                <polyline id="Fill-129" fill="#3368F5" points="32.8762 231.99617 11.48252 219.64425 11.48252 285.52062 32.8762 297.87254 32.8762 231.99617"></polyline>
                <polyline id="Fill-130" fill="#3368F5" points="54.26988 219.64425 32.8762 207.29233 11.48252 219.64425 32.8762 231.99617 54.26988 219.64425"></polyline>
                <polyline id="Fill-131" fill="#3B6397" points="54.26988 310.22446 54.26988 273.1687 75.66356 260.81839 75.66356 297.87254 54.26988 310.22446"></polyline>
                <polyline id="Fill-132" fill="#7BA2B9" points="54.26988 273.1687 32.8762 260.81839 32.8762 297.87254 54.26988 310.22446 54.26988 273.1687"></polyline>
                <polyline id="Fill-133" fill="#D4EAF2" points="75.66356 260.81839 54.26988 248.46647 32.8762 260.81839 54.26988 273.1687 75.66356 260.81839"></polyline>
                <path d="M124.31776,421.97295 C117.40442,425.96414 106.19721,425.96414 99.28387,421.97295 C92.37053,417.98176 92.37053,411.51117 99.28387,407.51998 C106.1956,403.52879 117.40442,403.52879 124.31776,407.51998 C131.2311,411.51117 131.2311,417.98337 124.31776,421.97295 Z M139.02994,399.02401 C123.99093,390.34289 99.60748,390.34289 84.56847,399.02401 C69.53107,407.70674 69.53268,421.78458 84.57008,430.46892 C99.60909,439.15004 123.99254,439.15004 139.02994,430.46892 C154.06895,421.78458 154.06895,407.70835 139.02994,399.02401 L139.02994,399.02401 Z" id="Fill-134" fill="#D4EAF2"></path>
                <path d="M78.89,387.09713 L92.62652,387.31126 C93.64243,385.98945 95.0866,384.74814 96.96547,383.663 C104.51959,379.30151 116.39817,378.96502 124.62688,382.64548 L132.79119,374.969 L145.35885,375.16542 C144.73739,374.75809 144.09983,374.35881 143.42685,373.96919 C125.95835,363.88415 97.64006,363.88415 80.17317,373.96919 C76.96122,375.82391 74.34497,377.89115 72.31476,380.09202 L78.89,387.09713" id="Fill-135" fill="#3B6397"></path>
                <polyline id="Fill-136" fill="#7BA2B9" points="145.35885 355.21591 145.35885 375.16542 132.79119 374.969 132.79119 355.0211 145.35885 355.21591"></polyline>
                <polyline id="Fill-137" fill="#3B6397" points="124.62688 362.69758 124.62688 382.64548 132.79119 374.969 132.79119 355.0211 124.62688 362.69758"></polyline>
                <path d="M92.62652,367.36336 L92.62652,387.31126 L110.69716,372.58459 L124.62688,382.64548 L124.62688,362.69758 L111.80001,356.47654 C111.80001,356.47654 94.14314,361.88131 93.22383,362.11154 C92.30774,362.34016 92.62652,367.36336 92.62652,367.36336" id="Fill-138" fill="#3B6397"></path>
                <polyline id="Fill-139" fill="#7BA2B9" points="78.89 367.14762 78.89 387.09713 92.62652 387.31126 92.62652 367.36336 78.89 367.14762"></polyline>
                <polyline id="Fill-140" fill="#7BA2B9" points="72.31476 360.14412 72.31476 380.09202 78.89 387.09713 78.89 367.14762 72.31476 360.14412"></polyline>
                <path d="M78.89,367.14762 L92.62652,367.36336 C93.64243,366.03994 95.0866,364.79863 96.96547,363.7151 C104.51959,359.35361 116.39817,359.01712 124.62688,362.69758 L132.79119,355.0211 L145.35885,355.21591 C144.73739,354.81019 144.09983,354.4093 143.42685,354.02129 C125.95835,343.93625 97.64006,343.93625 80.17317,354.01968 C76.96122,355.87601 74.34497,357.94325 72.31476,360.14412 L78.89,367.14762" id="Fill-141" fill="#D4EAF2"></path>
                <path d="M128.76458,365.15122 L128.76458,383.48912 L140.65443,380.63942 C140.65443,380.63942 139.9573,369.91038 139.70292,369.6238 C139.45015,369.33722 128.76458,365.15122 128.76458,365.15122" id="Fill-142" fill="#2951BC"></path>
                <path d="M119.76629,383.48912 L119.76629,403.43863 L121.05107,404.80552 L129.43434,399.9723 C129.43434,399.9723 128.13346,384.74492 127.98051,384.43902 C127.82756,384.13312 119.76629,383.48912 119.76629,383.48912" id="Fill-143" fill="#3160DE"></path>
                <path d="M135.95323,378.34034 L128.76458,385.10073 C134.75217,389.83735 134.04538,396.51724 126.63616,400.79501 C124.60756,401.96548 122.26501,402.84615 119.76629,403.43863 L127.19644,411.355 L120.61315,417.54545 C128.97227,416.58106 136.94821,414.23046 143.42846,410.48882 C158.44332,401.82058 160.53793,388.52359 149.73644,378.55286 L135.95323,378.34034" id="Fill-144" fill="#2951BC"></path>
                <polyline id="Fill-145" fill="#2951BC" points="120.61315 397.59755 120.61315 417.54545 136.9144 411.25035 156.51937 392.54537 156.44692 371.36421 135.70368 387.80553 120.61315 397.59755"></polyline>
                <path d="M135.95323,358.39083 L128.76458,365.15122 C134.75217,369.88945 134.04538,376.56934 126.63616,380.8455 C124.60756,382.01758 122.26501,382.89825 119.76629,383.48912 L127.19644,391.40549 L120.61315,397.59755 C128.97227,396.63155 136.94821,394.28256 143.42846,390.54092 C158.44332,381.87107 160.53793,368.57408 149.73644,358.60657 L135.95323,358.39083" id="Fill-146" fill="#3368F5"></path>
                <path d="M120.56002,411.25035 L114.00893,404.27261 C107.92957,404.64291 101.62481,403.48532 96.96547,400.79501 C92.15157,398.01454 90.16966,394.22299 91.01169,390.60693 L75.41562,390.36382 L69.41837,383.97534 C64.17299,392.97685 67.75202,403.31627 80.17478,410.48721 C89.30187,415.75835 101.39297,418.26834 113.34883,418.03006 L120.56002,411.25035" id="Fill-147" fill="#865E98"></path>
                <polyline id="Fill-148" fill="#865E98" points="113.34883 398.08216 113.34883 418.03006 67.08548 392.39242 67.08548 372.43486 73.83943 375.16542 113.34883 398.08216"></polyline>
                <polyline id="Fill-149" fill="#734F8F" points="120.56002 391.30084 120.56002 411.25035 113.34883 418.03006 113.34883 398.08216 120.56002 391.30084"></polyline>
                <path d="M120.56002,391.30084 L114.00893,384.32471 C107.92957,384.69501 101.62481,383.53581 96.96547,380.8455 C92.15157,378.06825 90.16966,374.27348 91.01169,370.65903 L75.41562,370.41592 L69.41837,364.02744 C64.17299,373.02895 67.75202,383.36837 80.17478,390.54092 C89.30187,395.80884 101.39297,398.32044 113.34883,398.08216 L120.56002,391.30084" id="Fill-150" fill="#6C498C"></path>
                <path d="M324.21536,37.17651 C322.44436,37.38259 318.10219,37.75772 314.76305,38.03464 C312.84715,38.19403 311.57686,40.0407 312.06147,41.89864 C313.84213,48.7347 311.48509,59.72617 311.90852,63.44527 C312.41889,67.89692 309.72053,69.61801 309.70604,69.62767 C312.37059,69.05129 314.1754,67.99996 314.11261,66.62824 C313.74231,58.62332 314.26395,48.17925 314.7228,41.30777 C316.66768,39.18257 322.30912,38.94912 325.06383,38.97166 C326.11677,38.9781 326.99905,38.22784 327.20513,37.19744 C327.46273,35.91427 327.40155,34.66008 327.23733,33.59426 C327.23733,33.66349 327.23572,36.82553 324.21536,37.17651" id="Fill-151" fill="#5F4388"></path>
                <path d="M454.24862,171.83852 L414.3335,148.79298 C413.3514,148.22787 412.55767,146.70964 412.55767,145.40071 L412.55767,113.99605 C412.55767,112.68873 413.3514,112.0882 414.3335,112.65331 L454.24862,135.69885 C455.22911,136.26396 456.02284,137.78541 456.02284,139.09112 L456.02284,170.49739 C456.02284,171.8031 455.22911,172.40524 454.24862,171.83852" id="Fill-152" fill="#D4EAF2"></path>
                <path d="M426.40367,150.62999 L426.12192,150.46738 C425.08186,149.86524 424.23822,148.25363 424.23822,146.86742 L424.23822,131.90086 C424.23822,130.51465 425.08186,129.87709 426.12192,130.47762 L426.40367,130.64023 C427.44373,131.24076 428.28737,132.85237 428.28737,134.23858 L428.28737,149.20514 C428.28737,150.59296 427.44373,151.23052 426.40367,150.62999" id="Fill-153" fill="#3368F5"></path>
                <path d="M434.43113,155.26518 L434.14938,155.10096 C433.10932,154.50043 432.26568,152.88882 432.26568,151.50261 L432.26568,142.74421 C432.26568,141.35478 433.10932,140.71883 434.14938,141.31936 L434.43113,141.48036 C435.47119,142.0825 436.31483,143.6925 436.31483,145.08032 L436.31483,153.84033 C436.31483,155.22815 435.47119,155.86571 434.43113,155.26518" id="Fill-154" fill="#2951BC"></path>
                <path d="M442.45859,159.89876 L442.17845,159.73615 C441.13678,159.13562 440.29475,157.52401 440.29475,156.1378 L440.29475,135.2883 C440.29475,133.89887 441.13678,133.26292 442.17845,133.86345 L442.45859,134.02606 C443.49865,134.62659 444.34229,136.2382 444.34229,137.62441 L444.34229,158.47552 C444.34229,159.86173 443.49865,160.49929 442.45859,159.89876" id="Fill-155" fill="#FFFFFE"></path>
                <polyline id="Fill-156" fill="#173583" points="265.18471 395.22119 280.26236 386.51753 295.3384 395.22119 280.26236 403.92646 265.18471 395.22119"></polyline>
                <polyline id="Fill-157" fill="#3160DE" points="280.26236 395.22119 280.26236 331.38791 265.18471 322.68264 265.18471 386.51753 280.26236 395.22119"></polyline>
                <polyline id="Fill-158" fill="#2951BC" points="280.26236 331.38791 295.3384 322.68264 295.3384 386.51753 280.26236 395.22119 280.26236 331.38791"></polyline>
                <polyline id="Fill-159" fill="#3368F5" points="265.18471 322.68264 280.26236 313.97898 295.3384 322.68264 280.26236 331.38791 265.18471 322.68264"></polyline>
                <polyline id="Fill-160" fill="#2951BC" points="270.45102 322.68264 280.26236 317.02027 290.07209 322.68264 280.26236 328.34662 270.45102 322.68264"></polyline>
                <polyline id="Fill-161" fill="#3160DE" points="280.26236 322.62146 280.26236 314.87092 265.18471 306.16726 265.18471 313.91619 280.26236 322.62146"></polyline>
                <polyline id="Fill-162" fill="#2951BC" points="280.26236 314.87092 295.3384 306.16726 295.3384 313.91619 280.26236 322.62146 280.26236 314.87092"></polyline>
                <polyline id="Fill-163" fill="#3368F5" points="265.18471 306.16726 280.26236 297.46038 295.3384 306.16726 280.26236 314.87092 265.18471 306.16726"></polyline>
                <path d="M303.04869,375.60012 C309.3293,379.22423 319.50933,379.22423 325.78994,375.60012 C332.06894,371.9744 332.06894,366.09629 325.78994,362.47057 C319.50933,358.84485 309.3293,358.84485 303.04869,362.47057 C296.76969,366.09629 296.76969,371.9744 303.04869,375.60012" id="Fill-164" fill="#D4EAF2"></path>
                <path d="M323.51018,256.80949 C323.51018,256.80949 323.09641,265.33122 322.44597,271.0596 C321.79875,276.78637 308.00427,266.65947 308.00427,266.65947 L308.00427,260.14058 L323.51018,256.80949" id="Fill-165" fill="#584086"></path>
                <path d="M316.16214,362.85053 C315.95445,363.36734 312.38025,367.71917 308.80605,368.80592 C307.2524,369.27926 306.2059,369.34044 305.52326,369.25994 C304.83579,369.17783 304.41075,368.46943 304.64259,367.81738 C305.25761,366.08502 307.02056,362.48023 311.49958,360.25843 C317.55962,357.25417 316.16214,362.85053 316.16214,362.85053" id="Fill-166" fill="#263764"></path>
                <path d="M317.35193,364.52171 C317.35193,364.52171 316.00597,367.68053 315.5922,370.32254 C315.33782,371.93415 316.22332,374.02715 316.95104,375.41497 C317.40345,376.27471 318.54816,376.46952 319.26944,375.81586 C320.43669,374.75648 321.92433,372.91464 322.16905,370.27102 C322.58443,365.81454 322.16905,365.03852 322.16905,365.03852 L317.35193,364.52171" id="Fill-167" fill="#263764"></path>
                <path d="M325.96382,310.67687 C325.96382,310.67687 326.42911,316.29738 325.96382,322.51359 C325.49692,328.72819 323.82896,357.79835 323.51662,364.79219 C323.51662,364.79219 323.67279,366.90934 319.57373,366.44244 C315.47467,365.97715 315.80472,363.62655 315.80472,363.62655 C315.80472,363.62655 310.04897,363.54766 309.86865,360.15539 C309.68672,356.76151 303.97283,319.63974 303.97283,306.29445 L325.96382,310.67687" id="Fill-168" fill="#7BA2B9"></path>
                <path d="M301.8428,281.6212 L299.02369,285.99074 L289.32827,297.70027 C289.32827,297.70027 289.66154,298.78702 290.86904,299.07038 C291.8125,299.29256 299.96393,291.51465 303.48661,288.10145 C304.42202,287.19341 304.57819,285.75085 303.85691,284.6641 L301.8428,281.6212" id="Fill-169" fill="#F3BCA9"></path>
                <path d="M307.34417,263.693706 C307.34417,263.693706 302.86515,263.57632 301.30506,270.05174 C299.74658,276.52555 298.5262,284.63351 299.88343,285.30649 C303.95351,287.32865 306.53112,284.96356 306.53112,284.96356 L307.34417,263.693706" id="Fill-170" fill="#6C498C"></path>
                <path d="M306.00304,263.96916 C306.76779,263.64877 307.62592,263.60691 308.42126,263.83714 C312.24018,264.93194 326.59011,269.14209 328.95359,271.16425 C331.68737,273.50036 324.85614,286.62508 324.95435,290.92861 C325.05256,295.23214 325.53878,300.30525 325.91874,304.9823 C326.2987,309.65935 326.81229,312.22408 322.98693,314.21404 C319.15996,316.20239 312.62819,316.29577 307.73862,312.56862 C302.84744,308.84308 303.73455,306.29284 303.93902,303.58804 C304.14188,300.88163 305.80662,289.18337 305.66333,285.86194 C305.66333,285.86194 303.93902,284.59326 302.6639,282.41654 C301.38717,280.23982 303.64278,276.23897 304.57819,273.6356 C305.5136,271.03545 304.05011,268.06178 304.3383,265.93819 C304.48803,264.845 305.18677,264.30887 306.00304,263.96916" id="Fill-171" fill="#734F8F"></path>
                <path d="M310.59154,268.44335 C310.28886,270.80844 312.45753,273.03185 315.43442,273.41342 C318.41131,273.79499 321.07264,272.18821 321.37371,269.82473 C321.678,267.46125 319.50933,265.23623 316.53244,264.85305 C313.55394,264.47309 310.89583,266.07987 310.59154,268.44335" id="Fill-172" fill="#FFFFFE"></path>
                <path d="M312.12909,268.63977 C311.91335,270.33027 313.46217,271.92095 315.5922,272.19304 C317.72062,272.46513 319.61881,271.3172 319.83616,269.6267 C320.05351,267.93781 318.50308,266.34713 316.37466,266.07504 C314.24785,265.80134 312.34644,266.95088 312.12909,268.63977" id="Fill-173" fill="#F3BCA9"></path>
                <path d="M314.24624,263.09332 C314.24624,263.09332 316.83512,260.96168 317.34388,262.04199 C317.85264,263.12069 318.27285,267.75105 318.27285,267.75105 L313.12729,269.13404 L313.90975,264.4425 C313.90975,264.4425 312.87935,263.56988 314.24624,263.09332" id="Fill-174" fill="#F3BCA9"></path>
                <path d="M306.20429,258.0186 C306.45545,262.2529 310.09083,265.48417 314.32513,265.23462 C318.55943,264.98346 321.7907,261.34808 321.54115,257.11378 C321.2916,252.87787 317.65461,249.64821 313.42031,249.89776 C309.1844,250.14892 305.95474,253.78269 306.20429,258.0186" id="Fill-175" fill="#F3BCA9"></path>
                <path d="M317.70291,263.38312 C317.74799,263.62623 317.79307,263.88544 317.83332,264.15109 C317.31812,266.82208 313.31727,267.99255 313.31727,267.99255 L313.90975,264.4425 C313.90975,264.4425 313.42353,264.03195 313.56199,263.61979 C315.1414,263.12069 317.13458,262.67955 317.70291,263.38312" id="Fill-176" fill="#E09689"></path>
                <path d="M306.20429,258.0186 C306.45545,262.2529 310.09083,265.48417 314.32513,265.23462 C318.55943,264.98346 321.7907,261.34808 321.54115,257.11378 C321.2916,252.87787 317.65461,249.64821 313.42031,249.89776 C309.1844,250.14892 305.95474,253.78269 306.20429,258.0186" id="Fill-177" fill="#F3BCA9"></path>
                <polyline id="Fill-178" fill="#F3BCA9" points="332.79827 290.08014 331.93853 310.63501 328.93427 310.94413 326.97812 292.4404 332.79827 290.08014"></polyline>
                <path d="M322.92253,288.36227 C323.08514,287.64743 324.40051,287.05656 324.60176,286.12437 C325.63377,281.33623 325.88171,274.27638 325.88171,274.27638 L326.72213,283.92028 C325.75291,286.78125 324.91893,289.40555 324.95435,290.92861 C325.01231,293.4547 325.2039,296.24483 325.4293,299.06555 L325.4293,299.07521 C325.4293,299.07521 321.92755,292.75113 322.92253,288.36227" id="Fill-179" fill="#6C498C"></path>
                <path d="M328.38043,270.74404 C328.38043,270.74404 330.78255,271.66174 332.143,279.04359 C333.50345,286.42383 334.51936,293.81695 332.09631,294.76846 C329.67165,295.72158 327.64627,296.43964 326.93143,294.46417 C326.21981,292.49031 325.77867,282.97843 325.68851,279.55718 C325.59835,276.13593 325.46794,271.41863 328.38043,270.74404" id="Fill-180" fill="#865E98"></path>
                <path d="M290.04794,296.84375 C290.04794,296.84375 288.74706,297.32192 287.80682,298.34588 C287.03402,299.18791 286.6122,299.89953 286.27571,300.40185 C285.52706,301.5208 284.89433,303.93419 285.34996,304.23365 C285.8072,304.53472 288.41862,300.19416 288.83722,301.20363 C289.25904,302.21149 288.834,303.1469 289.37335,303.16139 C289.91431,303.17588 291.78996,298.79668 293.26472,297.43945 C294.73948,296.08222 290.04794,296.84375 290.04794,296.84375" id="Fill-181" fill="#F3BCA9"></path>
                <path d="M315.80472,363.62655 C315.80472,363.62655 315.09149,363.61528 314.16091,363.45589 L313.03391,318.26802 L315.80472,363.62655" id="Fill-182" fill="#3B6397"></path>
                <path d="M320.15494,339.21734 L321.75367,337.13078 L338.56851,327.39511 C339.10786,327.08277 339.54256,326.24557 339.54256,325.52751 L339.52968,311.7604 L340.49407,310.49816 L339.58764,309.9733 L339.58603,309.9733 C339.41054,309.8606 339.18031,309.86382 338.92754,310.01033 L319.86997,321.04527 C319.33223,321.356 318.89431,322.1932 318.895916,322.91287 L318.91202,337.90358 C318.91202,338.3093 319.05048,338.59105 319.26944,338.70375 L320.15494,339.21734" id="Fill-183" fill="#734F8F"></path>
                <path d="M331.78236,331.32351 L332.97698,330.63121 L339.53612,319.24207 L339.52968,311.7604 L340.49407,310.49816 L339.58764,309.9733 L339.58603,309.9733 C339.41054,309.8606 339.18031,309.86382 338.92754,310.01033 L319.86997,321.04527 C319.585,321.20949 319.33062,321.52183 319.15191,321.88408 L331.78236,331.32351" id="Fill-184" fill="#B699BC"></path>
                <path d="M340.06742,311.05844 L340.49407,310.49816 L339.58764,309.9733 L339.58603,309.9733 C339.41054,309.8606 339.18031,309.86382 338.92754,310.01033 L338.59105,310.20514 L340.06742,311.05844" id="Fill-185" fill="#B699BC"></path>
                <path d="M319.69609,321.16602 C319.27427,321.51378 318.94583,322.16744 318.90075,322.77119 L320.76191,323.84667 L321.65546,322.29624 L319.69609,321.16602" id="Fill-186" fill="#734F8F"></path>
                <path d="M320.77801,321.57013 L339.83397,310.5368 C340.37332,310.22446 340.81124,310.55451 340.81285,311.27418 L340.827344,326.2665 C340.82895,326.98617 340.39264,327.82337 339.85329,328.1341 L320.79733,339.16743 C320.25798,339.47977 319.82006,339.14972 319.82006,338.43005 L319.803956,323.43773 C319.80235,322.71806 320.23866,321.88247 320.77801,321.57013" id="Fill-187" fill="#865E98"></path>
                <path d="M331.91438,310.46274 C331.91438,310.46274 332.70811,315.26054 332.58897,316.79809 C332.46983,318.33403 331.64712,320.86817 331.02244,320.81504 C330.39937,320.76191 331.00312,314.63586 329.9051,315.24605 C328.80869,315.85624 328.69438,316.90274 328.1985,316.53244 C327.70101,316.16375 329.06468,310.92803 328.70082,308.65632 C328.33696,306.38622 331.91438,310.46274 331.91438,310.46274" id="Fill-188" fill="#F3BCA9"></path>
                <path d="M310.92159,258.23595 C307.07047,259.60606 306.32021,258.77047 306.28157,258.72539 C306.24776,258.49194 306.21878,258.25849 306.20429,258.0186 C306.15438,257.16852 306.25098,256.3442 306.46189,255.56496 L316.45838,254.21578 C316.45838,254.21578 314.87897,256.83203 310.92159,258.23595" id="Fill-189" fill="#E09689"></path>
                <path d="M305.92898,250.36627 C306.83541,249.58864 310.11337,245.73913 315.98343,246.64717 C319.65262,247.21389 322.74543,249.71744 323.43129,255.4265 C323.89336,259.2744 322.48139,263.06273 319.88124,265.86413 L319.46264,265.65161 C317.99271,264.68561 317.83332,264.1527 317.83493,264.14787 L317.50971,261.23377 C317.51937,260.82 317.82849,260.45292 318.24226,260.42716 C318.56104,260.40784 318.94744,260.25489 319.31774,259.77189 C320.15977,258.66904 319.77176,256.94956 318.08448,256.88516 C317.20381,256.85135 316.8641,256.37479 316.73691,255.92721 C316.62904,255.53759 316.21849,255.32024 315.83853,255.4587 C313.91941,256.15261 309.19245,257.64991 306.14955,256.78856 C302.25818,255.68571 305.01933,251.14551 305.92898,250.36627" id="Fill-190" fill="#263764"></path>
                <path d="M310.30496,261.7055 L307.95436,261.0615 C307.95436,261.0615 309.07814,262.82606 310.7139,263.27525 C312.35288,263.72444 312.60726,262.33823 312.60726,262.33823 L310.30496,261.7055" id="Fill-191" fill="#FFFFFE"></path>
                <polyline id="Fill-192" fill="#B699BC" points="327.91997 316.38432 329.9212 315.238 329.16933 316.46643 328.15664 316.83834 327.91997 316.38432"></polyline>
                <polyline id="Fill-193" fill="#D4EAF2" points="3.9445 392.65807 19.02054 383.9528 34.09819 392.65807 19.02054 401.36173 3.9445 392.65807"></polyline>
                <polyline id="Fill-194" fill="#AF3C2B" points="19.02054 392.65807 19.02054 346.23211 3.9445 337.52845 3.9445 383.9528 19.02054 392.65807"></polyline>
                <polyline id="Fill-195" fill="#5F4388" points="19.02054 346.23211 34.09819 337.52845 34.09819 383.9528 19.02054 392.65807 19.02054 346.23211"></polyline>
                <polyline id="Fill-196" fill="#865E98" points="19.02054 392.65807 19.02054 346.23211 3.9445 337.52845 3.9445 383.9528 19.02054 392.65807"></polyline>
                <polyline id="Fill-197" fill="#6C498C" points="3.9445 337.52845 19.02054 328.82479 34.09819 337.52845 19.02054 346.23211 3.9445 337.52845"></polyline>
                <polyline id="Fill-198" fill="#D4EAF2" points="309.65613 427.47754 324.73217 418.77388 339.80982 427.47754 324.73217 436.18281 309.65613 427.47754"></polyline>
                <polyline id="Fill-199" fill="#3160DE" points="324.73217 427.47754 324.73217 401.36334 309.65613 392.65968 309.65613 418.77388 324.73217 427.47754"></polyline>
                <polyline id="Fill-200" fill="#2951BC" points="324.73217 401.36334 339.80982 392.65968 339.80982 418.77388 324.73217 427.47754 324.73217 401.36334"></polyline>
                <polyline id="Fill-201" fill="#3368F5" points="309.65613 392.65968 324.73217 383.95602 339.80982 392.65968 324.73217 401.36334 309.65613 392.65968"></polyline>
                <path d="M181.22804,369.80734 C189.67088,374.68242 203.36071,374.68242 211.80355,369.80734 C220.24639,364.93387 220.24639,357.02877 211.80355,352.1553 C203.36071,347.28022 189.67249,347.28022 181.22804,352.1553 C172.7852,357.02877 172.7852,364.93387 181.22804,369.80734" id="Fill-202" fill="#D4EAF2"></path>
                <path d="M183.26791,354.36583 C181.76256,355.00822 180.81427,356.68745 180.93985,358.49387 C180.99942,359.34395 181.10085,360.13768 181.27956,360.50959 C181.75934,361.51584 183.32909,362.89722 185.83586,361.90707 C188.34263,360.91531 193.91001,355.68281 194.11931,352.25834 C194.50893,345.89723 187.23495,352.6705 183.26791,354.36583" id="Fill-203" fill="#263764"></path>
                <path d="M197.9978,364.88557 C197.9978,364.88557 197.39727,368.55476 197.68868,369.22613 C197.9817,369.8975 199.72694,371.33201 202.30294,371.02289 C204.88216,370.71216 212.29782,368.15387 213.95129,363.26752 C216.51119,355.68925 199.63356,363.83585 199.63356,363.83585 L197.9978,364.88557" id="Fill-204" fill="#263764"></path>
                <path d="M205.24441,306.25581 L205.81918,363.51063 C205.75961,365.50059 204.4539,367.18304 202.70061,367.47928 C202.48487,367.5147 202.25142,367.54529 202.00348,367.56622 C200.22765,367.72239 199.19403,366.95925 198.60155,366.15908 C198.12499,365.51186 197.87222,364.68915 197.8368,363.84873 L197.10586,339.40732 L193.4576,317.5564 L188.40864,356.23021 C188.32814,357.27832 187.82743,358.24432 187.02082,358.77723 C186.46376,359.14592 185.71028,359.4325 184.71852,359.40191 C183.27596,359.35844 182.27132,358.58403 181.65952,357.89334 C181.1733,357.34755 180.91892,356.59568 180.92858,355.82288 L182.92981,332.55355 L183.67524,302.87159 L205.24441,306.25581" id="Fill-205" fill="#7BA2B9"></path>
                <path d="M197.83197,255.00951 L196.925508,260.22591 C196.925508,260.22591 196.89334,262.00657 198.88008,262.49762 C200.86843,262.99189 201.48184,261.70872 201.48184,261.70872 L202.38022,255.83383 L197.83197,255.00951" id="Fill-206" fill="#F3BCA9"></path>
                <path d="M208.7848,252.15176 C207.37444,256.62112 203.00812,259.21322 199.03303,257.94454 C195.05633,256.67586 192.97782,252.02457 194.38979,247.5536 C195.80015,243.08424 200.16647,240.49214 204.14156,241.76082 C208.11665,243.03111 210.19516,247.68079 208.7848,252.15176" id="Fill-207" fill="#F3BCA9"></path>
                <path d="M198.06703,260.3209 C197.93018,260.26616 189.63546,254.92418 186.57002,260.5141 C181.56936,269.6267 185.22728,280.07399 183.44179,302.7605 C183.14555,306.55849 188.55193,308.87045 191.10861,310.33072 C193.38193,311.6316 195.92895,312.42694 198.54842,312.448011 C201.14052,312.4688 206.11059,310.16489 205.93027,306.77584 C205.10112,291.19265 206.47767,278.05666 207.75118,265.31029 C207.75118,265.31029 206.1605,263.59725 198.06703,260.3209" id="Fill-208" fill="#734F8F"></path>
                <path d="M193.4576,317.55479 L188.40864,356.23021 C188.32814,357.27832 187.82743,358.24432 187.02082,358.77723 C186.89041,358.86417 186.7439,358.94628 186.59095,359.02195 C187.63906,358.23466 190.69806,325.77223 191.26478,322.161 C191.82989,318.54816 193.4576,317.55479 193.4576,317.55479" id="Fill-209" fill="#3B6397"></path>
                <polyline id="Fill-210" fill="#F3BCA9" points="224.59178 262.04038 229.09817 247.2799 226.71698 246.29297 221.40559 257.86082 224.59178 262.04038"></polyline>
                <polyline id="Fill-211" fill="#F3BCA9" points="179.15758 250.40652 182.53697 235.03907 185.22728 235.06644 184.2162 247.81281 179.15758 250.40652"></polyline>
                <path d="M207.75118,265.31029 C207.75118,265.31029 215.84787,266.92512 220.99826,257.49535 C221.45228,256.66459 222.65495,256.54223 223.13473,257.26995 C223.95905,258.52897 225.05385,260.45614 224.48713,262.53948 C221.98036,271.75512 208.3662,273.79016 205.92061,279.13375 C203.47663,284.47895 207.75118,265.31029 207.75118,265.31029" id="Fill-212" fill="#734F8F"></path>
                <path d="M192.80716,258.405 C192.80716,258.405 186.39292,258.89927 185.47039,253.34799 C184.99544,250.48863 184.85215,248.78364 184.82639,247.79993 C184.80707,247.13339 184.23069,246.62946 183.56898,246.71157 C182.03143,246.90155 179.65507,247.3604 179.33307,248.38919 C178.85007,249.92674 177.94364,257.46476 184.27899,269.02939 C188.42796,276.60605 192.80716,258.405 192.80716,258.405" id="Fill-213" fill="#734F8F"></path>
                <path d="M182.52248,235.0761 L182.58366,233.32281 C182.6062,232.70618 182.78652,232.10404 183.10691,231.57274 L184.88435,228.65542 L185.34803,228.0726 C185.77629,227.53325 186.53943,227.40284 187.12386,227.76831 L187.53119,228.02591 C188.05283,228.35274 188.35229,228.94039 188.31365,229.55541 L187.39434,232.04769 L188.55515,231.82229 C188.78216,231.77721 188.99951,231.92694 189.03976,232.15395 C189.07518,232.34715 188.96892,232.53713 188.7886,232.60958 L186.89041,233.37594 L185.16771,235.81509 L182.52248,235.0761" id="Fill-214" fill="#F3BCA9"></path>
                <path d="M229.16418,247.35718 L229.70192,245.68761 C229.89029,245.09996 229.92732,244.47045 229.80174,243.86348 L229.12393,240.51629 L228.88565,239.81111 C228.66508,239.15745 227.99049,238.77427 227.31751,238.92239 L226.84578,239.02382 C226.24525,239.15584 225.76547,239.60664 225.5932,240.19751 L225.61091,242.85401 L224.595,242.24704 C224.39697,242.12951 224.14098,242.19552 224.02506,242.39516 C223.92846,242.56582 223.96227,242.77834 224.10717,242.90875 L225.63345,244.27403 L226.52378,247.51013 L229.16418,247.35718" id="Fill-215" fill="#F3BCA9"></path>
                <path d="M203.95802,276.47564 C203.22064,279.84215 205.2911,305.97728 198.54842,312.448011 C201.14052,312.4688 206.11059,310.16489 205.93027,306.77584 C205.37482,296.32533 205.81757,286.98572 206.54851,278.11784 C209.19374,274.69176 216.46611,272.5086 221.01758,268.11652 C220.68592,268.21795 204.68896,273.14294 203.95802,276.47564" id="Fill-216" fill="#5F4388"></path>
                <path d="M195.08531,258.84775 L196.23807,257.6644 C196.23807,257.6644 198.13143,259.60123 199.65449,259.93611 C199.65449,259.93611 201.48506,260.45453 202.38022,260.49961 L203.12243,262.54431 C203.12243,262.54431 197.08976,262.11122 195.08531,258.84775" id="Fill-217" fill="#FFFFFE"></path>
                <path d="M203.37359,252.29022 C203.69237,252.28539 203.987,252.14049 204.16893,251.87967 C204.48288,251.42404 204.28485,249.32782 205.25407,248.98006 C206.7723,248.4391 210.36904,250.33729 210.75383,244.8649 C210.95347,242.02325 209.56887,241.26655 209.57531,239.70807 C209.57531,239.70807 209.69445,240.49053 202.377,240.0027 C195.05955,239.51648 192.68158,246.01444 192.5077,249.11047 C192.33382,252.20489 193.83273,257.2941 198.83339,257.99284 C199.66254,258.10876 203.14658,255.30897 203.05642,254.94028 C202.96465,254.5732 201.65089,254.59413 201.84087,253.52509 C202.00026,252.63476 202.54283,252.30471 203.37359,252.29022" id="Fill-218" fill="#263764"></path>
                <path d="M175.85869,102.36058 L137.27343,80.08301 C136.51029,79.64026 135.8196,79.62416 135.27864,79.92201 L135.28025,79.89625 L131.53861,82.05848 C131.53861,82.05848 133.1953,82.66384 134.16935,83.02126 L134.16935,111.12059 C134.16935,113.40679 135.55878,116.06168 137.27343,117.05344 L174.15531,138.34569 L174.15531,141.64297 L177.9372,139.46625 L177.91627,139.45981 C178.55383,139.06858 178.96438,138.21367 178.96438,136.98363 L178.96438,108.29182 C178.96438,106.00562 177.57495,103.35073 175.85869,102.36058" id="Fill-219" fill="#2951BC"></path>
                <path d="M172.04782,141.52866 L133.46256,119.24948 C131.74791,118.26094 130.35848,115.60283 130.35848,113.31663 L130.35848,84.62643 C130.35848,82.34023 131.74791,81.2889 133.46256,82.27905 L172.04782,104.55662 C173.76408,105.54677 175.15351,108.20166 175.15351,110.48786 L175.15351,139.18128 C175.15351,141.46748 173.76408,142.5172 172.04782,141.52866" id="Fill-220" fill="#3368F5"></path>
                <path d="M172.04782,104.55662 L133.46256,82.27905 C132.4869,81.71555 131.62877,81.83147 131.05883,82.44005 C131.4726,82.40463 131.93467,82.50284 132.42894,82.78781 L171.01581,105.06699 C172.72885,106.05553 174.11989,108.71203 174.11989,110.99823 L174.11989,139.69004 C174.11989,140.67536 173.84941,141.41435 173.41793,141.87642 C174.4435,141.79109 175.15351,140.80738 175.15351,139.18128 L175.15351,110.48786 C175.15351,108.20166 173.76408,105.54677 172.04782,104.55662" id="Fill-221" fill="#FFFFFE"></path>
                <path d="M146.43755,109.36247 C146.43755,111.02238 145.27191,111.69536 143.83579,110.86621 C142.39645,110.03545 141.23242,108.01651 141.23242,106.3566 C141.23242,104.69669 142.39645,104.02371 143.83579,104.85286 C145.27191,105.68362 146.43755,107.70256 146.43755,109.36247" id="Fill-222" fill="#FFFFFE"></path>
                <path d="M154.32494,113.91555 C154.32494,115.57707 153.1593,116.25005 151.72157,115.41929 C150.28384,114.58853 149.1182,112.56959 149.1182,110.90968 C149.1182,109.24977 150.28384,108.57679 151.72157,109.40755 C153.1593,110.2367 154.32494,112.25564 154.32494,113.91555" id="Fill-223" fill="#FFFFFE"></path>
                <path d="M162.21233,118.46863 C162.21233,120.13015 161.04669,120.80313 159.60896,119.97237 C158.17123,119.14161 157.00559,117.12428 157.00559,115.46276 C157.00559,113.80285 158.17123,113.12987 159.60896,113.96063 C161.04669,114.78978 162.21233,116.80872 162.21233,118.46863" id="Fill-224" fill="#FFFFFE"></path>
            </g>
        </g>
    </g>
</svg>