<?xml version="1.0" encoding="UTF-8"?>
<svg width="65px" height="65px" viewBox="0 0 65 65" version="1.1" xmlns="http://www.w3.org/2000/svg" xmlns:xlink="http://www.w3.org/1999/xlink">
    <!-- Generator: sketchtool 57.1 (101010) - https://sketch.com -->
    <title>BB654D43-2FE3-44A7-904C-9B0C3D6075DB</title>
    <desc>Created with sketchtool.</desc>
    <g id="Screens_v2" stroke="none" stroke-width="1" fill="none" fill-rule="evenodd">
        <g id="About" transform="translate(-687.000000, -1058.000000)" fill-rule="nonzero">
            <g id="Team" transform="translate(135.000000, 828.000000)">
                <g id="Cards" transform="translate(0.000000, 182.000000)">
                    <g id="Card_2" transform="translate(400.000000, 0.000000)">
                        <g id="002-explain" transform="translate(152.000000, 48.000000)">
                            <path d="M64.48,0 L12.48,0 L12.48,10.4 C8.4656,10.4 5.2,13.6656 5.2,17.68 C5.2,20.00648 6.30032,22.07504 8.00384,23.40936 C3.3696,24.8716 0,29.20944 0,34.32 L0,41.6 C0,43.89424 1.86576,45.76 4.16,45.76 L5.2,45.76 L5.2,60.32 C5.2,62.61424 7.06576,64.48 9.36,64.48 C10.608,64.48 11.71664,63.91632 12.48,63.04272 C13.24336,63.91632 14.352,64.48 15.6,64.48 C17.89424,64.48 19.76,62.61424 19.76,60.32 L19.76,41.6 L24.96,41.6 L24.96,57.2 C24.96,58.92016 26.35984,60.32 28.08,60.32 L53.04,60.32 C54.76016,60.32 56.16,58.92016 56.16,57.2 L56.16,41.6 L64.48,41.6 L64.48,0 Z M62.4,2.08 L62.4,8.32 L14.56,8.32 L14.56,2.08 L62.4,2.08 Z M7.28,17.68 C7.28,14.81272 9.61272,12.48 12.48,12.48 C15.34728,12.48 17.68,14.81272 17.68,17.68 C17.68,20.54728 15.34728,22.88 12.48,22.88 C9.61272,22.88 7.28,20.54728 7.28,17.68 Z M13.4836,32.88584 L12.48,33.88944 L11.4764,32.88584 L12.1368,24.96 L12.48,24.96 L12.8232,24.96 L13.4836,32.88584 Z M17.68,34.59456 L17.68,60.32 C17.68,61.46712 16.74712,62.4 15.6,62.4 C14.45288,62.4 13.52,61.46712 13.52,60.32 L13.52,41.6 L11.44,41.6 L11.44,60.32 C11.44,61.46712 10.50712,62.4 9.36,62.4 C8.21288,62.4 7.28,61.46712 7.28,60.32 L7.28,32.24 L5.2,32.24 L5.2,43.68 L4.16,43.68 C3.01288,43.68 2.08,42.74712 2.08,41.6 L2.08,34.32 C2.08,29.63584 5.54216,25.7556 10.04016,25.07648 L9.3236,33.67416 L12.48,36.83056 L15.6364,33.67416 L14.91048,24.96 L17.99408,24.96 C19.34192,24.96 20.66064,24.58664 21.8088,23.87944 L33.2384,16.84592 C33.45784,16.71072 33.71056,16.64 33.96848,16.64 C34.73496,16.64 35.36,17.26504 35.36,18.03152 L35.36,18.43712 C35.36,18.91136 35.12184,19.34816 34.72456,19.60608 L21.00592,28.48352 C18.9228,29.83032 17.68,32.1152 17.68,34.59456 Z M54.08,57.2 C54.08,57.77304 53.61304,58.24 53.04,58.24 L28.08,58.24 C27.50696,58.24 27.04,57.77304 27.04,57.2 L27.04,38.48 C27.04,37.90696 27.50696,37.44 28.08,37.44 L53.04,37.44 C53.61304,37.44 54.08,37.90696 54.08,38.48 L54.08,57.2 Z M56.16,39.52 L56.16,38.48 C56.16,36.75984 54.76016,35.36 53.04,35.36 L28.08,35.36 C26.35984,35.36 24.96,36.75984 24.96,38.48 L24.96,39.52 L19.76,39.52 L19.76,34.59456 C19.76,32.82344 20.64816,31.19168 22.13536,30.22864 L35.854,21.35224 C36.36152,21.02464 36.75984,20.57744 37.03232,20.06368 L38.92616,22.33608 C38.64952,22.802 38.48,23.33968 38.48,23.92 C38.48,25.64016 39.87984,27.04 41.6,27.04 C42.35192,27.04 43.03416,26.76128 43.57288,26.3172 L48.9424,29.53912 C48.90184,29.73984 48.88,29.9468 48.88,30.16 C48.88,31.88016 50.27984,33.28 52,33.28 C53.72016,33.28 55.12,31.88016 55.12,30.16 C55.12,29.1876 54.66344,28.32752 53.96352,27.75552 L57.19064,18.71896 C57.19376,18.71896 57.19688,18.72 57.2,18.72 C58.92016,18.72 60.32,17.32016 60.32,15.6 C60.32,13.87984 58.92016,12.48 57.2,12.48 C55.47984,12.48 54.08,13.87984 54.08,15.6 C54.08,16.5724 54.53656,17.43248 55.23648,18.00448 L52.00936,27.04104 C52.00624,27.04104 52.00312,27.04 52,27.04 C51.24808,27.04 50.56584,27.31872 50.02712,27.7628 L44.6576,24.54088 C44.69816,24.34016 44.72,24.1332 44.72,23.92 C44.72,22.19984 43.32016,20.8 41.6,20.8 C41.2204,20.8 40.86056,20.878 40.52256,21.0028 L37.31208,17.15064 C36.92,15.66448 35.57632,14.56 33.96848,14.56 C33.32576,14.56 32.69656,14.73784 32.14952,15.0748 L20.71992,22.10832 C19.89936,22.61376 18.95712,22.88 17.99408,22.88 L17.5656,22.88 C18.9176,21.55712 19.76,19.71632 19.76,17.68 C19.76,14.3884 17.56352,11.60432 14.56,10.7068 L14.56,10.4 L62.4,10.4 L62.4,39.52 L56.16,39.52 Z M41.6,22.88 C42.17304,22.88 42.64,23.34696 42.64,23.92 C42.64,24.49304 42.17304,24.96 41.6,24.96 C41.02696,24.96 40.56,24.49304 40.56,23.92 C40.56,23.34696 41.02696,22.88 41.6,22.88 Z M52,29.12 C52.57304,29.12 53.04,29.58696 53.04,30.16 C53.04,30.73304 52.57304,31.2 52,31.2 C51.42696,31.2 50.96,30.73304 50.96,30.16 C50.96,29.58696 51.42696,29.12 52,29.12 Z M56.16,15.6 C56.16,15.02696 56.62696,14.56 57.2,14.56 C57.77304,14.56 58.24,15.02696 58.24,15.6 C58.24,16.17304 57.77304,16.64 57.2,16.64 C56.62696,16.64 56.16,16.17304 56.16,15.6 Z" id="Shape" fill="#29292A"></path>
                            <polygon id="Path" fill="#000000" points="16.64 4.16 18.72 4.16 18.72 6.24 16.64 6.24"></polygon>
                            <polygon id="Path" fill="#000000" points="20.8 4.16 22.88 4.16 22.88 6.24 20.8 6.24"></polygon>
                            <polygon id="Path" fill="#000000" points="24.96 4.16 27.04 4.16 27.04 6.24 24.96 6.24"></polygon>
                            <path d="M45.76,54.08 L43.68,54.08 L43.68,45.76 L37.44,45.76 L37.44,54.08 L35.36,54.08 L35.36,43.68 L29.12,43.68 L29.12,56.16 L52,56.16 L52,39.52 L45.76,39.52 L45.76,54.08 Z M33.28,54.08 L31.2,54.08 L31.2,45.76 L33.28,45.76 L33.28,54.08 Z M39.52,47.84 L41.6,47.84 L41.6,54.08 L39.52,54.08 L39.52,47.84 Z M47.84,41.6 L49.92,41.6 L49.92,54.08 L47.84,54.08 L47.84,41.6 Z" id="Shape" fill="#000000"></path>
                            <polygon id="Path" fill="#000000" points="58.24 35.36 60.32 35.36 60.32 37.44 58.24 37.44"></polygon>
                            <polygon id="Path" fill="#000000" points="58.24 31.2 60.32 31.2 60.32 33.28 58.24 33.28"></polygon>
                            <polygon id="Path" fill="#000000" points="58.24 27.04 60.32 27.04 60.32 29.12 58.24 29.12"></polygon>
                        </g>
                    </g>
                </g>
            </g>
        </g>
    </g>
</svg>