<?xml version="1.0" encoding="UTF-8"?>
<svg width="67px" height="64px" viewBox="0 0 67 64" version="1.1" xmlns="http://www.w3.org/2000/svg" xmlns:xlink="http://www.w3.org/1999/xlink">
    <!-- Generator: sketchtool 57.1 (101010) - https://sketch.com -->
    <title>AD2A3118-1993-4104-A602-BB8C0CB053F2</title>
    <desc>Created with sketchtool.</desc>
    <g id="Screens_v2" stroke="none" stroke-width="1" fill="none" fill-rule="evenodd">
        <g id="About" transform="translate(-1087.000000, -1058.000000)" fill="#29292A" fill-rule="nonzero">
            <g id="Team" transform="translate(135.000000, 828.000000)">
                <g id="Cards" transform="translate(0.000000, 182.000000)">
                    <g id="Card_3" transform="translate(800.000000, 0.000000)">
                        <g id="agent" transform="translate(152.000000, 48.000000)">
                            <path d="M9.36,44.72104 C4.19848,44.72104 0,48.91952 0,54.08104 C0,54.65616 0.46488,55.12104 1.04,55.12104 C1.61512,55.12104 2.08,54.65616 2.08,54.08104 C2.08,50.06768 5.34664,46.80104 9.36,46.80104 C9.93512,46.80104 10.4,46.33616 10.4,45.76104 C10.4,45.18592 9.93512,44.72104 9.36,44.72104 Z" id="Path"></path>
                            <path d="M15.6,44.72208 L9.36,44.72104 C8.78592,44.72104 8.32,45.18592 8.32,45.76104 C8.32,46.33512 8.78488,46.80104 9.36,46.80104 L15.6,46.80208 C16.17408,46.80208 16.64,46.3372 16.64,45.76208 C16.64,45.188 16.17512,44.72208 15.6,44.72208 Z" id="Path"></path>
                            <path d="M36.4,44.72208 L30.16,44.72 C29.58592,44.72 29.12,45.18488 29.12,45.76 C29.12,46.33408 29.58488,46.8 30.16,46.8 L36.4,46.80208 C36.97408,46.80208 37.44,46.3372 37.44,45.76208 C37.44,45.188 36.97512,44.72208 36.4,44.72208 Z" id="Path"></path>
                            <path d="M2.08,54.08104 C2.08,53.50592 1.61408,53.04104 1.04,53.04104 C0.46488,53.04104 0,53.50696 0,54.08104 L0.00104,61.36 C0.00104,61.93512 0.46696,62.4 1.04104,62.4 C1.61616,62.4 2.08104,61.93408 2.08104,61.36 L2.08,54.08104 Z" id="Path"></path>
                            <path d="M2.08104,61.36208 L2.08104,61.36 C2.08104,60.78488 1.61616,60.32 1.04104,60.32 C0.46592,60.32 0.00104,60.78488 0.00104,61.36 C0.00104,62.50712 0.93392,63.44 2.08104,63.44 C2.65616,63.44 3.12104,62.97512 3.12104,62.40104 C3.12104,61.82592 2.65616,61.36208 2.08104,61.36208 Z" id="Path"></path>
                            <path d="M39.52,61.36 L2.08104,61.36 C1.50592,61.36 1.04104,61.82488 1.04104,62.4 C1.04104,62.97512 1.50592,63.44 2.08104,63.44 L39.52,63.44 C40.09512,63.44 40.56,62.97512 40.56,62.4 C40.56,61.82488 40.09512,61.36 39.52,61.36 Z" id="Path"></path>
                            <path d="M15.6,38.76184 C15.02488,38.76184 14.56,39.22672 14.56,39.80184 L14.56,45.76208 C14.56,46.3372 15.02488,46.80208 15.6,46.80208 C16.17512,46.80208 16.64,46.3372 16.64,45.76208 L16.64,39.80184 C16.64,39.22672 16.17512,38.76184 15.6,38.76184 Z" id="Path"></path>
                            <path d="M30.16,38.76184 C29.58488,38.76184 29.12,39.22672 29.12,39.80184 L29.12,45.76 C29.12,46.33512 29.58488,46.8 30.16,46.8 C30.73512,46.8 31.2,46.33512 31.2,45.76 L31.2,39.80184 C31.2,39.22672 30.73512,38.76184 30.16,38.76184 Z" id="Path"></path>
                            <path d="M38.48,24.96104 C37.90488,24.96104 37.44,25.42592 37.44,26.00104 C37.44,34.02984 30.9088,40.56104 22.88,40.56104 C14.8512,40.56104 8.32,34.02984 8.32,26.00104 C8.32,25.42592 7.85512,24.96104 7.28,24.96104 C6.70488,24.96104 6.24,25.42592 6.24,26.00104 C6.24,35.17592 13.70512,42.64104 22.88,42.64104 C32.05488,42.64104 39.52,35.17592 39.52,26.00104 C39.52,25.42592 39.05512,24.96104 38.48,24.96104 Z" id="Path"></path>
                            <path d="M7.28,13.52 C6.70488,13.52 6.24,13.98488 6.24,14.56 L6.24,26.00104 C6.24,26.57616 6.70488,27.04104 7.28,27.04104 C7.85512,27.04104 8.32,26.57616 8.32,26.00104 L8.32,14.56 C8.32,13.98488 7.85512,13.52 7.28,13.52 Z" id="Path"></path>
                            <path d="M38.48,12.48208 C37.90488,12.48208 37.44,12.94696 37.44,13.52208 L37.44,26.00104 C37.44,26.57616 37.90488,27.04104 38.48,27.04104 C39.05512,27.04104 39.52,26.57616 39.52,26.00104 L39.52,13.52208 C39.52,12.94696 39.05512,12.48208 38.48,12.48208 Z" id="Path"></path>
                            <path d="M31.2,5.20208 C30.62488,5.20208 30.16,5.66696 30.16,6.24208 C30.16,6.8172 30.62488,7.28208 31.2,7.28208 C34.64136,7.28208 37.44,10.08072 37.44,13.52208 C37.44,14.0972 37.90488,14.56208 38.48,14.56208 C39.05512,14.56208 39.52,14.0972 39.52,13.52208 C39.52,8.93464 35.78744,5.20208 31.2,5.20208 Z" id="Path"></path>
                            <path d="M31.2,0 C30.62488,0 30.16,0.46488 30.16,1.04 L30.16,6.24208 C30.16,6.8172 30.62488,7.28208 31.2,7.28208 C31.77512,7.28208 32.24,6.8172 32.24,6.24208 L32.24,1.04 C32.24,0.46488 31.77512,0 31.2,0 Z" id="Path"></path>
                            <path d="M31.2,0 L20.8,0 C20.22488,0 19.76,0.46488 19.76,1.04 C19.76,1.61512 20.22488,2.08 20.8,2.08 L31.2,2.08 C31.77512,2.08 32.24,1.61512 32.24,1.04 C32.24,0.46488 31.77512,0 31.2,0 Z" id="Path"></path>
                            <path d="M20.8,0 C12.7712,0 6.24,6.5312 6.24,14.56 C6.24,15.13512 6.70488,15.6 7.28,15.6 C7.85512,15.6 8.32,15.13512 8.32,14.56 C8.32,7.67832 13.91832,2.08 20.8,2.08 C21.37512,2.08 21.84,1.61512 21.84,1.04 C21.84,0.46488 21.37512,0 20.8,0 Z" id="Path"></path>
                            <path d="M39.21528,19.02472 L35.05528,14.86472 C34.64864,14.45808 33.99136,14.45808 33.58472,14.86472 C33.17808,15.27136 33.17808,15.92864 33.58472,16.33528 L37.74472,20.49528 C37.94752,20.69808 38.21376,20.8 38.48,20.8 C38.74624,20.8 39.01248,20.69808 39.21528,20.49528 C39.62192,20.08864 39.62192,19.43136 39.21528,19.02472 Z" id="Path"></path>
                            <path d="M35.21128,15.06648 C34.91696,14.5756 34.28256,14.41336 33.78544,14.70768 C33.73552,14.73784 28.74144,17.68 22.88,17.68 C17.01856,17.68 12.02448,14.73784 11.97352,14.70664 C11.47744,14.41232 10.842,14.57456 10.54768,15.06544 C10.25336,15.5584 10.41248,16.19592 10.9044,16.49128 C11.12696,16.6244 16.42576,19.76 22.88,19.76 C29.33424,19.76 34.63304,16.6244 34.85456,16.49232 C35.34648,16.19696 35.5056,15.55944 35.21128,15.06648 Z" id="Path"></path>
                            <path d="M12.17528,14.86472 C11.76864,14.45808 11.11136,14.45808 10.70472,14.86472 L6.54472,19.02472 C6.13808,19.43136 6.13808,20.08864 6.54472,20.49528 C6.74752,20.69808 7.01376,20.8 7.28,20.8 C7.54624,20.8 7.81248,20.69808 8.01528,20.49528 L12.17528,16.33528 C12.58192,15.92864 12.58192,15.27136 12.17528,14.86472 Z" id="Path"></path>
                            <path d="M19.2972,46.97472 L16.1772,44.8968 C15.69672,44.57856 15.05192,44.70752 14.73472,45.18488 C14.41544,45.66328 14.54544,46.30912 15.0228,46.62736 L18.1428,48.70528 C18.32064,48.8228 18.52136,48.88 18.71896,48.88 C19.05488,48.88 19.3856,48.71776 19.58528,48.4172 C19.90456,47.9388 19.77456,47.29296 19.2972,46.97472 Z" id="Path"></path>
                            <path d="M23.80976,45.29408 C23.55184,44.78032 22.9268,44.57336 22.41408,44.8292 L18.25408,46.9092 C17.74032,47.16608 17.53232,47.79112 17.7892,48.30488 C17.97224,48.66992 18.33936,48.88 18.72104,48.88 C18.87704,48.88 19.03616,48.84464 19.18488,48.76976 L23.34488,46.68976 C23.85864,46.43288 24.06664,45.80784 23.80976,45.29408 Z" id="Path"></path>
                            <path d="M31.02528,45.18488 C30.70704,44.70752 30.0612,44.57856 29.5828,44.8968 L26.4628,46.97472 C25.98544,47.29296 25.85544,47.9388 26.17472,48.4172 C26.3744,48.71776 26.70512,48.88 27.04104,48.88 C27.23864,48.88 27.43936,48.8228 27.6172,48.70528 L30.7372,46.62736 C31.21456,46.30912 31.34456,45.66328 31.02528,45.18488 Z" id="Path"></path>
                            <path d="M27.50592,46.91024 L23.34592,44.83024 C22.83216,44.5744 22.20816,44.78136 21.95024,45.29512 C21.69336,45.80888 21.90136,46.43392 22.41512,46.6908 L26.57512,48.7708 C26.72384,48.84464 26.88296,48.88 27.03896,48.88 C27.42064,48.88 27.78776,48.66992 27.9708,48.30592 C28.22768,47.79216 28.01968,47.16712 27.50592,46.91024 Z" id="Path"></path>
                            <path d="M22.9112,50.96 L22.89976,50.96 C22.32568,50.96 21.866,51.42488 21.866,52 C21.866,52.57512 22.33608,53.04 22.9112,53.04 C23.48528,53.04 23.9512,52.57512 23.9512,52 C23.9512,51.42488 23.48528,50.96 22.9112,50.96 Z" id="Path"></path>
                            <path d="M22.9112,56.16 L22.89976,56.16 C22.32568,56.16 21.866,56.62488 21.866,57.2 C21.866,57.77512 22.33608,58.24 22.9112,58.24 C23.48528,58.24 23.9512,57.77512 23.9512,57.2 C23.9512,56.62488 23.48528,56.16 22.9112,56.16 Z" id="Path"></path>
                            <path d="M51.86272,34.84416 C51.57776,34.346 50.94232,34.1692 50.44416,34.45728 L35.88416,42.77728 C35.386,43.06224 35.21232,43.69768 35.49728,44.19584 C35.68864,44.53176 36.03912,44.72 36.40104,44.72 C36.57576,44.72 36.7536,44.67632 36.91584,44.58272 L51.47584,36.26272 C51.974,35.97776 52.14768,35.34232 51.86272,34.84416 Z" id="Path"></path>
                            <path d="M66.03584,42.77728 L51.47584,34.45728 C50.97664,34.1692 50.3412,34.346 50.05728,34.84416 C49.77232,35.34232 49.946,35.97776 50.44416,36.26272 L65.00416,44.58272 C65.1664,44.67632 65.34424,44.72 65.51896,44.72 C65.88088,44.72 66.23136,44.53176 66.42272,44.19584 C66.70768,43.69768 66.534,43.06224 66.03584,42.77728 Z" id="Path"></path>
                            <path d="M51.86272,39.00416 C51.57776,38.506 50.94232,38.33024 50.44416,38.61728 L35.88416,46.93728 C35.386,47.22224 35.21232,47.85768 35.49728,48.35584 C35.68864,48.69176 36.03912,48.88 36.40104,48.88 C36.57576,48.88 36.7536,48.83632 36.91584,48.74272 L51.47584,40.42272 C51.974,40.13776 52.14768,39.50232 51.86272,39.00416 Z" id="Path"></path>
                            <path d="M66.03584,46.93728 L51.47584,38.61728 C50.97664,38.33024 50.3412,38.506 50.05728,39.00416 C49.77232,39.50232 49.946,40.13776 50.44416,40.42272 L65.00416,48.74272 C65.1664,48.83632 65.34424,48.88 65.51896,48.88 C65.88088,48.88 66.23136,48.69176 66.42272,48.35584 C66.70768,47.85768 66.534,47.22224 66.03584,46.93728 Z" id="Path"></path>
                            <path d="M36.4,42.64 C35.82488,42.64 35.36,43.10488 35.36,43.68 L35.36,47.84 C35.36,48.41512 35.82488,48.88 36.4,48.88 C36.97512,48.88 37.44,48.41512 37.44,47.84 L37.44,43.68 C37.44,43.10488 36.97512,42.64 36.4,42.64 Z" id="Path"></path>
                            <path d="M65.52,42.64 C64.94488,42.64 64.48,43.10488 64.48,43.68 L64.48,47.84 C64.48,48.41512 64.94488,48.88 65.52,48.88 C66.09512,48.88 66.56,48.41512 66.56,47.84 L66.56,43.68 C66.56,43.10488 66.09512,42.64 65.52,42.64 Z" id="Path"></path>
                            <path d="M38.48,45.61024 C37.90488,45.61024 37.44,46.07512 37.44,46.65024 L37.44,62.4 C37.44,62.97512 37.90488,63.44 38.48,63.44 C39.05512,63.44 39.52,62.97512 39.52,62.4 L39.52,46.65024 C39.52,46.07512 39.05512,45.61024 38.48,45.61024 Z" id="Path"></path>
                            <path d="M63.44,61.36 L38.48,61.36 C37.90488,61.36 37.44,61.82488 37.44,62.4 C37.44,62.97512 37.90488,63.44 38.48,63.44 L63.44,63.44 C64.01512,63.44 64.48,62.97512 64.48,62.4 C64.48,61.82488 64.01512,61.36 63.44,61.36 Z" id="Path"></path>
                            <path d="M64.47896,46.65024 C64.47896,46.07512 64.01304,45.61024 63.43896,45.61024 C62.86384,45.61024 62.39896,46.07616 62.39896,46.65024 L62.4,62.4 C62.4,62.97512 62.86592,63.44 63.44,63.44 C64.01512,63.44 64.48,62.97408 64.48,62.4 L64.47896,46.65024 Z" id="Path"></path>
                            <path d="M54.08,49.92 L47.84,49.92 C47.26488,49.92 46.8,50.38488 46.8,50.96 L46.8,62.4 C46.8,62.97512 47.26488,63.44 47.84,63.44 L54.08,63.44 C54.65512,63.44 55.12,62.97512 55.12,62.4 L55.12,50.96 C55.12,50.38488 54.65512,49.92 54.08,49.92 Z M53.04,61.36 L48.88,61.36 L48.88,52 L53.04,52 L53.04,61.36 Z" id="Shape"></path>
                            <path d="M49.9512,55.12 L49.93976,55.12 C49.36568,55.12 48.906,55.58488 48.906,56.16 C48.906,56.73512 49.37608,57.2 49.9512,57.2 C50.52528,57.2 50.9912,56.73512 50.9912,56.16 C50.9912,55.58488 50.52528,55.12 49.9512,55.12 Z" id="Path"></path>
                        </g>
                    </g>
                </g>
            </g>
        </g>
    </g>
</svg>