<?xml version="1.0" encoding="UTF-8"?>
<svg width="62px" height="62px" viewBox="0 0 62 62" version="1.1" xmlns="http://www.w3.org/2000/svg" xmlns:xlink="http://www.w3.org/1999/xlink">
    <!-- Generator: sketchtool 57.1 (101010) - https://sketch.com -->
    <title>8AE36DBE-A7D4-450D-9E8B-25622689BB04</title>
    <desc>Created with sketchtool.</desc>
    <g id="Screens_v2" stroke="none" stroke-width="1" fill="none" fill-rule="evenodd">
        <g id="About" transform="translate(-289.000000, -1061.000000)" fill="#29292A" fill-rule="nonzero">
            <g id="Team" transform="translate(135.000000, 828.000000)">
                <g id="Cards" transform="translate(0.000000, 182.000000)">
                    <g id="Card_1">
                        <g id="001-programmer" transform="translate(154.000000, 51.000000)">
                            <path d="M14.88096,39.36384 C16.73376,39.36384 18.24096,37.85664 18.24096,36.00384 C18.24096,34.15104 16.73376,32.64384 14.88096,32.64384 C13.02816,32.64384 11.52096,34.15104 11.52096,36.00384 C11.52096,37.85664 13.02816,39.36384 14.88096,39.36384 L14.88096,39.36384 Z M14.88096,34.56384 C15.67488,34.56384 16.32096,35.20992 16.32096,36.00384 C16.32096,36.79776 15.67488,37.44384 14.88096,37.44384 C14.08704,37.44384 13.44096,36.79776 13.44096,36.00384 C13.44096,35.20992 14.08704,34.56384 14.88096,34.56384 L14.88096,34.56384 Z" id="Shape"></path>
                            <path d="M54.72,60.48 L54.72,56.64 C54.72,56.10912 54.29088,55.68 53.76,55.68 C53.23008,55.68 52.8,55.24992 52.8,54.72 C52.8,54.18912 52.37088,53.76 51.84,53.76 L9.6,53.76 C9.06912,53.76 8.64,54.18912 8.64,54.72 C8.64,55.24992 8.20992,55.68 7.68,55.68 C7.14912,55.68 6.72,56.10912 6.72,56.64 L6.72,60.48 C6.72,61.01088 7.14912,61.44 7.68,61.44 C8.21088,61.44 8.64,61.01088 8.64,60.48 L8.64,57.4224 C9.45408,57.13248 10.09344,56.49312 10.3824,55.68 L51.05664,55.68 C51.34656,56.49408 51.98592,57.13344 52.79904,57.4224 L52.79904,60.48 C52.79904,61.01088 53.22816,61.44 53.75904,61.44 C54.28992,61.44 54.72,61.01088 54.72,60.48 Z" id="Path"></path>
                            <path d="M0.96,50.88 L1.92,50.88 L1.92,60.48 C1.92,61.01088 2.34912,61.44 2.88,61.44 C3.41088,61.44 3.84,61.01088 3.84,60.48 L3.84,50.88 L57.6,50.88 L57.6,60.48 C57.6,61.01088 58.02912,61.44 58.56,61.44 C59.09088,61.44 59.52,61.01088 59.52,60.48 L59.52,50.88 L60.48,50.88 C61.01088,50.88 61.44,50.45088 61.44,49.92 L61.44,46.08 C61.44,45.54912 61.01088,45.12 60.48,45.12 L59.52,45.12 L59.52,39.36 C59.52,35.65536 56.50464,32.64 52.8,32.64 C52.8,32.64 52.8,32.64 52.79904,32.64 L49.92,32.64192 L49.92,31.08192 C53.3568,29.08704 55.67904,25.37664 55.68,21.1248 C55.68,21.12384 55.68,21.12384 55.68,21.12384 L55.68,12.48 C55.68,9.63168 53.59968,7.26528 50.88,6.8064 L50.88,3.84 C50.88,3.30912 50.45088,2.88 49.92,2.88 L42.24,2.88 C42.2352,2.88 42.23136,2.88288 42.22752,2.88288 C36.93984,2.8896 32.64,7.19232 32.64,12.48 L32.64,21.12192 C32.64,25.37472 34.96224,29.08704 38.4,31.08192 L38.4,32.64192 L35.52096,32.64 C35.52,32.64 35.52,32.64 35.52,32.64 C31.81536,32.64 28.8,35.65536 28.8,39.36 L28.8,41.28384 L27.84096,41.28384 L27.84096,27.84384 C27.84096,26.256 26.5488,24.96384 24.96096,24.96384 L4.80096,24.96384 C3.21312,24.96384 1.92096,26.256 1.92096,27.84384 L1.92096,44.16192 C1.92096,44.49984 1.99008,44.81952 2.0976,45.12 L0.96,45.12 C0.42912,45.12 0,45.54912 0,46.08 L0,49.92 C0,50.45088 0.42912,50.88 0.96,50.88 Z M42.24,4.80192 C42.24384,4.80192 42.24576,4.8 42.2496,4.8 L48.96,4.8 L48.96,7.68 C48.96,8.21088 49.38912,8.64 49.92,8.64 C52.03776,8.64 53.76,10.36224 53.76,12.48 L53.76,14.96256 L52.51872,13.72128 C52.50528,13.70784 52.48896,13.704 52.47552,13.69344 C52.42464,13.64736 52.36896,13.61664 52.31136,13.584 C52.25856,13.55424 52.21056,13.5216 52.15488,13.50144 C52.09728,13.48128 52.03968,13.47744 51.98016,13.46784 C51.91776,13.45824 51.85728,13.44672 51.79488,13.44864 C51.73632,13.45152 51.68256,13.4688 51.62496,13.48128 C51.56064,13.4976 51.49632,13.51008 51.43488,13.53984 C51.41856,13.54752 51.40128,13.54656 51.38496,13.5552 C51.35136,13.57344 47.98752,15.36 44.16,15.36 C40.35072,15.36 36.96768,13.57248 36.93408,13.55424 C36.91776,13.5456 36.90144,13.54656 36.88512,13.53888 C36.82464,13.51104 36.76128,13.49664 36.696,13.48128 C36.63744,13.46688 36.58176,13.4496 36.52128,13.44768 C36.46176,13.4448 36.40608,13.45728 36.34656,13.46592 C36.28416,13.47456 36.22176,13.48032 36.16224,13.50144 C36.10848,13.52064 36.06144,13.55328 36.01056,13.58208 C35.952,13.61568 35.89536,13.6464 35.84448,13.69248 C35.83104,13.704 35.81472,13.70784 35.80128,13.72032 L34.56,14.96256 L34.56,12.48 C34.56,8.2464 38.00544,4.80192 42.24,4.80192 L42.24,4.80192 Z M34.56,21.12192 L34.56,17.67744 L36.67584,15.5616 C37.93248,16.13376 40.8576,17.28 44.16,17.28 C47.4624,17.28 50.38752,16.13376 51.64416,15.5616 L53.76,17.67744 L53.76,21.12192 C53.76,26.4144 49.45344,30.72 44.16,30.72 C38.86656,30.72 34.56,26.4144 34.56,21.12192 Z M44.16,32.64 C45.50784,32.64 46.79712,32.3952 48,31.968 L48,33.20448 L46.7808,34.42272 L44.46336,33.64992 C44.4288,33.6384 44.39424,33.64416 44.35872,33.63648 C44.29344,33.62208 44.22912,33.61248 44.16,33.61248 C44.09184,33.61248 44.02752,33.62304 43.96128,33.63648 C43.92672,33.64416 43.89216,33.63744 43.85664,33.64992 L41.5392,34.42272 L40.32,33.20448 L40.32,31.968 C41.52288,32.3952 42.81216,32.64 44.16,32.64 L44.16,32.64 Z M30.72,39.36 C30.72,36.71328 32.87328,34.56 35.52,34.56 L38.96256,34.56192 L40.60128,36.19872 C40.61664,36.21408 40.6368,36.21888 40.65312,36.23232 C40.71552,36.28896 40.78464,36.33216 40.86048,36.37056 C40.8912,36.38592 40.92,36.40416 40.95168,36.41664 C41.05632,36.45504 41.16576,36.48 41.28,36.48 C41.37984,36.48 41.48256,36.46368 41.58336,36.43008 L44.16,35.57184 L46.73664,36.43104 C46.83744,36.46368 46.94016,36.48 47.04,36.48 C47.15424,36.48 47.26368,36.45504 47.36928,36.41664 C47.40192,36.40416 47.42976,36.38592 47.46048,36.37056 C47.53632,36.33312 47.60448,36.28896 47.66784,36.23232 C47.68416,36.21792 47.70432,36.21312 47.71968,36.19872 L49.3584,34.56192 L52.8,34.56 C55.44672,34.56 57.6,36.71328 57.6,39.36 L57.6,45.12 L37.26432,45.12 C37.37088,44.81952 37.44,44.49984 37.44,44.16384 L37.44,42.24384 C37.44,41.71296 37.01088,41.28384 36.48,41.28384 L30.72,41.28384 L30.72,39.36 Z M35.52,43.20384 L35.52,44.16384 C35.52,44.68704 35.09952,45.10944 34.5792,45.12 L27.66528,45.12 C27.77088,44.82048 27.84,44.50368 27.84,44.1696 C27.84,44.16672 27.84192,44.1648 27.84192,44.16192 L27.84192,43.20384 L35.52,43.20384 Z M4.80096,26.88384 L24.96096,26.88384 C25.49088,26.88384 25.92096,27.31392 25.92096,27.84384 L25.92096,42.23904 C25.92096,42.24096 25.92,42.24192 25.92,42.24384 C25.92,42.24576 25.92096,42.24672 25.92096,42.24864 L25.92096,44.15904 C25.92096,44.16096 25.92,44.16192 25.92,44.16384 C25.92,44.68704 25.49952,45.10944 24.9792,45.12 L4.79136,45.12 C4.26624,45.11424 3.84096,44.68896 3.84096,44.16192 L3.84096,27.84384 C3.84096,27.31392 4.27104,26.88384 4.80096,26.88384 L4.80096,26.88384 Z M1.92,47.04 L3.8304,47.04 C3.83424,47.04 3.83616,47.04192 3.84,47.04192 L23.98944,47.04192 C23.99328,47.04192 23.99616,47.04384 23.99904,47.04384 L34.56,47.04384 C34.57344,47.04384 34.584,47.04 34.59744,47.04 L58.5408,47.04 C58.54752,47.04 58.55328,47.04384 58.56,47.04384 C58.56672,47.04384 58.57248,47.04 58.5792,47.04 L59.52,47.04 L59.52,48.96 L1.92,48.96 L1.92,47.04 Z" id="Shape"></path>
                            <path d="M44.1888,44.16 C44.71872,44.16 45.1488,43.73088 45.1488,43.2 C45.1488,42.66912 44.71872,42.24 44.1888,42.24 L44.1792,42.24 C43.64928,42.24 43.22496,42.66912 43.22496,43.2 C43.22496,43.73088 43.65888,44.16 44.1888,44.16 Z" id="Path"></path>
                            <path d="M44.1888,40.32 C44.71872,40.32 45.1488,39.89088 45.1488,39.36 C45.1488,38.82912 44.71872,38.4 44.1888,38.4 L44.1792,38.4 C43.64928,38.4 43.22496,38.82912 43.22496,39.36 C43.22496,39.89088 43.65888,40.32 44.1888,40.32 Z" id="Path"></path>
                            <path d="M13.95168,22.02912 L14.68128,22.75872 C14.8608,22.9392 15.1056,23.04 15.36,23.04 C15.61536,23.04 15.8592,22.9392 16.03872,22.75872 L16.91712,21.87936 C22.15296,20.90496 25.92,16.3968 25.92,11.04 C25.92,4.95264 20.96736,0 14.88,0 C8.79264,0 3.84,4.95264 3.84,11.04 C3.84,16.79808 8.25216,21.55488 13.95168,22.02912 Z M14.88,1.92 C19.90848,1.92 24,6.01152 24,11.04 C24,15.552 20.76384,19.33632 16.30464,20.03616 C16.104,20.06784 15.91872,20.16288 15.77472,20.30592 L15.36,20.72256 L15.05472,20.41728 C14.88576,20.24832 14.66112,20.14944 14.424,20.13696 C9.56544,19.896 5.76,15.90048 5.76,11.04 C5.76,6.01152 9.85152,1.92 14.88,1.92 L14.88,1.92 Z" id="Shape"></path>
                            <path d="M18.04128,14.1072 C18.22848,14.2944 18.47424,14.38848 18.72,14.38848 C18.96576,14.38848 19.21152,14.2944 19.39872,14.1072 L21.7872,11.71872 C21.79104,11.71488 21.79488,11.71488 21.79872,11.71104 C21.98688,11.52384 22.08,11.27712 22.08,11.0304 C22.08,10.78368 21.98688,10.53792 21.79872,10.34976 C21.79488,10.34592 21.79104,10.34592 21.7872,10.34208 L19.39872,7.95168 C19.02336,7.57632 18.41664,7.57632 18.04128,7.95168 C17.66592,8.32608 17.66592,8.93376 18.04128,9.30912 L19.76064,11.0304 L18.04128,12.74976 C17.66592,13.12512 17.66592,13.7328 18.04128,14.1072 L18.04128,14.1072 Z" id="Path"></path>
                            <path d="M10.36128,14.1072 C10.54848,14.2944 10.79424,14.38848 11.04,14.38848 C11.28576,14.38848 11.53152,14.2944 11.71872,14.1072 C12.09408,13.73184 12.09408,13.12512 11.71872,12.74976 L9.99936,11.0304 L11.71872,9.30912 C12.09408,8.93376 12.09408,8.32608 11.71872,7.95168 C11.34336,7.57632 10.73664,7.57632 10.36128,7.95168 L7.9728,10.34208 C7.96896,10.34592 7.96512,10.34592 7.96128,10.34976 C7.77312,10.53888 7.68,10.78368 7.68,11.0304 C7.68,11.27712 7.77312,11.52384 7.96128,11.71104 C7.96512,11.71488 7.96896,11.71488 7.9728,11.71872 L10.36128,14.1072 Z" id="Path"></path>
                            <path d="M13.1376,16.25952 C13.2384,16.29312 13.34112,16.30944 13.44096,16.30944 C13.8432,16.30944 14.21856,16.05504 14.35104,15.6528 L17.23104,7.00896 C17.39904,6.50592 17.12736,5.9616 16.62432,5.79456 C16.11744,5.62464 15.576,5.89824 15.40992,6.40128 L12.52992,15.04512 C12.36288,15.54816 12.63456,16.09248 13.1376,16.25952 L13.1376,16.25952 Z" id="Path"></path>
                        </g>
                    </g>
                </g>
            </g>
        </g>
    </g>
</svg>