<svg xmlns="http://www.w3.org/2000/svg" width="55" height="62" viewBox="0 0 55 62">
    <g fill="none" fill-rule="nonzero">
        <path fill="#29292A" d="M51.36 0H14.88a3.604 3.604 0 0 0-3.6 3.6v4.184c-.135.058-.26.14-.369.247L.351 18.591c-.229.23-.348.536-.348.848L0 19.44v38.4c0 1.985 1.615 3.6 3.6 3.6h36.48c1.985 0 3.6-1.615 3.6-3.6v-4.08h7.68c1.985 0 3.6-1.615 3.6-3.6V3.6c0-1.985-1.615-3.6-3.6-3.6zM33.075 7.68h-2.772a3.603 3.603 0 0 0-3.183-1.92 3.604 3.604 0 0 0-3.6 3.6v7.075a1.2 1.2 0 0 0 2.4 0V9.36c0-.662.538-1.2 1.2-1.2.662 0 1.2.538 1.2 1.2v8.035c0 1.985-1.615 3.6-3.6 3.6a3.604 3.604 0 0 1-3.6-3.6V8.4c0-3.308 2.692-6 6-6a6.008 6.008 0 0 1 5.955 5.28zM14.88 2.4h6.37a8.377 8.377 0 0 0-2.497 5.28H13.68V3.6c0-.662.538-1.2 1.2-1.2zm-4.32 9.377v4.363c0 1.158-.942 2.1-2.1 2.1H4.097l6.463-6.463zm42 38.383c0 .662-.538 1.2-1.2 1.2h-7.68V28.1a1.2 1.2 0 0 0-2.4 0v29.74c0 .662-.538 1.2-1.2 1.2H3.6c-.662 0-1.2-.538-1.2-1.2v-37.2h6.06c2.481 0 4.5-2.019 4.5-4.5v-6.06h5.76v7.315c0 3.308 2.692 6 6 6s6-2.692 6-6V10.08h9.36c.662 0 1.2.538 1.2 1.2v7.22a1.2 1.2 0 0 0 2.4 0v-7.22c0-1.985-1.615-3.6-3.6-3.6h-4.593a8.377 8.377 0 0 0-2.496-5.28H51.36c.662 0 1.2.538 1.2 1.2v46.56z"/>
        <path fill="#3368F5" d="M9.488 40.74h24.704a1.2 1.2 0 0 0 0-2.4h-1.424v-4.687a1.2 1.2 0 0 0-1.2-1.2h-4.56v-2.772a1.2 1.2 0 0 0-1.2-1.2h-4.56v-1.989a1.2 1.2 0 0 0-1.2-1.2h-5.76a1.2 1.2 0 0 0-1.2 1.2V38.34h-2.4V26.492a1.2 1.2 0 0 0-2.4 0V39.54a1.2 1.2 0 0 0 1.2 1.2zm20.88-5.887v3.487h-3.36v-3.487h3.36zm-5.76-3.972V38.341h-3.36v-7.46h3.36zm-9.12-3.189h3.36V38.341h-3.36V27.691z"/>
        <path fill="#29292A" d="M34.256 48.956H9.424a1.2 1.2 0 0 0 0 2.4h24.832a1.2 1.2 0 0 0 0-2.4zM34.256 44.156H14.288a1.2 1.2 0 0 0 0 2.4h19.968a1.2 1.2 0 0 0 0-2.4zM9.424 46.556c.315 0 .625-.128.848-.351a1.21 1.21 0 0 0 .352-.849c0-.315-.129-.625-.352-.848a1.21 1.21 0 0 0-.848-.352c-.316 0-.626.129-.849.352a1.21 1.21 0 0 0-.351.848c0 .316.128.626.351.849.223.223.533.351.849.351zM34.256 53.756H9.424a1.2 1.2 0 0 0 0 2.4h24.832a1.2 1.2 0 0 0 0-2.4zM42.48 22.1a1.21 1.21 0 0 0-.848.352 1.21 1.21 0 0 0-.352.848c0 .316.128.626.352.849.223.223.532.351.848.351.316 0 .625-.128.848-.351a1.21 1.21 0 0 0 .352-.849c0-.315-.128-.625-.352-.848a1.209 1.209 0 0 0-.848-.352z"/>
    </g>
</svg>
