<svg xmlns="http://www.w3.org/2000/svg" xmlns:xlink="http://www.w3.org/1999/xlink" width="534" height="425" viewBox="0 0 534 425">
    <defs>
        <path id="a" d="M30.65 35.4L.81 52.614V18.187L30.65.973V35.4"/>
        <radialGradient id="b" cx="-9.464%" cy="31.225%" r="149.043%" fx="-9.464%" fy="31.225%" gradientTransform="matrix(1 0 0 .57785 0 .132)">
            <stop offset="0%" stop-color="#2B4876"/>
            <stop offset="100%" stop-color="#263765"/>
        </radialGradient>
        <path id="d" d="M29.871 35.345L.031 18.131 29.87.917l29.84 17.214-29.84 17.214"/>
        <linearGradient id="e" x1="0%" x2="131.87%" y1="50%" y2="50%">
            <stop offset="0%" stop-color="#D4EAF2"/>
            <stop offset="100%" stop-color="#83B0D1"/>
        </linearGradient>
        <path id="g" d="M29.871 52.614L.031 35.4V.973l29.84 17.214v34.427"/>
        <radialGradient id="h" cx="-123.745%" cy="-57.823%" r="269.408%" fx="-123.745%" fy="-57.823%" gradientTransform="matrix(1 0 0 .57785 0 -.244)">
            <stop offset="0%" stop-color="#6693BF"/>
            <stop offset="100%" stop-color="#3B6397"/>
        </radialGradient>
        <path id="j" d="M30.573 34.744L.732 51.96V17.532L30.572.317v34.427"/>
        <radialGradient id="k" cx="-9.46%" cy="31.224%" r="149.043%" fx="-9.46%" fy="31.224%" gradientTransform="matrix(1 0 0 .57784 0 .132)">
            <stop offset="0%" stop-color="#2B4876"/>
            <stop offset="100%" stop-color="#263765"/>
        </radialGradient>
        <path id="m" d="M31.115 34.69L1.275 17.475 31.113.261l29.843 17.215L31.115 34.69"/>
        <linearGradient id="n" x1="0%" x2="131.87%" y1="49.998%" y2="49.998%">
            <stop offset="0%" stop-color="#D4EAF2"/>
            <stop offset="100%" stop-color="#83B0D1"/>
        </linearGradient>
        <path id="p" d="M31.115 51.96L1.275 34.744V.317l29.84 17.215V51.96"/>
        <radialGradient id="q" cx="-123.75%" cy="-57.819%" r="269.42%" fx="-123.75%" fy="-57.819%" gradientTransform="matrix(1 0 0 .57781 0 -.244)">
            <stop offset="0%" stop-color="#6693BF"/>
            <stop offset="100%" stop-color="#3B6397"/>
        </radialGradient>
        <path id="s" d="M30.573 35.4L.732 52.614V18.187L30.572.973V35.4"/>
        <radialGradient id="t" cx="-9.46%" cy="31.225%" r="149.043%" fx="-9.46%" fy="31.225%" gradientTransform="matrix(1 0 0 .57785 0 .132)">
            <stop offset="0%" stop-color="#2B4876"/>
            <stop offset="100%" stop-color="#263765"/>
        </radialGradient>
        <path id="v" d="M31.115 35.345L1.275 18.131 31.113.917l29.841 17.214-29.84 17.214"/>
        <linearGradient id="w" x1="-.002%" x2="131.871%" y1="50%" y2="50%">
            <stop offset="0%" stop-color="#D4EAF2"/>
            <stop offset="100%" stop-color="#83B0D1"/>
        </linearGradient>
        <path id="y" d="M31.115 52.614L1.275 35.4V.973l29.84 17.214v34.427"/>
        <radialGradient id="z" cx="-123.75%" cy="-57.823%" r="269.42%" fx="-123.75%" fy="-57.823%" gradientTransform="matrix(1 0 0 .57783 0 -.244)">
            <stop offset="0%" stop-color="#6693BF"/>
            <stop offset="100%" stop-color="#3B6397"/>
        </radialGradient>
        <path id="B" d="M30.65 34.744L.81 51.96V17.532L30.65.317v34.427"/>
        <radialGradient id="C" cx="-9.464%" cy="31.224%" r="149.043%" fx="-9.464%" fy="31.224%" gradientTransform="matrix(1 0 0 .57784 0 .132)">
            <stop offset="0%" stop-color="#2B4876"/>
            <stop offset="100%" stop-color="#263765"/>
        </radialGradient>
        <path id="E" d="M29.871 34.69L.031 17.475 29.87.261l29.84 17.215-29.84 17.214"/>
        <path id="G" d="M29.871 51.96L.031 34.744V.317l29.84 17.215V51.96"/>
        <radialGradient id="H" cx="-123.745%" cy="-57.819%" r="269.408%" fx="-123.745%" fy="-57.819%" gradientTransform="matrix(1 0 0 .57784 0 -.244)">
            <stop offset="0%" stop-color="#6693BF"/>
            <stop offset="100%" stop-color="#3B6397"/>
        </radialGradient>
        <path id="J" d="M.06 248.942c1.043-.731 1.692-2.232 1.692-4.31V57.942c0-1.958-.578-4.071-1.518-5.927L89.286.643c.95 1.865 1.542 3.987 1.542 5.958v186.69c0 2.155-.702 3.68-1.813 4.379l.002.008-.158.09-.042.026L.06 248.942"/>
        <radialGradient id="K" cx="12.546%" cy="43.693%" r="176.308%" fx="12.546%" fy="43.693%" gradientTransform="matrix(1 0 0 .46373 0 .234)">
            <stop offset="0%" stop-color="#3368F5"/>
            <stop offset="100%" stop-color="#355589"/>
        </radialGradient>
        <path id="M" d="M85.777 102.169c-1.001-1.977-2.413-3.664-3.979-4.567L3.716 52.56c-.775-.447-1.513-.66-2.182-.66-.439 0-.85.093-1.22.268L89.235.911v.001c.414-.23.879-.35 1.382-.35.667 0 1.402.211 2.176.656l78.08 45.042c1.557.9 2.96 2.574 3.96 4.535L141.53 70.006l-1.464.845-38.399 22.151-1.463.844-14.428 8.323"/>
        <linearGradient id="N" x1="8.225%" x2="88.196%" y1="50%" y2="53.916%">
            <stop offset="0%" stop-color="#3368F5"/>
            <stop offset="100%" stop-color="#34589B"/>
        </linearGradient>
        <path id="P" d="M74.243 226.988L5.987 187.614c-2.655-1.531-4.807-5.64-4.807-9.176V5.055c0-3.536 2.152-5.162 4.807-3.63L74.243 40.8c2.656 1.531 4.808 5.639 4.808 9.174v173.383c0 3.538-2.152 5.162-4.808 3.631"/>
        <linearGradient id="Q" x1="43.645%" x2="55.151%" y1="44.912%" y2="54.123%">
            <stop offset="0%" stop-color="#3C3A81"/>
            <stop offset="100%" stop-color="#554A8D"/>
        </linearGradient>
        <path id="S" d="M74.243 226.988L5.987 187.614c-2.655-1.531-4.807-5.64-4.807-9.176V5.055c0-3.536 2.152-5.162 4.807-3.63L74.243 40.8c2.656 1.531 4.808 5.639 4.808 9.174v173.383c0 3.538-2.152 5.162-4.808 3.631"/>
        <path id="U" d="M52.947.152c-2.048.05-4.172.565-5.852 1.533L35.72 8.248.416 8.227V24.39c-.08 1.093.531 2.148 1.875 2.923l45.59 26.3c1.343.775 3.171 1.127 5.066 1.08V.152"/>
        <radialGradient id="V" cx="5.509%" cy="6.42%" r="109.684%" fx="5.509%" fy="6.42%" gradientTransform="matrix(1 0 0 .96316 0 .002)">
            <stop offset="0%" stop-color="#6693BF"/>
            <stop offset="100%" stop-color="#3B6397"/>
        </radialGradient>
        <path id="X" d="M47.88 59.945L2.29 33.646c-2.797-1.614-2.446-4.435.784-6.298l44.02-25.393c3.232-1.864 8.12-2.066 10.917-.453l45.59 26.3c2.8 1.614 2.448 4.432-.783 6.297l-44.02 25.394c-3.232 1.864-8.12 2.066-10.917.452"/>
        <path id="Y" d="M53.573.26c-2.048.05-4.173.566-5.851 1.534L36.346 8.356l-35.304-.02V24.5c-.08 1.092.53 2.147 1.875 2.922l45.588 26.3c1.346.776 3.175 1.127 5.068 1.08V.26"/>
        <radialGradient id="Z" cx="5.51%" cy="6.422%" r="109.683%" fx="5.51%" fy="6.422%" gradientTransform="matrix(1 0 0 .96317 0 .002)">
            <stop offset="0%" stop-color="#6693BF"/>
            <stop offset="100%" stop-color="#3B6397"/>
        </radialGradient>
        <path id="ab" d="M47.505 60.054l-45.588-26.3C-.881 32.14-.531 29.32 2.7 27.457L46.722 2.063c3.23-1.864 8.117-2.066 10.915-.453l45.59 26.3c2.798 1.614 2.448 4.434-.784 6.299l-44.02 25.393c-3.23 1.863-8.118 2.065-10.918.452"/>
        <path id="ad" d="M53.65.26c-2.048.05-4.174.566-5.853 1.534L36.422 8.356l-35.304-.02V24.5c-.078 1.092.53 2.147 1.874 2.922l45.591 26.3c1.345.776 3.172 1.127 5.066 1.08V.26"/>
        <radialGradient id="ae" cx="5.511%" cy="6.422%" r="109.681%" fx="5.511%" fy="6.422%" gradientTransform="matrix(1 0 0 .96318 0 .002)">
            <stop offset="0%" stop-color="#6693BF"/>
            <stop offset="100%" stop-color="#3B6397"/>
        </radialGradient>
        <path id="ag" d="M47.583 60.054l-45.591-26.3c-2.798-1.614-2.446-4.434.785-6.298l44.02-25.393c3.231-1.864 8.12-2.066 10.917-.453l45.59 26.3c2.798 1.614 2.446 4.434-.783 6.299L58.5 59.602c-3.233 1.863-8.119 2.065-10.917.452"/>
    </defs>
    <g fill="none" fill-rule="evenodd">
        <path fill="#D1E9F2" d="M494.147 116.471l-1.308-.755-.156-.09-25.763-14.861 25.763 14.861 38.402-22.151-38.402-22.152-38.4 22.15-1.463-.844 39.863-22.995.365.211 40.963 23.63-39.864 22.996m-2.926 0l-12.638-7.29 12.638 7.29M414.419 116.47l19.2-11.077-19.199 11.077m-2.927 0l-21.588-12.455 21.59 12.455h-.002m1.464-.845l-19.201-11.076 19.2 11.076 23.287-13.434-23.286 13.434m38.4-22.151l-38.4-22.152-30.511 17.6v-1.687l30.51-17.602 39.864 22.996-1.464.845"/>
        <path fill="#D1E9F2" d="M454.284 139.466l26.52-15.299-26.519 15.299m-1.464-.845L414.42 116.47l-1.355-.783-.107-.062 38.4-22.151 1.463-.845 1.462.845 38.401 22.152-1.462.845-38.401-22.153-38.401 22.152 38.402 22.151 13.807-7.964-13.807 7.964m41.326-22.15l-1.098-.633-.21-.122 1.308.755"/>
        <path fill="#D1E9F2" d="M494.15 162.46l-1.464-.843-39.702-22.9-.163-.096 38.4-22.15 1.462-.845.156.09.21.122 1.098.633 39.865 22.996-39.862 22.994m-39.866-22.995l38.402 22.151 38.4-22.15-38.403-22.152-38.4 22.151M346.142 78.77h-.001l1.464-.845v.002l-1.463.843M382.446 134.914l11.31-6.524-11.31 6.524m0-1.688l5.76-3.323-5.76 3.323m31.973-16.756l-1.098-.634-.257-.149 1.355.783m-2.925 0l-29.048-16.757v-1.688l30.51 17.6-1.463.845"/>
        <path fill="#D1E9F2" d="M414.42 162.46l16.812-9.696-16.81 9.698m-1.464-.845l-30.512-17.6 30.512 17.6 25.245-14.563-25.245 14.563m41.326-22.151l-1.098-.634-.202-.116 1.3.75m-2.926 0l-38.401-22.153-30.511 17.6v-1.687l5.76-3.323 23.287-13.433 1.464-.845.107.062.257.15 1.098.633 38.402 22.151-1.463.844"/>
        <path fill="#D1E9F2" d="M454.285 185.457l11.042-6.37-11.042 6.37m-1.464-.843l-38.4-22.152v-.001l-1.282-.74-.181-.104 38.4-22.152 1.463-.844.163.095.202.116 1.098.634 38.4 22.151-1.462.844-38.4-22.152-38.402 22.152 38.403 22.153 19.199-11.077-19.2 11.077"/>
        <path fill="#D1E9F2" d="M494.15 208.453l-1.233-.711-.23-.133-39.683-22.891-.181-.104 38.4-22.153 1.463-.844 1.464.844 39.863 22.997-39.863 22.995m-39.865-22.996l38.401 22.152 38.401-22.15-38.4-22.153-38.402 22.151M306.28 101.765h-.001l1.464-.843-1.463.843M382.446 180.907l5.267-3.038-5.267 3.038m0-1.688v-.001l12.237-7.059-12.237 7.06m31.974-16.757l-1.097-.633-.184-.107 1.281.739m-2.924 0l-29.05-16.756v-1.688l30.512 17.6-1.464.844"/>
        <path fill="#D1E9F2" d="M414.422 208.453l19.2-11.075-19.2 11.075m-1.463-.843v-.001l-30.513-17.601 30.513 17.6 21.59-12.452-21.59 12.454m41.326-22.153l-1.098-.632-.183-.107 1.281.74m-2.926 0l-38.401-22.152-30.512 17.601v-1.688l29.048-16.758 1.464-.844.18.105.185.107 1.097.633 38.401 22.152-1.462.843"/>
        <path fill="#D1E9F2" d="M454.286 231.45l23.287-13.434-23.287 13.433m-1.463-.843l-38.401-22.153-1.233-.711-.23-.132 38.4-22.153 1.464-.843.18.104.184.107 1.098.632 38.401 22.153-1.462.843-38.401-22.151-38.401 22.151 38.402 22.152 19.2-11.075-19.2 11.075m41.326-22.152l-1.098-.632-.135-.08 1.233.712"/>
        <path fill="#D1E9F2" d="M494.151 254.446l-1.275-.736-.189-.11-38.4-22.15-1.217-.703-.246-.142 38.4-22.152 1.462-.844.231.133.135.079 1.098.632 39.865 22.996-39.864 22.997m-39.865-22.997l38.401 22.152 38.402-22.152-38.403-22.151-38.4 22.151M175.238 116.467l24.593-14.186-24.593 14.186m-1.463-.845l-38.402-22.151-1.33-.768-.132-.077 39.864-22.993.364.21 30.153 17.394v1.687l-30.517-17.603-38.402 22.15 38.403 22.151 11.88-6.852-11.88 6.852"/>
        <path fill="#D1E9F2" d="M204.292 134.916l-4.753-2.742 4.753 2.741v.001m0-1.688l-16.416-9.471 16.416 9.47v.001m-29.054-16.76l-1.462-.846 30.516-17.603v1.688l-29.054 16.76M382.446 226.899l16.706-9.637-16.706 9.637m0-1.689l7.693-4.437-7.693 4.437m31.976-16.757l-1.098-.632-.135-.08 1.233.712m-2.925 0l-29.051-16.757v-1.688l30.513 17.602-1.463.843"/>
        <path fill="#D1E9F2" d="M414.423 254.446l21.387-12.337-21.386 12.337m-2.927 0l-19.2-11.077 19.201 11.077h-.001m1.464-.845l-12.638-7.291 12.638 7.29 13.154-7.587-13.154 7.588m41.325-22.152l-1.216-.702 1.216.702m-2.926 0l-38.4-22.151-30.514 17.6v-1.688l29.05-16.757 1.463-.844.23.133.135.079 1.098.632 38.4 22.153-1.462.843"/>
        <path fill="#D1E9F2" d="M454.288 277.442l16.812-9.699-16.812 9.699m-1.463-.845l-38.402-22.151-1.365-.788-.097-.057 38.4-22.152 1.463-.844.246.142 1.216.702 38.401 22.152-1.462.845-38.401-22.152-38.401 22.152 38.402 22.151 19.2-11.076-19.2 11.076m41.326-22.151l-1.098-.634-.177-.102 1.275.736"/>
        <path fill="#D1E9F2" d="M494.152 300.438l-1.331-.768-.132-.077-38.401-22.151-1.33-.768-.133-.077 38.4-22.151 1.462-.845.19.11.176.101 1.098.634 39.865 22.996-39.864 22.996m-39.864-22.996l38.4 22.151 38.402-22.151-38.403-22.153-38.4 22.153M95.51 116.467l19.2-11.076-19.199 11.076m-2.926 0L52.721 93.471 94.046 69.63l.366.211 39.5 22.785-1.464.845-38.402-22.152-38.4 22.152 38.402 22.151 19.2-11.075-19.2 11.075-1.463.845m42.788-22.996l-1.097-.634-.233-.134 1.33.768"/>
        <path fill="#D1E9F2" d="M135.375 139.463l19.2-11.076-19.2 11.076m-1.463-.844l-39.5-22.785-.364-.212 38.4-22.151 1.463-.845.132.077.233.134 1.097.634 38.402 22.151-1.463.845-38.4-22.151-38.402 22.151 38.402 22.152 19.2-11.077-19.2 11.077"/>
        <path fill="#D1E9F2" d="M175.24 162.46v-.002l24.532-14.15-24.532 14.152m-1.464-.845l-38.401-22.152-1.33-.768-.133-.076 38.4-22.152 1.464-.845 1.462.845 29.054 16.761v1.687l-30.516-17.604-38.401 22.152 38.4 22.152 21.36-12.32-21.358 12.32"/>
        <path fill="#D1E9F2" d="M204.292 180.907l-11.314-6.528 11.314 6.528m0-1.688l-3.29-1.898 3.29 1.898m-29.052-16.76l-1.464-.844 21.359-12.32 9.157-5.283v1.688l-29.052 16.758M373.097 276.596l-14.309-8.253 14.31 8.253 5.558-3.206-5.558 3.206m10.078-4.126l5.252-3.03-5.252 3.03m-.584-1.35h-.001l17.026-9.822-17.025 9.822m31.83-16.674l-1.097-.634-.267-.154 1.365.788m-2.925 0l-29.052-16.76v-1.688L412.96 253.6l-1.464.845"/>
        <path fill="#D1E9F2" d="M414.424 300.438l19.2-11.076-19.198 11.076m-2.928 0l-23.953-13.82 23.955 13.82h-.002m1.464-.845l-12.638-7.29 12.638 7.29 23.286-13.433-23.286 13.433m41.326-22.151l-1.098-.634-.233-.134 1.33.768m-2.925 0l-38.401-22.153-29.785 17.18a4.998 4.998 0 0 0-.584-1.35l28.905-16.673 1.464-.845.097.057.267.154 1.098.634 38.402 22.151-1.463.845m-77.316-.298l-.949-.548 5.559-3.206c.095.116.141.216.141.292 0 .287-.412.954-1.547 1.608l-3.204 1.854"/>
        <path fill="#D1E9F2" d="M454.289 323.433l17.014-9.815-17.014 9.816m-1.464-.844l-39.767-22.94-.096-.057 38.4-22.151 1.463-.845.132.077.233.134 1.098.634 38.4 22.151-1.462.844-38.4-22.152-38.402 22.153 38.403 22.152 25.323-14.609-25.323 14.609m41.325-22.152l-1.097-.633-.234-.135 1.331.768"/>
        <path fill="#D1E9F2" d="M494.154 346.43l-1.176-.68-.288-.164-38.401-22.152v-.001l-1.262-.727-.2-.116 39.862-22.997.132.077.234.135 1.097.633 39.865 22.995-39.863 22.996m-39.865-22.996l38.401 22.153 38.401-22.153-38.402-22.152-38.4 22.152M95.511 162.458l21.59-12.453-21.588 12.455m-2.926-.002l-39.865-22.995 39.863-22.996 1.463-.845.364.212 39.5 22.785-1.463.844-38.401-22.152-38.4 22.152 38.401 22.152 25.325-14.609-26.787 15.452m42.788-22.995l-1.098-.633-.232-.135 1.33.768"/>
        <path fill="#D1E9F2" d="M135.376 185.454l13.077-7.543-13.077 7.543m-1.462-.843l-39.5-22.785-.365-.211 38.4-22.152 1.463-.844.133.076.232.135 1.098.633 38.4 22.152-1.461.843-38.402-22.151-38.4 22.151 38.402 22.153 16.812-9.698-16.812 9.698"/>
        <path fill="#D1E9F2" d="M175.24 208.45l13.808-7.964-13.807 7.965m-1.464-.844l-38.4-22.151v-.002l-1.282-.739-.181-.104 39.862-22.996 1.464.843v.002l25.763 14.861 3.29 1.898v1.688l-30.517-17.604-38.4 22.151 38.403 22.153 21.16-12.207-21.16 12.207"/>
        <path fill="#D1E9F2" d="M204.292 225.21l-29.051-16.76-1.233-.71-.23-.133 30.514-17.602v1.688l-29.051 16.758 29.051 16.758M371.635 277.44l-14.31-8.254 1.463-.843 14.31 8.253-1.463.845"/>
        <path fill="#D1E9F2" d="M374.562 323.432l19.2-11.075-19.2 11.076m-1.464-.845l-21.14-12.195 21.14 12.195 15.745-9.082-15.745 9.082m41.326-22.15l-1.098-.633-.268-.155 1.366.788m-2.924 0l-34.382-19.834 1.463-.846 34.38 19.835-1.463.844m-44.978-18.94l-.958-.554 6.073-3.502 1.462-.845.949.548-7.526 4.353"/>
        <path fill="#D1E9F2" d="M414.427 346.428l21.16-12.206-21.16 12.206m-1.464-.844l-38.402-22.151.001-.001-1.331-.767-.133-.077 38.4-22.15v-.001l1.464-.844.096.057.268.155 1.098.633 38.401 22.152-1.462.843-38.401-22.152-38.4 22.15 38.401 22.153 13.868-8-13.868 8m41.326-22.15l-1.098-.633-.164-.095 1.262.727"/>
        <path fill="#D1E9F2" d="M454.29 369.425l15.114-8.717-15.114 8.717m-2.926 0l-12.638-7.29 12.638 7.29m1.464-.843l-25.765-14.863 25.765 14.862 19.2-11.075-19.2 11.076m41.326-22.153l-1.098-.632-.078-.046 1.176.678m-2.926 0l-38.401-22.151-38.401 22.15-1.463-.844 38.4-22.151 1.464-.843.2.116.164.095 1.098.633 38.401 22.152-1.462.843"/>
        <path fill="#D1E9F2" d="M492.691 393.266l-.364-.212-39.499-22.784 1.462-.845-1.462-.843 38.4-22.153 1.462-.843.288.165.078.046 1.098.632 39.865 22.996-41.328 23.841m-38.4-23.84l38.4 22.15 38.402-22.15-38.403-22.152-38.4 22.151M95.513 208.45l19.2-11.074-19.199 11.075m-2.927 0l-39.864-22.998 41.326-23.838.365.211 39.5 22.785-1.464.843-38.401-22.151-38.4 22.15 38.401 22.154 19.2-11.076-19.2 11.076-1.463.844m42.79-22.995l-1.099-.634-.183-.107 1.281.74"/>
        <path fill="#D1E9F2" d="M135.377 231.447l19.201-11.077-19.2 11.077m-1.464-.844l-39.499-22.785-.365-.21 38.4-22.154 1.464-.843.18.104.184.107 1.098.634 38.401 22.151-1.462.844-38.401-22.152-38.401 22.152 38.402 22.151 19.2-11.075-19.2 11.076m41.326-22.152l-1.098-.633-.135-.077 1.233.71"/>
        <path fill="#D1E9F2" d="M175.242 254.443l25.246-14.563-25.246 14.563m-1.462-.845h-.001l-38.402-22.151-1.235-.713-.227-.13 38.4-22.153 1.464-.844.23.134.134.077 1.098.633 29.051 16.758v1.688l-30.513-17.602-38.402 22.152 38.402 22.151 17.014-9.814-17.013 9.814"/>
        <path fill="#D1E9F2" d="M215.107 277.44l10.881-6.278-10.881 6.277m-1.464-.845l-1.375-.793 1.375.793 10.881-6.276h.002l-10.883 6.276m-5.74-3.31l-33.992-19.61-.131-.076 30.512-17.602v1.689l-29.05 16.758 32.663 18.841h-.001"/>
        <path fill="#D1E9F2" d="M215.107 277.44l-1.464-.846 10.883-6.276 1.462.844-10.881 6.277M334.699 346.428l19.2-11.075-19.2 11.075m-1.464-.844l-21.09-12.166 21.09 12.166 19.2-11.076-19.199 11.076h-.001m41.326-22.151l-1.097-.634-.233-.134 1.331.767m-2.926 0l-21.14-12.195 1.461-.844 21.141 12.195-1.462.844"/>
        <path fill="#D1E9F2" d="M374.563 369.424l19.2-11.075-19.2 11.075m-1.463-.843l-38.401-22.153-1.332-.767-.13-.077 39.861-22.996.133.077.233.134 1.097.634 38.402 22.151-1.463.844-38.402-22.152-38.4 22.152L373.1 368.58l23.287-13.434L373.1 368.58"/>
        <path fill="#D1E9F2" d="M412.965 393.265l-.366-.213-39.5-22.783v-.002l1.464-.843-1.463-.843 38.4-22.153 1.463-.844 1.464.844 39.863 22.997-1.462.845h-.001l-39.862 22.995m-38.402-23.841l38.402 22.151 38.4-22.15-38.402-22.152-38.4 22.151M95.514 254.443l27.358-15.782-27.357 15.782m-2.927 0l-39.863-22.998 39.862-22.994 1.463-.844.365.211 39.499 22.785-1.463.844-38.4-22.152-38.4 22.15 38.4 22.153 13.077-7.543-13.076 7.543-1.464.845m42.79-22.996l-1.098-.632-.138-.08 1.235.712"/>
        <path fill="#D1E9F2" d="M135.379 277.44l19.2-11.077-19.2 11.076m-1.463-.845l-39.5-22.785-.364-.21 38.4-22.152 1.463-.845v.001l.227.131.138.08 1.097.633 38.402 22.151-1.463.845-38.4-22.151-38.402 22.151 38.402 22.151 15.114-8.717-15.114 8.717m41.326-22.151l-1.098-.634-.233-.134 1.331.768"/>
        <path fill="#D1E9F2" d="M175.244 300.435l19.2-11.076-19.2 11.076m-1.464-.844l-38.401-22.152-1.33-.768-.133-.077 38.4-22.151 1.463-.845.132.077.233.134 1.098.634 32.662 18.841a7.77 7.77 0 0 0-1.039 1.088l-33.086-19.084-38.4 22.151 38.4 22.152 15.114-8.718-15.112 8.718h-.001m38.401-22.152l-1.29-.744c.217-.186.49-.38.825-.574l.552-.32 1.375.793-1.462.845"/>
        <path fill="#D1E9F2" d="M215.107 323.43l13.154-7.588-13.154 7.59m-2.927-.002l-17.013-9.814 17.014 9.814h-.001m1.463-.843l-25.323-14.609 25.323 14.609 19.104-11.021-19.104 11.02m-38.4-22.15l-1.463-.845 32.836-18.942c.288.39.635.756 1.038 1.089l-32.41 18.697m48.752-16.18l-10.353-5.972-1.552.896-1.161-.67a2.98 2.98 0 0 1-.285-.184l1.536-.886 1.462-.845 1.464.845 10.35 5.971-1.461.845"/>
        <path fill="#D1E9F2" d="M254.972 346.426l17.237-9.943-17.237 9.943m-1.464-.843l-38.402-22.151.001-.002-1.301-.75-.163-.093 19.104-11.021 1.463.845-19.103 11.02 38.401 22.152 19.104-11.02-19.104 11.02"/>
        <path fill="#D1E9F2" d="M294.835 369.424l21.59-12.453-21.59 12.453m-2.926 0l-25.763-14.862 25.763 14.862m1.464-.843l-14.448-8.335 14.448 8.335 19.2-11.077-19.2 11.077m41.326-22.153l-1.098-.632-.234-.135 1.332.767m-2.926 0l-21.089-12.166 1.461-.844 21.09 12.166-1.462.844m-76.801-.002l-1.464-.843 19.104-11.02 1.463.844-19.105 11.02"/>
        <path fill="#D1E9F2" d="M333.236 393.265l-.364-.213-39.5-22.783v-.002l1.463-.843-1.462-.843 39.862-22.997h.001l.131.077.234.135 1.098.632 38.4 22.153 1.464.843-1.463.843v.002l-39.864 22.996m-38.4-23.841l38.4 22.151 38.401-22.151-38.402-22.151-38.4 22.151M95.517 300.434l13.867-8-13.867 8m-2.926-.001l-39.865-22.995 39.862-22.995 1.464-.845.364.211 39.5 22.785-1.463.845-38.401-22.151-38.4 22.15 38.401 22.151 24.532-14.15-25.994 14.994m42.788-22.994l-1.098-.633-.232-.135 1.33.768"/>
        <path fill="#D1E9F2" d="M135.38 323.43l13.154-7.588-13.154 7.59m-2.926-.002l-19.2-11.076 19.2 11.076m1.464-.843l-19.2-11.077 19.2 11.077 25.245-14.564-25.245 14.564m38.4-22.152l-38.402-22.152-38.4 22.151-1.463-.845 38.4-22.15 1.463-.845.365.212 1.098.633 38.4 22.152-1.461.843"/>
        <path fill="#D1E9F2" d="M175.245 346.426l19.2-11.075-19.2 11.075m-1.464-.843l-38.4-22.151v-.002l-1.309-.753-.154-.09 38.4-22.153 1.462-.843 1.464.844 38.4 22.152-1.463.843-38.401-22.151-38.4 22.151 38.401 22.153 19.2-11.076-19.198 11.076m41.323-22.151l-1.097-.634-.203-.117 1.301.75"/>
        <path fill="#D1E9F2" d="M212.182 369.423l-15.113-8.718 15.113 8.718m2.926 0l15.114-8.718-15.114 8.718m-1.463-.844l-19.2-11.076 19.2 11.075 19.2-11.075-19.2 11.076m38.4-22.153l-38.402-22.151-38.398 22.151-1.464-.843 38.399-22.153h.001l1.462-.843.163.094.203.117 1.097.634 38.402 22.151-1.464.843"/>
        <path fill="#D1E9F2" d="M253.51 393.264l-.365-.212-39.5-22.785 1.463-.844-1.463-.844 38.4-22.153 1.463-.843 1.464.843 39.863 22.998-1.462.843-.001.002-39.863 22.995m-38.4-23.841l38.4 22.151 38.4-22.15-38.4-22.153-38.4 22.152M95.517 346.425l26.52-15.297-26.519 15.297m-2.926 0L52.727 323.43l41.326-23.84 1.464.845 38.4 22.153-1.463.843-38.401-22.153-38.4 22.152 38.401 22.153 13.807-7.964-15.269 8.807m42.788-22.993l-1.098-.634-.21-.121 1.308.753"/>
        <path fill="#D1E9F2" d="M135.381 369.421l24.595-14.186-24.595 14.186m-1.462-.843l-39.5-22.785-.365-.211 38.4-22.152 1.464-.843.154.09.21.121 1.098.634 38.401 22.151-1.462.843-38.401-22.151-38.401 22.15 38.402 22.153 11.88-6.853-11.88 6.853"/>
        <path fill="#D1E9F2" d="M173.781 393.264l-39.862-22.998 1.462-.845-1.462-.843 39.862-22.995 1.464.843 38.4 22.153 1.463.844-1.463.844-39.864 22.997m-38.4-23.843l38.4 22.153 38.401-22.151-38.4-22.152-38.4 22.15"/>
        <path fill="#D1E9F2" d="M94.056 393.262l-.365-.212-40.962-23.629 41.325-23.84.365.212 40.962 23.628-1.462.845h-.001l-39.862 22.996m-.002-45.992l-38.4 22.151 38.402 22.152 38.4-22.152-38.402-22.151"/>
        <path fill="#FFFFFE" d="M53.12 269.98a13.93 13.93 0 0 0-2.251 1.65c-.312-10.126-7.633-14.154-16.64-8.958-7.338 4.233-13.554 13.294-15.781 22.176-1.813-.245-3.94.227-6.225 1.545C5.655 290.181.332 299.395.332 306.971c0 7.578 5.323 10.648 11.891 6.86l40.898-23.593c4.85-2.797 8.78-9.598 8.78-15.193 0-5.594-3.93-7.861-8.78-5.064M370.394 332.02c0 2.459-1.725 5.445-3.856 6.675-2.129 1.228-3.856.232-3.856-2.226 0-2.456 1.727-5.444 3.856-6.672 2.131-1.228 3.856-.233 3.856 2.223M382.894 324.81c0 2.458-1.726 5.445-3.856 6.674s-3.856.232-3.856-2.225c0-2.456 1.726-5.445 3.856-6.672 2.13-1.229 3.856-.234 3.856 2.224M395.393 317.6c0 2.458-1.725 5.445-3.856 6.674-2.13 1.228-3.856.232-3.856-2.224 0-2.458 1.726-5.445 3.856-6.674 2.13-1.228 3.856-.233 3.856 2.224M407.892 310.391c0 2.457-1.727 5.445-3.856 6.672-2.13 1.229-3.856.232-3.856-2.224 0-2.457 1.727-5.444 3.856-6.673 2.13-1.229 3.856-.232 3.856 2.225M190.374 400.89c0 2.457-1.726 5.446-3.856 6.674-2.13 1.228-3.856.231-3.856-2.225s1.727-5.444 3.856-6.673c2.13-1.228 3.856-.232 3.856 2.224M201.012 394.755c0 2.456-1.726 5.445-3.856 6.672-2.13 1.229-3.856.232-3.856-2.224 0-2.458 1.725-5.444 3.856-6.673 2.13-1.23 3.856-.233 3.856 2.225M190.374 388.618c0 2.456-1.726 5.444-3.856 6.674-2.13 1.228-3.856.233-3.856-2.225 0-2.456 1.727-5.445 3.856-6.672 2.13-1.229 3.856-.234 3.856 2.223M201.012 382.483c0 2.456-1.726 5.444-3.856 6.672-2.13 1.229-3.856.232-3.856-2.224 0-2.458 1.725-5.445 3.856-6.673 2.13-1.23 3.856-.234 3.856 2.225"/>
        <path fill="#C3E2EE" d="M405.135 60.021c-2.803 0-4.73-2.233-4.73-6.096 0-5.445 3.828-12.066 8.548-14.788 1.366-.788 2.654-1.158 3.798-1.158.42 0 .824.05 1.203.148a21.202 21.202 0 0 1-.18-2.66c0-11.38 7.998-25.218 17.861-30.908 2.86-1.65 5.56-2.43 7.953-2.43 3.477 0 6.306 1.647 8.037 4.67 1.722-2.083 3.697-3.844 5.8-5.057 1.938-1.118 3.768-1.647 5.39-1.647 3.871 0 6.554 3.017 6.679 8.247 1.129-1.326 2.41-2.451 3.767-3.234 1.32-.762 2.565-1.122 3.67-1.122 2.696 0 4.547 2.147 4.547 5.862 0 1.96-.517 4.078-1.4 6.1-.65-4.081-3.129-6.39-6.516-6.39-1.622 0-3.452.528-5.39 1.646-2.102 1.213-4.079 2.974-5.801 5.057-1.73-3.023-4.56-4.67-8.037-4.67-2.394 0-5.092.78-7.952 2.43-9.864 5.689-17.86 19.529-17.86 30.909 0 .94.074 1.815.18 2.66a4.838 4.838 0 0 0-1.207-.148c-1.142 0-2.43.368-3.796 1.156-2.839 1.638-5.357 4.688-6.91 8.044l-3.836 2.213c-1.373.792-2.669 1.166-3.818 1.166"/>
        <path fill="#E3F3F8" d="M415.883 69.484c-2.805 0-4.73-2.234-4.73-6.097 0-2.169.607-4.523 1.636-6.745l56.472-32.578c2.839-1.637 5.34-4.74 6.816-8.116.093.583.15 1.202.164 1.856 1.13-1.325 2.408-2.451 3.768-3.234 1.32-.761 2.565-1.122 3.67-1.122 2.695 0 4.546 2.148 4.546 5.86 0 5.235-3.679 11.6-8.216 14.218l-60.31 34.79c-1.371.793-2.667 1.168-3.816 1.168"/>
        <path fill="#E3F3F8" d="M412.789 56.642c1.553-3.356 4.071-6.406 6.91-8.044 1.366-.788 2.654-1.156 3.796-1.156.423 0 .826.05 1.206.147-.105-.844-.18-1.72-.18-2.66 0-11.38 7.997-25.22 17.86-30.908 2.86-1.65 5.56-2.43 7.953-2.43 3.477 0 6.306 1.647 8.037 4.67 1.722-2.083 3.699-3.844 5.802-5.057 1.937-1.118 3.767-1.647 5.39-1.647 3.386 0 5.864 2.31 6.514 6.391-1.475 3.376-3.977 6.48-6.816 8.116l-56.472 32.578"/>
        <path fill="#D9EFF5" d="M490.756 24.031c-1.36.784-2.638 1.909-3.767 3.235-.177-7.42-5.506-10.386-12.07-6.6-2.102 1.212-4.08 2.974-5.8 5.057-2.923-5.103-8.975-6.288-15.99-2.24-9.865 5.689-17.86 19.528-17.86 30.91 0 .938.073 1.814.177 2.659-1.405-.365-3.13-.072-5 1.008-4.72 2.722-8.545 9.345-8.545 14.79 0 5.445 3.826 7.652 8.544 4.929l60.311-34.79c4.536-2.62 8.215-8.984 8.215-14.22 0-5.233-3.679-7.355-8.215-4.738"/>
        <path fill="#FFFFFE" d="M142.379 265.131V284.7l16.961-9.784v-19.572l-16.961 9.787zm-1.866 24.66a1.864 1.864 0 0 1-1.865-1.864v-23.873c0-.666.356-1.281.933-1.614l20.692-11.935a1.868 1.868 0 0 1 1.865 0c.577.33.933.946.933 1.612v23.874c0 .667-.356 1.282-.933 1.615l-20.692 11.935c-.29.166-.61.25-.933.25z"/>
        <path fill="#7DBCDB" d="M126.304 406.321L96.46 389.106l29.841-17.214 29.843 17.215-29.841 17.214"/>
        <path fill="#FFFFFE" d="M100.999 376.18l25.305 14.597 25.303-14.598-25.305-14.595L101 376.179zm25.305 19.482c-.393 0-.784-.102-1.134-.304l-29.842-17.215a2.27 2.27 0 0 1-1.136-1.964c0-.809.434-1.557 1.136-1.963l29.84-17.213a2.265 2.265 0 0 1 2.268 0l29.842 17.213a2.267 2.267 0 0 1 0 3.927l-29.841 17.215c-.35.202-.741.304-1.133.304z"/>
        <g transform="translate(125.494 327.33)">
            <mask id="c" fill="#fff">
                <use xlink:href="#a"/>
            </mask>
            <path fill="url(#b)" d="M30.65 35.4L.81 52.614V18.187L30.65.973V35.4" mask="url(#c)"/>
        </g>
        <g transform="translate(96.432 310.17)">
            <mask id="f" fill="#fff">
                <use xlink:href="#d"/>
            </mask>
            <path fill="url(#e)" d="M29.871 35.345L.031 18.131 29.87.917l29.84 17.214-29.84 17.214" mask="url(#f)"/>
        </g>
        <g transform="translate(96.432 327.33)">
            <mask id="i" fill="#fff">
                <use xlink:href="#g"/>
            </mask>
            <path fill="url(#h)" d="M29.871 52.614L.031 35.4V.973l29.84 17.214v34.427" mask="url(#i)"/>
        </g>
        <path fill="#FFFFFE" d="M115.556 361.344l-8.346-4.814v-9.63l8.346 4.815v9.629"/>
        <path fill="#7DBCDB" d="M460.436 220.884l-29.842-17.215 29.84-17.214 29.843 17.214-29.841 17.215"/>
        <path fill="#FFFFFE" d="M435.132 190.742l25.304 14.596 25.303-14.596-25.305-14.595-25.302 14.595zm25.304 19.481c-.391 0-.782-.101-1.134-.305l-29.842-17.212a2.27 2.27 0 0 1-1.135-1.964c0-.81.433-1.558 1.135-1.963l29.84-17.214a2.268 2.268 0 0 1 2.269 0l29.842 17.214a2.268 2.268 0 0 1 1.135 1.963 2.27 2.27 0 0 1-1.135 1.964l-29.84 17.212a2.263 2.263 0 0 1-1.135.305z"/>
        <g transform="translate(459.704 142.547)">
            <mask id="l" fill="#fff">
                <use xlink:href="#j"/>
            </mask>
            <path fill="url(#k)" d="M30.573 34.744L.732 51.96V17.532L30.572.317v34.427" mask="url(#l)"/>
        </g>
        <g transform="translate(429.321 125.388)">
            <mask id="o" fill="#fff">
                <use xlink:href="#m"/>
            </mask>
            <path fill="url(#n)" d="M31.115 34.69L1.275 17.475 31.113.261l29.843 17.215L31.115 34.69" mask="url(#o)"/>
        </g>
        <g transform="translate(429.321 142.547)">
            <mask id="r" fill="#fff">
                <use xlink:href="#p"/>
            </mask>
            <path fill="url(#q)" d="M31.115 51.96L1.275 34.744V.317l29.84 17.215V51.96" mask="url(#r)"/>
        </g>
        <path fill="#FFFFFE" d="M449.69 175.906l-8.348-4.813v-9.63l8.347 4.814v9.63M452.09 142.964l8.289-4.914 8.403 4.714-8.288 4.914-8.403-4.714"/>
        <path fill="#7DBCDB" d="M460.436 406.321l-29.842-17.215 29.84-17.214 29.843 17.215-29.841 17.214"/>
        <path fill="#FFFFFE" d="M435.13 376.18l25.306 14.597 25.304-14.598-25.306-14.595-25.303 14.595zm25.306 19.482c-.391 0-.782-.102-1.134-.304l-29.842-17.215a2.269 2.269 0 0 1-1.135-1.964c0-.809.433-1.557 1.135-1.963l29.84-17.213a2.268 2.268 0 0 1 2.269 0l29.842 17.213a2.266 2.266 0 0 1 0 3.927l-29.84 17.215a2.275 2.275 0 0 1-1.135.304z"/>
        <g transform="translate(459.704 327.33)">
            <mask id="u" fill="#fff">
                <use xlink:href="#s"/>
            </mask>
            <path fill="url(#t)" d="M30.573 35.4L.732 52.614V18.187L30.572.973V35.4" mask="url(#u)"/>
        </g>
        <g transform="translate(429.321 310.17)">
            <mask id="x" fill="#fff">
                <use xlink:href="#v"/>
            </mask>
            <path fill="url(#w)" d="M31.115 35.345L1.275 18.131 31.113.917l29.841 17.214-29.84 17.214" mask="url(#x)"/>
        </g>
        <g transform="translate(429.321 327.33)">
            <mask id="A" fill="#fff">
                <use xlink:href="#y"/>
            </mask>
            <path fill="url(#z)" d="M31.115 52.614L1.275 35.4V.973l29.84 17.214v34.427" mask="url(#A)"/>
        </g>
        <path fill="#FFFFFE" d="M449.69 361.344l-8.348-4.814v-9.63l8.347 4.815v9.629"/>
        <path fill="#7DBCDB" d="M126.304 220.884L96.46 203.669l29.841-17.214 29.843 17.214-29.841 17.215"/>
        <path fill="#FFFFFE" d="M101 190.742l25.304 14.596 25.302-14.596-25.304-14.595L101 190.742zm25.304 19.481c-.393 0-.784-.101-1.134-.305l-29.842-17.212a2.272 2.272 0 0 1-1.136-1.964c0-.81.434-1.558 1.136-1.963l29.84-17.214a2.265 2.265 0 0 1 2.268 0l29.842 17.214a2.267 2.267 0 0 1 0 3.927l-29.841 17.212c-.35.204-.741.305-1.133.305z"/>
        <g transform="translate(125.494 142.547)">
            <mask id="D" fill="#fff">
                <use xlink:href="#B"/>
            </mask>
            <path fill="url(#C)" d="M30.65 34.744L.81 51.96V17.532L30.65.317v34.427" mask="url(#D)"/>
        </g>
        <g transform="translate(96.432 125.388)">
            <mask id="F" fill="#fff">
                <use xlink:href="#E"/>
            </mask>
            <path fill="url(#n)" d="M29.871 34.69L.031 17.475 29.87.261l29.84 17.215-29.84 17.214" mask="url(#F)"/>
        </g>
        <g transform="translate(96.432 142.547)">
            <mask id="I" fill="#fff">
                <use xlink:href="#G"/>
            </mask>
            <path fill="url(#H)" d="M29.871 51.96L.031 34.744V.317l29.84 17.215V51.96" mask="url(#I)"/>
        </g>
        <path fill="#FFFFFE" d="M115.556 175.906l-8.346-4.813v-9.63l8.346 4.814v9.63M359.44 221.182l-2.267-3.926 86.78-50.063 2.269 3.926-86.783 50.063"/>
        <path fill="#7DBCDB" d="M286.328 342.475l-76.534-44.149c-2.804-1.618-2.452-4.444.786-6.311l81.117-46.915c3.239-1.868 8.137-2.073 10.941-.454l76.534 44.148c2.805 1.62 2.452 4.444-.786 6.313l-81.116 46.914c-3.24 1.869-8.138 2.072-10.942.454"/>
        <path fill="#FFFFFE" d="M287.461 322.658c2.102 1.212 6.155 1 8.674-.454l81.115-46.914c1.135-.654 1.547-1.32 1.547-1.608 0-.17-.235-.476-.76-.78l-76.532-44.148c-2.102-1.213-6.155-1-8.674.454l-81.115 46.913c-1.135.654-1.547 1.32-1.547 1.61 0 .168.235.475.761.777l76.531 44.15m3.63 5.311c-2.186 0-4.289-.458-5.898-1.386l-76.532-44.148c-1.925-1.111-3.028-2.826-3.028-4.704 0-2.12 1.39-4.137 3.812-5.536l81.115-46.912c3.926-2.266 9.728-2.466 13.213-.455l76.533 44.15c1.924 1.108 3.027 2.823 3.027 4.704 0 2.12-1.39 4.136-3.812 5.532l-81.115 46.914c-2.112 1.22-4.769 1.841-7.316 1.841"/>
        <g transform="translate(291.617 58.075)">
            <mask id="L" fill="#fff">
                <use xlink:href="#J"/>
            </mask>
            <path fill="url(#K)" d="M.06 248.942c1.043-.731 1.692-2.232 1.692-4.31V57.942c0-1.958-.578-4.071-1.518-5.927L89.286.643c.95 1.865 1.542 3.987 1.542 5.958v186.69c0 2.155-.702 3.68-1.813 4.379l.002.008-.158.09-.042.026L.06 248.942" mask="url(#L)"/>
        </g>
        <g transform="translate(206.074 7.92)">
            <mask id="O" fill="#fff">
                <use xlink:href="#M"/>
            </mask>
            <path fill="url(#N)" d="M85.777 102.169c-1.001-1.977-2.413-3.664-3.979-4.567L3.716 52.56c-.775-.447-1.513-.66-2.182-.66-.439 0-.85.093-1.22.268L89.235.911v.001c.414-.23.879-.35 1.382-.35.667 0 1.402.211 2.176.656l78.08 45.042c1.557.9 2.96 2.574 3.96 4.535L141.53 70.006l-1.464.845-38.399 22.151-1.463.844-14.428 8.323" mask="url(#O)"/>
        </g>
        <path fill="#3368F5" d="M287.872 306.86l-78.082-45.042c-3.036-1.751-5.498-6.45-5.498-10.495V64.632c0-4.044 2.462-5.904 5.498-4.153l78.082 45.042c3.035 1.752 5.497 6.45 5.497 10.496v186.69c0 4.047-2.462 5.905-5.497 4.154"/>
        <path fill="#FFFFFE" d="M289.545 104.583l-78.08-45.042c-1.757-1.014-3.32-.812-4.326.318.787-.125 1.69.066 2.651.62l78.082 45.042c3.035 1.752 5.497 6.452 5.497 10.496v186.69c0 1.704-.44 3.013-1.173 3.837 1.696-.27 2.847-2.01 2.847-4.776v-186.69c0-4.043-2.461-8.744-5.498-10.495"/>
        <g transform="translate(208.716 68.634)">
            <mask id="R" fill="#fff">
                <use xlink:href="#P"/>
            </mask>
            <path fill="url(#Q)" d="M74.243 226.988L5.987 187.614c-2.655-1.531-4.807-5.64-4.807-9.176V5.055c0-3.536 2.152-5.162 4.807-3.63L74.243 40.8c2.656 1.531 4.808 5.639 4.808 9.174v173.383c0 3.538-2.152 5.162-4.808 3.631" mask="url(#R)"/>
        </g>
        <g transform="translate(208.716 68.634)">
            <mask id="T" fill="#fff">
                <use xlink:href="#S"/>
            </mask>
            <path fill="url(#Q)" d="M74.243 226.988L5.987 187.614c-2.655-1.531-4.807-5.64-4.807-9.176V5.055c0-3.536 2.152-5.162 4.807-3.63L74.243 40.8c2.656 1.531 4.808 5.639 4.808 9.174v173.383c0 3.538-2.152 5.162-4.808 3.631" mask="url(#T)"/>
        </g>
        <path fill="#263764" d="M282.96 295.622l-68.257-39.375c-2.655-1.53-4.807-5.64-4.807-9.175V73.689c0-3.536 2.152-5.162 4.807-3.63l68.257 39.375c2.655 1.53 4.807 5.638 4.807 9.174v173.383c0 3.537-2.152 5.162-4.807 3.63"/>
        <path fill="#3B6397" d="M285.19 294.311l-68.257-39.374c-2.654-1.531-4.806-5.642-4.806-9.176V72.377c0-1.205.255-2.182.69-2.894-1.718-.014-2.921 1.562-2.921 4.206v173.383c0 3.535 2.152 7.644 4.807 9.175l68.257 39.375c1.749 1.01 3.274.64 4.116-.737-.579-.004-1.217-.188-1.887-.574"/>
        <path fill="#263764" d="M282.96 216.019l-25.37-14.635-40.463 23.34 70.64 40.75v-40.28c0-3.535-2.152-7.644-4.807-9.175"/>
        <path fill="#263764" d="M282.96 180.49l-25.37-14.634-40.463 23.34 70.64 40.75v-40.28c0-3.537-2.152-7.645-4.807-9.176"/>
        <path fill="#263764" d="M282.96 144.962l-25.37-14.635-40.463 23.34 70.64 40.75v-40.28c0-3.537-2.152-7.644-4.807-9.175"/>
        <path fill="#263764" d="M282.96 109.434l-25.37-14.637-40.463 23.342 70.64 40.749v-40.279c0-3.537-2.152-7.644-4.807-9.175"/>
        <path fill="#263764" d="M282.96 109.434l-56.166-32.4-9.667 5.576 70.64 40.748v-4.749c0-3.537-2.152-7.644-4.807-9.175"/>
        <path fill="#5589BB" d="M287.767 123.36l-70.64-40.75v22.456l70.64 40.749V123.36M287.767 158.888l-70.64-40.75v22.456l70.64 40.75v-22.456M287.767 194.416l-70.64-40.75v22.458l70.64 40.749v-22.457M287.767 229.945l-70.64-40.749v22.457l70.64 40.748v-22.456M287.767 265.475l-70.64-40.75v22.456l70.64 40.749v-22.455"/>
        <path fill="#263764" d="M281.537 137.814l-53.208-30.693c-1.5-.867-2.719-3.191-2.719-5.194v-6.013c0-2 1.218-2.92 2.719-2.055l53.208 30.694c1.5.866 2.718 3.191 2.718 5.19v6.015c0 2.003-1.218 2.921-2.718 2.056"/>
        <path fill="#3F5F90" d="M281.837 137.964a2.894 2.894 0 0 1-.3-.15l-53.208-30.693c-1.5-.867-2.719-3.191-2.719-5.194 0 2.003 1.218 4.327 2.719 5.194l53.208 30.693c.102.058.2.108.3.15m-56.227-42.05c0-1.485.67-2.374 1.629-2.381-.96.007-1.629.896-1.629 2.381"/>
        <path fill="#222A50" d="M282.607 138.137c-.24 0-.5-.056-.77-.173a2.894 2.894 0 0 1-.3-.15l-53.208-30.693c-1.5-.867-2.719-3.191-2.719-5.194v-6.013c0-1.485.67-2.374 1.629-2.381h.016c.329.001.692.106 1.074.326l.068.04c-.058.26-.099.543-.099.863v6.014c0 2.001 1.218 4.326 2.72 5.193l53.138 30.653c-.215.96-.79 1.515-1.55 1.515"/>
        <path fill="#FFFFFE" d="M264.84 121.33l-32.017-18.47c-.53-.304-.958-1.121-.958-1.827 0-.704.428-1.027.958-.721l32.017 18.469c.528.305.957 1.122.957 1.827 0 .704-.43 1.028-.957.722"/>
        <path fill="#263764" d="M281.537 173.123l-53.208-30.693c-1.5-.868-2.719-3.191-2.719-5.193v-6.015c0-2 1.218-2.92 2.719-2.054l53.208 30.694c1.5.866 2.718 3.191 2.718 5.191v6.015c0 2.002-1.218 2.92-2.718 2.055"/>
        <path fill="#3F5F90" d="M281.75 173.235a3.692 3.692 0 0 1-.213-.112l-53.208-30.693c-1.5-.868-2.719-3.191-2.719-5.193 0 2.002 1.218 4.325 2.719 5.193l53.208 30.693c.071.04.142.078.212.112m-56.139-42.086c.013-.877.266-1.539.673-1.924-.407.385-.66 1.047-.673 1.924"/>
        <path fill="#222A50" d="M282.607 173.446a2.013 2.013 0 0 1-.85-.208c-.004-.002-.005-.003-.008-.003a3.692 3.692 0 0 1-.212-.112l-53.208-30.693c-1.5-.868-2.719-3.191-2.719-5.193v-6.015-.073c.013-.877.266-1.539.673-1.924l.002-.001.005-.006c.263-.245.59-.376.96-.376.331 0 .696.106 1.079.328l.068.038c-.058.261-.099.544-.099.863v6.015c0 2.002 1.218 4.325 2.72 5.192l53.138 30.653c-.215.96-.79 1.515-1.55 1.515"/>
        <path fill="#FFFFFE" d="M264.84 156.639l-32.017-18.47c-.53-.304-.958-1.121-.958-1.826 0-.705.428-1.028.958-.722l32.017 18.47c.528.304.957 1.121.957 1.825 0 .706-.43 1.03-.957.723"/>
        <path fill="#263764" d="M281.537 208.76l-53.208-30.692c-1.5-.867-2.719-3.191-2.719-5.193v-6.014c0-2 1.218-2.922 2.719-2.053l53.208 30.692c1.5.866 2.718 3.191 2.718 5.192v6.014c0 2-1.218 2.922-2.718 2.055"/>
        <path fill="#3F5F90" d="M225.61 166.861c0-1.487.673-2.378 1.636-2.38-.963.002-1.636.893-1.636 2.38"/>
        <path fill="#222A50" d="M282.607 209.084c-.328 0-.69-.104-1.07-.323l-53.208-30.693c-1.5-.867-2.719-3.191-2.719-5.193v-6.014c0-1.487.673-2.378 1.636-2.38h.007c.316 0 .664.097 1.027.299l.049.028.068.04c-.058.262-.099.542-.099.861v6.015c0 2.002 1.218 4.325 2.72 5.193l53.138 30.652c-.215.96-.79 1.515-1.55 1.515"/>
        <path fill="#D4EAF2" d="M264.84 192.278l-32.017-18.47c-.53-.304-.958-1.122-.958-1.827 0-.703.428-1.027.958-.723l32.017 18.472c.528.303.957 1.121.957 1.825 0 .705-.43 1.028-.957.723"/>
        <path fill="#263764" d="M281.537 244.729l-53.208-30.693c-1.5-.868-2.719-3.191-2.719-5.193v-6.015c0-2 1.218-2.92 2.719-2.054l53.208 30.694c1.5.866 2.718 3.191 2.718 5.191v6.015c0 2-1.218 2.92-2.718 2.055"/>
        <path fill="#3F5F90" d="M281.768 244.849a2.981 2.981 0 0 1-.231-.12l-53.208-30.693c-1.5-.868-2.719-3.191-2.719-5.193 0 2.002 1.218 4.325 2.719 5.193l53.208 30.693c.078.045.154.084.231.12m-56.158-42.021c0-1.484.67-2.373 1.629-2.38-.96.007-1.629.896-1.629 2.38"/>
        <path fill="#222A50" d="M282.607 245.052c-.256 0-.533-.063-.823-.195l-.008-.004-.008-.004a2.981 2.981 0 0 1-.231-.12l-53.208-30.693c-1.5-.868-2.719-3.191-2.719-5.193v-6.015c0-1.484.67-2.373 1.629-2.38h.016c.329.002.692.106 1.074.326l.068.04c-.058.261-.099.544-.099.863v6.015c0 2 1.218 4.325 2.72 5.192l53.138 30.653c-.215.96-.79 1.515-1.55 1.515"/>
        <path fill="#DA3685" d="M264.84 228.245l-32.017-18.47c-.53-.304-.958-1.121-.958-1.827 0-.704.428-1.027.958-.722l32.017 18.47c.528.305.957 1.122.957 1.826 0 .706-.43 1.029-.957.723"/>
        <path fill="#263764" d="M281.537 279.983l-53.208-30.693c-1.5-.867-2.719-3.191-2.719-5.193v-6.014c0-2 1.218-2.92 2.719-2.054l53.208 30.693c1.5.867 2.718 3.191 2.718 5.192v6.014c0 2-1.218 2.922-2.718 2.055"/>
        <path fill="#3F5F90" d="M225.61 238.083c0-1.483.67-2.373 1.629-2.38-.96.007-1.629.897-1.629 2.38"/>
        <path fill="#222A50" d="M282.607 280.306c-.328 0-.69-.104-1.07-.323l-53.208-30.693c-1.5-.867-2.719-3.191-2.719-5.193v-6.014c0-1.483.67-2.373 1.629-2.38h.016c.309.002.648.094 1.004.287.024.013.047.025.07.04l.068.039c-.058.263-.099.542-.099.863v6.014c0 2.002 1.218 4.325 2.72 5.192l53.138 30.653c-.215.96-.79 1.515-1.55 1.515"/>
        <path fill="#D4EAF2" d="M264.84 263.5l-32.017-18.47c-.53-.304-.958-1.124-.958-1.827 0-.704.428-1.027.958-.723l32.017 18.471c.528.304.957 1.122.957 1.826 0 .705-.43 1.028-.957.723"/>
        <path fill="#263764" d="M222.69 108.276l-5.563-3.21 5.562 3.209v.001m0-22.456l-5.562-3.21 5.562 3.21v-.002"/>
        <path fill="#263764" d="M222.69 85.82l-5.563-3.21 5.562 3.208"/>
        <path fill="#395F92" d="M222.69 108.275l-5.563-3.209V82.61l5.562 3.21v22.456"/>
        <path fill="#263764" d="M222.69 143.804l-5.563-3.21 5.562 3.21"/>
        <path fill="#395F92" d="M222.69 143.803l-5.563-3.209v-22.456l5.562 3.21v22.456M222.69 179.333l-5.563-3.209v-22.457l5.562 3.21v22.456"/>
        <path fill="#263764" d="M222.69 192.405l-5.563-3.209 5.562 3.209"/>
        <path fill="#395F92" d="M222.69 214.861l-5.563-3.208v-22.457l5.562 3.209v22.456"/>
        <path fill="#263764" d="M222.69 250.391l-5.563-3.21 5.562 3.209v.001M222.69 227.935l-5.563-3.21 5.562 3.208v.002"/>
        <path fill="#395F92" d="M222.69 250.39l-5.563-3.209v-22.456l5.562 3.21v22.456"/>
        <path fill="#D4EAF2" d="M271.147 123.547c0 .718-.503 1.01-1.125.65-.624-.358-1.127-1.23-1.127-1.949 0-.716.503-1.008 1.127-.65.622.36 1.125 1.232 1.125 1.949"/>
        <path fill="#DA3685" d="M275.923 126.302c0 .718-.505 1.01-1.127.649-.622-.358-1.126-1.23-1.126-1.948 0-.717.504-1.009 1.126-.65.622.36 1.127 1.232 1.127 1.949"/>
        <path fill="#D4EAF2" d="M280.697 129.056c0 .718-.505 1.01-1.127.65-.621-.358-1.126-1.232-1.126-1.95 0-.715.505-1.007 1.126-.65.622.361 1.127 1.233 1.127 1.95"/>
        <path fill="#DA3685" d="M271.147 159.058c0 .717-.503 1.009-1.125.65-.624-.36-1.127-1.232-1.127-1.949 0-.718.503-1.01 1.127-.649.622.358 1.125 1.23 1.125 1.948"/>
        <path fill="#D4EAF2" d="M275.923 161.813c0 .717-.505 1.008-1.127.65-.622-.36-1.126-1.232-1.126-1.949 0-.718.504-1.01 1.126-.65.622.358 1.127 1.23 1.127 1.949"/>
        <path fill="#FFFFFE" d="M280.697 164.567c0 .717-.505 1.009-1.127.65-.621-.36-1.126-1.232-1.126-1.95 0-.716.505-1.008 1.126-.65.622.36 1.127 1.232 1.127 1.95M271.147 194.837c0 .718-.503 1.007-1.125.65-.624-.36-1.127-1.232-1.127-1.95s.503-1.007 1.127-.649c.622.359 1.125 1.231 1.125 1.95"/>
        <path fill="#DA3685" d="M275.923 197.592c0 .718-.505 1.007-1.127.65-.622-.36-1.126-1.232-1.126-1.95s.504-1.007 1.126-.65c.622.36 1.127 1.232 1.127 1.95"/>
        <path fill="#FFFFFE" d="M280.697 200.347c0 .718-.505 1.007-1.127.649-.621-.359-1.126-1.231-1.126-1.95 0-.718.505-1.007 1.126-.649.622.358 1.127 1.232 1.127 1.95M271.147 230.095c0 .718-.503 1.009-1.125.65-.624-.36-1.127-1.232-1.127-1.95s.503-1.007 1.127-.65c.622.36 1.125 1.232 1.125 1.95"/>
        <path fill="#D4EAF2" d="M275.923 232.85c0 .717-.505 1.008-1.127.65-.622-.36-1.126-1.232-1.126-1.95s.504-1.009 1.126-.65c.622.358 1.127 1.232 1.127 1.95M280.697 235.603c0 .718-.505 1.008-1.127.65-.621-.358-1.126-1.23-1.126-1.949 0-.718.505-1.008 1.126-.649.622.358 1.127 1.231 1.127 1.948"/>
        <path fill="#FFFFFE" d="M271.147 265.834c0 .718-.503 1.008-1.125.649-.624-.36-1.127-1.232-1.127-1.95 0-.716.503-1.007 1.127-.649.622.36 1.125 1.233 1.125 1.95"/>
        <path fill="#DA3685" d="M275.923 268.588c0 .718-.505 1.009-1.127.65-.622-.36-1.126-1.232-1.126-1.95 0-.717.504-1.007 1.126-.65.622.361 1.127 1.233 1.127 1.95"/>
        <path fill="#D4EAF2" d="M280.697 271.343c0 .718-.505 1.008-1.127.65-.621-.36-1.126-1.232-1.126-1.95s.505-1.007 1.126-.65c.622.36 1.127 1.233 1.127 1.95"/>
        <path fill="#263764" d="M306.447 123.416v155.93l64.188-37.029V86.39l-64.188 37.027zm-1.317 158.21v-158.97l.329-.189 66.493-38.358v158.97l-.33.187-66.492 38.36z"/>
        <path fill="#263764" d="M354.68 155.634l-29.815 17.2c-2.004 1.155-3.627-.072-3.627-2.739v-16.518c0-2.668 1.623-5.767 3.627-6.923l29.815-17.198c2.001-1.156 3.626.07 3.626 2.739v16.515c0 2.67-1.625 5.77-3.626 6.924"/>
        <path fill="#5589BB" d="M355.402 129.134c.17.463.27 1.016.27 1.656v16.519c0 2.667-1.625 5.768-3.626 6.922l-29.816 17.2c-.247.142-.49.248-.723.32.538 1.458 1.836 1.96 3.358 1.083l29.815-17.2c2.001-1.154 3.626-4.255 3.626-6.924v-16.515c0-2.339-1.247-3.568-2.904-3.061"/>
        <path fill="#FFFFFE" d="M349.233 145.687c.551-.319 1-.06 1 .576v3.763c0 .635-.449 1.409-1 1.725-.55.318-.998.061-.998-.574v-3.763c0-.635.448-1.408.998-1.727"/>
        <path fill="#D4EAF2" d="M344.956 148.625c.551-.318.997-.061.997.576v3.292c0 .635-.446 1.408-.997 1.727-.55.318-.997.06-.997-.576v-3.292c0-.636.446-1.41.997-1.727"/>
        <path fill="#DA3685" d="M340.679 147.418c.552-.317.998-.06.998.577v6.965c0 .635-.446 1.408-.998 1.726-.551.32-.998.061-.998-.575v-6.965c0-.636.447-1.41.998-1.728"/>
        <path fill="#D4EAF2" d="M336.403 145.873c.55-.318.997-.061.997.575v10.979c0 .636-.446 1.408-.997 1.728-.552.318-.999.059-.999-.577V147.6c0-.637.447-1.41.999-1.727M332.125 149.49c.553-.318.998-.06.998.577v9.827c0 .637-.445 1.41-.998 1.727-.55.319-.997.061-.997-.575v-9.828c0-.636.447-1.408.997-1.728"/>
        <path fill="#FFFFFE" d="M327.848 156.449c.55-.318.997-.06.997.575v5.337c0 .637-.446 1.41-.997 1.727-.552.318-.999.061-.999-.575v-5.338c0-.636.447-1.408.999-1.726"/>
        <path fill="#DA3685" d="M348.252 143.786c0 .627.44.879.981.567.542-.314.982-1.074.982-1.698 0-.626-.44-.88-.982-.566-.541.311-.981 1.071-.981 1.697"/>
        <path fill="#FFFFFE" d="M348.252 140.25c0 .626.44.878.981.566.542-.313.982-1.073.982-1.698 0-.626-.44-.88-.982-.567-.541.314-.981 1.073-.981 1.699"/>
        <path fill="#D9EFF5" d="M458.167 142.865h4.538V54.916h-4.538z"/>
        <path fill="#7DBCDB" d="M288.3 423.128l-45.59-26.3c-2.798-1.614-2.446-4.434.784-6.298l44.02-25.393c3.231-1.864 8.12-2.066 10.917-.453l45.59 26.3c2.799 1.614 2.448 4.434-.783 6.297l-44.021 25.395c-3.231 1.863-8.119 2.065-10.917.452"/>
        <path fill="#FFFFFE" d="M289.594 406.495c2.013 1.16 5.9.948 8.327-.452l44.02-25.395c1.108-.637 1.373-1.215 1.38-1.324-.016-.03-.164-.242-.593-.492l-45.593-26.3c-2.008-1.159-5.898-.947-8.326.453l-44.02 25.393c-1.108.639-1.372 1.216-1.379 1.324.016.033.164.245.595.493l45.59 26.3h-.001zm3.471 5.93c-2.228 0-4.378-.479-6.06-1.449l-45.59-26.3c-2.023-1.166-3.183-2.98-3.183-4.975 0-2.234 1.445-4.35 3.966-5.803l44.022-25.393c4.072-2.352 9.877-2.547 13.504-.452l45.593 26.3c2.022 1.165 3.182 2.978 3.182 4.973 0 2.233-1.446 4.349-3.968 5.803l-44.02 25.395c-2.184 1.26-4.869 1.9-7.446 1.9z"/>
        <path fill="#3B6397" d="M345.895 363.21v-15.716l-35.273-.02-12.191-7.033c-2.798-1.614-7.686-1.411-10.917.453l-11.373 6.562-35.305-.021v16.164c-.08 1.093.53 2.148 1.874 2.923l45.59 26.3c2.798 1.612 7.686 1.41 10.917-.453l44.02-25.393c1.864-1.076 2.764-2.469 2.658-3.766"/>
        <g transform="translate(240.42 339.208)">
            <mask id="W" fill="#fff">
                <use xlink:href="#U"/>
            </mask>
            <path fill="url(#V)" d="M52.947.152c-2.048.05-4.172.565-5.852 1.533L35.72 8.248.416 8.227V24.39c-.08 1.093.531 2.148 1.875 2.923l45.59 26.3c1.343.775 3.171 1.127 5.066 1.08V.152" mask="url(#W)"/>
        </g>
        <path fill="#D4EAF2" d="M244.832 347.438l-3.996-.003v16.164c-.08 1.093.53 2.148 1.874 2.923l2.122 1.223v-20.308"/>
        <path fill="#5589BB" d="M289.003 393.165c2.412 1.033 5.904.975 8.726-.1V374.71h-8.726v18.454"/>
        <path fill="#B4D3E5" d="M288.3 376.715l-45.59-26.299c-2.798-1.614-2.446-4.434.784-6.298l44.02-25.393c3.231-1.864 8.12-2.066 10.917-.453l45.59 26.3c2.799 1.614 2.448 4.432-.783 6.297l-44.021 25.395c-3.231 1.863-8.119 2.065-10.917.451"/>
        <path fill="#FFFFFE" d="M343.238 347.777l-44.021 25.393c-3.231 1.863-8.119 2.065-10.917.453l-45.59-26.3c-.624-.36-1.082-.782-1.396-1.237-.962 1.544-.526 3.222 1.396 4.33l45.59 26.299c2.798 1.614 7.686 1.412 10.917-.451l44.02-25.395c2.51-1.448 3.273-3.471 2.18-5.059-.438.705-1.168 1.382-2.18 1.967"/>
        <path fill="#D4EAF2" d="M329.127 367.358c0 1.174-.825 2.6-1.84 3.188-1.019.586-1.843.11-1.843-1.063 0-1.174.824-2.6 1.843-3.187 1.015-.586 1.84-.111 1.84 1.062M335.051 363.941c0 1.174-.824 2.6-1.841 3.186-1.017.586-1.842.111-1.842-1.062 0-1.172.825-2.6 1.842-3.186 1.017-.586 1.841-.111 1.841 1.062M340.976 360.523c0 1.174-.824 2.601-1.841 3.187-1.018.586-1.842.111-1.842-1.062 0-1.174.824-2.6 1.842-3.188 1.017-.586 1.841-.11 1.841 1.063"/>
        <path fill="#5589BB" d="M290.996 360.41l-21.335-12.306c-1.309-.755-1.144-2.075.369-2.949l20.6-11.882c1.51-.873 3.798-.967 5.107-.212l21.333 12.308c1.31.755 1.145 2.074-.366 2.946l-20.6 11.883c-1.51.872-3.798.966-5.108.213"/>
        <path fill="#D4EAF2" d="M293.039 350.105l-2.953-1.703c-.18-.104-.158-.286.05-.406l2.852-1.645c.21-.12.525-.134.706-.029l2.952 1.703c.181.104.157.286-.051.408l-2.85 1.643c-.208.121-.527.135-.706.029"/>
        <path fill="#3B6397" d="M269.661 348.104l.06.034.309-.21 20.6-11.884c1.51-.872 3.798-.966 5.107-.21l21.272 12.271c1.208-.864 1.271-2.039.061-2.736l-21.333-12.308c-1.309-.755-3.597-.66-5.108.212l-20.6 11.882c-1.512.874-1.677 2.194-.368 2.949"/>
        <path fill="#7DBCDB" d="M455.37 307.088l-45.59-26.3c-2.797-1.614-2.447-4.434.786-6.297l44.02-25.395c3.23-1.863 8.118-2.065 10.916-.453l45.59 26.3c2.797 1.615 2.447 4.434-.785 6.299l-44.02 25.393c-3.23 1.864-8.118 2.065-10.917.453"/>
        <path fill="#FFFFFE" d="M456.664 290.455c2.012 1.157 5.901.946 8.33-.453l44.018-25.393c1.107-.64 1.373-1.216 1.38-1.324-.017-.032-.164-.244-.594-.494l-45.591-26.3c-2.01-1.157-5.9-.946-8.326.453l-44.02 25.395c-1.108.638-1.373 1.215-1.38 1.323.016.032.164.245.593.493l45.591 26.3zm3.472 5.928c-2.23 0-4.38-.477-6.06-1.448h-.001l-45.59-26.3c-2.022-1.166-3.182-2.98-3.182-4.974 0-2.233 1.446-4.349 3.968-5.802l44.02-25.395c4.075-2.352 9.88-2.546 13.505-.452l45.591 26.3c2.023 1.165 3.183 2.979 3.183 4.974 0 2.233-1.447 4.35-3.969 5.804l-44.018 25.393c-2.186 1.26-4.87 1.9-7.447 1.9z"/>
        <path fill="#3B6397" d="M512.966 247.17v-15.717l-35.272-.02-12.192-7.033c-2.798-1.613-7.686-1.41-10.916.453l-11.376 6.562-35.304-.02v16.164c-.08 1.092.53 2.147 1.875 2.922l45.589 26.3c2.799 1.612 7.686 1.41 10.918-.453l44.019-25.393c1.865-1.076 2.763-2.467 2.659-3.765"/>
        <g transform="translate(406.864 223.059)">
            <mask id="aa" fill="#fff">
                <use xlink:href="#Y"/>
            </mask>
            <path fill="url(#Z)" d="M53.573.26c-2.048.05-4.173.566-5.851 1.534L36.346 8.356l-35.304-.02V24.5c-.08 1.092.53 2.147 1.875 2.922l45.588 26.3c1.346.776 3.175 1.127 5.068 1.08V.26" mask="url(#aa)"/>
        </g>
        <path fill="#D4EAF2" d="M411.901 231.397l-3.995-.002v16.164c-.08 1.092.53 2.147 1.875 2.922l2.12 1.225v-20.31"/>
        <path fill="#5589BB" d="M456.074 277.124c2.413 1.033 5.903.976 8.725-.1v-18.352h-8.725v18.452"/>
        <g transform="translate(407.864 200.621)">
            <mask id="ac" fill="#fff">
                <use xlink:href="#ab"/>
            </mask>
            <path fill="#B4D3E5" d="M47.505 60.054l-45.588-26.3C-.881 32.14-.531 29.32 2.7 27.457L46.722 2.063c3.23-1.864 8.117-2.066 10.915-.453l45.59 26.3c2.798 1.614 2.448 4.434-.784 6.299l-44.02 25.393c-3.23 1.863-8.118 2.065-10.918.452" mask="url(#ac)"/>
        </g>
        <path fill="#FFFFFE" d="M510.307 231.736l-44.02 25.393c-3.23 1.864-8.118 2.066-10.917.453l-45.59-26.3c-.623-.36-1.082-.782-1.395-1.237-.96 1.544-.525 3.222 1.396 4.33l45.589 26.3c2.799 1.613 7.686 1.411 10.918-.452l44.019-25.393c2.512-1.45 3.275-3.473 2.18-5.06-.438.704-1.167 1.381-2.18 1.966"/>
        <path fill="#D4EAF2" d="M496.197 251.319c0 1.172-.824 2.599-1.841 3.186-1.016.586-1.84.11-1.84-1.062 0-1.174.824-2.6 1.84-3.187 1.017-.586 1.841-.11 1.841 1.063M502.122 247.9c0 1.175-.824 2.6-1.84 3.188-1.019.586-1.843.11-1.843-1.064 0-1.172.824-2.599 1.843-3.186 1.016-.586 1.84-.111 1.84 1.062M508.047 244.483c0 1.174-.825 2.6-1.842 3.186-1.017.586-1.841.111-1.841-1.062 0-1.172.824-2.599 1.841-3.186 1.017-.586 1.842-.112 1.842 1.062"/>
        <path fill="#5589BB" d="M458.066 244.37l-21.333-12.307c-1.309-.755-1.145-2.075.366-2.947l20.6-11.883c1.512-.872 3.799-.967 5.108-.212l21.335 12.307c1.31.755 1.144 2.075-.369 2.946l-20.598 11.885c-1.512.87-3.799.966-5.11.21"/>
        <path fill="#D4EAF2" d="M460.108 234.064l-2.951-1.703c-.181-.104-.157-.285.051-.406l2.85-1.643c.21-.122.525-.135.706-.03l2.953 1.702c.18.104.158.288-.05.408l-2.851 1.644c-.21.12-.526.134-.708.028"/>
        <path fill="#3B6397" d="M436.733 232.063l.06.035.306-.21 20.6-11.885c1.512-.87 3.799-.966 5.108-.21l21.274 12.272c1.206-.864 1.27-2.038.061-2.737l-21.335-12.307c-1.31-.755-3.596-.66-5.109.212L437.1 229.116c-1.511.872-1.675 2.192-.366 2.947"/>
        <path fill="#7DBCDB" d="M121.238 307.088l-45.592-26.3c-2.797-1.614-2.446-4.434.785-6.297l44.02-25.395c3.232-1.863 8.12-2.065 10.917-.453l45.59 26.3c2.798 1.615 2.447 4.434-.783 6.299l-44.02 25.393c-3.233 1.864-8.12 2.065-10.917.453"/>
        <path fill="#FFFFFE" d="M122.532 290.455c2.01 1.157 5.897.946 8.328-.453l44.019-25.393c1.107-.638 1.372-1.216 1.378-1.324-.015-.032-.164-.244-.593-.494l-45.59-26.3c-2.01-1.157-5.9-.946-8.326.453L77.727 262.34c-1.107.638-1.373 1.215-1.38 1.323.015.032.165.245.594.493l45.592 26.3zm3.47 5.928c-2.228 0-4.377-.477-6.058-1.448h-.001l-45.591-26.3c-2.023-1.166-3.182-2.98-3.182-4.974 0-2.233 1.445-4.349 3.968-5.802l44.019-25.395c4.075-2.352 9.88-2.546 13.506-.452l45.59 26.3c2.022 1.165 3.182 2.979 3.183 4.974 0 2.233-1.445 4.35-3.967 5.804l-44.02 25.393c-2.185 1.26-4.868 1.9-7.447 1.9z"/>
        <path fill="#3B6397" d="M178.833 247.17v-15.717l-35.272-.02-12.193-7.033c-2.798-1.613-7.685-1.41-10.916.453l-11.375 6.562-35.305-.02v16.164c-.078 1.092.53 2.147 1.874 2.922l45.592 26.3c2.797 1.612 7.684 1.41 10.916-.453l44.02-25.393c1.863-1.076 2.763-2.467 2.659-3.765"/>
        <g transform="translate(72.654 223.059)">
            <mask id="af" fill="#fff">
                <use xlink:href="#ad"/>
            </mask>
            <path fill="url(#ae)" d="M53.65.26c-2.048.05-4.174.566-5.853 1.534L36.422 8.356l-35.304-.02V24.5c-.078 1.092.53 2.147 1.874 2.922l45.591 26.3c1.345.776 3.172 1.127 5.066 1.08V.26" mask="url(#af)"/>
        </g>
        <path fill="#D4EAF2" d="M77.77 231.397l-3.998-.002v16.164c-.078 1.092.53 2.147 1.874 2.922l2.123 1.225v-20.31"/>
        <path fill="#5589BB" d="M121.939 277.124c2.413 1.033 5.905.976 8.726-.1v-18.352h-8.726v18.452"/>
        <path fill="#B4D3E5" d="M121.238 260.675l-45.592-26.3c-2.797-1.614-2.446-4.434.785-6.298l44.02-25.393c3.232-1.864 8.12-2.066 10.917-.453l45.59 26.3c2.798 1.614 2.447 4.434-.783 6.299l-44.02 25.393c-3.233 1.863-8.12 2.065-10.917.452"/>
        <path fill="#FFFFFE" d="M176.175 231.736l-44.02 25.393c-3.233 1.864-8.12 2.066-10.917.453l-45.592-26.3c-.622-.36-1.082-.782-1.395-1.237-.961 1.544-.525 3.222 1.395 4.33l45.592 26.3c2.797 1.613 7.684 1.411 10.916-.452l44.02-25.393c2.51-1.45 3.274-3.473 2.18-5.06-.438.704-1.167 1.381-2.18 1.966"/>
        <path fill="#D4EAF2" d="M162.064 251.319c0 1.172-.824 2.599-1.841 3.186-1.018.586-1.842.11-1.842-1.062 0-1.174.824-2.6 1.842-3.187 1.017-.586 1.841-.11 1.841 1.063M167.989 247.9c0 1.175-.825 2.6-1.842 3.188-1.016.586-1.841.11-1.841-1.064 0-1.172.825-2.599 1.841-3.186 1.017-.586 1.842-.111 1.842 1.062M173.913 244.483c0 1.174-.824 2.6-1.841 3.186-1.017.586-1.842.111-1.842-1.062 0-1.172.825-2.599 1.842-3.186 1.017-.586 1.841-.112 1.841 1.062"/>
        <path fill="#5589BB" d="M123.932 244.37L102.6 232.063c-1.31-.755-1.146-2.075.366-2.947l20.6-11.883c1.51-.872 3.798-.967 5.107-.212l21.334 12.307c1.31.755 1.147 2.075-.366 2.946l-20.6 11.885c-1.512.87-3.8.966-5.109.21"/>
        <path fill="#D4EAF2" d="M125.976 234.064l-2.951-1.703c-.182-.104-.16-.285.05-.406l2.85-1.643c.208-.122.525-.135.706-.03l2.951 1.702c.183.104.16.288-.05.408l-2.85 1.644c-.21.12-.525.134-.706.028"/>
        <path fill="#3B6397" d="M102.6 232.063l.06.035.306-.21 20.6-11.885c1.51-.87 3.798-.966 5.107-.21l21.274 12.272c1.208-.864 1.27-2.038.06-2.737l-21.334-12.307c-1.309-.755-3.597-.66-5.108.212l-20.6 11.883c-1.51.872-1.676 2.192-.365 2.947"/>
    </g>
</svg>
