<?xml version="1.0" encoding="UTF-8"?>
<svg width="113px" height="224px" viewBox="0 0 113 224" version="1.1" xmlns="http://www.w3.org/2000/svg" xmlns:xlink="http://www.w3.org/1999/xlink">
    <!-- Generator: sketchtool 57.1 (101010) - https://sketch.com -->
    <title>55D581C6-976D-46E0-A56A-67660449EF5D</title>
    <desc>Created with sketchtool.</desc>
    <g id="Screens_v2" stroke="none" stroke-width="1" fill="none" fill-rule="evenodd">
        <g id="About" transform="translate(-6.000000, -154.000000)" fill="#3368F5">
            <g id="Group-22" transform="translate(6.000000, 154.000000)">
                <rect id="Rectangle" x="0" y="0" width="2" height="2"></rect>
                <rect id="Rectangle-Copy-70" x="0" y="37" width="2" height="2"></rect>
                <rect id="Rectangle-Copy-74" x="0" y="74" width="2" height="2"></rect>
                <rect id="Rectangle-Copy-78" x="0" y="111" width="2" height="2"></rect>
                <rect id="Rectangle-Copy-82" x="0" y="148" width="2" height="2"></rect>
                <rect id="Rectangle-Copy-86" x="0" y="185" width="2" height="2"></rect>
                <rect id="Rectangle-Copy-90" x="0" y="222" width="2" height="2"></rect>
                <rect id="Rectangle-Copy-67" x="37" y="0" width="2" height="2"></rect>
                <rect id="Rectangle-Copy-71" x="37" y="37" width="2" height="2"></rect>
                <rect id="Rectangle-Copy-75" x="37" y="74" width="2" height="2"></rect>
                <rect id="Rectangle-Copy-79" x="37" y="111" width="2" height="2"></rect>
                <rect id="Rectangle-Copy-83" x="37" y="148" width="2" height="2"></rect>
                <rect id="Rectangle-Copy-87" x="37" y="185" width="2" height="2"></rect>
                <rect id="Rectangle-Copy-91" x="37" y="222" width="2" height="2"></rect>
                <rect id="Rectangle-Copy-68" x="74" y="0" width="2" height="2"></rect>
                <rect id="Rectangle-Copy-72" x="74" y="37" width="2" height="2"></rect>
                <rect id="Rectangle-Copy-76" x="74" y="74" width="2" height="2"></rect>
                <rect id="Rectangle-Copy-80" x="74" y="111" width="2" height="2"></rect>
                <rect id="Rectangle-Copy-84" x="74" y="148" width="2" height="2"></rect>
                <rect id="Rectangle-Copy-88" x="74" y="185" width="2" height="2"></rect>
                <rect id="Rectangle-Copy-92" x="74" y="222" width="2" height="2"></rect>
                <rect id="Rectangle-Copy-69" x="111" y="0" width="2" height="2"></rect>
                <rect id="Rectangle-Copy-73" x="111" y="37" width="2" height="2"></rect>
                <rect id="Rectangle-Copy-77" x="111" y="74" width="2" height="2"></rect>
                <rect id="Rectangle-Copy-81" x="111" y="111" width="2" height="2"></rect>
                <rect id="Rectangle-Copy-85" x="111" y="148" width="2" height="2"></rect>
                <rect id="Rectangle-Copy-89" x="111" y="185" width="2" height="2"></rect>
                <rect id="Rectangle-Copy-93" x="111" y="222" width="2" height="2"></rect>
            </g>
        </g>
    </g>
</svg>