<?xml version="1.0" encoding="UTF-8"?>
<svg width="225px" height="114px" viewBox="0 0 225 114" version="1.1" xmlns="http://www.w3.org/2000/svg" xmlns:xlink="http://www.w3.org/1999/xlink">
    <!-- Generator: sketchtool 57.1 (101010) - https://sketch.com -->
    <title>EAB15FF9-664E-4E7D-908B-68F37FF215C5</title>
    <desc>Created with sketchtool.</desc>
    <g id="Screens_v2" stroke="none" stroke-width="1" fill="none" fill-rule="evenodd">
        <g id="About" transform="translate(-1192.000000, -591.000000)" fill="#3368F5">
            <g id="Group-22-Copy" transform="translate(1304.500000, 648.000000) rotate(-270.000000) translate(-1304.500000, -648.000000) translate(1248.000000, 536.000000)">
                <rect id="Rectangle" x="0" y="0" width="2" height="2"></rect>
                <rect id="Rectangle-Copy-70" x="0" y="37" width="2" height="2"></rect>
                <rect id="Rectangle-Copy-74" x="0" y="74" width="2" height="2"></rect>
                <rect id="Rectangle-Copy-78" x="0" y="111" width="2" height="2"></rect>
                <rect id="Rectangle-Copy-67" x="37" y="0" width="2" height="2"></rect>
                <rect id="Rectangle-Copy-71" x="37" y="37" width="2" height="2"></rect>
                <rect id="Rectangle-Copy-75" x="37" y="74" width="2" height="2"></rect>
                <rect id="Rectangle-Copy-79" x="37" y="111" width="2" height="2"></rect>
                <rect id="Rectangle-Copy-68" x="74" y="0" width="2" height="2"></rect>
                <rect id="Rectangle-Copy-72" x="74" y="37" width="2" height="2"></rect>
                <rect id="Rectangle-Copy-76" x="74" y="74" width="2" height="2"></rect>
                <rect id="Rectangle-Copy-80" x="74" y="111" width="2" height="2"></rect>
                <rect id="Rectangle-Copy-84" x="74" y="148" width="2" height="2"></rect>
                <rect id="Rectangle-Copy-88" x="74" y="185" width="2" height="2"></rect>
                <rect id="Rectangle-Copy-92" x="74" y="222" width="2" height="2"></rect>
                <rect id="Rectangle-Copy-69" x="111" y="0" width="2" height="2"></rect>
                <rect id="Rectangle-Copy-73" x="111" y="37" width="2" height="2"></rect>
                <rect id="Rectangle-Copy-77" x="111" y="74" width="2" height="2"></rect>
                <rect id="Rectangle-Copy-81" x="111" y="111" width="2" height="2"></rect>
                <rect id="Rectangle-Copy-85" x="111" y="148" width="2" height="2"></rect>
                <rect id="Rectangle-Copy-89" x="111" y="185" width="2" height="2"></rect>
                <rect id="Rectangle-Copy-93" x="111" y="222" width="2" height="2"></rect>
            </g>
        </g>
    </g>
</svg>