<?xml version="1.0" encoding="UTF-8"?>
<svg width="90px" height="88px" viewBox="0 0 90 88" version="1.1" xmlns="http://www.w3.org/2000/svg" xmlns:xlink="http://www.w3.org/1999/xlink">
    <!-- Generator: sketchtool 58 (101010) - https://sketch.com -->
    <title>576A7E4C-0EEC-4F74-B1B6-15A2292FE405</title>
    <desc>Created with sketchtool.</desc>
    <g id="Screens_B2C" stroke="none" stroke-width="1" fill="none" fill-rule="evenodd">
        <g id="Hero" transform="translate(-740.000000, -1024.000000)" fill="#29292A" fill-rule="nonzero">
            <g id="Features" transform="translate(211.000000, 1001.000000)">
                <g id="Feature_2" transform="translate(505.000000, 0.000000)">
                    <g id="Icon" transform="translate(24.000000, 0.000000)">
                        <g id="001-sand-castle" transform="translate(0.000000, 23.000000)">
                            <path d="M18.0925758,54.3255678 C15.0646626,54.3255678 12.6014058,56.787777 12.6014058,59.8142934 L12.6014058,65.04723 C12.6014058,66.3947928 13.69737,67.4912808 15.0447582,67.4912808 L21.13533,67.4912808 C22.4827182,67.4912808 23.5786824,66.3947928 23.5786824,65.04723 L23.5786824,59.8142934 C23.5785078,56.787777 21.1176954,54.3255678 18.0925758,54.3255678 L18.0925758,54.3255678 Z M20.057175,63.9695988 L16.1227386,63.9695988 L16.1227386,59.8142934 C16.1227386,58.7296782 17.0063892,57.8472498 18.0924012,57.8472498 C19.1756196,57.8472498 20.0570004,58.7296782 20.0570004,59.8142934 L20.0570004,63.9695988 L20.057175,63.9695988 Z" id="Shape"></path>
                            <path d="M84.0023298,47.01978 L84.4580358,47.01978 C87.180399,47.01978 89.3950254,44.804106 89.3950254,42.0805206 L89.3950254,34.7237496 C89.3950254,32.0001642 87.180399,29.7844902 84.4580358,29.7844902 L64.6725384,29.7844902 L64.6725384,25.6440258 C64.6725384,23.4637956 62.9017452,21.6900342 60.725007,21.6900342 L46.589391,21.6900342 L46.589391,13.3052184 L56.9749482,13.3052184 C58.5514116,13.3052184 59.8338486,11.8979424 59.8338486,10.1681802 L59.8338486,3.311289 C59.8338486,1.5815268 58.5514116,0.1742508 56.9749482,0.1742508 L44.8287246,0.1742508 C43.8563772,0.1742508 43.0680582,0.9625698 43.0680582,1.9350918 L43.0680582,21.6902088 L28.9324422,21.6902088 C26.755704,21.6902088 24.9849108,23.4639702 24.9849108,25.6442004 L24.9849108,29.7846648 L4.9321008,29.7846648 C2.2123566,29.7844902 0,32.0003388 0,34.7237496 L0,42.0805206 C0,44.804106 2.2123566,47.01978 4.9321008,47.01978 L5.3878068,47.01978 L5.3878068,83.6042418 L1.7606664,83.6042418 C0.788319,83.6042418 0,84.3925608 0,85.3650828 C0,86.3376048 0.788319,87.1259238 1.7606664,87.1259238 L87.634359,87.1259238 C88.6067064,87.1259238 89.3950254,86.3376048 89.3950254,85.3650828 C89.3950254,84.3925608 88.6067064,83.6042418 87.634359,83.6042418 L84.0023298,83.6042418 L84.0023298,77.7062538 C84.0023298,76.7339064 83.2140108,75.9454128 82.2416634,75.9454128 C81.269316,75.9454128 80.480997,76.7339064 80.480997,77.7062538 L80.480997,83.6042418 L62.1195372,83.6042418 L62.1195372,47.01978 L80.4808224,47.01978 L80.4808224,62.022285 C80.4808224,62.994807 81.2691414,63.783126 82.2414888,63.783126 C83.2138362,63.783126 84.0021552,62.994807 84.0021552,62.022285 L84.0021552,47.01978 L84.0023298,47.01978 Z M56.3123412,9.7835364 L46.589391,9.7835364 L46.589391,3.6957582 L56.3123412,3.6957582 L56.3123412,9.7835364 Z M85.8736926,34.7237496 L85.8736926,42.0805206 C85.8736926,42.8622048 85.2386724,43.498098 84.4580358,43.498098 L58.1473872,43.498098 C57.3669252,43.498098 56.7317304,42.8622048 56.7317304,42.0805206 L56.7317304,34.7237496 C56.7317304,33.9420654 57.3667506,33.3061722 58.1473872,33.3061722 L60.883893,33.3061722 L60.883893,37.887327 C60.883893,38.859849 61.672212,39.648168 62.6445594,39.648168 C63.6169068,39.648168 64.4052258,38.859849 64.4052258,37.887327 L64.4052258,33.3061722 L69.5417832,33.3061722 L69.5417832,37.887327 C69.5417832,38.859849 70.3301022,39.648168 71.3024496,39.648168 C72.274797,39.648168 73.063116,38.859849 73.063116,37.887327 L73.063116,33.3061722 L78.1947846,33.3061722 L78.1947846,37.887327 C78.1947846,38.859849 78.9831036,39.648168 79.955451,39.648168 C80.9277984,39.648168 81.7161174,38.859849 81.7161174,37.887327 L81.7161174,33.3061722 L84.4576866,33.3061722 C85.2386724,33.3061722 85.8736926,33.9420654 85.8736926,34.7237496 L85.8736926,34.7237496 Z M28.5062436,25.6440258 C28.5062436,25.4097126 28.7014464,25.2117162 28.9324422,25.2117162 L60.725007,25.2117162 C60.9560028,25.2117162 61.1512056,25.4097126 61.1512056,25.6440258 L61.1512056,29.7844902 L58.1475618,29.7844902 C55.4251986,29.7844902 53.2105722,32.0001642 53.2105722,34.7237496 L53.2105722,36.6413814 L36.1800882,36.6413814 L36.1800882,34.7237496 C36.1800882,32.0001642 33.9677316,29.7844902 31.2479874,29.7844902 L28.5062436,29.7844902 L28.5062436,25.6440258 L28.5062436,25.6440258 Z M3.5215074,42.0805206 L3.5215074,34.7237496 C3.5215074,33.955335 4.1675274,33.3061722 4.9321008,33.3061722 L7.67367,33.3061722 L7.67367,37.887327 C7.67367,38.859849 8.461989,39.648168 9.4343364,39.648168 C10.4066838,39.648168 11.1950028,38.859849 11.1950028,37.887327 L11.1950028,33.3061722 L16.3317348,33.3061722 L16.3317348,37.887327 C16.3317348,38.859849 17.1200538,39.648168 18.0924012,39.648168 C19.0647486,39.648168 19.8530676,38.859849 19.8530676,37.887327 L19.8530676,33.3061722 L24.9845616,33.3061722 L24.9845616,37.887327 C24.9845616,38.859849 25.7728806,39.648168 26.745228,39.648168 C27.7175754,39.648168 28.5058944,38.859849 28.5058944,37.887327 L28.5058944,33.3061722 L31.2474636,33.3061722 C32.0253066,33.3061722 32.658057,33.9420654 32.658057,34.7237496 L32.658057,42.0805206 C32.658057,42.8622048 32.025132,43.498098 31.2474636,43.498098 L4.9321008,43.498098 C4.1675274,43.498098 3.5215074,42.8489352 3.5215074,42.0805206 Z M50.4099882,83.6042418 L38.9850372,83.6042418 L38.9850372,71.606952 C38.9850372,68.4529776 41.5465938,65.8872306 44.694981,65.8872306 C47.8461618,65.8872306 50.4099882,68.4531522 50.4099882,71.606952 L50.4099882,83.6042418 Z M58.5980298,83.6042418 L53.9314956,83.6042418 L53.9314956,71.606952 C53.9314956,66.511251 49.788063,62.3655486 44.694981,62.3655486 C39.6046926,62.3655486 35.4637044,66.511251 35.4637044,71.606952 L35.4637044,83.6042418 L30.7921068,83.6042418 L30.7921068,70.5722724 C30.7921068,69.5997504 30.0037878,68.8114314 29.0314404,68.8114314 C28.059093,68.8114314 27.270774,69.5997504 27.270774,70.5722724 L27.270774,83.6042418 L8.9093142,83.6042418 L8.9093142,47.01978 L27.2704248,47.01978 L27.2704248,54.8832402 C27.2704248,55.8557622 28.0587438,56.6440812 29.0310912,56.6440812 C30.0034386,56.6440812 30.7917576,55.8557622 30.7917576,54.8832402 L30.7917576,47.01978 L31.2474636,47.01978 C33.9672078,47.01978 36.1795644,44.804106 36.1795644,42.0805206 L36.1795644,40.1628888 L53.2100484,40.1628888 L53.2100484,42.0805206 C53.2100484,44.8039314 55.4246748,47.01978 58.147038,47.01978 L58.5980298,47.01978 L58.5980298,83.6042418 L58.5980298,83.6042418 Z" id="Shape"></path>
                            <path d="M65.8116288,59.8142934 L65.8116288,65.04723 C65.8116288,66.3947928 66.907593,67.4912808 68.2549812,67.4912808 L74.3504418,67.4912808 C75.69783,67.4912808 76.7937942,66.3947928 76.7937942,65.04723 L76.7937942,59.8142934 C76.7937942,56.787777 74.3305374,54.3255678 71.3026242,54.3255678 C68.274711,54.3255678 65.8116288,56.787777 65.8116288,59.8142934 Z M73.2724614,59.8142934 L73.2724614,63.9695988 L69.3331362,63.9695988 L69.3331362,59.8142934 C69.3331362,58.7296782 70.2167868,57.8472498 71.3026242,57.8472498 C72.3888108,57.8470752 73.2724614,58.7295036 73.2724614,59.8142934 L73.2724614,59.8142934 Z" id="Shape"></path>
                            <path d="M29.0312658,60.9495426 C28.0589184,60.9495426 27.2705994,61.7378616 27.2705994,62.7103836 L27.2705994,62.745129 C27.2705994,63.717651 28.0589184,64.50597 29.0312658,64.50597 C30.0036132,64.50597 30.7919322,63.717651 30.7919322,62.745129 L30.7919322,62.7103836 C30.7919322,61.7378616 30.0036132,60.9495426 29.0312658,60.9495426 Z" id="Path"></path>
                            <path d="M82.2416634,68.0836986 C81.269316,68.0836986 80.480997,68.8720176 80.480997,69.8445396 L80.480997,69.8791104 C80.480997,70.8516324 81.269316,71.6399514 82.2416634,71.6399514 C83.2140108,71.6399514 84.0023298,70.8516324 84.0023298,69.8791104 L84.0023298,69.8445396 C84.0023298,68.8720176 83.2140108,68.0836986 82.2416634,68.0836986 Z" id="Path"></path>
                        </g>
                    </g>
                </g>
            </g>
        </g>
    </g>
</svg>