<svg xmlns="http://www.w3.org/2000/svg" width="62" height="59" viewBox="0 0 62 59">
    <g fill="none" fill-rule="nonzero">
        <path fill="#29292A" d="M61.32 32.326a24.286 24.286 0 0 0-6.98-14.73 24.096 24.096 0 0 0-11.853-6.508V8.04a4.087 4.087 0 0 0 3.095-3.959c0-2.25-1.83-4.08-4.08-4.08h-8.64c-2.25 0-4.08 1.83-4.08 4.08 0 1.91 1.32 3.517 3.095 3.96v3.057a24.095 24.095 0 0 0-11.817 6.5 24.356 24.356 0 0 0-2.038 2.312c-.03-.002-.06-.004-.09-.004H9.38a1.2 1.2 0 0 0 0 2.4h7.01a24.056 24.056 0 0 0-2.13 4.612H1.2a1.2 1.2 0 0 0 0 2.4h12.382a24.399 24.399 0 0 0-.595 4.612H7.68a1.2 1.2 0 0 0 0 2.4h5.345c.101 1.554.35 3.099.75 4.613H6a1.2 1.2 0 0 0 0 2.4h8.54a24.1 24.1 0 0 0 5.52 8.536 24.285 24.285 0 0 0 14.744 6.981 24.298 24.298 0 0 0 15.607-3.793 1.2 1.2 0 0 0-1.31-2.01c-8.587 5.591-20.087 4.382-27.344-2.875-8.516-8.516-8.516-22.371 0-30.887 8.515-8.515 22.37-8.515 30.886 0 7.248 7.248 8.464 18.738 2.89 27.32a1.2 1.2 0 0 0 2.013 1.308c2.978-4.586 4.318-10.125 3.775-15.596zM31.183 4.08c0-.926.753-1.68 1.68-1.68h8.64c.926 0 1.68.754 1.68 1.68 0 .927-.754 1.68-1.68 1.68h-8.64c-.927 0-1.68-.754-1.68-1.68zm3.095 6.604V8.16h5.81v2.52a24.45 24.45 0 0 0-5.81.004z"/>
        <path fill="#29292A" d="M53.492 49.86a1.204 1.204 0 0 0-1.2 1.2 1.204 1.204 0 0 0 1.2 1.2c.316 0 .624-.127.849-.352a1.21 1.21 0 0 0 .351-.848c0-.316-.128-.625-.351-.848a1.211 1.211 0 0 0-.849-.352zM37.2 16.153c-10.264 0-18.615 8.35-18.615 18.616 0 10.264 8.35 18.615 18.615 18.615 10.265 0 18.616-8.35 18.616-18.615 0-10.265-8.351-18.616-18.616-18.616zm0 34.831c-8.941 0-16.215-7.274-16.215-16.215 0-8.942 7.274-16.216 16.215-16.216 8.941 0 16.216 7.274 16.216 16.216 0 8.94-7.275 16.215-16.216 16.215z"/>
        <path fill="#3368F5" d="M44.79 25.48l-5.943 5.944a3.706 3.706 0 0 0-1.647-.384c-.591 0-1.15.139-1.647.384l-2.66-2.66a1.2 1.2 0 0 0-1.697 1.697l2.66 2.66a3.705 3.705 0 0 0-.385 1.647 3.733 3.733 0 0 0 3.73 3.73 3.733 3.733 0 0 0 3.728-3.73c0-.59-.139-1.15-.385-1.647l5.77-5.769.174-.174a1.2 1.2 0 0 0-1.697-1.697zM37.2 36.098a1.33 1.33 0 0 1-1.329-1.328 1.33 1.33 0 0 1 1.33-1.33 1.33 1.33 0 0 1 1.328 1.33 1.33 1.33 0 0 1-1.329 1.328z"/>
        <path fill="#29292A" d="M50.03 33.583H48.92a1.2 1.2 0 0 0 0 2.4h1.111a1.2 1.2 0 0 0 0-2.4zM25.482 33.554H24.37a1.2 1.2 0 0 0 0 2.4h1.112a1.2 1.2 0 0 0 0-2.4zM37.215 24.25a1.2 1.2 0 0 0 1.2-1.2v-1.112a1.2 1.2 0 0 0-2.4 0v1.112a1.2 1.2 0 0 0 1.2 1.2zM37.185 45.287a1.2 1.2 0 0 0-1.2 1.2V47.6a1.2 1.2 0 0 0 2.4 0v-1.112a1.2 1.2 0 0 0-1.2-1.2zM1.2 40.973a1.21 1.21 0 0 0-.848.351 1.21 1.21 0 0 0-.352.849c0 .317.128.625.352.848.223.223.532.352.848.352.316 0 .625-.129.848-.352a1.21 1.21 0 0 0 .352-.848c0-.316-.128-.625-.352-.849a1.209 1.209 0 0 0-.848-.351z"/>
    </g>
</svg>
