<?xml version="1.0" encoding="UTF-8"?>
<svg width="414px" height="346px" viewBox="0 0 414 346" version="1.1" xmlns="http://www.w3.org/2000/svg" xmlns:xlink="http://www.w3.org/1999/xlink">
    <!-- Generator: sketchtool 57.1 (101010) - https://sketch.com -->
    <title>7AC74208-4A51-4A2C-AB8D-0BC26EB980DB</title>
    <desc>Created with sketchtool.</desc>
    <defs>
        <polyline id="path-1" points="23.143 26.807 0.553 39.849 0.553 13.765 23.143 0.723 23.143 26.807"></polyline>
        <radialGradient cx="-9.46436476%" cy="31.224761%" fx="-9.46436476%" fy="31.224761%" r="149.042939%" gradientTransform="translate(-0.094644,0.312248),scale(1.000000,0.577365),translate(0.094644,-0.312248)" id="radialGradient-3">
            <stop stop-color="#2B4876" offset="0%"></stop>
            <stop stop-color="#263765" offset="100%"></stop>
        </radialGradient>
        <polyline id="path-4" points="23.553 26.765 0.963 13.723 23.552 0.681 46.142 13.723 23.553 26.765"></polyline>
        <linearGradient x1="0%" y1="49.9996166%" x2="131.869895%" y2="49.9996166%" id="linearGradient-6">
            <stop stop-color="#D4EAF2" offset="0%"></stop>
            <stop stop-color="#83B0D1" offset="100%"></stop>
        </linearGradient>
        <polyline id="path-7" points="23.553 39.849 0.963 26.807 0.963 0.723 23.553 13.765 23.553 39.849"></polyline>
        <radialGradient cx="-123.740593%" cy="-57.822931%" fx="-123.740593%" fy="-57.822931%" r="269.408145%" gradientTransform="translate(-1.237406,-0.578229),scale(1.000000,0.577365),translate(1.237406,0.578229)" id="radialGradient-9">
            <stop stop-color="#6693BF" offset="0%"></stop>
            <stop stop-color="#3B6397" offset="100%"></stop>
        </radialGradient>
        <polyline id="path-10" points="23.586 27.03 0.995 40.073 0.995 13.989 23.586 0.946 23.586 27.03"></polyline>
        <radialGradient cx="-9.45951928%" cy="31.2265188%" fx="-9.45951928%" fy="31.2265188%" r="149.036342%" gradientTransform="translate(-0.094595,0.312265),scale(1.000000,0.577376),translate(0.094595,-0.312265)" id="radialGradient-12">
            <stop stop-color="#2B4876" offset="0%"></stop>
            <stop stop-color="#263765" offset="100%"></stop>
        </radialGradient>
        <polyline id="path-13" points="22.995 26.989 0.405 13.946 22.995 0.904 45.585 13.947 22.995 26.989"></polyline>
        <linearGradient x1="0%" y1="50.0019168%" x2="131.866977%" y2="50.0019168%" id="linearGradient-15">
            <stop stop-color="#D4EAF2" offset="0%"></stop>
            <stop stop-color="#83B0D1" offset="100%"></stop>
        </linearGradient>
        <polyline id="path-16" points="22.995 40.073 0.405 27.03 0.405 0.946 22.995 13.989 22.995 40.073"></polyline>
        <radialGradient cx="-123.740593%" cy="-57.8194086%" fx="-123.740593%" fy="-57.8194086%" r="269.408145%" gradientTransform="translate(-1.237406,-0.578194),scale(1.000000,0.577351),translate(1.237406,0.578194)" id="radialGradient-18">
            <stop stop-color="#6693BF" offset="0%"></stop>
            <stop stop-color="#3B6397" offset="100%"></stop>
        </radialGradient>
        <path d="M36.399,0.709 C35,0.743 33.547,1.096 32.399,1.758 L24.624,6.248 L0.49,6.234 L0.49,17.293 C0.435,18.04 0.852,18.762 1.771,19.292 L32.936,37.285 C33.855,37.815 35.104,38.057 36.399,38.025 L36.399,0.709" id="path-19"></path>
        <radialGradient cx="5.50986171%" cy="6.42035647%" fx="5.50986171%" fy="6.42035647%" r="109.683184%" gradientTransform="translate(0.055099,0.064204),scale(1.000000,0.962351),translate(-0.055099,-0.064204)" id="radialGradient-21">
            <stop stop-color="#6693BF" offset="0%"></stop>
            <stop stop-color="#3B6397" offset="100%"></stop>
        </radialGradient>
        <linearGradient x1="50%" y1="0%" x2="50%" y2="100%" id="linearGradient-22">
            <stop stop-color="#6D9CC8" offset="0%"></stop>
            <stop stop-color="#3B6397" offset="100%"></stop>
        </linearGradient>
        <path d="M32.936,41.267 L1.771,23.273 C-0.141,22.169 0.098,20.24 2.307,18.965 L32.399,1.592 C34.608,0.316 37.949,0.178 39.861,1.282 L71.026,19.275 C72.938,20.379 72.699,22.309 70.49,23.583 L40.398,40.957 C38.19,42.232 34.848,42.37 32.936,41.267" id="path-23"></path>
        <path d="M107.118,198.794 L5.764,140.102 C2.434,138.173 0.882,135.572 0.993,132.868 L0.97,132.876 L1.011,118.169 L6.648,124.771 C7.013,124.53 7.381,124.29 7.782,124.06 L215.12,4.736 C223.351,-0.001 235.794,-0.499 242.911,3.623 L342.84,61.491 C344.863,59.277 349.104,54.601 349.104,54.601 L349.056,68.986 L349.053,68.984 C349.204,72.228 346.895,75.683 342.247,78.357 L134.909,197.681 C126.677,202.418 114.235,202.916 107.118,198.794" id="path-25"></path>
        <radialGradient cx="38.5101714%" cy="96.5739424%" fx="38.5101714%" fy="96.5739424%" r="70.7735836%" gradientTransform="translate(0.385102,0.965739),scale(0.576666,1.000000),translate(-0.385102,-0.965739)" id="radialGradient-27">
            <stop stop-color="#6693BF" offset="0%"></stop>
            <stop stop-color="#3B6397" offset="100%"></stop>
        </radialGradient>
        <path d="M328.501,58.843 L231.111,2.446 C225.821,-0.618 216.573,-0.248 210.454,3.273 L6.061,120.901 C-0.057,124.423 -0.728,129.761 4.562,132.825 L101.951,189.222 C107.241,192.286 116.49,191.915 122.608,188.395 L327.001,70.766 C333.119,67.245 333.791,61.906 328.501,58.843" id="path-28"></path>
        <radialGradient cx="79.836993%" cy="23.4284087%" fx="79.836993%" fy="23.4284087%" r="123.715121%" gradientTransform="translate(0.798370,0.234284),scale(0.576695,1.000000),translate(-0.798370,-0.234284)" id="radialGradient-30">
            <stop stop-color="#3368F5" offset="0%"></stop>
            <stop stop-color="#1F2A4C" offset="100%"></stop>
        </radialGradient>
        <linearGradient x1="63.2537676%" y1="29.8444125%" x2="54.0167015%" y2="57.9048125%" id="linearGradient-31">
            <stop stop-color="#FFFFFF" stop-opacity="0.5" offset="0%"></stop>
            <stop stop-color="#3368F5" offset="100%"></stop>
        </linearGradient>
        <path d="M328.501,58.843 L231.111,2.446 C225.821,-0.618 216.573,-0.248 210.454,3.273 L6.061,120.901 C-0.057,124.423 -0.728,129.761 4.562,132.825 L101.951,189.222 C107.241,192.286 116.49,191.915 122.608,188.395 L327.001,70.766 C333.119,67.245 333.791,61.906 328.501,58.843" id="path-32"></path>
        <path d="M0.209,0.532 L0.209,25.496 C0.209,26.351 0.773,27.205 1.903,27.857 C4.162,29.161 7.824,29.161 10.083,27.857 C11.213,27.205 11.777,26.351 11.777,25.496 L11.777,0.532 L0.209,0.532" id="path-33"></path>
        <radialGradient cx="-6.20677732%" cy="83.856835%" fx="-6.20677732%" fy="83.856835%" r="93.450899%" gradientTransform="translate(-0.062068,0.838568),scale(1.000000,0.408720),translate(0.062068,-0.838568)" id="radialGradient-35">
            <stop stop-color="#6693BF" offset="0%"></stop>
            <stop stop-color="#3B6397" offset="100%"></stop>
        </radialGradient>
        <path d="M19.366,0.739 L0.62,0.739 L0.62,39.893 C0.62,41.277 1.535,42.663 3.366,43.72 C7.026,45.833 12.961,45.833 16.621,43.72 C18.451,42.663 19.366,41.278 19.366,39.893 L19.366,0.739" id="path-36"></path>
        <radialGradient cx="-16.9369465%" cy="105.289376%" fx="-16.9369465%" fy="105.289376%" r="91.1847861%" gradientTransform="translate(-0.169369,1.052894),scale(1.000000,0.420637),translate(0.169369,-1.052894)" id="radialGradient-38">
            <stop stop-color="#6693BF" offset="0%"></stop>
            <stop stop-color="#3B6397" offset="100%"></stop>
        </radialGradient>
        <path d="M0.558,0.543 L0.558,25.507 C0.558,26.361 1.123,27.216 2.252,27.868 C4.511,29.172 8.173,29.172 10.432,27.868 C11.562,27.216 12.127,26.361 12.127,25.507 L12.127,0.543 L0.558,0.543" id="path-39"></path>
        <radialGradient cx="-6.20624082%" cy="83.856835%" fx="-6.20624082%" fy="83.856835%" r="93.4428213%" gradientTransform="translate(-0.062062,0.838568),scale(1.000000,0.408755),translate(0.062062,-0.838568)" id="radialGradient-41">
            <stop stop-color="#6693BF" offset="0%"></stop>
            <stop stop-color="#3B6397" offset="100%"></stop>
        </radialGradient>
        <path d="M19.715,0.75 L0.969,0.75 L0.969,39.903 C0.969,41.288 1.884,42.674 3.714,43.73 C7.375,45.844 13.31,45.844 16.97,43.73 C18.8,42.674 19.715,41.289 19.715,39.903 L19.715,0.75" id="path-42"></path>
        <radialGradient cx="-16.9369465%" cy="105.289966%" fx="-16.9369465%" fy="105.289966%" r="91.1847861%" gradientTransform="translate(-0.169369,1.052900),scale(1.000000,0.420639),translate(0.169369,-1.052900)" id="radialGradient-44">
            <stop stop-color="#6693BF" offset="0%"></stop>
            <stop stop-color="#3B6397" offset="100%"></stop>
        </radialGradient>
        <path d="M115.364,111.797 C115.364,101.749 108.31,89.531 99.608,84.508 C97.714,83.414 95.907,82.776 94.224,82.513 C91.715,69.327 82.541,55.324 71.601,49.009 C68.311,47.109 65.181,46.094 62.343,45.876 C60.85,29.894 49.738,11.731 36.244,3.94 C29.195,-0.129 22.799,-0.61 18.081,1.882 L18.082,1.869 L17.852,2.001 C17.732,2.068 17.612,2.137 17.494,2.208 L2.821,10.874 L7.696,14.725 C3.32,16.638 0.553,21.546 0.553,28.802 C0.553,42.183 9.947,58.453 21.536,65.144 L93.069,116.224 L95.275,131.109 L110.733,122.006 L110.774,121.981 L110.867,121.927 L110.864,121.924 C113.646,120.25 115.364,116.752 115.364,111.797" id="path-45"></path>
        <radialGradient cx="50.0004355%" cy="50.000403%" fx="50.0004355%" fy="50.000403%" r="53.5835416%" gradientTransform="translate(0.500004,0.500004),scale(1.000000,0.878089),translate(-0.500004,-0.500004)" id="radialGradient-47">
            <stop stop-color="#6693BF" offset="0%"></stop>
            <stop stop-color="#3B6397" offset="100%"></stop>
        </radialGradient>
        <path d="M109.203,84.582 C107.309,83.488 105.502,82.851 103.819,82.587 C101.31,69.401 92.135,55.399 81.196,49.083 C77.906,47.184 74.777,46.168 71.938,45.95 C70.445,29.969 59.333,11.806 45.839,4.016 C31.327,-4.363 19.562,2.429 19.562,19.185 C19.562,19.754 19.579,20.327 19.605,20.903 C8.993,15.981 0.702,21.526 0.702,34.097 C0.702,47.477 10.096,63.748 21.684,70.438 L109.203,120.968 C117.905,125.991 124.959,121.919 124.959,111.871 C124.959,101.824 117.905,89.606 109.203,84.582" id="path-48"></path>
        <linearGradient x1="0%" y1="49.9998684%" x2="100%" y2="49.9998684%" id="linearGradient-50">
            <stop stop-color="#D4EAF2" offset="0%"></stop>
            <stop stop-color="#83B0D1" offset="100%"></stop>
        </linearGradient>
        <path d="M12.755,20.894 L19.334,23.944 L18.999,16.7 C18.975,16.191 18.961,15.686 18.961,15.185 C18.961,8.719 20.913,4.03 24.458,1.983 C28.003,-0.062 33.04,0.592 38.639,3.824 C50.682,10.778 61.189,27.704 62.558,42.359 L62.904,46.052 L66.601,46.336 C68.874,46.511 71.362,47.37 73.997,48.893 C83.563,54.416 92.185,67.249 94.498,79.409 L95.077,82.452 L98.137,82.932 C99.357,83.124 100.658,83.614 102.005,84.392 C109.352,88.635 115.56,99.387 115.56,107.871 C115.56,111.046 114.679,113.376 113.144,114.263 C111.611,115.147 109.153,114.746 106.403,113.158 L18.883,62.629 C8.702,56.752 0.1,41.853 0.1,30.097 C0.1,25.483 1.461,21.969 3.834,20.454 C4.809,19.831 5.99,19.521 7.322,19.521 C8.941,19.521 10.785,19.979 12.755,20.894" id="path-51"></path>
        <radialGradient cx="100.216525%" cy="90.7521117%" fx="100.216525%" fy="90.7521117%" r="109.210726%" gradientTransform="translate(1.002165,0.907521),scale(0.986566,1.000000),rotate(-143.130084),translate(-1.002165,-0.907521)" id="radialGradient-53">
            <stop stop-color="#2B4876" offset="0%"></stop>
            <stop stop-color="#263765" offset="100%"></stop>
        </radialGradient>
    </defs>
    <g id="Screens_v2" stroke="none" stroke-width="1" fill="none" fill-rule="evenodd">
        <g id="About" transform="translate(-201.000000, -1752.000000)">
            <g id="Block" transform="translate(201.000000, 1752.000000)">
                <g id="841">
                    <path d="M383.826,118.518 L383.826,118.518 L382.718,117.878 L366.376,108.443 L382.718,117.878 L411.788,101.095 L382.718,84.311 L353.649,101.095 L352.542,100.455 L382.718,83.032 L414.003,101.095 L383.826,118.518 M381.611,118.518 L367.076,110.126 L381.611,118.518" id="Fill-3" fill="#C0DFE9"></path>
                    <path d="M323.473,118.518 L323.473,118.517 L338.007,110.126 L323.473,118.518 M321.257,118.518 L308.476,111.138 L321.257,118.518 M322.365,117.878 L322.365,117.878 L302.862,106.617 L322.365,117.878 L338.707,108.443 L322.365,117.878 M351.434,101.095 L322.364,84.311 L293.295,101.094 L292.187,100.454 L322.364,83.032 L322.64,83.192 L352.541,100.455 L351.434,101.095" id="Fill-4" fill="#C0DFE9"></path>
                    <path d="M353.649,135.94 L353.649,135.94 L369.838,126.593 L353.649,135.941 M351.434,135.94 L335.245,126.593 L351.434,135.94 M352.542,135.301 L352.542,135.301 L342.583,129.551 L352.542,135.301 L362.5,129.551 L352.542,135.301 M383.826,118.518 L382.995,118.038 L382.917,117.993 L383.826,118.518 M381.611,118.518 L352.542,101.734 L323.472,118.518 L322.365,117.878 L351.434,101.095 L352.542,100.455 L353.649,101.095 L382.718,117.878 L381.611,118.517" id="Fill-5" fill="#C0DFE9"></path>
                    <path d="M383.827,153.364 L383.826,153.363 L383.827,153.363 L382.819,152.782 L382.719,152.724 L353.649,135.941 L353.649,135.94 L352.624,135.349 L352.542,135.301 L381.611,118.518 L381.611,118.517 L382.718,117.878 L382.917,117.993 L382.995,118.038 L383.826,118.518 L414.004,135.94 L383.827,153.364 M353.649,135.94 L382.719,152.724 L411.789,135.94 L382.718,119.157 L353.649,135.94" id="Fill-6" fill="#C0DFE9"></path>
                    <path d="M263.118,118.517 L263.118,118.517 L279.46,109.081 L263.118,118.517 M262.01,117.877 L231.956,100.526 L231.833,100.454 L262.009,83.031 L292.187,100.454 L291.079,101.094 L262.009,84.311 L232.94,101.094 L262.01,117.877 L276.545,109.485 L262.011,117.877 L262.01,117.877" id="Fill-7" fill="#C0DFE9"></path>
                    <path d="M293.296,135.939 L293.296,135.939 L307.83,127.548 L293.296,135.94 M292.188,135.3 L263.117,118.517 L263.118,118.517 L262.153,117.96 L262.011,117.877 L291.079,101.094 L292.187,100.454 L293.295,101.094 L322.365,117.878 L321.257,118.517 L292.187,101.733 L263.118,118.517 L292.188,135.3 L305.089,127.852 L292.188,135.3" id="Fill-8" fill="#C0DFE9"></path>
                    <path d="M323.474,153.362 L323.474,153.362 L333.623,147.503 L323.474,153.362 M322.366,152.723 L293.295,135.94 L293.296,135.939 L292.326,135.379 L292.188,135.3 L321.257,118.518 L321.257,118.517 L322.365,117.878 L323.473,118.517 L323.473,118.518 L352.541,135.301 L351.434,135.94 L322.365,119.157 L293.296,135.939 L322.366,152.723 L341.285,141.8 L322.366,152.723 M353.649,135.941 L352.818,135.461 L352.624,135.349 L353.649,135.94" id="Fill-9" fill="#C0DFE9"></path>
                    <path d="M353.65,170.786 L353.65,170.786 L369.993,161.351 L353.65,170.786 M351.435,170.786 L331.478,159.263 L351.435,170.786 M352.542,170.147 L339.917,162.857 L352.543,170.147 L367.077,161.755 L352.543,170.147 M383.826,153.363 L382.996,152.884 L382.819,152.782 L383.827,153.363 M381.612,153.363 L352.542,136.58 L323.473,153.362 L322.366,152.723 L351.434,135.94 L352.542,135.301 L352.624,135.349 L352.818,135.461 L353.649,135.941 L382.719,152.724 L381.612,153.363" id="Fill-10" fill="#C0DFE9"></path>
                    <path d="M383.828,188.209 L383.827,188.209 L383.828,188.209 L382.891,187.668 L382.72,187.569 L353.65,170.786 L352.65,170.209 L352.543,170.147 L381.612,153.363 L382.719,152.724 L382.819,152.782 L382.996,152.884 L383.826,153.363 L383.827,153.364 L414.004,170.786 L383.828,188.209 M353.65,170.786 L382.72,187.569 L411.79,170.786 L382.719,154.003 L353.65,170.786" id="Fill-11" fill="#C0DFE9"></path>
                    <path d="M202.763,118.517 L202.763,118.517 L215.49,111.169 L202.764,118.517 M200.548,118.517 L181.045,107.256 L200.548,118.517 M201.656,117.877 L201.656,117.877 L192.089,112.353 L201.656,117.877 L216.191,109.485 L201.656,117.877 M232.94,101.094 L232.109,100.614 L231.956,100.526 L232.94,101.094 M230.725,101.094 L201.655,84.311 L172.586,101.093 L171.478,100.453 L201.655,83.031 L201.931,83.191 L231.832,100.454 L230.725,101.094" id="Fill-12" fill="#C0DFE9"></path>
                    <path d="M232.941,135.939 L232.941,135.939 L241.3,131.113 L232.941,135.94 M231.833,135.3 L201.729,117.92 L201.656,117.877 L230.725,101.094 L231.833,100.454 L231.956,100.526 L232.109,100.614 L232.94,101.094 L262.01,117.877 L260.903,118.517 L231.833,101.733 L202.763,118.517 L231.834,135.3 L250.945,124.266 L231.834,135.3 M263.117,118.517 L262.287,118.037 L262.153,117.96 L263.118,118.517" id="Fill-13" fill="#C0DFE9"></path>
                    <path d="M263.119,153.362 L263.119,153.362 L277.653,144.971 L263.119,153.362 M262.011,152.723 L232.941,135.94 L232.941,135.939 L231.971,135.379 L231.834,135.3 L260.903,118.517 L262.01,117.877 L262.011,117.877 L262.153,117.96 L262.287,118.037 L263.117,118.517 L292.188,135.3 L291.08,135.939 L262.01,119.156 L232.941,135.939 L262.011,152.723 L276.546,144.331 L262.012,152.723 L262.011,152.723 M293.295,135.94 L292.465,135.46 L292.326,135.379 L293.296,135.939" id="Fill-14" fill="#C0DFE9"></path>
                    <path d="M293.297,170.785 L293.297,170.785 L307.831,162.394 L293.297,170.785 M292.189,170.146 L263.119,153.362 L262.186,152.824 L262.012,152.723 L291.08,135.939 L292.188,135.3 L292.326,135.379 L292.465,135.46 L293.295,135.94 L322.366,152.723 L321.258,153.362 L292.188,136.579 L263.119,153.362 L292.189,170.145 L306.724,161.754 L292.189,170.146 L292.189,170.145" id="Fill-15" fill="#C0DFE9"></path>
                    <path d="M323.474,188.208 L323.473,188.208 L336.375,180.76 L323.474,188.208 M321.258,188.208 L302.147,177.174 L321.258,188.208 M322.366,187.568 L322.366,187.568 L312.408,181.819 L322.366,187.568 L336.901,179.177 L322.366,187.568 M353.65,170.786 L352.819,170.307 L352.65,170.209 L353.65,170.786 M351.435,170.786 L322.366,154.002 L293.296,170.785 L292.189,170.145 L321.258,153.362 L322.366,152.723 L323.474,153.362 L352.542,170.147 L351.435,170.786" id="Fill-16" fill="#C0DFE9"></path>
                    <path d="M353.651,205.632 L353.651,205.632 L362.01,200.806 L353.651,205.632 M351.436,205.632 L341.869,200.108 L351.436,205.632 M352.544,204.992 L352.544,204.992 L333.04,193.732 L352.544,204.992 L367.078,196.601 L352.544,204.992 M383.827,188.209 L382.997,187.73 L382.891,187.668 L383.828,188.209 M381.613,188.209 L352.543,171.426 L323.473,188.208 L322.366,187.568 L351.435,170.786 L352.543,170.147 L352.65,170.209 L352.819,170.307 L353.65,170.786 L382.72,187.569 L381.613,188.209" id="Fill-17" fill="#C0DFE9"></path>
                    <path d="M383.829,223.055 L383.829,223.055 L382.896,222.516 L382.721,222.415 L353.651,205.632 L352.661,205.06 L352.544,204.992 L381.613,188.209 L382.72,187.569 L382.891,187.668 L382.997,187.73 L383.827,188.209 L383.828,188.209 L414.005,205.632 L383.829,223.055 M353.651,205.632 L382.721,222.415 L411.791,205.632 L382.72,188.849 L353.651,205.632" id="Fill-18" fill="#C0DFE9"></path>
                    <path d="M142.409,118.516 L142.409,118.516 L156.943,110.124 L142.409,118.516 M141.301,117.876 L112.231,101.093 L111.298,100.554 L111.124,100.453 L141.3,83.03 L141.577,83.19 L171.478,100.453 L170.37,101.093 L141.3,84.31 L112.231,101.093 L141.301,117.876 L155.836,109.484 L141.302,117.876 L141.301,117.876" id="Fill-19" fill="#C0DFE9"></path>
                    <path d="M172.587,135.938 L172.587,135.938 L187.121,127.547 L172.587,135.939 M171.479,135.299 L142.409,118.516 L141.473,117.976 L141.302,117.876 L170.37,101.093 L171.478,100.453 L172.586,101.093 L201.656,117.877 L200.548,118.516 L171.478,101.732 L142.409,118.516 L171.479,135.299 L186.014,126.908 L171.479,135.299 M202.763,118.517 L201.932,118.037 L201.729,117.92 L202.763,118.517" id="Fill-20" fill="#C0DFE9"></path>
                    <path d="M202.765,153.361 L202.764,153.361 L221.335,142.64 L202.765,153.361 M201.657,152.722 L201.657,152.722 L172.586,135.939 L172.587,135.938 L171.579,135.357 L171.479,135.299 L200.548,118.517 L200.548,118.516 L201.656,117.877 L201.729,117.92 L201.932,118.037 L202.763,118.517 L231.833,135.3 L230.726,135.939 L201.656,119.156 L172.587,135.938 L201.657,152.722 L214.707,145.188 L201.657,152.722 M232.941,135.94 L232.11,135.46 L231.971,135.379 L232.941,135.939" id="Fill-21" fill="#C0DFE9"></path>
                    <path d="M232.942,170.785 L232.942,170.785 L250.57,160.607 L232.942,170.785 M230.727,170.785 L222.737,166.172 L230.727,170.785 M231.834,170.146 L210.755,157.975 L231.835,170.145 L246.369,161.754 L231.835,170.146 L231.835,170.145 M263.119,153.362 L262.288,152.883 L262.186,152.824 L263.119,153.362 M260.904,153.362 L231.834,136.579 L202.764,153.361 L201.657,152.722 L230.726,135.939 L231.834,135.3 L231.971,135.379 L232.11,135.46 L232.941,135.94 L262.011,152.723 L260.904,153.362" id="Fill-22" fill="#C0DFE9"></path>
                    <path d="M263.12,188.208 L263.12,188.208 L283.83,176.251 L263.12,188.208 M262.012,187.568 L232.942,170.785 L232.002,170.242 L231.835,170.146 L262.011,152.723 L262.012,152.723 L262.186,152.824 L262.288,152.883 L263.119,153.362 L292.189,170.146 L291.081,170.785 L262.011,154.002 L232.942,170.785 L262.012,187.568 L271.911,181.853 L262.013,187.568 L262.012,187.568" id="Fill-23" fill="#C0DFE9"></path>
                    <path d="M293.296,205.631 L293.296,205.631 L307.831,197.239 L293.297,205.631 M291.081,205.631 L276.547,197.239 L291.082,205.631 L291.081,205.631 M292.189,204.991 L292.189,204.991 L280.748,198.386 L292.189,204.991 L306.724,196.6 L292.189,204.991 M321.258,188.208 L292.189,171.425 L263.12,188.208 L262.012,187.568 L291.081,170.785 L292.189,170.145 L293.297,170.785 L322.366,187.568 L321.258,188.208" id="Fill-24" fill="#C0DFE9"></path>
                    <path d="M323.474,223.054 L323.474,223.054 L342.045,212.332 L323.474,223.054 M322.367,222.414 L322.367,222.414 L293.296,205.631 L292.27,205.038 L292.189,204.991 L321.258,188.208 L322.366,187.568 L323.473,188.208 L323.474,188.208 L352.543,204.992 L351.436,205.632 L322.366,188.848 L293.296,205.631 L322.367,222.414 L335.417,214.88 L322.367,222.414 M353.651,205.632 L352.82,205.152 L352.661,205.06 L353.651,205.632" id="Fill-25" fill="#C0DFE9"></path>
                    <path d="M353.652,240.477 L353.652,240.476 L373.728,228.886 L353.652,240.477 M352.544,239.837 L323.474,223.054 L322.467,222.472 L322.367,222.414 L351.436,205.632 L352.544,204.992 L352.661,205.06 L352.82,205.152 L353.651,205.632 L382.721,222.415 L381.614,223.055 L352.544,206.271 L323.474,223.054 L352.545,239.837 L362.996,233.803 L352.545,239.837 M383.829,223.055 L382.998,222.575 L382.896,222.516 L383.829,223.055" id="Fill-26" fill="#C0DFE9"></path>
                    <path d="M383.83,257.901 L383.829,257.9 L383.83,257.9 L382.841,257.329 L382.722,257.261 L368.187,248.869 L382.722,257.261 L411.792,240.478 L382.721,223.694 L353.652,240.477 L352.545,239.837 L381.614,223.055 L382.721,222.415 L382.896,222.516 L382.998,222.575 L383.829,223.055 L414.006,240.478 L383.83,257.901 M381.614,257.9 L367.08,249.508 L381.615,257.9 L381.614,257.9" id="Fill-27" fill="#C0DFE9"></path>
                    <path d="M82.055,118.515 L82.055,118.514 L100.625,107.793 L82.055,118.515 M79.839,118.514 L49.662,101.092 L80.946,83.03 L81.222,83.19 L111.123,100.453 L110.016,101.093 L80.946,84.31 L51.877,101.092 L80.947,117.875 L97.115,108.541 L80.947,117.875 L79.839,118.514 M112.231,101.093 L111.4,100.613 L111.298,100.554 L112.231,101.093" id="Fill-28" fill="#C0DFE9"></path>
                    <path d="M112.232,135.938 L112.232,135.938 L132.942,123.981 L112.232,135.939 M110.017,135.938 L97.346,128.622 L110.017,135.938 M111.124,135.299 L98.343,127.919 L111.125,135.299 L121.023,129.584 L111.125,135.299 M142.409,118.516 L141.578,118.036 L141.473,117.976 L142.409,118.516 M140.194,118.516 L111.124,101.732 L82.054,118.515 L80.947,117.875 L110.016,101.093 L111.124,100.453 L111.298,100.554 L111.4,100.613 L112.231,101.093 L141.301,117.876 L140.194,118.516" id="Fill-29" fill="#C0DFE9"></path>
                    <path d="M142.41,153.361 L142.41,153.361 L158.752,143.926 L142.41,153.361 M141.302,152.722 L112.232,135.939 L112.232,135.938 L111.226,135.358 L111.125,135.299 L140.194,118.516 L141.301,117.876 L141.302,117.876 L141.473,117.976 L141.578,118.036 L142.409,118.516 L171.479,135.299 L170.371,135.938 L141.301,119.155 L112.232,135.938 L141.302,152.722 L155.837,144.33 L141.303,152.722 L141.302,152.722 M172.586,135.939 L171.755,135.459 L171.579,135.357 L172.587,135.938" id="Fill-30" fill="#C0DFE9"></path>
                    <path d="M172.588,170.784 L172.588,170.784 L187.122,162.393 L172.588,170.784 M171.48,170.145 L142.409,153.361 L142.41,153.361 L141.445,152.805 L141.303,152.722 L170.371,135.938 L171.479,135.299 L171.579,135.357 L171.755,135.459 L172.586,135.939 L201.657,152.722 L200.549,153.361 L171.479,136.578 L142.41,153.361 L171.48,170.145 L182.921,163.539 L171.48,170.145" id="Fill-31" fill="#C0DFE9"></path>
                    <path d="M202.765,188.207 L202.765,188.207 L218.785,178.959 L202.766,188.207 M201.658,187.567 L172.587,170.784 L172.588,170.784 L171.58,170.202 L171.48,170.145 L200.549,153.361 L201.657,152.722 L202.764,153.361 L202.765,153.361 L231.834,170.146 L230.727,170.785 L201.657,154.001 L172.588,170.784 L201.658,187.567 L216.193,179.176 L201.658,187.567 M232.942,170.785 L232.111,170.306 L232.002,170.242 L232.942,170.785" id="Fill-32" fill="#C0DFE9"></path>
                    <path d="M232.943,205.63 L232.943,205.63 L241.936,200.438 L232.943,205.63 M231.835,204.99 L201.795,187.647 L201.658,187.567 L230.727,170.785 L231.835,170.145 L231.835,170.146 L232.002,170.242 L232.111,170.306 L232.942,170.785 L262.012,187.568 L260.905,188.208 L231.835,171.425 L202.765,188.207 L231.836,204.99 L250.407,194.269 L231.836,204.99" id="Fill-33" fill="#C0DFE9"></path>
                    <path d="M263.121,223.054 L263.121,223.054 L277.655,214.662 L263.121,223.054 M260.905,223.054 L241.403,211.793 L260.906,223.054 L260.905,223.054 M262.013,222.414 L252.446,216.89 L262.013,222.414 L276.547,214.022 L262.013,222.414 M293.296,205.631 L292.465,205.151 L292.27,205.038 L293.296,205.631 M291.082,205.631 L262.012,188.848 L232.943,205.63 L231.836,204.99 L260.905,188.208 L262.012,187.568 L263.12,188.208 L292.189,204.991 L291.081,205.631" id="Fill-34" fill="#C0DFE9"></path>
                    <path d="M293.298,240.477 L293.298,240.477 L307.832,232.085 L293.298,240.477 M291.082,240.477 L276.548,232.085 L291.083,240.477 L291.082,240.477 M292.19,239.837 L277.655,231.445 L292.19,239.837 L303.631,233.231 L292.19,239.837 M323.474,223.054 L322.643,222.574 L322.467,222.472 L323.474,223.054 M263.121,223.054 L262.013,222.414 L291.081,205.631 L292.189,204.991 L292.27,205.038 L292.465,205.151 L293.296,205.631 L322.367,222.414 L321.259,223.054 L292.189,206.271 L263.121,223.054" id="Fill-35" fill="#C0DFE9"></path>
                    <path d="M323.475,257.899 L323.475,257.899 L331.835,253.073 L323.475,257.899 M322.367,257.26 L293.297,240.477 L293.298,240.477 L292.272,239.885 L292.19,239.837 L321.259,223.054 L322.367,222.414 L322.467,222.472 L322.643,222.574 L323.474,223.054 L352.544,239.837 L351.437,240.476 L322.367,223.693 L293.298,240.477 L322.368,257.26 L341.479,246.226 L322.368,257.26" id="Fill-36" fill="#C0DFE9"></path>
                    <path d="M353.653,275.322 L353.653,275.322 L362.646,270.13 L353.653,275.322 M352.545,274.683 L323.475,257.9 L323.475,257.899 L322.505,257.339 L322.368,257.26 L351.437,240.476 L352.545,239.837 L353.652,240.476 L353.652,240.477 L382.722,257.261 L381.615,257.9 L352.545,241.116 L323.475,257.899 L352.546,274.683 L371.117,263.961 L352.546,274.683 M383.829,257.9 L382.999,257.421 L382.841,257.329 L383.83,257.9" id="Fill-37" fill="#C0DFE9"></path>
                    <path d="M383.831,292.746 L383.83,292.746 L383.831,292.746 L382.797,292.149 L382.723,292.106 L373.156,286.583 L382.723,292.106 L411.793,275.323 L382.722,258.54 L353.653,275.322 L352.546,274.683 L381.614,257.9 L381.615,257.9 L382.722,257.261 L382.841,257.329 L382.999,257.421 L383.829,257.9 L383.83,257.901 L414.007,275.323 L383.831,292.746 M381.615,292.746 L362.113,281.486 L381.616,292.746 L381.615,292.746" id="Fill-38" fill="#C0DFE9"></path>
                    <path d="M82.056,153.36 L82.056,153.36 L91.049,148.168 L82.056,153.36 M79.84,153.36 L49.663,135.938 L79.839,118.514 L80.947,117.875 L82.055,118.514 L82.055,118.515 L111.124,135.299 L110.017,135.938 L80.947,119.154 L51.878,135.938 L80.948,152.721 L99.519,141.999 L80.948,152.721 L79.84,153.36 M112.232,135.939 L111.401,135.459 L111.226,135.358 L112.232,135.938" id="Fill-39" fill="#C0DFE9"></path>
                    <path d="M112.233,170.784 L112.233,170.784 L124.96,163.436 L112.233,170.784 M110.018,170.784 L90.515,159.524 L110.018,170.784 M111.126,170.145 L111.126,170.145 L101.559,164.621 L111.126,170.145 L125.66,161.753 L111.126,170.145 M142.409,153.361 L141.579,152.882 L141.445,152.805 L142.41,153.361 M140.195,153.361 L111.125,136.578 L82.055,153.36 L80.948,152.721 L110.017,135.938 L111.125,135.299 L111.226,135.358 L111.401,135.459 L112.232,135.939 L141.302,152.722 L140.195,153.361" id="Fill-40" fill="#C0DFE9"></path>
                    <path d="M142.411,188.207 L142.411,188.207 L156.945,179.815 L142.411,188.207 M141.303,187.567 L111.199,170.187 L111.126,170.145 L141.302,152.722 L141.303,152.722 L141.445,152.805 L141.579,152.882 L142.409,153.361 L171.48,170.145 L170.373,170.784 L141.302,154.001 L112.233,170.784 L141.303,187.567 L160.414,176.534 L141.304,187.567 L141.303,187.567 M172.587,170.784 L171.757,170.305 L171.58,170.202 L172.588,170.784" id="Fill-41" fill="#C0DFE9"></path>
                    <path d="M172.588,205.63 L172.588,205.63 L182.547,199.88 L172.589,205.63 M171.481,204.99 L142.41,188.207 L142.411,188.207 L141.441,187.647 L141.304,187.567 L171.48,170.145 L171.58,170.202 L171.757,170.305 L172.587,170.784 L201.658,187.567 L200.55,188.207 L171.48,171.424 L142.411,188.207 L171.481,204.99 L186.016,196.599 L171.481,204.99 M202.765,188.207 L201.934,187.728 L201.795,187.647 L202.765,188.207" id="Fill-42" fill="#C0DFE9"></path>
                    <path d="M202.766,223.053 L202.766,223.053 L217.301,214.661 L202.766,223.053 M201.659,222.413 L201.659,222.413 L171.618,205.07 L171.481,204.99 L200.55,188.207 L201.658,187.567 L201.795,187.647 L201.934,187.728 L202.765,188.207 L231.835,204.99 L230.728,205.63 L201.658,188.847 L172.588,205.63 L201.659,222.413 L218.001,212.978 L201.659,222.413" id="Fill-43" fill="#C0DFE9"></path>
                    <path d="M232.944,240.476 L232.944,240.475 L245.994,232.942 L232.944,240.476 M231.836,239.836 L202.766,223.053 L201.833,222.514 L201.659,222.413 L230.728,205.63 L231.836,204.99 L232.943,205.63 L262.013,222.414 L260.906,223.054 L231.836,206.269 L202.766,223.053 L231.837,239.836 L250.454,229.088 L231.837,239.836" id="Fill-44" fill="#C0DFE9"></path>
                    <path d="M263.121,257.899 L263.121,257.899 L273.079,252.15 L263.121,257.899 M260.905,257.899 L246.371,249.507 L260.906,257.899 L260.905,257.899 M262.014,257.26 L262.013,257.26 L249.469,250.017 L262.013,257.26 L281.124,246.226 L262.014,257.26 M293.297,240.477 L292.466,239.997 L292.272,239.885 L293.298,240.477 M291.083,240.477 L262.013,223.693 L232.944,240.476 L231.837,239.836 L260.905,223.054 L260.906,223.054 L262.013,222.414 L263.121,223.054 L292.19,239.837 L291.082,240.476" id="Fill-45" fill="#C0DFE9"></path>
                    <path d="M293.298,275.322 L293.298,275.322 L307.833,266.931 L293.299,275.322 M292.191,274.683 L263.12,257.9 L263.121,257.899 L262.123,257.323 L262.014,257.26 L291.082,240.477 L291.082,240.476 L292.19,239.837 L292.272,239.885 L292.466,239.997 L293.297,240.477 L322.367,257.26 L321.26,257.899 L292.19,241.116 L263.121,257.899 L292.191,274.683 L306.726,266.291 L292.191,274.683 M323.475,257.9 L322.644,257.42 L322.505,257.339 L323.475,257.899" id="Fill-46" fill="#C0DFE9"></path>
                    <path d="M323.476,292.745 L323.476,292.745 L338.011,284.353 L323.476,292.745 M322.369,292.106 L322.369,292.105 L292.328,274.762 L292.191,274.683 L321.26,257.899 L322.368,257.26 L322.505,257.339 L322.644,257.42 L323.475,257.9 L352.545,274.683 L351.438,275.322 L322.368,258.539 L293.298,275.322 L322.369,292.105 L338.711,282.67 L322.369,292.106" id="Fill-47" fill="#C0DFE9"></path>
                    <path d="M353.654,310.168 L353.654,310.168 L366.704,302.634 L353.654,310.168 M352.546,309.529 L323.476,292.745 L322.543,292.206 L322.369,292.106 L351.438,275.322 L352.546,274.683 L382.723,292.107 L381.616,292.746 L352.546,275.962 L323.476,292.745 L352.547,309.528 L371.164,298.78 L352.546,309.529 M383.83,292.746 L383,292.267 L382.797,292.149 L383.831,292.746" id="Fill-48" fill="#C0DFE9"></path>
                    <path d="M82.056,188.206 L82.056,188.206 L96.591,179.815 L82.057,188.206 M79.841,188.206 L49.664,170.783 L79.84,153.36 L80.948,152.721 L82.056,153.36 L111.125,170.145 L110.018,170.784 L80.948,154 L51.879,170.783 L80.949,187.566 L98.099,177.665 L80.949,187.567 L80.949,187.566 L79.841,188.206 M112.233,170.784 L111.402,170.305 L111.199,170.187 L112.233,170.784" id="Fill-50" fill="#C0DFE9"></path>
                    <path d="M112.234,205.629 L112.234,205.629 L128.402,196.295 L112.234,205.629 M111.126,204.989 L81.225,187.727 L80.949,187.567 L110.018,170.784 L111.126,170.145 L111.199,170.187 L111.402,170.305 L112.233,170.784 L141.303,187.567 L140.196,188.207 L111.126,171.424 L82.056,188.206 L111.127,204.989 L121.578,198.955 L111.127,204.989 M142.41,188.207 L141.58,187.728 L141.441,187.647 L142.411,188.207" id="Fill-51" fill="#C0DFE9"></path>
                    <path d="M142.412,223.053 L142.412,223.053 L160.04,212.875 L142.412,223.053 M140.196,223.053 L130.63,217.529 L140.197,223.053 L140.196,223.053 M141.304,222.413 L123.171,211.943 L141.304,222.413 L155.839,214.021 L141.305,222.413 L141.304,222.413 M172.588,205.63 L171.757,205.15 L171.618,205.07 L172.588,205.63 M170.374,205.63 L141.303,188.847 L112.234,205.629 L111.127,204.989 L140.196,188.207 L141.303,187.567 L141.304,187.567 L141.441,187.647 L141.58,187.728 L142.41,188.207 L171.481,204.99 L170.373,205.63" id="Fill-52" fill="#C0DFE9"></path>
                    <path d="M172.59,240.476 L172.59,240.476 L187.124,232.084 L172.59,240.476 M171.482,239.836 L142.412,223.053 L141.497,222.525 L141.305,222.413 L170.373,205.63 L171.481,204.99 L171.618,205.07 L171.757,205.15 L172.588,205.63 L201.658,222.413 L200.551,223.053 L171.481,206.269 L142.412,223.053 L171.482,239.836 L184.209,232.488 L171.482,239.836 M202.766,223.053 L201.935,222.573 L201.833,222.514 L202.766,223.053" id="Fill-53" fill="#C0DFE9"></path>
                    <path d="M202.768,257.898 L202.767,257.898 L218.957,248.551 L202.768,257.898 M201.66,257.259 L172.589,240.476 L172.59,240.476 L171.654,239.936 L171.482,239.836 L200.551,223.053 L201.659,222.413 L201.833,222.514 L201.935,222.573 L202.766,223.053 L231.836,239.836 L230.729,240.475 L201.659,223.692 L172.59,240.476 L201.66,257.259 L211.618,251.509 L201.66,257.259" id="Fill-54" fill="#C0DFE9"></path>
                    <path d="M232.944,275.321 L232.944,275.321 L253.02,263.731 L232.944,275.321 M230.729,275.321 L216.194,266.93 L230.729,275.321 M231.836,274.682 L214.208,264.504 L231.837,274.682 L242.288,268.648 L231.837,274.682 M263.12,257.9 L262.29,257.42 L262.123,257.323 L263.121,257.899 M260.906,257.899 L231.837,241.115 L202.767,257.898 L201.66,257.259 L230.729,240.475 L231.837,239.836 L232.944,240.475 L232.944,240.476 L262.013,257.26 L260.906,257.899" id="Fill-55" fill="#C0DFE9"></path>
                    <path d="M263.122,292.744 L263.122,292.744 L283.198,281.154 L263.122,292.744 M262.014,292.105 L232.944,275.321 L231.944,274.744 L231.837,274.682 L260.905,257.899 L260.906,257.899 L262.013,257.26 L262.014,257.26 L262.123,257.323 L262.29,257.42 L263.12,257.9 L292.191,274.683 L291.083,275.322 L262.013,258.539 L232.944,275.321 L262.014,292.105 L272.466,286.07 L262.014,292.105 M293.298,275.322 L292.467,274.843 L292.328,274.762 L293.298,275.322" id="Fill-56" fill="#C0DFE9"></path>
                    <path d="M293.299,310.168 L293.299,310.168 L307.834,301.776 L293.3,310.168 M291.084,310.168 L281.517,304.644 L291.085,310.168 M292.192,309.529 L275.903,300.124 L292.192,309.528 L304.919,302.181 L292.192,309.529 M323.476,292.745 L322.645,292.266 L322.543,292.206 L323.476,292.745 M321.261,292.745 L292.191,275.962 L263.122,292.744 L262.014,292.105 L291.083,275.322 L292.191,274.683 L292.328,274.762 L292.467,274.843 L293.298,275.322 L322.368,292.106 L321.261,292.745" id="Fill-57" fill="#C0DFE9"></path>
                    <path d="M322.37,328.23 L322.093,328.07 L292.192,310.807 L293.299,310.168 L292.192,309.529 L321.261,292.745 L322.369,292.105 L322.369,292.106 L322.543,292.206 L322.645,292.266 L323.476,292.745 L352.546,309.529 L353.654,310.168 L352.547,310.807 L352.546,310.807 L322.37,328.23 M293.299,310.168 L322.37,326.951 L351.439,310.168 L322.369,293.385 L293.299,310.168" id="Fill-58" fill="#C0DFE9"></path>
                    <path d="M352.27,345.490667 L322.369,328.227667 L323.476,327.588667 L322.369,326.949667 L351.438,310.165667 L352.546,309.525667 L352.72,309.626667 L352.822,309.686667 L353.653,310.165667 L382.723,326.949667 L383.831,327.588667 L382.724,328.227667 L382.723,328.227667 L352.547,345.650667 L352.27,345.490667 Z M352.547,344.371667 L381.616,327.588667 L352.546,310.805667 L323.476,327.588667 L352.547,344.371667 Z" id="Fill-58-Copy" fill="#C0DFE9"></path>
                    <path d="M82.057,223.052 L82.057,223.052 L94.784,215.704 L82.058,223.052 M79.843,223.051 L49.665,205.629 L79.841,188.206 L80.949,187.566 L80.949,187.567 L81.225,187.727 L111.126,204.989 L110.019,205.629 L80.949,188.846 L51.88,205.629 L80.95,222.412 L95.485,214.02 L79.843,223.051" id="Fill-59" fill="#C0DFE9"></path>
                    <path d="M112.235,240.475 L112.235,240.475 L128.255,231.226 L112.235,240.475 M111.127,239.835 L81.226,222.572 L80.95,222.412 L110.019,205.629 L111.127,204.989 L112.234,205.629 L141.304,222.413 L140.197,223.053 L111.127,206.269 L82.057,223.052 L111.128,239.835 L121.626,233.774 L111.128,239.835 M142.412,223.053 L141.581,222.573 L141.497,222.525 L142.412,223.053" id="Fill-60" fill="#C0DFE9"></path>
                    <path d="M142.413,257.898 L142.413,257.898 L161.524,246.865 L142.413,257.898 M140.197,257.898 L125.663,249.506 L140.198,257.898 L140.197,257.898 M141.305,257.259 L141.305,257.259 L126.77,248.867 L141.305,257.259 L151.264,251.509 L141.305,257.259 M172.589,240.476 L171.758,239.996 L171.654,239.936 L172.59,240.476 M170.375,240.476 L141.304,223.692 L112.235,240.475 L111.128,239.835 L140.196,223.053 L140.197,223.053 L141.304,222.413 L141.305,222.413 L141.497,222.525 L141.581,222.573 L142.412,223.053 L171.482,239.836 L170.374,240.475" id="Fill-61" fill="#C0DFE9"></path>
                    <path d="M172.59,275.321 L172.59,275.321 L187.125,266.93 L172.591,275.321 M171.483,274.682 L142.412,257.899 L142.413,257.898 L141.381,257.303 L141.305,257.259 L170.374,240.475 L171.482,239.836 L171.654,239.936 L171.758,239.996 L172.589,240.476 L201.66,257.259 L200.552,257.898 L171.482,241.115 L142.413,257.898 L171.483,274.682 L186.018,266.29 L171.483,274.682" id="Fill-62" fill="#C0DFE9"></path>
                    <path d="M202.769,292.744 L202.768,292.744 L215.394,285.455 L202.769,292.744 M201.661,292.105 L201.661,292.105 L172.59,275.321 L171.583,274.74 L171.483,274.682 L200.552,257.898 L201.66,257.259 L202.767,257.898 L202.768,257.898 L231.836,274.682 L230.729,275.321 L201.66,258.538 L172.59,275.321 L201.661,292.105 L219.596,281.749 L201.661,292.105 M232.944,275.321 L232.113,274.842 L231.944,274.744 L232.944,275.321" id="Fill-63" fill="#C0DFE9"></path>
                    <path d="M230.73,310.167 L218.003,302.819 L230.73,310.167 M232.945,310.167 L232.945,310.167 L245.672,302.819 L232.945,310.167 M231.837,309.528 L212.726,298.494 L231.837,309.527 L250.949,298.494 L231.837,309.528 M260.907,292.744 L231.837,275.961 L202.768,292.744 L201.661,292.105 L230.729,275.321 L231.837,274.682 L231.944,274.744 L232.113,274.842 L232.944,275.321 L262.014,292.105 L260.907,292.744" id="Fill-64" fill="#C0DFE9"></path>
                    <path d="M262.015,328.229 L261.739,328.069 L231.838,310.807 L231.838,310.806 L232.945,310.167 L231.837,309.528 L262.014,292.105 L263.122,292.744 L292.192,309.529 L293.299,310.168 L262.015,328.229 M232.945,310.167 L262.015,326.95 L291.085,310.168 L262.014,293.384 L232.945,310.167" id="Fill-65" fill="#C0DFE9"></path>
                    <path d="M82.058,257.897 L82.058,257.897 L92.017,252.148 L82.058,257.898 M79.843,257.897 L49.666,240.475 L80.95,222.412 L81.226,222.572 L111.127,239.835 L110.02,240.474 L80.95,223.691 L51.88,240.475 L80.951,257.258 L101.661,245.301 L80.951,257.258 L79.843,257.897" id="Fill-66" fill="#C0DFE9"></path>
                    <path d="M112.236,275.32 L112.236,275.32 L125.286,267.786 L112.236,275.32 M111.128,274.681 L81.227,257.418 L80.951,257.258 L110.02,240.474 L111.128,239.835 L112.235,240.475 L141.305,257.259 L140.198,257.898 L111.128,241.114 L82.058,257.897 L111.129,274.681 L129.746,263.932 L111.129,274.681 M142.412,257.899 L141.582,257.419 L141.381,257.303 L142.413,257.898" id="Fill-67" fill="#C0DFE9"></path>
                    <path d="M142.414,292.743 L142.414,292.743 L155.463,285.209 L142.414,292.743 M141.306,292.104 L112.236,275.32 L111.281,274.769 L111.129,274.681 L140.197,257.898 L140.198,257.898 L141.305,257.259 L141.381,257.303 L141.582,257.419 L142.412,257.899 L171.483,274.682 L170.375,275.321 L141.305,258.538 L112.236,275.32 L141.306,292.103 L159.924,281.355 L141.307,292.104 L141.306,292.103 M172.59,275.321 L171.759,274.842 L171.583,274.74 L172.59,275.321" id="Fill-68" fill="#C0DFE9"></path>
                    <path d="M172.591,310.167 L172.591,310.167 L187.126,301.775 L172.592,310.167 M170.376,310.167 L150.873,298.906 L170.377,310.167 M171.484,309.528 L158.813,302.211 L171.484,309.527 L187.673,300.18 L171.484,309.528 M200.553,292.744 L171.483,275.961 L142.414,292.743 L141.306,292.103 L170.375,275.321 L171.483,274.682 L171.759,274.842 L172.59,275.321 L201.661,292.105 L200.553,292.744" id="Fill-69" fill="#C0DFE9"></path>
                    <path d="M201.661,328.229 L171.484,310.807 L171.484,310.806 L172.591,310.167 L171.484,309.528 L200.553,292.744 L201.661,292.105 L202.768,292.744 L202.769,292.744 L231.837,309.528 L232.945,310.167 L231.838,310.806 L231.837,310.807 L201.661,328.229 M172.591,310.167 L201.661,326.95 L230.73,310.167 L201.661,293.384 L172.591,310.167" id="Fill-70" fill="#C0DFE9"></path>
                    <path d="M82.059,292.743 L82.059,292.743 L93.5,286.138 L82.059,292.743 M79.844,292.743 L49.667,275.32 L79.843,257.897 L80.951,257.258 L81.227,257.418 L111.128,274.681 L110.021,275.32 L80.951,258.537 L51.882,275.32 L80.952,292.103 L95.486,283.712 L80.952,292.104 L80.952,292.103 L79.844,292.743 M112.236,275.32 L111.405,274.841 L111.281,274.769 L112.236,275.32" id="Fill-71" fill="#C0DFE9"></path>
                    <path d="M112.237,310.166 L112.237,310.166 L123.678,303.561 L112.237,310.166 M111.129,309.527 L81.228,292.264 L80.952,292.104 L110.021,275.32 L111.129,274.681 L111.281,274.769 L111.405,274.841 L112.236,275.32 L141.306,292.104 L140.199,292.743 L111.129,275.96 L82.059,292.743 L111.129,309.526 L125.664,301.135 L111.129,309.527" id="Fill-72" fill="#C0DFE9"></path>
                    <path d="M141.307,328.229 L141.031,328.068 L111.13,310.806 L111.13,310.805 L112.237,310.166 L111.129,309.527 L140.199,292.743 L141.306,292.103 L142.414,292.743 L171.484,309.528 L172.591,310.167 L171.484,310.806 L171.484,310.807 L141.307,328.229 M112.237,310.166 L141.307,326.949 L170.377,310.167 L141.306,293.383 L112.237,310.166" id="Fill-73" fill="#C0DFE9"></path>
                    <path d="M80.953,328.229 L80.676,328.068 L49.668,310.166 L79.844,292.743 L80.952,292.103 L80.952,292.104 L81.228,292.264 L111.129,309.527 L112.237,310.166 L111.13,310.805 L111.129,310.806 L80.953,328.229 M80.952,293.383 L51.882,310.166 L80.953,326.949 L110.022,310.166 L80.952,293.383" id="Fill-74" fill="#C0DFE9"></path>
                    <polyline id="Fill-166" fill="#7DBCDB" points="120.553 119.834 97.963 106.792 120.552 93.749 143.143 106.792 120.553 119.834"></polyline>
                    <path d="M101.397,96.997 L120.553,108.057 L139.709,96.998 L120.552,85.938 L101.397,96.997 Z M120.553,111.758 C120.256,111.758 119.961,111.681 119.695,111.527 L97.104,98.484 C96.572,98.178 96.245,97.61 96.245,96.997 C96.245,96.384 96.573,95.816 97.104,95.51 L119.694,82.468 C120.225,82.161 120.88,82.161 121.411,82.468 L144.002,95.511 C144.533,95.817 144.861,96.385 144.861,96.998 C144.861,97.611 144.533,98.179 144.002,98.485 L121.412,111.527 C121.146,111.681 120.85,111.758 120.553,111.758 L120.553,111.758 Z" id="Fill-167" fill="#FFFFFE"></path>
                    <g id="Group-170" transform="translate(120.000000, 60.000000)">
                        <mask id="mask-2" fill="white">
                            <use xlink:href="#path-1"></use>
                        </mask>
                        <g id="Clip-169"></g>
                        <polyline id="Fill-168" fill="url(#radialGradient-3)" mask="url(#mask-2)" points="23.143 26.807 0.553 39.849 0.553 13.765 23.143 0.723 23.143 26.807"></polyline>
                    </g>
                    <g id="Group-173" transform="translate(97.000000, 47.000000)">
                        <mask id="mask-5" fill="white">
                            <use xlink:href="#path-4"></use>
                        </mask>
                        <g id="Clip-172"></g>
                        <polyline id="Fill-171" fill="url(#linearGradient-6)" mask="url(#mask-5)" points="23.553 26.765 0.963 13.723 23.552 0.681 46.142 13.723 23.553 26.765"></polyline>
                    </g>
                    <g id="Group-176" transform="translate(97.000000, 60.000000)">
                        <mask id="mask-8" fill="white">
                            <use xlink:href="#path-7"></use>
                        </mask>
                        <g id="Clip-175"></g>
                        <polyline id="Fill-174" fill="url(#radialGradient-9)" mask="url(#mask-8)" points="23.553 39.849 0.963 26.807 0.963 0.723 23.553 13.765 23.553 39.849"></polyline>
                    </g>
                    <polyline id="Fill-177" fill="#FFFFFE" points="112.417 85.758 106.098 82.109 106.098 74.814 112.417 78.462 112.417 85.758"></polyline>
                    <polyline id="Fill-178" fill="#7DBCDB" points="69.995 316.059 47.405 303.016 69.995 289.974 92.585 303.016 69.995 316.059"></polyline>
                    <path d="M50.839,293.222 L69.995,304.28 L89.15,293.222 L69.995,282.162 L50.839,293.222 Z M69.995,307.981 C69.698,307.981 69.402,307.904 69.136,307.751 L46.547,294.709 C46.015,294.402 45.687,293.835 45.687,293.222 C45.687,292.608 46.014,292.041 46.547,291.734 L69.136,278.691 C69.668,278.385 70.322,278.385 70.853,278.691 L93.443,291.734 C93.975,292.041 94.302,292.608 94.302,293.222 C94.302,293.835 93.974,294.402 93.443,294.709 L70.853,307.751 C70.588,307.904 70.292,307.981 69.995,307.981 L69.995,307.981 Z" id="Fill-179" fill="#FFFFFE"></path>
                    <g id="Group-182" transform="translate(69.000000, 256.000000)">
                        <mask id="mask-11" fill="white">
                            <use xlink:href="#path-10"></use>
                        </mask>
                        <g id="Clip-181"></g>
                        <polyline id="Fill-180" fill="url(#radialGradient-12)" mask="url(#mask-11)" points="23.586 27.03 0.995 40.073 0.995 13.989 23.586 0.946 23.586 27.03"></polyline>
                    </g>
                    <g id="Group-185" transform="translate(47.000000, 243.000000)">
                        <mask id="mask-14" fill="white">
                            <use xlink:href="#path-13"></use>
                        </mask>
                        <g id="Clip-184"></g>
                        <polyline id="Fill-183" fill="url(#linearGradient-15)" mask="url(#mask-14)" points="22.995 26.989 0.405 13.946 22.995 0.904 45.585 13.947 22.995 26.989"></polyline>
                    </g>
                    <g id="Group-188" transform="translate(47.000000, 256.000000)">
                        <mask id="mask-17" fill="white">
                            <use xlink:href="#path-16"></use>
                        </mask>
                        <g id="Clip-187"></g>
                        <polyline id="Fill-186" fill="url(#radialGradient-18)" mask="url(#mask-17)" points="22.995 40.073 0.405 27.03 0.405 0.946 22.995 13.989 22.995 40.073"></polyline>
                    </g>
                    <polyline id="Fill-189" fill="#FFFFFE" points="61.859 281.981 55.541 278.334 55.541 271.038 61.859 274.686 61.859 281.981"></polyline>
                    <path d="M355.936,273.02 L324.771,255.027 C322.859,253.923 323.098,251.994 325.307,250.719 L355.399,233.345 C357.608,232.07 360.949,231.932 362.861,233.036 L394.026,251.028 C395.938,252.133 395.699,254.062 393.49,255.337 L363.398,272.71 C361.19,273.985 357.848,274.124 355.936,273.02" id="Fill-190" fill="#7DBCDB"></path>
                    <path d="M359.638,224.209 C358.476,224.209 357.22,224.491 356.284,225.031 L326.192,242.405 C325.436,242.842 325.255,243.236 325.25,243.311 C325.26,243.332 325.362,243.478 325.657,243.648 L356.822,261.641 C358.196,262.434 360.856,262.288 362.512,261.331 L392.605,243.957 C393.361,243.521 393.543,243.126 393.547,243.052 C393.537,243.03 393.435,242.885 393.14,242.714 L361.976,224.723 C361.378,224.377 360.536,224.209 359.638,224.209 Z M359.193,265.697 C357.67,265.697 356.201,265.369 355.051,264.706 L323.886,246.714 C322.503,245.915 321.71,244.674 321.710999,243.309 C321.710999,241.781 322.699,240.334 324.422,239.339 L354.514,221.965 C357.299,220.359 361.268,220.226 363.747,221.657 L394.911,239.648 C396.295,240.447 397.088,241.688 397.087001,243.054 C397.087001,244.581 396.098,246.028 394.375,247.023 L364.283,264.396 C362.79,265.259 360.956,265.697 359.193,265.697 L359.193,265.697 Z" id="Fill-191" fill="#FFFFFE"></path>
                    <path d="M395.307,232.027 L395.307,221.274 L371.196,221.261 L362.861,216.449 C360.949,215.345 357.608,215.483 355.399,216.758 L347.624,221.248 L323.49,221.234 L323.49,232.293 C323.435,233.04 323.852,233.762 324.771,234.292 L355.936,252.285 C357.848,253.39 361.19,253.251 363.398,251.976 L393.49,234.603 C394.764,233.867 395.379,232.914 395.307,232.027" id="Fill-192" fill="#3B6397"></path>
                    <g id="Group-195" transform="translate(323.000000, 215.000000)">
                        <mask id="mask-20" fill="white">
                            <use xlink:href="#path-19"></use>
                        </mask>
                        <g id="Clip-194"></g>
                        <path d="M36.399,0.709 C35,0.743 33.547,1.096 32.399,1.758 L24.624,6.248 L0.49,6.234 L0.49,17.293 C0.435,18.04 0.852,18.762 1.771,19.292 L32.936,37.285 C33.855,37.815 35.104,38.057 36.399,38.025 L36.399,0.709" id="Fill-193" fill="url(#radialGradient-21)" mask="url(#mask-20)"></path>
                    </g>
                    <path d="M326.221,221.235 L323.49,221.234 L323.49,232.293 C323.435,233.04 323.852,233.762 324.771,234.292 L326.221,235.13 L326.221,221.235" id="Fill-196" fill="#D4EAF2"></path>
                    <path d="M356.416,252.521 C358.066,253.228 360.452,253.188 362.381,252.452 L362.381,239.896 L356.416,239.896 L356.416,252.521" id="Fill-197" fill="#5589BB"></path>
                    <g id="Group-200" transform="translate(323.000000, 200.000000)">
                        <mask id="mask-24" fill="white">
                            <use xlink:href="#path-23"></use>
                        </mask>
                        <use id="Clip-199" fill="url(#linearGradient-22)" xlink:href="#path-23"></use>
                        <path d="M32.936,41.267 L1.771,23.273 C-0.141,22.169 0.098,20.24 2.307,18.965 L32.399,1.592 C34.608,0.316 37.949,0.178 39.861,1.282 L71.026,19.275 C72.938,20.379 72.699,22.309 70.49,23.583 L40.398,40.957 C38.19,42.232 34.848,42.37 32.936,41.267" id="Fill-198" mask="url(#mask-24)"></path>
                    </g>
                    <path d="M393.49,221.467 L363.398,238.841 C361.19,240.116 357.848,240.255 355.936,239.15 L324.771,221.157 C324.345,220.911 324.032,220.622 323.817,220.311 C323.16,221.368 323.458,222.515 324.771,223.273 L355.936,241.267 C357.848,242.37 361.19,242.232 363.398,240.957 L393.49,223.583 C395.206,222.593 395.727,221.208 394.98,220.122 C394.68,220.604 394.182,221.067 393.49,221.467" id="Fill-201" fill="#FFFFFE"></path>
                    <path d="M383.844,234.865 C383.844,235.668 383.281,236.644 382.586,237.045 C381.89,237.446 381.327,237.121 381.327,236.318 C381.327,235.516 381.89,234.54 382.586,234.139 C383.281,233.737 383.844,234.063 383.844,234.865" id="Fill-202" fill="#D4EAF2"></path>
                    <path d="M387.894,232.526 C387.894,233.329 387.331,234.306 386.635,234.707 C385.94,235.108 385.377,234.783 385.377,233.98 C385.377,233.178 385.94,232.201 386.635,231.8 C387.331,231.398 387.894,231.724 387.894,232.526" id="Fill-203" fill="#D4EAF2"></path>
                    <path d="M391.944,230.188 C391.944,230.991 391.38,231.968 390.685,232.369 C389.99,232.771 389.426,232.444 389.426,231.642 C389.426,230.839 389.99,229.863 390.685,229.462 C391.38,229.061 391.944,229.386 391.944,230.188" id="Fill-204" fill="#D4EAF2"></path>
                    <path d="M357.779,230.111 L343.195,221.691 C342.3,221.175 342.413,220.271 343.446,219.675 L357.527,211.545 C358.561,210.948 360.125,210.884 361.019,211.4 L375.603,219.82 C376.498,220.337 376.385,221.239 375.352,221.836 L361.271,229.966 C360.237,230.563 358.673,230.628 357.779,230.111" id="Fill-205" fill="#5589BB"></path>
                    <path d="M359.174,223.062 L357.157,221.896 C357.033,221.825 357.048,221.7 357.192,221.617 L359.14,220.492 C359.283,220.41 359.5,220.401 359.624,220.473 L361.641,221.638 C361.765,221.709 361.75,221.834 361.606,221.916 L359.658,223.041 C359.515,223.124 359.298,223.133 359.174,223.062" id="Fill-206" fill="#D4EAF2"></path>
                    <path d="M343.195,221.691 L343.237,221.715 L343.446,221.571 L357.527,213.441 C358.561,212.845 360.125,212.779 361.019,213.296 L375.561,221.692 C376.386,221.102 376.43,220.298 375.603,219.82 L361.019,211.4 C360.125,210.884 358.561,210.948 357.527,211.545 L343.446,219.675 C342.413,220.271 342.3,221.175 343.195,221.691" id="Fill-207" fill="#3B6397"></path>
                    <path d="M397.501,163.073 L300.111,106.677 C294.821,103.612 285.573,103.983 279.454,107.504 L75.061,225.132 C68.943,228.653 68.272,233.991 73.562,237.056 L170.951,293.452 C176.241,296.517 185.49,296.146 191.608,292.625 L396.001,174.997 C402.119,171.476 402.791,166.137 397.501,163.073" id="Fill-208" fill="#7DBCDB"></path>
                    <path d="M291.135,92.551 C287.363,92.551 283.358,93.455 280.304,95.213 L75.912,212.841 C73.277,214.357 71.6999954,216.325 71.6999954,218.104 C71.6999954,219.866 73.176,221.093 74.417,221.812 L171.805,278.208 C176.536,280.948 185.215,280.568 190.757,277.378 L395.15,159.75 C397.786,158.233 399.363002,156.266 399.363002,154.486 C399.363002,152.725 397.886,151.498 396.646,150.78 L299.256,94.383 C297.132,93.152 294.211,92.551 291.135,92.551 Z M179.975,283.479 C176.303,283.479 172.782,282.714 170.096,281.159 L72.708,224.763 C69.855,223.11 68.2899957,220.744 68.2899957,218.1 C68.295,215.043 70.453,212.049 74.211,209.886 L278.603,92.258 C285.294,88.406 295.116,88.045 300.965,91.432 L398.355,147.829 C401.207,149.481 402.776,151.847 402.772008,154.491 C402.768,157.548 400.61,160.542 396.851,162.705 L192.459,280.333 C188.839,282.416 184.303,283.479 179.975,283.479 L179.975,283.479 Z" id="Fill-209" fill="#FFFFFE"></path>
                    <g id="Group-212" transform="translate(61.000000, 60.000000)">
                        <mask id="mask-26" fill="white">
                            <use xlink:href="#path-25"></use>
                        </mask>
                        <g id="Clip-211"></g>
                        <path d="M107.118,198.794 L5.764,140.102 C2.434,138.173 0.882,135.572 0.993,132.868 L0.97,132.876 L1.011,118.169 L6.648,124.771 C7.013,124.53 7.381,124.29 7.782,124.06 L215.12,4.736 C223.351,-0.001 235.794,-0.499 242.911,3.623 L342.84,61.491 C344.863,59.277 349.104,54.601 349.104,54.601 L349.056,68.986 L349.053,68.984 C349.204,72.228 346.895,75.683 342.247,78.357 L134.909,197.681 C126.677,202.418 114.235,202.916 107.118,198.794" id="Fill-210" fill="url(#radialGradient-27)" mask="url(#mask-26)"></path>
                    </g>
                    <path d="M113.311,222.787 L119.149,226.157 C119.924,226.604 120.552,226.13 120.552,225.097 C120.552,224.063 119.924,222.861 119.149,222.414 L113.311,219.044 C112.537,218.597 111.908,219.071 111.908,220.105 C111.908,221.139 112.537,222.34 113.311,222.787" id="Fill-213" fill="#263764"></path>
                    <path d="M276.12,64.736 C284.351,59.999 296.794,59.501 303.911,63.623 L403.84,121.491 C405.863,119.277 410.104,114.601 410.104,114.601 L410.056,128.986 L410.053,128.984 C410.204,132.228 407.895,135.683 403.247,138.357 L195.909,257.681 C191.615,260.152 186.177,261.458 180.945,261.567 L181.142,119.396 L276.12,64.736" id="Fill-214" fill="#3B6397"></path>
                    <path d="M405.306,107.529 L303.954,48.837 C296.837,44.715 284.393,45.213 276.162,49.95 L68.825,169.273 C60.592,174.011 59.689,181.192 66.807,185.315 L168.16,244.008 C175.278,248.13 187.72,247.632 195.952,242.895 L403.29,123.571 C411.521,118.834 412.424,111.652 405.306,107.529" id="Fill-215" fill="#D4EAF2"></path>
                    <path d="M168.083,245.577 L66.73,186.885 C63.059,184.759 61.539,181.818 62.04,178.82 C62.219,181.256 63.781,183.563 66.807,185.315 L168.16,244.008 C175.277,248.13 187.72,247.632 195.952,242.895 L403.29,123.571 C407.276,121.277 409.527,118.41 409.997,115.594 C410.24,118.888 407.944,122.418 403.213,125.141 L195.875,244.464 C187.643,249.201 175.2,249.699 168.083,245.577" id="Fill-216" fill="#FFFFFE"></path>
                    <g id="Group-219" transform="translate(69.000000, 51.000000)">
                        <mask id="mask-29" fill="white">
                            <use xlink:href="#path-28"></use>
                        </mask>
                        <g id="Clip-218"></g>
                        <g id="Fill-217" mask="url(#mask-29)">
                            <use fill="url(#radialGradient-30)" xlink:href="#path-32"></use>
                            <use fill="url(#linearGradient-31)" xlink:href="#path-32"></use>
                        </g>
                    </g>
                    <polyline id="Fill-220" fill="#D4EAF2" points="195.483 210.931 126.76 171.253 131.147 168.721 199.87 208.398 195.483 210.931"></polyline>
                    <polyline id="Fill-221" fill="#D4EAF2" points="147.668 199.363 112.87 179.273 117.256 176.74 152.053 196.831 147.668 199.363"></polyline>
                    <polyline id="Fill-222" fill="#DA3685" points="164.554 209.112 153.268 202.597 157.655 200.064 168.94 206.58 164.554 209.112"></polyline>
                    <polyline id="Fill-223" fill="#FFFFFE" points="181.593 218.95 170.307 212.435 174.694 209.902 185.979 216.418 181.593 218.95"></polyline>
                    <polyline id="Fill-224" fill="#FFFFFE" points="148.056 191.568 119.815 175.264 124.202 172.73 152.443 189.036 148.056 191.568"></polyline>
                    <polyline id="Fill-225" fill="#D4EAF2" points="182.53 211.472 154.289 195.166 158.675 192.634 186.917 208.938 182.53 211.472"></polyline>
                    <path d="M161.622,176.617 C160.209,177.434 157.918,177.434 156.505,176.617 C155.091,175.802 155.091,174.479 156.505,173.663 C157.918,172.847 160.209,172.847 161.622,173.663 C163.035,174.479 163.035,175.802 161.622,176.617" id="Fill-226" fill="#DA3685"></path>
                    <path d="M169.268,181.032 C167.855,181.849 165.564,181.849 164.151,181.032 C162.738,180.217 162.738,178.894 164.151,178.078 C165.564,177.262 167.855,177.262 169.268,178.078 C170.681,178.894 170.681,180.217 169.268,181.032" id="Fill-227" fill="#FFFFFE"></path>
                    <path d="M176.916,185.447 C175.503,186.263 173.211,186.263 171.797,185.447 C170.384,184.631 170.384,183.309 171.797,182.492 C173.211,181.677 175.502,181.677 176.916,182.492 C178.329,183.309 178.329,184.632 176.916,185.447" id="Fill-228" fill="#D4EAF2"></path>
                    <path d="M184.562,189.862 C183.149,190.678 180.858,190.678 179.444,189.862 C178.031,189.046 178.031,187.724 179.444,186.907 C180.857,186.092 183.149,186.092 184.562,186.907 C185.975,187.724 185.975,189.046 184.562,189.862" id="Fill-229" fill="#DA3685"></path>
                    <path d="M192.209,194.277 C190.796,195.093 188.505,195.093 187.091,194.277 C185.678,193.461 185.678,192.138 187.091,191.322 C188.505,190.506 190.796,190.507 192.209,191.322 C193.622,192.139 193.622,193.461 192.209,194.277" id="Fill-230" fill="#FFFFFE"></path>
                    <polyline id="Fill-231" fill="#DA3685" points="345.91 110.277 334.339 103.597 338.837 101 350.407 107.681 345.91 110.277"></polyline>
                    <polyline id="Fill-232" fill="#FFFFFE" points="362.022 119.579 350.451 112.899 354.948 110.303 366.519 116.983 362.022 119.579"></polyline>
                    <polyline id="Fill-233" fill="#FFFFFE" points="294.226 80.158 282.655 73.478 287.153 70.881 298.723 77.562 294.226 80.158"></polyline>
                    <polyline id="Fill-234" fill="#FFFFFE" points="343.331 117.01 327.218 107.708 331.715 105.111 347.828 114.414 343.331 117.01"></polyline>
                    <polyline id="Fill-235" fill="#D4EAF2" points="354.901 123.69 347.832 119.608 352.329 117.013 359.399 121.094 354.901 123.69"></polyline>
                    <polyline id="Fill-236" fill="#263764" points="275.064 178.229 180.4 123.64 207.988 107.712 302.651 162.302 275.064 178.229"></polyline>
                    <path d="M183.748,123.639 L275.493,176.546 L300.163,162.303 L208.418,109.396 L183.748,123.639 Z M275.493,179.688 C275.241,179.688 274.99,179.623 274.764,179.493 L180.101,124.903 C179.65,124.643 179.371997,124.161 179.371997,123.64 C179.371997,123.119 179.649,122.638 180.1,122.377 L207.688,106.449 C208.139,106.188 208.695,106.188 209.146,106.448 L303.809,161.038 C304.26,161.299 304.539003,161.78 304.539003,162.302 C304.539003,162.822 304.261,163.304 303.81,163.564 L276.222,179.492 C275.997,179.623 275.745,179.688 275.493,179.688 L275.493,179.688 Z" id="Fill-237" fill="#FFFFFE"></path>
                    <path d="M224.993,134.841 C224.346,134.841 223.823,134.317 223.823,133.671 L223.823,96.72 C223.823,96.073 224.346,95.55 224.993,95.55 C225.639,95.55 226.163,96.073 226.163,96.72 L226.163,133.671 C226.163,134.317 225.639,134.841 224.993,134.841" id="Fill-238" fill="#3B6397"></path>
                    <g id="Group-241" transform="translate(219.000000, 92.000000)">
                        <mask id="mask-34" fill="white">
                            <use xlink:href="#path-33"></use>
                        </mask>
                        <g id="Clip-240"></g>
                        <path d="M0.209,0.532 L0.209,25.496 C0.209,26.351 0.773,27.205 1.903,27.857 C4.162,29.161 7.824,29.161 10.083,27.857 C11.213,27.205 11.777,26.351 11.777,25.496 L11.777,0.532 L0.209,0.532" id="Fill-239" fill="url(#radialGradient-35)" mask="url(#mask-34)"></path>
                    </g>
                    <path d="M219.209,96.639 L219.209,105.087 C222.603,106.638 227.382,106.638 230.777,105.087 L230.777,96.639 C227.382,95.088 222.603,95.088 219.209,96.639" id="Fill-242" fill="#3B6397"></path>
                    <g id="Group-245" transform="translate(215.000000, 57.000000)">
                        <mask id="mask-37" fill="white">
                            <use xlink:href="#path-36"></use>
                        </mask>
                        <g id="Clip-244"></g>
                        <path d="M19.366,0.739 L0.62,0.739 L0.62,39.893 C0.62,41.277 1.535,42.663 3.366,43.72 C7.026,45.833 12.961,45.833 16.621,43.72 C18.451,42.663 19.366,41.278 19.366,39.893 L19.366,0.739" id="Fill-243" fill="url(#radialGradient-38)" mask="url(#mask-37)"></path>
                    </g>
                    <path d="M223.37,113.7 C223.37,114.849 222.564,115.313 221.57,114.739 C220.575,114.166 219.769,112.77 219.769,111.621 C219.769,110.473 220.575,110.008 221.57,110.581 C222.564,111.155 223.37,112.552 223.37,113.7" id="Fill-246" fill="#D4EAF2"></path>
                    <path d="M261.342,155.852 C260.696,155.852 260.172,155.328 260.172,154.682 L260.172,117.73 C260.172,117.084 260.696,116.561 261.342,116.561 C261.989,116.561 262.512,117.084 262.512,117.73 L262.512,154.682 C262.512,155.328 261.989,155.852 261.342,155.852" id="Fill-247" fill="#3B6397"></path>
                    <g id="Group-250" transform="translate(255.000000, 113.000000)">
                        <mask id="mask-40" fill="white">
                            <use xlink:href="#path-39"></use>
                        </mask>
                        <g id="Clip-249"></g>
                        <path d="M0.558,0.543 L0.558,25.507 C0.558,26.361 1.123,27.216 2.252,27.868 C4.511,29.172 8.173,29.172 10.432,27.868 C11.562,27.216 12.127,26.361 12.127,25.507 L12.127,0.543 L0.558,0.543" id="Fill-248" fill="url(#radialGradient-41)" mask="url(#mask-40)"></path>
                    </g>
                    <path d="M255.558,117.649 L255.558,126.098 C258.953,127.648 263.732,127.648 267.127,126.098 L267.127,117.649 C263.732,116.099 258.953,116.099 255.558,117.649" id="Fill-251" fill="#3B6397"></path>
                    <g id="Group-254" transform="translate(251.000000, 78.000000)">
                        <mask id="mask-43" fill="white">
                            <use xlink:href="#path-42"></use>
                        </mask>
                        <g id="Clip-253"></g>
                        <path d="M19.715,0.75 L0.969,0.75 L0.969,39.903 C0.969,41.288 1.884,42.674 3.714,43.73 C7.375,45.844 13.31,45.844 16.97,43.73 C18.8,42.674 19.715,41.289 19.715,39.903 L19.715,0.75" id="Fill-252" fill="url(#radialGradient-44)" mask="url(#mask-43)"></path>
                    </g>
                    <path d="M259.719,134.711 C259.719,135.859 258.914,136.324 257.919,135.75 C256.924,135.177 256.119,133.78 256.119,132.632 C256.119,131.483 256.924,131.019 257.919,131.592 C258.914,132.166 259.719,133.563 259.719,134.711" id="Fill-255" fill="#D4EAF2"></path>
                    <polyline id="Fill-256" fill="#5589BB" points="189.065 29.397 213.949 15.081 213.013 29.397 198.718 33.825 189.065 29.397"></polyline>
                    <g id="Group-259" transform="translate(207.000000, 0.000000)">
                        <mask id="mask-46" fill="white">
                            <use xlink:href="#path-45"></use>
                        </mask>
                        <g id="Clip-258"></g>
                        <path d="M115.364,111.797 C115.364,101.749 108.31,89.531 99.608,84.508 C97.714,83.414 95.907,82.776 94.224,82.513 C91.715,69.327 82.541,55.324 71.601,49.009 C68.311,47.109 65.181,46.094 62.343,45.876 C60.85,29.894 49.738,11.731 36.244,3.94 C29.195,-0.129 22.799,-0.61 18.081,1.882 L18.082,1.869 L17.852,2.001 C17.732,2.068 17.612,2.137 17.494,2.208 L2.821,10.874 L7.696,14.725 C3.32,16.638 0.553,21.546 0.553,28.802 C0.553,42.183 9.947,58.453 21.536,65.144 L93.069,116.224 L95.275,131.109 L110.733,122.006 L110.774,121.981 L110.867,121.927 L110.864,121.924 C113.646,120.25 115.364,116.752 115.364,111.797" id="Fill-257" fill="url(#radialGradient-47)" mask="url(#mask-46)"></path>
                    </g>
                    <path d="M208.278,22.91 L241.956,3.233 C235.418,-0.176 229.51,-0.457 225.081,1.882 L225.082,1.869 L224.852,2.001 C224.732,2.068 224.612,2.137 224.494,2.208 L209.821,10.874 L214.696,14.725 C211.636,16.061 209.369,18.867 208.278,22.91" id="Fill-260" fill="#5589BB"></path>
                    <path d="M270.471,80.796 L295.045,66.376 C290.83,59.086 285.026,52.718 278.601,49.009 C277.751,48.518 276.912,48.088 276.086,47.714 L244.831,65.992 L270.471,80.796" id="Fill-261" fill="#5589BB"></path>
                    <path d="M216.745,12.483 L227.695,18.806 L247.75,6.994 C246.285,5.856 244.781,4.828 243.244,3.94 C240.815,2.539 238.467,1.572 236.236,0.997 L216.745,12.483" id="Fill-262" fill="#D4EAF2"></path>
                    <path d="M292.334,62.133 L272.722,73.689 L279.544,81.297 L297.347,70.785 C295.939,67.77 294.247,64.854 292.334,62.133" id="Fill-263" fill="#D4EAF2"></path>
                    <g id="Group-266" transform="translate(182.000000, 9.000000)">
                        <mask id="mask-49" fill="white">
                            <use xlink:href="#path-48"></use>
                        </mask>
                        <g id="Clip-265"></g>
                        <path d="M109.203,84.582 C107.309,83.488 105.502,82.851 103.819,82.587 C101.31,69.401 92.135,55.399 81.196,49.083 C77.906,47.184 74.777,46.168 71.938,45.95 C70.445,29.969 59.333,11.806 45.839,4.016 C31.327,-4.363 19.562,2.429 19.562,19.185 C19.562,19.754 19.579,20.327 19.605,20.903 C8.993,15.981 0.702,21.526 0.702,34.097 C0.702,47.477 10.096,63.748 21.684,70.438 L109.203,120.968 C117.905,125.991 124.959,121.919 124.959,111.871 C124.959,101.824 117.905,89.606 109.203,84.582" id="Fill-264" fill="url(#linearGradient-50)" mask="url(#mask-49)"></path>
                    </g>
                    <path d="M201.605,29.902 C201.579,29.327 201.562,28.753 201.562,28.185 L201.564,28.114 C195.701,25.835 190.664,26.826 187.502,30.484 C190.936,27.657 195.931,27.271 201.605,29.902" id="Fill-267" fill="#FFFFFE"></path>
                    <path d="M292.484,92.333 C290.59,91.24 288.783,90.602 287.1,90.338 C284.591,77.152 275.417,63.15 264.477,56.835 C261.187,54.935 258.058,53.92 255.219,53.701 C253.726,37.72 242.614,19.558 229.12,11.767 C220.079,6.547 212.106,7.217 207.378,12.515 C212.194,8.398 219.568,8.24 227.839,13.016 C241.333,20.806 252.445,38.969 253.938,54.95 C256.777,55.168 259.906,56.184 263.196,58.083 C274.135,64.399 283.31,78.401 285.819,91.587 C287.502,91.851 289.309,92.488 291.203,93.582 C299.905,98.606 306.959,110.824 306.959,120.871 C306.959,124.497 306.03,127.33 304.447,129.253 C306.806,127.435 308.24,124.14 308.24,119.623 C308.24,109.575 301.186,97.357 292.484,92.333" id="Fill-268" fill="#FFFFFE"></path>
                    <g id="Group-271" transform="translate(187.000000, 13.000000)">
                        <mask id="mask-52" fill="white">
                            <use xlink:href="#path-51"></use>
                        </mask>
                        <g id="Clip-270"></g>
                        <path d="M12.755,20.894 L19.334,23.944 L18.999,16.7 C18.975,16.191 18.961,15.686 18.961,15.185 C18.961,8.719 20.913,4.03 24.458,1.983 C28.003,-0.062 33.04,0.592 38.639,3.824 C50.682,10.778 61.189,27.704 62.558,42.359 L62.904,46.052 L66.601,46.336 C68.874,46.511 71.362,47.37 73.997,48.893 C83.563,54.416 92.185,67.249 94.498,79.409 L95.077,82.452 L98.137,82.932 C99.357,83.124 100.658,83.614 102.005,84.392 C109.352,88.635 115.56,99.387 115.56,107.871 C115.56,111.046 114.679,113.376 113.144,114.263 C111.611,115.147 109.153,114.746 106.403,113.158 L18.883,62.629 C8.702,56.752 0.1,41.853 0.1,30.097 C0.1,25.483 1.461,21.969 3.834,20.454 C4.809,19.831 5.99,19.521 7.322,19.521 C8.941,19.521 10.785,19.979 12.755,20.894" id="Fill-269" fill="url(#radialGradient-53)" mask="url(#mask-52)"></path>
                    </g>
                    <polyline id="Fill-272" fill="#5589BB" points="243.434 88.745 245.743 87.586 243.47 85.864 243.434 88.745"></polyline>
                    <polyline id="Fill-273" fill="#5589BB" points="236.501 57.558 238.742 56.425 238.783 57.598 236.501 57.558"></polyline>
                    <polyline id="Fill-274" fill="#5589BB" points="250.02 81.455 252.36 80.278 247.858 75.997 250.02 81.455"></polyline>
                    <path d="M245.068,87.512 L234.137,81.074 C233.583,80.748 233.134,79.925 233.135993,79.236 L233.172,66.582 L246.112,74.203 L246.076,86.857 C246.074,87.546 245.623,87.839 245.068,87.512" id="Fill-275" fill="#5589BB"></path>
                    <path d="M238.718,56.438 L226.913,64.035 C226.412,64.357 226.816,65.56 227.577,66.007 L251.691,80.21 C252.452,80.658 252.862,79.937 252.365,79.025 L240.641,57.571 C240.135,56.645 239.228,56.11 238.718,56.438" id="Fill-276" fill="#5589BB"></path>
                    <path d="M242.723,88.692 L231.793,82.255 C231.238,81.928 230.79,81.105 230.791993,80.417 L230.828,67.763 L243.767,75.383 L243.732,88.038 C243.73,88.727 243.278,89.02 242.723,88.692" id="Fill-277" fill="#D4EAF2"></path>
                    <path d="M236.374,57.619 L224.568,65.216 C224.067,65.538 224.472,66.739 225.233,67.188 L249.347,81.39 C250.108,81.838 250.518,81.116 250.021,80.206 L238.297,58.752 C237.792,57.825 236.884,57.291 236.374,57.619" id="Fill-278" fill="#D4EAF2"></path>
                    <polyline id="Fill-279" fill="#76A9CF" points="234.926 186.296 166.725 146.92 168.534 145.875 236.736 185.251 234.926 186.296"></polyline>
                    <polyline id="Fill-280" fill="#D4EAF2" points="188.727 160.763 165.738 147.489 169.521 145.305 192.511 158.578 188.727 160.763"></polyline>
                    <polyline id="Fill-281" fill="#FFFFFE" points="187.823 161.485 186.856 160.939 192.799 157.508 193.767 158.054 187.823 161.485"></polyline>
                    <path d="M301.692,250.321 C301.101,250.662 300.532,251.089 299.987,251.57 C299.752,243.898 294.21,240.847 287.39,244.784 C281.837,247.991 277.13,254.856 275.444,261.585 C274.072,261.4 272.463,261.757 270.732,262.756 C265.76,265.626 261.73,272.606 261.73,278.348 C261.73,284.088 265.76,286.414 270.732,283.544 L301.692,265.67 C305.363,263.551 308.339,258.396 308.339,254.158 C308.339,249.92 305.363,248.202 301.692,250.321" id="Fill-282" fill="#FFFFFF"></path>
                    <path d="M52.411,153.413 C51.381,154.008 50.414,154.859 49.559,155.864 C49.425,150.241 45.391,147.995 40.422,150.863 C38.831,151.782 37.335,153.117 36.031,154.695 C33.819,150.829 29.237,149.932 23.927,152.997 C16.46,157.309 10.407,167.793 10.407,176.416 C10.407,177.128 10.463,177.791 10.542,178.432 C9.477,178.155 8.172,178.378 6.755,179.195 C3.183,181.258 0.287,186.274 0.287,190.4 C0.287,194.525 3.183,196.198 6.755,194.135 L52.411,167.776 C55.845,165.793 58.63,160.97 58.63,157.004 C58.63,153.038 55.845,151.43 52.411,153.413" id="Fill-283" fill="#FFFFFF"></path>
                    <path d="M399.348,204.953 C399.348,206.814 398.042,209.078 396.429,210.009 C394.817,210.939 393.51,210.186 393.51,208.323 C393.51,206.462 394.817,204.198 396.429,203.268 C398.042,202.337 399.348,203.092 399.348,204.953" id="Fill-284" fill="#FFFFFE"></path>
                    <path d="M407.401,200.304 C407.401,202.165 406.093,204.429 404.482,205.359 C402.87,206.291 401.562,205.536 401.562,203.675 C401.562,201.813 402.87,199.55 404.482,198.619 C406.093,197.688 407.401,198.442 407.401,200.304" id="Fill-285" fill="#FFFFFE"></path>
                    <path d="M399.348,195.655 C399.348,197.517 398.042,199.78 396.429,200.711 C394.817,201.642 393.51,200.887 393.51,199.025 C393.51,197.164 394.817,194.9 396.429,193.97 C398.042,193.039 399.348,193.794 399.348,195.655" id="Fill-286" fill="#FFFFFE"></path>
                    <path d="M407.401,191.006 C407.401,192.867 406.093,195.131 404.482,196.062 C402.87,196.992 401.562,196.238 401.562,194.377 C401.562,192.515 402.87,190.251 404.482,189.32 C406.093,188.39 407.401,189.145 407.401,191.006" id="Fill-287" fill="#FFFFFE"></path>
                    <polyline id="Fill-288" fill="#FFFFFE" points="287.145 21.56 281.306 24.931 281.306 18.189 287.145 14.818 287.145 21.56"></polyline>
                    <polyline id="Fill-289" fill="#FFFFFE" points="295.248 16.823 289.41 20.194 289.41 13.453 295.248 10.082 295.248 16.823"></polyline>
                    <polyline id="Fill-290" fill="#FFFFFE" points="287.195 30.306 281.357 33.677 281.357 26.935 287.195 23.565 287.195 30.306"></polyline>
                    <polyline id="Fill-291" fill="#FFFFFE" points="295.248 25.656 289.41 29.027 289.41 22.286 295.248 18.916 295.248 25.656"></polyline>
                    <path d="M189.258,319.653 C189.021,319.653 188.781,319.598 188.557,319.48 C187.814,319.093 187.527,318.176 187.915,317.434 C189.455,314.485 191.714,312.001 194.112,310.616 C195.621,309.746 197.086,309.344 198.479,309.407 C200.441,309.511 202.87,308.034 204.996,305.475 C206.186,304.04 207.549,302.858 208.937,302.057 C210.444,301.187 211.908,300.782 213.305,300.849 C215.216,300.96 217.694,299.478 219.82,296.916 C221.027,295.461 222.353,294.312 223.761,293.498 C225.27,292.628 226.756,292.218 228.128,292.289 C230.113,292.376 232.52,290.917 234.645,288.356 C235.836,286.922 237.199,285.74 238.587,284.938 C240.811,283.654 243.031,283.375 244.835,284.163 C245.603,284.497 245.955,285.391 245.621,286.159 C245.286,286.927 244.391,287.274 243.624,286.945 C242.724,286.551 241.475,286.774 240.104,287.566 C239.023,288.19 237.943,289.134 236.979,290.294 C234.207,293.635 230.924,295.453 227.978,295.32 C227.199,295.269 226.259,295.56 225.279,296.126 C224.199,296.75 223.118,297.693 222.154,298.854 C219.38,302.195 216.067,304.013 213.154,303.88 C212.37,303.826 211.433,304.118 210.455,304.685 C209.374,305.309 208.294,306.252 207.33,307.412 C204.556,310.753 201.27,312.567 198.329,312.438 C197.556,312.383 196.61,312.677 195.63,313.244 C193.716,314.349 191.884,316.388 190.604,318.838 C190.334,319.356 189.805,319.653 189.258,319.653" id="Fill-292" fill="#FFFFFE"></path>
                </g>
            </g>
        </g>
    </g>
</svg>