<svg xmlns="http://www.w3.org/2000/svg" width="317" height="415" viewBox="0 0 317 415">
    <defs>
        <path id="a" d="M237.249 108.031l-29.841 17.215V90.818l29.84-17.215v34.428"/>
        <path id="b" d="M207.408 90.818l-29.84-17.215 29.838-17.213 29.843 17.215-29.841 17.213"/>
        <path id="c" d="M207.408 125.246l-29.84-17.215V73.603l29.84 17.215v34.428"/>
        <path id="d" d="M237.249 293.47l-29.841 17.213v-34.427l29.84-17.214v34.428"/>
        <path id="e" d="M207.408 276.256l-29.84-17.214 29.838-17.214 29.842 17.214-29.84 17.214"/>
        <path id="f" d="M207.408 310.683l-29.84-17.213v-34.428l29.84 17.214v34.427"/>
        <path id="g" d="M207.41 154.059c-2.048.05-4.174.566-5.852 1.534l-11.376 6.562-35.303-.02V178.3c-.08 1.092.53 2.147 1.874 2.922l45.589 26.3c1.346.776 3.174 1.127 5.067 1.08V154.06"/>
        <path id="h" d="M202.342 191.415l-45.589-26.3c-2.798-1.614-2.448-4.434.785-6.298l44.02-25.393c3.23-1.864 8.118-2.066 10.916-.453l45.59 26.3c2.798 1.614 2.448 4.434-.785 6.299l-44.02 25.393c-3.23 1.863-8.118 2.065-10.917.452"/>
        <radialGradient id="i" cx="-9.46%" cy="31.224%" r="149.043%" fx="-9.46%" fy="31.224%" gradientTransform="matrix(1 0 0 .57784 0 .132)">
            <stop offset="0%" stop-color="#2B4876"/>
            <stop offset="100%" stop-color="#263765"/>
        </radialGradient>
        <linearGradient id="j" x1="0%" x2="131.87%" y1="49.998%" y2="49.998%">
            <stop offset="0%" stop-color="#D4EAF2"/>
            <stop offset="100%" stop-color="#83B0D1"/>
        </linearGradient>
        <radialGradient id="k" cx="-123.75%" cy="-57.819%" r="269.42%" fx="-123.75%" fy="-57.819%" gradientTransform="matrix(1 0 0 .57781 0 -.244)">
            <stop offset="0%" stop-color="#6693BF"/>
            <stop offset="100%" stop-color="#3B6397"/>
        </radialGradient>
        <radialGradient id="l" cx="-9.46%" cy="31.225%" r="149.043%" fx="-9.46%" fy="31.225%" gradientTransform="matrix(1 0 0 .57785 0 .132)">
            <stop offset="0%" stop-color="#2B4876"/>
            <stop offset="100%" stop-color="#263765"/>
        </radialGradient>
        <linearGradient id="m" x1="-.002%" x2="131.871%" y1="50%" y2="50%">
            <stop offset="0%" stop-color="#D4EAF2"/>
            <stop offset="100%" stop-color="#83B0D1"/>
        </linearGradient>
        <radialGradient id="n" cx="-123.75%" cy="-57.823%" r="269.42%" fx="-123.75%" fy="-57.823%" gradientTransform="matrix(1 0 0 .57783 0 -.244)">
            <stop offset="0%" stop-color="#6693BF"/>
            <stop offset="100%" stop-color="#3B6397"/>
        </radialGradient>
        <radialGradient id="o" cx="5.51%" cy="6.422%" r="109.683%" fx="5.51%" fy="6.422%" gradientTransform="matrix(1 0 0 .96317 0 .002)">
            <stop offset="0%" stop-color="#6693BF"/>
            <stop offset="100%" stop-color="#3B6397"/>
        </radialGradient>
    </defs>
    <g fill="none" fill-rule="evenodd">
        <path fill="#D1E9F2" d="M158.12 115.211l-1.308-.755-.156-.09-25.763-14.861 25.763 14.861 38.4-22.151-38.4-22.152-38.401 22.15-1.463-.844 39.864-22.995.364.211 40.963 23.63-39.864 22.996m-2.926 0l-12.637-7.29 12.637 7.29"/>
        <path fill="#D1E9F2" d="M118.256 138.206l26.52-15.299-26.519 15.299m-1.463-.845L78.39 115.21l-1.355-.783-.107-.062 38.4-22.151 1.463-.845 1.463.845 38.4 22.152-1.462.845-38.4-22.153L78.39 115.21l38.403 22.151 13.807-7.964-13.807 7.964m41.325-22.15l-1.097-.633-.21-.122 1.307.755"/>
        <path fill="#D1E9F2" d="M158.122 161.2l-1.464-.843-39.702-22.9-.162-.096 38.4-22.15 1.462-.845.156.09.21.122 1.097.633 39.865 22.996-39.862 22.994m-39.866-22.995l38.402 22.151 38.4-22.15-38.402-22.152-38.4 22.151"/>
        <path fill="#D1E9F2" d="M78.393 161.2l16.812-9.696-16.811 9.698m-1.464-.845l-30.512-17.6 30.512 17.6 25.246-14.563-25.246 14.563m41.326-22.151l-1.098-.634-.202-.116 1.3.75m-2.926 0l-38.401-22.153-30.511 17.6v-1.687l5.76-3.323 23.287-13.433 1.464-.845.107.062.257.15 1.098.633 38.403 22.151-1.464.844"/>
        <path fill="#D1E9F2" d="M118.257 184.197l11.042-6.37-11.042 6.37m-1.463-.843l-38.401-22.152v-.001l-1.282-.74-.18-.104 38.399-22.152 1.464-.844.162.095.202.116 1.098.634 38.401 22.151-1.462.844-38.401-22.152-38.401 22.152 38.402 22.153 19.2-11.077-19.2 11.077M158.122 207.193l-1.232-.711-.232-.133-39.682-22.891-.181-.104 38.4-22.153 1.463-.844 1.464.844 39.864 22.997-39.864 22.995m-39.865-22.996l38.401 22.152 38.402-22.15-38.402-22.153-38.4 22.151"/>
        <path fill="#D1E9F2" d="M78.394 207.193l19.2-11.075-19.199 11.075m-1.463-.843v-.001l-30.514-17.601 30.514 17.6 21.588-12.453-21.588 12.455m41.325-22.153l-1.097-.632-.184-.107 1.281.739m-2.926 0l-38.4-22.151-30.513 17.601v-1.688l29.049-16.758 1.463-.844.181.105.184.107 1.098.633 38.4 22.152-1.462.843"/>
        <path fill="#D1E9F2" d="M118.259 230.19l23.286-13.434-23.286 13.433m-1.464-.843l-38.401-22.153-1.233-.711-.23-.132 38.4-22.153 1.464-.843.18.104.185.107 1.097.632 38.401 22.153-1.462.843-38.401-22.151-38.401 22.151 38.402 22.152 19.2-11.075-19.2 11.075m41.326-22.152l-1.098-.632-.134-.08 1.232.712"/>
        <path fill="#D1E9F2" d="M158.123 253.186l-1.274-.736-.19-.11-38.4-22.15-1.217-.703-.246-.142 38.4-22.152 1.462-.844.232.133.134.079 1.098.632 39.865 22.996-39.864 22.997m-39.864-22.997l38.4 22.152 38.402-22.152-38.403-22.151-38.4 22.151M46.418 225.639l16.707-9.637-16.707 9.637m0-1.689l7.693-4.437-7.693 4.437m31.976-16.757l-1.098-.632-.135-.08 1.233.712m-2.925 0l-29.051-16.757v-1.688l30.514 17.602-1.464.843"/>
        <path fill="#D1E9F2" d="M78.395 253.186l21.387-12.337-21.386 12.337m-2.927 0l-19.2-11.077 19.202 11.077h-.002m1.464-.845l-12.638-7.291 12.638 7.29 13.154-7.587-13.154 7.588m41.326-22.152l-1.217-.702 1.217.702m-2.926 0l-38.401-22.151-30.514 17.6v-1.688l29.05-16.757 1.464-.844.23.133.134.079 1.098.632 38.401 22.153-1.462.843"/>
        <path fill="#D1E9F2" d="M118.26 276.182l16.812-9.699-16.812 9.699m-1.462-.845l-38.403-22.151-1.364-.788-.098-.057 38.4-22.152 1.463-.844.246.142 1.217.702 38.4 22.152-1.462.845-38.4-22.152-38.402 22.152 38.403 22.151 19.199-11.076-19.2 11.076m41.326-22.151l-1.097-.634-.177-.102 1.274.736"/>
        <path fill="#D1E9F2" d="M158.125 299.178l-1.332-.768-.132-.077-38.401-22.151-1.33-.768-.132-.077 38.4-22.151 1.462-.845.189.11.177.101 1.097.634 39.865 22.996-39.863 22.996m-39.865-22.996l38.401 22.151 38.401-22.151-38.402-22.153-38.4 22.153M37.07 275.336l-14.31-8.253 14.31 8.253 5.558-3.206-5.557 3.206m10.078-4.126l5.252-3.03-5.252 3.03m-.584-1.35h-.002l17.027-9.822-17.025 9.822m31.83-16.674l-1.098-.634-.266-.154 1.364.788m-2.924 0l-29.053-16.76v-1.688l30.515 17.603-1.464.845"/>
        <path fill="#D1E9F2" d="M78.396 299.178l19.201-11.076-19.2 11.076m-2.926 0l-23.954-13.82 23.955 13.82h-.001m1.463-.845l-12.638-7.29 12.638 7.29 23.287-13.433-23.287 13.433m41.326-22.151l-1.098-.634-.232-.134 1.33.768m-2.926 0l-38.401-22.153-29.784 17.18a4.998 4.998 0 0 0-.584-1.35l28.904-16.673 1.464-.845.098.057.266.154 1.098.634 38.403 22.151-1.464.845m-77.316-.298l-.949-.548 5.56-3.206c.094.116.14.216.14.292 0 .287-.412.954-1.546 1.608l-3.205 1.854"/>
        <path fill="#D1E9F2" d="M118.261 322.173l17.015-9.815-17.015 9.816m-1.463-.844L77.03 298.39l-.097-.057 38.4-22.151 1.464-.845.132.077.232.134 1.098.634 38.401 22.151-1.462.844-38.401-22.152-38.402 22.153L116.8 321.33l25.323-14.609L116.8 321.33m41.326-22.152l-1.098-.634-.234-.134 1.332.768"/>
        <path fill="#D1E9F2" d="M158.126 345.17l-1.176-.68-.288-.164-38.4-22.152v-.001l-1.262-.727-.201-.116 39.862-22.997.132.077.234.134 1.098.634 39.864 22.995-39.863 22.996m-39.865-22.996l38.401 22.153 38.401-22.153-38.402-22.152-38.4 22.152M38.534 322.172l19.2-11.075-19.2 11.076m-1.463-.845L15.93 309.133l21.14 12.195 15.746-9.082-15.745 9.082m41.325-22.15l-1.097-.634-.268-.154 1.365.788m-2.924 0L41.09 279.344l1.463-.846 34.381 19.835-1.463.844m-44.979-18.94l-.958-.554 6.073-3.502 1.462-.845.949.548-7.526 4.352"/>
        <path fill="#D1E9F2" d="M78.4 345.168l21.16-12.206-21.16 12.206m-1.465-.844l-38.402-22.151.001-.001-1.331-.767-.132-.077 38.4-22.15v-.001l1.463-.844.097.057.268.154 1.097.634 38.402 22.152-1.463.843-38.4-22.152-38.4 22.15 38.4 22.153 13.868-8-13.868 8m41.326-22.15l-1.097-.633-.164-.095 1.261.727"/>
        <path fill="#D1E9F2" d="M118.263 368.165l15.113-8.717-15.113 8.717m-2.926 0l-12.638-7.29 12.638 7.29m1.463-.843l-25.764-14.863L116.8 367.32l19.2-11.076-19.2 11.077m41.326-22.153l-1.098-.632-.078-.046 1.176.678m-2.926 0l-38.401-22.151-38.401 22.15-1.463-.844 38.4-22.151 1.464-.843.2.116.165.095 1.097.633 38.401 22.152-1.462.843"/>
        <path fill="#D1E9F2" d="M156.664 392.006l-.365-.212L116.8 369.01l1.463-.845-1.463-.843 38.4-22.153 1.462-.843.288.165.078.046 1.098.632 39.865 22.996-41.327 23.841m-38.401-23.84l38.4 22.15 38.402-22.15-38.403-22.152-38.4 22.151"/>
        <path fill="#D1E9F2" d="M196.664 369.006l-.365-.212L156.8 346.01l1.463-.845-1.463-.843 38.4-22.153 1.462-.843.288.165.078.046 1.098.632 39.865 22.996-41.327 23.841m-38.401-23.84l38.4 22.15 38.402-22.15-38.403-22.152-38.4 22.151"/>
        <path fill="#D1E9F2" d="M275.664 369.006l-.365-.212L235.8 346.01l1.463-.845-1.463-.843 38.4-22.153 1.462-.843.288.165.078.046 1.098.632 39.865 22.996-41.327 23.841m-38.401-23.84l38.4 22.15 38.402-22.15-38.403-22.152-38.4 22.151M196.664 415.006l-.365-.212L156.8 392.01l1.463-.845-1.463-.843 38.4-22.153 1.462-.843.288.165.078.046 1.098.632 39.865 22.996-41.327 23.841m-38.401-23.84l38.4 22.15 38.402-22.15-38.403-22.152-38.4 22.151"/>
        <path fill="#D1E9F2" d="M116.664 415.006l-.365-.212L76.8 392.01l1.463-.845-1.463-.843 38.4-22.153 1.462-.843.288.165.078.046 1.098.632 39.865 22.996-41.327 23.841m-38.401-23.84l38.4 22.15 38.402-22.15-38.403-22.152-38.4 22.151M235.664 346.006l-.365-.212L195.8 323.01l1.463-.845-1.463-.843 38.4-22.153 1.462-.843.288.165.078.046 1.098.632 39.865 22.996-41.327 23.841m-38.401-23.84l38.4 22.15 38.402-22.15-38.403-22.152-38.4 22.151"/>
        <path fill="#D1E9F2" d="M195.664 323.006l-.365-.212L155.8 300.01l1.463-.845-1.463-.843 38.4-22.153 1.462-.843.288.165.078.046 1.098.632 39.865 22.996-41.327 23.841m-38.401-23.84l38.4 22.15 38.402-22.15-38.403-22.152-38.4 22.151"/>
        <path fill="#D1E9F2" d="M235.664 300.006l-.365-.212L195.8 277.01l1.463-.845-1.463-.843 38.4-22.153 1.462-.843.288.165.078.046 1.098.632 39.865 22.996-41.327 23.841m-38.401-23.84l38.4 22.15 38.402-22.15-38.403-22.152-38.4 22.151"/>
        <path fill="#D1E9F2" d="M195.664 277.006l-.365-.212L155.8 254.01l1.463-.845-1.463-.843 38.4-22.153 1.462-.843.288.165.078.046 1.098.632 39.865 22.996-41.327 23.841m-38.401-23.84l38.4 22.15 38.402-22.15-38.403-22.152-38.4 22.151"/>
        <path fill="#D1E9F2" d="M235.664 254.006l-.365-.212L195.8 231.01l1.463-.845-1.463-.843 38.4-22.153 1.462-.843.288.165.078.046 1.098.632 39.865 22.996-41.327 23.841m-38.401-23.84l38.4 22.15 38.402-22.15-38.403-22.152-38.4 22.151M-2.336 392.006l-.365-.212L-42.2 369.01l1.463-.845-1.463-.843 38.4-22.153 1.462-.843.288.165.078.046 1.098.632 39.865 22.996-41.327 23.841m-38.401-23.84l38.4 22.15 38.402-22.15-38.403-22.152-38.4 22.151M37.664 323.006l-.365-.212L-2.2 300.01l1.463-.845-1.463-.843 38.4-22.153 1.462-.843.288.165.078.046 1.098.632 39.865 22.996-41.327 23.841m-38.401-23.84l38.4 22.15 38.402-22.15-38.403-22.152-38.4 22.151"/>
        <path fill="#D1E9F2" d="M-2.336 346.006l-.365-.212L-42.2 323.01l1.463-.845-1.463-.843 38.4-22.153 1.462-.843.288.165.078.046 1.098.632 39.865 22.996-41.327 23.841m-38.401-23.84l38.4 22.15 38.402-22.15-38.403-22.152-38.4 22.151M37.664 277.006l-.365-.212L-2.2 254.01l1.463-.845-1.463-.843 38.4-22.153 1.462-.843.288.165.078.046 1.098.632 39.865 22.996-41.327 23.841m-38.401-23.84l38.4 22.15 38.402-22.15-38.403-22.152-38.4 22.151"/>
        <path fill="#D1E9F2" d="M-2.336 300.006l-.365-.212L-42.2 277.01l1.463-.845-1.463-.843 38.4-22.153 1.462-.843.288.165.078.046 1.098.632 39.865 22.996-41.327 23.841m-38.401-23.84l38.4 22.15 38.402-22.15-38.403-22.152-38.4 22.151M37.664 231.006l-.365-.212L-2.2 208.01l1.463-.845-1.463-.843 38.4-22.153 1.462-.843.288.165.078.046 1.098.632 39.865 22.996-41.327 23.841m-38.401-23.84l38.4 22.15 38.402-22.15-38.403-22.152-38.4 22.151"/>
        <path fill="#D1E9F2" d="M-2.336 254.006l-.365-.212L-42.2 231.01l1.463-.845-1.463-.843 38.4-22.153 1.462-.843.288.165.078.046 1.098.632 39.865 22.996-41.327 23.841m-38.401-23.84l38.4 22.15 38.402-22.15-38.403-22.152-38.4 22.151M37.664 185.006l-.365-.212L-2.2 162.01l1.463-.845-1.463-.843 38.4-22.153 1.462-.843.288.165.078.046 1.098.632 39.865 22.996-41.327 23.841m-38.401-23.84l38.4 22.15 38.402-22.15-38.403-22.152-38.4 22.151"/>
        <path fill="#D1E9F2" d="M-2.336 208.006l-.365-.212L-42.2 185.01l1.463-.845-1.463-.843 38.4-22.153 1.462-.843.288.165.078.046 1.098.632 39.865 22.996-41.327 23.841m-38.401-23.84l38.4 22.15 38.402-22.15-38.403-22.152-38.4 22.151M37.664 139.006l-.365-.212L-2.2 116.01l1.463-.845-1.463-.843 38.4-22.153 1.462-.843.288.165.078.046 1.098.632 39.865 22.996-41.327 23.841m-38.401-23.84l38.4 22.15 38.402-22.15-38.403-22.152-38.4 22.151"/>
        <path fill="#D1E9F2" d="M-2.336 162.006l-.365-.212L-42.2 139.01l1.463-.845-1.463-.843 38.4-22.153 1.462-.843.288.165.078.046 1.098.632 39.865 22.996-41.327 23.841m-38.401-23.84l38.4 22.15 38.402-22.15-38.403-22.152-38.4 22.151M38.536 368.164l19.199-11.075-19.2 11.075m-1.463-.843l-38.401-22.153-1.332-.767-.13-.077 39.862-22.996.132.077.234.134 1.096.634 38.402 22.151-1.463.844-38.401-22.152-38.4 22.152 38.401 22.153 23.288-13.434-23.288 13.434"/>
        <path fill="#D1E9F2" d="M76.937 392.005l-.366-.213-39.499-22.783v-.002l1.464-.843-1.464-.843 38.4-22.153 1.463-.844 1.464.844 39.864 22.997-1.463.845h-.001l-39.862 22.995m-38.401-23.841l38.4 22.151 38.4-22.15-38.4-22.153-38.4 22.152"/>
        <path fill="#FFFFFE" d="M71.864 309.131c0 2.457-1.726 5.445-3.856 6.672-2.13 1.229-3.856.232-3.856-2.224 0-2.457 1.727-5.444 3.856-6.673 2.13-1.229 3.856-.232 3.856 2.225"/>
        <g>
            <path fill="#C3E2EE" d="M126.86 59.926c-2.803 0-4.729-2.233-4.729-6.096 0-5.445 3.827-12.066 8.547-14.788 1.366-.788 2.654-1.158 3.798-1.158.421 0 .824.05 1.203.148a21.202 21.202 0 0 1-.18-2.66c0-11.38 7.998-25.218 17.862-30.908 2.86-1.65 5.558-2.43 7.952-2.43 3.477 0 6.306 1.647 8.037 4.67 1.722-2.083 3.697-3.844 5.8-5.057C177.088.53 178.918 0 180.54 0c3.872 0 6.555 3.017 6.679 8.247 1.13-1.326 2.41-2.451 3.767-3.234 1.32-.762 2.566-1.122 3.67-1.122 2.696 0 4.547 2.147 4.547 5.862 0 1.96-.517 4.078-1.4 6.1-.65-4.081-3.129-6.39-6.516-6.39-1.622 0-3.451.528-5.39 1.646-2.102 1.213-4.078 2.974-5.8 5.057-1.731-3.023-4.561-4.67-8.038-4.67-2.393 0-5.092.78-7.952 2.43-9.864 5.689-17.86 19.529-17.86 30.909 0 .94.074 1.815.18 2.66a4.838 4.838 0 0 0-1.206-.148c-1.143 0-2.43.368-3.797 1.156-2.839 1.638-5.356 4.688-6.91 8.044l-3.836 2.213c-1.373.791-2.668 1.166-3.818 1.166"/>
            <path fill="#E3F3F8" d="M134.514 56.547c1.554-3.356 4.071-6.406 6.91-8.044 1.366-.788 2.654-1.156 3.797-1.156.422 0 .825.05 1.206.147-.106-.844-.18-1.72-.18-2.66 0-11.38 7.996-25.22 17.86-30.908 2.86-1.65 5.559-2.43 7.952-2.43 3.477 0 6.307 1.647 8.037 4.67 1.723-2.083 3.699-3.844 5.802-5.057 1.938-1.118 3.767-1.647 5.39-1.647 3.386 0 5.865 2.31 6.515 6.391-1.476 3.376-3.978 6.48-6.817 8.116l-56.472 32.578"/>
            <path fill="#D9EFF5" d="M212.481 23.936c-1.36.784-2.638 1.908-3.767 3.235-.177-7.42-5.506-10.386-12.07-6.6-2.102 1.212-4.08 2.974-5.8 5.057-2.922-5.103-8.975-6.288-15.99-2.24-9.865 5.689-17.86 19.528-17.86 30.909 0 .938.073 1.815.178 2.66-1.406-.365-3.131-.072-5.002 1.008-4.718 2.722-8.544 9.345-8.544 14.79 0 5.445 3.826 7.652 8.544 4.929l60.311-34.79c4.537-2.62 8.216-8.984 8.216-14.22 0-5.233-3.68-7.355-8.216-4.738"/>
            <path fill="#7DBCDB" d="M182.16 220.789l-29.84-17.215 29.84-17.214 29.842 17.214-29.841 17.215"/>
            <path fill="#FFFFFE" d="M156.857 190.647l25.304 14.596 25.303-14.596-25.305-14.595-25.302 14.595zm25.304 19.481c-.391 0-.782-.101-1.134-.305l-29.842-17.212a2.27 2.27 0 0 1-1.135-1.964c0-.81.433-1.558 1.135-1.963l29.841-17.214a2.268 2.268 0 0 1 2.268 0l29.843 17.214a2.268 2.268 0 0 1 1.134 1.963 2.27 2.27 0 0 1-1.134 1.964l-29.841 17.212a2.263 2.263 0 0 1-1.135.305z"/>
            <path fill="url(#i)" d="M134.002 177.196l-29.841 17.215v-34.428L134 142.768v34.428" transform="translate(78)"/>
            <path fill="url(#j)" d="M104.16 159.983l-29.839-17.215 29.838-17.213 29.843 17.215-29.841 17.213" transform="translate(78)"/>
            <path fill="url(#k)" d="M104.16 194.411l-29.839-17.215v-34.428l29.84 17.215v34.428" transform="translate(78)"/>
            <path fill="#D9EFF5" d="M171.415 175.811l-8.348-4.813v-9.63l8.348 4.814v9.63"/>
            <path fill="#FFFFFE" d="M173.816 142.869l8.288-4.914 8.403 4.714-8.288 4.914-8.403-4.714"/>
            <path fill="#D9EFF5" d="M81.165 221.087l-2.267-3.927 86.78-50.062 2.269 3.926-86.782 50.063M179.893 142.77h4.537V54.82h-4.537z"/>
            <path fill="#E3F3F8" d="M137.608 69.389c-2.805 0-4.73-2.234-4.73-6.097 0-2.169.607-4.523 1.636-6.745l56.472-32.578c2.84-1.637 5.341-4.74 6.817-8.116.092.583.149 1.202.163 1.856 1.13-1.325 2.409-2.451 3.768-3.234 1.32-.761 2.565-1.122 3.67-1.122 2.696 0 4.546 2.148 4.546 5.86 0 5.235-3.679 11.6-8.216 14.218l-60.31 34.79c-1.371.793-2.667 1.168-3.816 1.168"/>
        </g>
        <g>
            <path fill="#7DBCDB" d="M188.16 317.404l-29.84-17.215 29.84-17.214 29.842 17.215-29.841 17.214"/>
            <path fill="#FFFFFE" d="M162.856 287.262l25.305 14.598 25.305-14.598-25.307-14.595-25.303 14.595zm25.305 19.482c-.391 0-.782-.101-1.134-.303l-29.842-17.215a2.269 2.269 0 0 1-1.135-1.964c0-.81.433-1.558 1.135-1.963l29.841-17.214a2.268 2.268 0 0 1 2.268 0l29.843 17.214a2.266 2.266 0 0 1 0 3.927l-29.841 17.215a2.275 2.275 0 0 1-1.135.303z"/>
            <path fill="url(#l)" d="M62.002 51.812L32.16 69.026V34.598L62 17.385v34.427" transform="translate(156 222)"/>
            <path fill="url(#m)" d="M32.16 34.598L2.322 17.385 32.159.17l29.842 17.214-29.84 17.213" transform="translate(156 222)"/>
            <path fill="url(#n)" d="M32.16 69.026L2.322 51.812V17.385l29.84 17.213v34.428" transform="translate(156 222)"/>
            <path fill="#FFFFFE" d="M177.415 272.426l-8.348-4.813v-9.63l8.348 4.815v9.628"/>
        </g>
        <g>
            <path fill="#7DBCDB" d="M42.342 299.828l-45.589-26.3c-2.798-1.614-2.448-4.434.785-6.297l44.02-25.395c3.23-1.863 8.118-2.065 10.916-.453l45.59 26.3c2.798 1.615 2.448 4.434-.785 6.299l-44.02 25.393c-3.23 1.864-8.118 2.065-10.917.453"/>
            <path fill="#FFFFFE" d="M43.636 283.194c2.012 1.158 5.901.947 8.33-.452l44.018-25.393c1.107-.64 1.373-1.216 1.38-1.324-.016-.032-.164-.244-.594-.494l-45.59-26.3c-2.01-1.157-5.9-.946-8.327.453l-44.02 25.394c-1.108.64-1.373 1.216-1.38 1.324.016.032.164.245.593.493l45.592 26.3h-.002zm3.472 5.93c-2.23 0-4.38-.478-6.06-1.449l-45.59-26.3c-2.023-1.166-3.183-2.98-3.183-4.974 0-2.233 1.447-4.349 3.968-5.802l44.02-25.395c4.075-2.352 9.88-2.546 13.505-.452l45.592 26.3c2.022 1.165 3.182 2.979 3.182 4.974 0 2.233-1.447 4.35-3.968 5.804l-44.018 25.393c-2.187 1.26-4.87 1.9-7.448 1.9z"/>
            <path fill="#3B6397" d="M99.938 239.91v-15.717l-35.271-.02-12.193-7.033c-2.798-1.613-7.686-1.411-10.916.453l-11.376 6.562-35.303-.02V240.3c-.08 1.092.53 2.147 1.874 2.922l45.589 26.3c2.799 1.612 7.687 1.41 10.918-.453l44.02-25.393c1.864-1.076 2.763-2.467 2.658-3.765"/>
            <path fill="url(#o)" d="M55.41 23.059c-2.048.05-4.174.566-5.852 1.534l-11.376 6.562-35.303-.02V47.3c-.08 1.092.53 2.147 1.874 2.922l45.589 26.3c1.346.776 3.174 1.127 5.067 1.08V23.06" transform="translate(-8 193)"/>
            <path fill="#5589BB" d="M43.046 269.864c2.413 1.033 5.903.976 8.725-.1v-18.352h-8.725v18.452"/>
            <path fill="#B4D3E5" d="M42.342 253.415l-45.589-26.3c-2.798-1.614-2.448-4.434.785-6.298l44.02-25.393c3.23-1.864 8.118-2.066 10.916-.453l45.59 26.3c2.798 1.614 2.448 4.434-.785 6.299l-44.02 25.393c-3.23 1.863-8.118 2.065-10.917.452"/>
            <path fill="#FFFFFE" d="M97.28 224.476l-44.02 25.393c-3.231 1.864-8.119 2.066-10.918.453l-45.589-26.3c-.623-.36-1.083-.782-1.396-1.237-.96 1.544-.524 3.222 1.396 4.33l45.589 26.3c2.799 1.613 7.687 1.411 10.918-.452l44.02-25.393c2.512-1.45 3.274-3.473 2.18-5.06-.439.704-1.168 1.381-2.18 1.966"/>
            <path fill="#D4EAF2" d="M83.17 244.059c0 1.172-.825 2.599-1.842 3.186-1.016.586-1.84.11-1.84-1.062 0-1.174.824-2.6 1.84-3.187 1.017-.586 1.842-.11 1.842 1.063M89.094 240.64c0 1.175-.824 2.6-1.84 3.188-1.018.586-1.843.11-1.843-1.064 0-1.172.825-2.599 1.843-3.186 1.016-.586 1.84-.111 1.84 1.062M95.019 237.223c0 1.174-.824 2.6-1.842 3.186-1.017.586-1.841.111-1.841-1.062 0-1.172.824-2.599 1.841-3.186 1.018-.586 1.842-.112 1.842 1.062"/>
            <path fill="#5589BB" d="M45.038 237.11l-21.333-12.307c-1.309-.755-1.145-2.075.366-2.947l20.6-11.883c1.512-.872 3.799-.967 5.108-.212l21.335 12.307c1.31.755 1.144 2.075-.368 2.946L50.148 236.9c-1.513.87-3.8.966-5.11.21"/>
            <path fill="#D4EAF2" d="M47.08 226.804l-2.95-1.703c-.182-.104-.158-.285.05-.406l2.85-1.643c.21-.122.526-.135.707-.03l2.952 1.702c.181.104.159.288-.05.408l-2.85 1.644c-.21.12-.526.134-.709.028"/>
            <path fill="#3B6397" d="M23.705 224.803l.06.035.306-.21 20.6-11.885c1.512-.87 3.799-.966 5.108-.21l21.274 12.272c1.207-.864 1.27-2.038.061-2.737L49.78 209.761c-1.31-.755-3.596-.66-5.108.212l-20.6 11.883c-1.511.872-1.675 2.192-.366 2.947"/>
        </g>
    </g>
</svg>
