<svg xmlns="http://www.w3.org/2000/svg" xmlns:xlink="http://www.w3.org/1999/xlink" width="249" height="237" viewBox="0 0 249 237">
    <defs>
        <linearGradient id="a" x1="49.9%" x2="49.9%" y1="0%" y2="100%">
            <stop offset="0%" stop-color="#928DB8"/>
            <stop offset="100%" stop-color="#7A71A6"/>
        </linearGradient>
        <path id="b" d="M5.593 2.724a2.389 2.389 0 1 1-4.778 0 2.389 2.389 0 0 1 4.778 0"/>
        <linearGradient id="c" x1="50.01%" x2="50.01%" y1="0%" y2="100.004%">
            <stop offset="0%" stop-color="#928DB8"/>
            <stop offset="100%" stop-color="#7A71A6"/>
        </linearGradient>
        <path id="e" d="M25.591 66.628c6.633-12.342 21.108-28.641 21.108-47.511 0-6.34-1.616-10.562-4.783-12.468l-.001-.001-.014-.008a7.537 7.537 0 0 0-.602-.323l-9.606-5.163a7.546 7.546 0 0 0-.602-.324C28.056-.626 23.763-.186 18.245 2.313 6.23 7.753 0 17.697 0 30.158v7.564l10.208 5.486 8.059-3.65C11.085 52.506 0 64.279 0 79.777v9.567l10.208 5.486 35.379-16.023V67.68l-10.208-5.486-9.788 4.433"/>
        <path id="f" d="M.686 89.645v-9.568c0-22.918 24.253-37.685 24.253-60.158 0-4.998-1.244-6.83-3.37-6.83-.856 0-1.853.297-2.97.803-3.895 1.764-6.342 4.985-6.342 10.548v8.343L.686 38.023v-7.564c0-12.46 6.23-22.403 18.246-27.844 3.436-1.557 6.4-2.316 8.879-2.316 1.262 0 2.398.196 3.408.585 3.946 1.518 5.959 5.964 5.959 13.048 0 3.86-.606 7.613-1.627 11.246-5.453 19.404-22.738 35.404-22.738 46.18 0 .557 0 1.113.111 1.619L36.012 62.52l.052-.024v11.125l-.012.006L.686 89.645"/>
        <linearGradient id="h" x1="41.659%" x2="58.341%" y1="41.104%" y2="63.057%">
            <stop offset="0%" stop-color="#928DB8"/>
            <stop offset="100%" stop-color="#7A71A6"/>
        </linearGradient>
        <path id="i" d="M.686 89.645v-9.568c0-22.918 24.253-37.685 24.253-60.158 0-4.998-1.244-6.83-3.37-6.83-.856 0-1.853.297-2.97.803-3.895 1.764-6.342 4.985-6.342 10.548v8.343L.686 38.023v-7.564c0-12.46 6.23-22.403 18.246-27.844 3.436-1.557 6.4-2.316 8.879-2.316 1.262 0 2.398.196 3.408.585 3.946 1.518 5.959 5.964 5.959 13.048 0 3.86-.606 7.613-1.627 11.246-5.453 19.404-22.738 35.404-22.738 46.18 0 .557 0 1.113.111 1.619L36.012 62.52l.052-.024v11.125l-.012.006L.686 89.645"/>
    </defs>
    <g fill="none" fill-rule="evenodd">
        <path fill="#F5F4F6" d="M23.827 109.113h225v-104h-225z"/>
        <text fill="#29292A" font-family="sans-serif" style="font-weight: 100" font-size="16" transform="translate(20.535)">
            <tspan x="34" y="39">Get the best deals </tspan> <tspan x="34" y="61">sorted by the ROI </tspan> <tspan x="34" y="83">forecasted</tspan>
        </text>
        <path fill="url(#a)" d="M2.792 130h1V5.113h-1z" transform="translate(20.535)"/>
        <g transform="translate(20.535)">
            <mask id="d" fill="#fff">
                <use xlink:href="#b"/>
            </mask>
            <path fill="url(#c)" d="M5.593 2.724a2.389 2.389 0 1 1-4.778 0 2.389 2.389 0 0 1 4.778 0" mask="url(#d)"/>
        </g>
        <g>
            <g transform="translate(0 124.86)">
                <use fill="#BAB6D0" xlink:href="#e"/>
                <use fill="#EDF2FF" xlink:href="#e"/>
            </g>
            <g transform="translate(9.535 130)">
                <mask id="g" fill="#fff">
                    <use xlink:href="#f"/>
                </mask>
                <g mask="url(#g)">
                    <use fill="url(#h)" xlink:href="#i"/>
                    <use fill="#A7BFFF" xlink:href="#i"/>
                </g>
            </g>
            <path fill="#E9E9E4" d="M55.92 236.669c-3.63 0-7.177-.463-10.036-.988-3.584-.66-7.05-1.846-10.317-3.46l-25.359-12.532 35.379-16.023 19.506 10.319s22.869 13.033.652 21.177c-3.028 1.11-6.462 1.507-9.825 1.507"/>
        </g>
    </g>
</svg>
