<svg xmlns="http://www.w3.org/2000/svg" viewBox="0 0 1440 901" width="1440" height="901">
	<style>
		tspan { white-space:pre }
		.shp0 { fill: #f0f4ff } 
		.shp1 { fill: #83cba8 } 
		.shp2 { fill: #baccfb } 
		.shp3 { fill: #85a6ff } 
		.shp4 { opacity: 0.2;fill: #5777ca } 
		.shp5 { fill: #dcf0fb } 
		.shp6 { fill: #99d5cd } 
		.shp7 { fill: #eef7fc } 
		.shp8 { fill: #d5dff9 } 
		.shp9 { fill: #3964cf } 
		.shp10 { fill: #1c4bc7 } 
		.shp11 { fill: #6ca88c } 
		.shp12 { fill: #305848 } 
		.shp13 { fill: #e3ded6 } 
		.shp14 { fill: #ffffff } 
		.shp15 { fill: #a4dced } 
		.shp16 { fill: #dcf1fc } 
		.shp17 { fill: #87bdb7 } 
		.shp18 { fill: #c6e7e5 } 
		.shp19 { fill: #80a0f1 } 
		.shp20 { fill: #71b1a8 } 
	</style>
	<g id="Screens_B2C">
		<g id="Hero">
			<g id="Content">
				<g id="Block_1">
					<g id="ill">
						<path id="Path" class="shp0" d="M1307.52,324.43c-12.22,22.21 -24.75,45.06 -44.62,60.7c-48.29,37.96 -117.41,20.61 -178.7,16.27c-55.32,-3.91 -112.97,5.29 -159.72,35.11c-89.61,57.22 -121.12,175.55 -203.16,243.27c-50.64,41.8 -336.47,60.63 -401.59,51.97c-65.12,-8.66 -123.68,-44.02 -161.6,-97.6c-25.36,-35.84 -40.41,-78.27 -66.88,-113.3c-21.93,-29.01 -56.23,-52.89 -91.3,-53.32c-0.6,152.88 -0.92,250.49 -0.95,292.83c203.77,-40.04 684.1,-19.58 1441,61.37l2,-821.74h-10.71c-11.02,113.95 -68.11,222.19 -123.77,324.43z" />
						<path id="Path" class="shp1" d="M1055.47,568l45.3,-0.16c1.73,-2.2 1.63,-5.32 -0.25,-7.4c-1.88,-2.08 -4.98,-2.5 -7.34,-1c1.48,-3.64 1.88,-7.63 1.14,-11.48c-0.45,-3.03 -2.07,-5.77 -4.51,-7.63c-3.92,-2.58 -9.48,-1.16 -12.81,2.15c-3.12,3.53 -5.12,7.91 -5.74,12.58c-0.41,-3.71 -5.54,-5.46 -8.69,-3.47c-3.03,2.32 -4.31,6.27 -3.21,9.92c-0.19,-0.86 -0.76,-1.59 -1.55,-1.98c-0.79,-0.39 -1.71,-0.41 -2.51,-0.05c-1.59,0.84 -2.5,2.58 -2.27,4.36c0.33,1.62 1.18,3.08 2.44,4.16z" />
						<path id="Path" class="shp2" d="M1442.05,151c-11.12,21.65 -23.92,42.39 -38.29,62.04c-47.66,64.46 -120.16,115.53 -200.39,117.3c-27.64,0.61 -55.32,-4.58 -82.85,-2.04c-89.49,8.45 -149.19,92.1 -205.38,162.27c-50.02,62.43 -107.23,120.33 -175.91,161.35c-68.68,41.02 -180.76,79.19 -287.81,79.19c-207.57,6.58 -378.24,-217.06 -451.42,-216.71v216.6c150.39,-3.89 300.87,12.78 451.42,50c465.96,101.23 791.04,-9.86 988.58,-129.07c0,-169.23 0.68,-336.2 2.05,-500.93z" />
						<path id="Path" class="shp3" d="M916.33,680.87c-26.21,13.71 -94.69,96.3 -195.33,136.92c265.37,16.24 504.87,-38.9 718.48,-165.41l3.52,-221.37c-14.14,23.73 -28.06,47.65 -43.16,70.77c-36.56,55.98 -82.65,109.33 -144.68,134.6c-113.34,46.16 -230.23,-12.3 -338.83,44.49z" />
						<path id="Path" class="shp3" d="M8.38,612.45c-2.71,-1.63 -5.51,-3.12 -8.38,-4.45v123c53.95,-1.49 111.19,-0.02 171.72,4.43c-32.85,-22.68 -142.13,-110.3 -163.33,-122.98z" />
						<g id="Group">
							<path id="Path" class="shp4" d="M1420.59,844.01l-136.31,-136.09c11.24,-12.7 10.65,-31.94 -1.34,-43.93l-32.39,-32.32c-0.05,-0.06 -0.1,-0.11 -0.16,-0.16v0c-1.08,-1.05 -2.23,-2.02 -3.44,-2.91c62.32,-86.16 67.3,-201.08 12.67,-292.29v0c-2.88,-4.76 -5.89,-9.43 -9.02,-14.01c-0.12,-0.16 -0.22,-0.33 -0.35,-0.47c-1.51,-2.2 -3.04,-4.35 -4.62,-6.49l-0.12,-0.18c-3.3,-4.43 -6.7,-8.77 -10.19,-13l-0.39,-0.47c-1.65,-2.03 -3.34,-3.91 -5.05,-5.84l-0.37,-0.39c-3.65,-4.07 -7.44,-8.14 -11.33,-11.88l-0.49,-0.47c-1.79,-1.75 -3.59,-3.48 -5.42,-5.17l-0.63,-0.59c-4.07,-3.66 -8.15,-7.22 -12.22,-10.64l-0.63,-0.51c-1.85,-1.51 -3.75,-2.99 -5.66,-4.45l-0.96,-0.73c-4.28,-3.25 -8.64,-6.37 -13.12,-9.36l-0.79,-0.51c-1.94,-1.3 -3.89,-2.54 -5.87,-3.78l-1.28,-0.81c-2.04,-1.3 -4.28,-2.6 -6.44,-3.86l-0.31,-0.16c-2.34,-1.36 -4.7,-2.68 -7.09,-3.97l-0.98,-0.51c-2.04,-1.06 -4.07,-2.03 -6.11,-3.11l-1.61,-0.79c-2.04,-1.02 -4.07,-2.03 -6.11,-2.95l-0.96,-0.45c-2.42,-1.1 -4.87,-2.18 -7.33,-3.21l-1.1,-0.43c-2.04,-0.85 -4.07,-1.69 -6.21,-2.48l-1.94,-0.73c-2.04,-0.75 -4.07,-1.46 -5.99,-2.18l-1.51,-0.53c-2.49,-0.85 -5.01,-1.67 -7.56,-2.46l-1.12,-0.33c-2.04,-0.65 -4.28,-1.28 -6.44,-1.87l-2.2,-0.59c-2.04,-0.53 -3.93,-1.02 -5.89,-1.51l-1.91,-0.47c-2.59,-0.59 -5.17,-1.16 -7.78,-1.69l-1.04,-0.2c-2.24,-0.45 -4.5,-0.87 -6.78,-1.26l-2.36,-0.39c-2.04,-0.33 -3.91,-0.61 -5.89,-0.89l-2.22,-0.31c-2.65,-0.35 -5.3,-0.67 -7.97,-0.94h-0.71c-2.44,-0.24 -4.89,-0.45 -7.33,-0.61l-2.46,-0.16c-2.04,-0.12 -4.07,-0.22 -5.97,-0.31h-2.42c-2.71,0 -5.44,-0.14 -8.15,-0.14c-70.65,-0.04 -138.42,27.94 -188.4,77.78c-49.98,49.85 -78.08,117.48 -78.12,188.01c0,3.11 0,6.1 0.18,9.27c0,0.73 0,1.48 0,2.22c0.12,3.07 0.29,6.1 0.53,9.15c-0.01,0.15 -0.01,0.3 0,0.45c0.22,2.93 0.51,5.84 0.84,8.75l0.24,2.03c0.37,3.03 0.75,6.1 1.22,9.03c0.02,0.2 0.06,0.4 0.1,0.59c0.45,2.85 0.96,5.69 1.49,8.54c0.1,0.57 0.22,1.14 0.33,1.71c0.59,3.01 1.24,6 1.94,8.97l0.12,0.53c0.67,2.87 1.41,5.69 2.18,8.52c0,0.43 0.22,0.87 0.35,1.3c0.84,2.99 1.71,5.98 2.65,8.93c0,0.12 0,0.24 0.12,0.39c0.92,2.89 1.87,5.76 2.89,8.6l0.29,0.83c1.08,2.97 2.2,5.94 3.38,8.87c-0.01,0.07 -0.01,0.14 0,0.2c1.18,2.93 2.41,5.84 3.69,8.73c0.04,0.11 0.09,0.21 0.14,0.31c1.36,2.97 2.72,5.9 4.07,8.79v0c5.8,11.71 12.45,22.99 19.9,33.72v0c75.81,110.24 221.8,147.19 341.06,86.32c1.57,4.66 4.2,8.89 7.68,12.37l13.89,13.87v0l18.48,18.45c12.01,11.98 31.28,12.57 44,1.34l136.31,136.09c12.15,12.12 31.84,12.12 43.98,0l3.85,-3.84c12.13,-12.13 12.13,-31.77 0,-43.89z" />
							<path id="Oval" class="shp5" d="M1187.39,281.66c-83.14,-83.14 -217.54,-83.14 -300.68,0c-83.14,83.14 -83.14,217.54 0,300.68c83.14,83.14 217.54,83.14 300.68,0c83.14,-83.14 83.14,-217.54 0,-300.68z" />
							<path id="Path" class="shp6" d="M1220.68,550.86h-370.35c0,0 24.55,107.7 184.5,107.7c159.96,0 185.85,-107.7 185.85,-107.7z" />
							<path id="Path" class="shp7" d="M974.51,348.95c4.07,-4.49 6.52,-10.17 10.19,-14.97c7.35,-9.64 18.82,-15.05 29.84,-20.14c11.02,-5.08 22.04,-10.17 33.9,-12.2c11.86,-2.03 24.75,-1.2 34.94,5.27c13.02,8.24 20.25,24.41 34.47,30.28c14.65,6.1 31.37,-0.71 47.12,1.06c13.83,1.67 26.04,9.8 32.9,21.91c3.26,5.86 5.05,13.28 1.85,19.18c-2.01,3.18 -4.77,5.84 -8.03,7.73c-14.89,9.85 -32.12,15.61 -49.95,16.7c-36.2,2.16 -71.3,-15.11 -107.54,-14.03c-22.41,0.67 -44,8.34 -65.98,12.96c-15.56,3.29 -31.39,5.06 -47.18,6.81c-21.49,2.4 -45.53,4.07 -62.4,-9.38c-2.25,-1.61 -4.03,-3.78 -5.15,-6.31c-1.69,-4.47 0.33,-9.7 3.79,-13c3.66,-3.11 8.01,-5.3 12.69,-6.41c26.63,-7.89 55.41,-5.72 82.16,-13.18c8.29,-2.42 16.64,-5.88 22.39,-12.28z" />
							<path id="Path" class="shp8" d="M1433.03,840.63l-16.68,16.68c-8.61,8.58 -22.54,8.58 -31.15,0l-204.94,-204.63c-4.13,-4.12 -6.45,-9.71 -6.45,-15.54c0,-5.83 2.32,-11.42 6.45,-15.54l16.68,-16.68c8.61,-8.58 22.54,-8.58 31.15,0l204.94,204.63c4.13,4.12 6.45,9.71 6.45,15.54c0,5.83 -2.32,11.42 -6.45,15.54z" />
							<path id="Rectangle" class="shp9" d="M1154.55,647.24l68.14,-68.03c6.16,-6.15 16.15,-6.15 22.31,0l55.51,55.42c6.17,6.16 6.18,16.16 0.02,22.33c-0.01,0.01 -0.01,0.01 -0.02,0.02l-68.14,68.03c-6.16,6.15 -16.15,6.15 -22.31,0l-55.51,-55.42c-6.17,-6.16 -6.18,-16.16 -0.02,-22.33c0.01,-0.01 0.01,-0.01 0.02,-0.02z" />
							<path id="Path" class="shp10" d="M1211.11,590.79l-45,44.93c-6.04,6.02 -9.43,14.19 -9.43,22.71c0,8.52 3.39,16.69 9.43,22.71l13.89,13.89c33.67,-28 59.91,-63.85 76.41,-104.38c-12.57,-12.4 -32.81,-12.34 -45.31,0.14z" />
							<path id="Path" class="shp1" d="M899.97,449.88c9.27,12.2 6.11,31.85 -6.58,40.47c7.09,2.4 11.49,9.86 12.45,17.29c1.12,8.81 -2.65,18.83 -10.82,22.37c-4.13,1.45 -8.51,2.03 -12.87,1.69c-5.78,0.22 -11.56,-0.34 -17.19,-1.65c-5.69,-1.36 -10.61,-4.93 -13.65,-9.93c-2.75,-5.08 -2.3,-12.08 2.04,-15.95c-6.11,-5.04 -12.49,-10.45 -15.14,-17.92c-2.65,-7.46 0.16,-17.47 7.74,-19.77c-7.62,-16.27 -0.35,-37.77 15.54,-46.05c8.52,-4.41 20.47,-4.45 26.28,3.17c4.71,6.2 3.71,14.85 2.51,22.54c3.24,-2.01 7.39,0.69 9.7,3.72z" />
							<path id="Path" class="shp11" d="M890.11,458.46c5.98,8.52 4.07,20.25 -4.3,26.44c4.62,1.57 7.5,6.43 8.15,11.27c0.73,5.76 -1.71,12.2 -7.05,14.56c-2.69,0.95 -5.55,1.32 -8.39,1.1c-3.77,0.14 -7.53,-0.22 -11.2,-1.08c-3.72,-0.88 -6.92,-3.21 -8.9,-6.47c-1.92,-3.37 -1.39,-7.6 1.3,-10.39c-4.07,-3.27 -8.15,-6.81 -9.86,-11.67c-1.71,-4.86 0.12,-11.39 5.05,-12.9c-4.77,-11.13 -0.38,-24.06 10.19,-30c5.54,-2.89 13.32,-2.91 17.11,2.03c3.08,4.07 2.42,9.68 1.63,14.71c2.06,-1.34 4.77,0.43 6.27,2.4z" />
							<path id="Path" class="shp12" d="M891.82,495.34c-4.93,3.93 -9.47,9.68 -15.5,11.98c0,-2.03 -0.16,-4.19 -0.2,-6.26c-0.1,-5.23 -0.16,-10.45 -0.24,-15.66c2.08,-0.6 4.01,-1.67 5.62,-3.11c2.12,-1.4 3.83,-3.33 4.97,-5.59c0.12,-0.35 -0.35,-0.73 -0.65,-0.49c-2.24,1.96 -4.6,3.79 -7.07,5.47c-0.92,0.53 -1.9,0.95 -2.91,1.26c0,-6.1 -0.16,-12.04 -0.31,-18.06c0.71,-0.2 1.12,-0.94 1.61,-1.46c0.86,-0.96 1.81,-1.85 2.69,-2.79c1.72,-1.52 2.75,-3.67 2.87,-5.96c0.03,-0.2 -0.11,-0.39 -0.32,-0.42c-0.2,-0.03 -0.39,0.11 -0.42,0.32c-0.81,2.41 -2.31,4.53 -4.32,6.1c-0.53,0.49 -1.49,1.16 -2.18,1.91c-0.12,-4.56 -0.26,-9.11 -0.49,-13.65c0,-0.33 -0.26,-0.59 -0.59,-0.59c-0.33,0 -0.59,0.26 -0.59,0.59c-0.41,8.34 -0.61,16.7 -0.73,25.08c-0.67,-0.55 -1.39,-0.98 -2.04,-1.59c-1.09,-1.12 -2.05,-2.36 -2.87,-3.68c-1.41,-2.03 -2.42,-4.31 -3.75,-6.37c-0.11,-0.14 -0.29,-0.19 -0.46,-0.12c-0.16,0.07 -0.26,0.24 -0.24,0.41c0.84,2.85 2.04,5.59 3.57,8.14c1.04,1.83 2.97,4.88 5.36,4.94c0.13,-0.01 0.25,-0.04 0.37,-0.1c0,6.85 -0.18,13.73 -0.29,20.58c-1.88,-1.06 -3.65,-2.32 -5.28,-3.74c-2.44,-2.23 -4.44,-4.89 -5.91,-7.85c-0.24,-0.51 -1.08,-0.14 -0.92,0.39c1.18,3.29 3.06,6.28 5.52,8.77c1.76,2.12 4,3.79 6.54,4.86c0,0.85 0,1.69 0,2.54c-0.14,6.37 -0.53,12.92 -0.84,19.51c-1.3,-0.87 -2.75,-1.63 -3.89,-2.46c-3.14,-2.1 -5.76,-4.88 -7.66,-8.14c-0.45,-0.87 -1.67,-0.1 -1.28,0.75c1.56,3.04 3.73,5.73 6.38,7.89c1.88,1.93 4.01,3.59 6.34,4.94c-0.53,9.1 -0.24,18.23 0.86,27.27c0.24,0.81 0.99,1.36 1.83,1.36c0.84,0 1.59,-0.55 1.83,-1.36c1.89,-13.22 0.86,-27.32 0.22,-40.94c6.62,-2.16 11.53,-9.11 16.48,-13.48c0.73,-0.75 -0.37,-1.79 -1.12,-1.18z" />
							<path id="Path" class="shp1" d="M1244.45,449.88c9.27,12.2 6.11,31.85 -6.58,40.47c7.09,2.4 11.49,9.86 12.43,17.29c1.12,8.81 -2.65,18.83 -10.8,22.37c-4.13,1.45 -8.51,2.02 -12.87,1.69c-5.79,0.22 -11.58,-0.33 -17.21,-1.65c-5.69,-1.37 -10.6,-4.94 -13.65,-9.93c-2.75,-5.08 -2.28,-12.08 2.04,-15.95c-6.11,-5.04 -12.49,-10.45 -15.14,-17.92c-2.65,-7.46 0.18,-17.47 7.76,-19.77c-7.64,-16.27 -0.35,-37.77 15.54,-46.05c8.49,-4.41 20.37,-4.45 26.26,3.17c4.71,6.2 3.73,14.85 2.51,22.54c3.24,-2.01 7.39,0.69 9.72,3.72z" />
							<path id="Path" class="shp11" d="M1234.57,458.46c5.99,8.52 4.08,20.25 -4.3,26.44c4.64,1.57 7.5,6.43 8.15,11.27c0.73,5.76 -1.73,12.2 -7.05,14.56c-2.69,0.95 -5.55,1.32 -8.39,1.1c-3.77,0.14 -7.55,-0.22 -11.22,-1.08c-3.72,-0.88 -6.92,-3.21 -8.9,-6.47c-1.92,-3.37 -1.38,-7.61 1.32,-10.39c-4.07,-3.27 -8.15,-6.81 -9.86,-11.67c-1.71,-4.86 0,-11.39 5.05,-12.9c-4.78,-11.13 -0.39,-24.07 10.19,-30c5.54,-2.89 13.34,-2.91 17.13,2.03c3.06,4.07 2.42,9.68 1.63,14.71c2.04,-1.34 4.71,0.43 6.25,2.4z" />
							<path id="Path" class="shp12" d="M1236.28,495.34c-4.91,3.93 -9.47,9.68 -15.48,11.98c0,-2.03 -0.16,-4.19 -0.2,-6.26c-0.12,-5.23 -0.18,-10.45 -0.26,-15.66c2.09,-0.6 4.01,-1.66 5.62,-3.11c2.12,-1.4 3.84,-3.32 4.97,-5.59c0.14,-0.35 -0.33,-0.73 -0.63,-0.49c-2.25,1.96 -4.61,3.79 -7.07,5.47c-0.92,0.52 -1.9,0.95 -2.91,1.26c-0.08,-6.02 -0.19,-12.04 -0.33,-18.06c0.71,-0.2 1.14,-0.94 1.61,-1.46c0.88,-0.96 1.81,-1.85 2.69,-2.79c1.72,-1.52 2.76,-3.67 2.87,-5.96c0.03,-0.2 -0.11,-0.39 -0.32,-0.42c-0.2,-0.03 -0.39,0.11 -0.42,0.32c-0.8,2.41 -2.3,4.53 -4.3,6.1c-0.76,0.6 -1.49,1.24 -2.18,1.91c-0.12,-4.56 -0.29,-9.11 -0.51,-13.65c-0.05,-0.28 -0.3,-0.48 -0.58,-0.48c-0.28,0 -0.53,0.2 -0.58,0.48c-0.41,8.34 -0.61,16.7 -0.75,25.08c-0.65,-0.55 -1.39,-0.98 -2.04,-1.59c-1.08,-1.13 -2.04,-2.36 -2.87,-3.68c-1.39,-2.03 -2.4,-4.31 -3.75,-6.37c-0.09,-0.17 -0.29,-0.24 -0.47,-0.16c-0.17,0.07 -0.26,0.27 -0.21,0.45c0.84,2.85 2.03,5.58 3.54,8.14c1.04,1.83 2.97,4.88 5.36,4.94c0.13,-0.01 0.26,-0.05 0.39,-0.1c0,6.85 -0.18,13.73 -0.31,20.58c-1.88,-1.07 -3.65,-2.32 -5.28,-3.74c-2.42,-2.24 -4.43,-4.9 -5.91,-7.85c-0.24,-0.51 -1.08,-0.14 -0.92,0.39c1.18,3.29 3.07,6.28 5.52,8.77c1.76,2.12 4,3.78 6.54,4.86c0,0.85 0,1.69 0,2.54c-0.12,6.37 -0.53,12.92 -0.81,19.51c-1.32,-0.87 -2.77,-1.63 -3.89,-2.46c-3.14,-2.1 -5.76,-4.88 -7.66,-8.14c-0.45,-0.87 -1.67,-0.1 -1.28,0.75c1.55,3.04 3.73,5.73 6.38,7.89c1.87,1.94 4,3.6 6.34,4.94c-0.55,9.1 -0.26,18.23 0.86,27.27c0.23,0.81 0.98,1.38 1.82,1.38c0.85,0 1.59,-0.56 1.82,-1.38c1.91,-13.22 0.86,-27.32 0.22,-40.94c6.62,-2.16 11.53,-9.11 16.48,-13.48c0.75,-0.75 -0.31,-1.79 -1.12,-1.18z" />
							<path id="Rectangle" class="shp13" d="M1034.32,548.09h164.93v-152.91h-164.93z" />
							<path id="Path" class="shp14" d="M961.62,330.49l-73.64,62.75v154.86h146.35v-154.86z" />
							<path id="Path" class="shp6" d="M1208.11,394.45l-81.79,-73.18h-165.17l81.77,83.92h165.11v-0.06l0.08,0.06z" />
							<path id="Path" class="shp11" d="M1042.92,394.45l-81.77,-73.18l-81.79,73.18v10.74l81.79,-67.16l81.77,67.16z" />
							<path id="Rectangle" class="shp11" d="M1042.92,405.19h165.11v-10.74h-165.11z" />
							<path id="Rectangle" class="shp15" d="M962.92,439.69h14.14v-14.12h-14.14z" />
							<path id="Rectangle" class="shp15" d="M946.17,456.41h14.14v-14.12h-14.14z" />
							<path id="Rectangle" class="shp15" d="M962.92,456.41h14.14v-14.12h-14.14z" />
							<path id="Rectangle" class="shp15" d="M946.17,439.69h14.14v-14.12h-14.14z" />
							<path id="Path" class="shp16" d="M949.52,424.29c-0.67,0.67 -1.32,1.34 -2.04,2.03c-0.71,0.69 -1.75,1.81 -2.61,2.73c-0.49,0.47 0.26,1.22 0.75,0.75l2.73,-2.6c0.69,-0.63 1.36,-1.28 2.04,-2.03c0.67,-0.75 -0.26,-1.51 -0.88,-0.87z" />
							<path id="Path" class="shp16" d="M955.4,425.27c0.1,-0.15 0.08,-0.34 -0.04,-0.46c-0.12,-0.12 -0.32,-0.14 -0.47,-0.04v0c-0.34,-0.16 -0.75,-0.09 -1.02,0.18l-4.81,4.76c-1.25,1.14 -2.42,2.37 -3.48,3.68l-0.81,0.81c-0.75,0.79 0.45,2.03 1.18,1.2l0.84,-0.81c1.3,-1.07 2.53,-2.24 3.67,-3.48l4.77,-4.8c0.29,-0.26 0.37,-0.68 0.2,-1.04z" />
							<path id="Path" class="shp16" d="M966.16,424.29c-0.67,0.67 -1.32,1.34 -2.04,2.03l-2.59,2.73c-0.51,0.47 0.24,1.22 0.73,0.75l2.73,-2.6c0.69,-0.63 1.36,-1.28 2.04,-2.03c0.67,-0.75 -0.26,-1.51 -0.88,-0.87z" />
							<path id="Path" class="shp16" d="M972.05,425.27c0.1,-0.15 0.08,-0.34 -0.04,-0.46c-0.12,-0.12 -0.32,-0.14 -0.47,-0.04v0c-0.35,-0.16 -0.77,-0.09 -1.04,0.18l-4.81,4.76c-1.24,1.15 -2.41,2.38 -3.48,3.68l-0.81,0.81c-0.73,0.79 0.45,2.03 1.18,1.2l0.84,-0.81c1.3,-1.08 2.53,-2.24 3.69,-3.48l4.77,-4.8c0.28,-0.27 0.35,-0.69 0.18,-1.04z" />
							<path id="Path" class="shp16" d="M949.52,440.72c-0.67,0.67 -1.32,1.34 -2.04,2.03c-0.71,0.69 -1.75,1.81 -2.61,2.73c-0.49,0.47 0.26,1.22 0.75,0.75l2.73,-2.6c0.69,-0.63 1.36,-1.28 2.04,-2.03c0.67,-0.75 -0.26,-1.51 -0.88,-0.87z" />
							<path id="Path" class="shp16" d="M955.4,441.7c0.1,-0.15 0.08,-0.34 -0.04,-0.46c-0.12,-0.12 -0.32,-0.14 -0.47,-0.04v0c-0.34,-0.16 -0.75,-0.09 -1.02,0.18l-4.81,4.76c-1.25,1.14 -2.42,2.37 -3.48,3.68c-0.26,0.28 -0.55,0.55 -0.81,0.81c-0.75,0.79 0.45,2.03 1.18,1.2l0.84,-0.81c1.3,-1.07 2.53,-2.24 3.67,-3.48l4.77,-4.8c0.29,-0.26 0.37,-0.68 0.2,-1.04z" />
							<path id="Path" class="shp16" d="M966.16,440.72c-0.67,0.67 -1.32,1.34 -2.04,2.03l-2.59,2.73c-0.51,0.47 0.24,1.22 0.73,0.75l2.73,-2.6c0.69,-0.63 1.36,-1.28 2.04,-2.03c0.67,-0.75 -0.26,-1.51 -0.88,-0.87z" />
							<path id="Path" class="shp16" d="M972.05,441.7c0.1,-0.15 0.08,-0.34 -0.04,-0.46c-0.12,-0.12 -0.32,-0.14 -0.47,-0.04v0c-0.35,-0.16 -0.77,-0.09 -1.04,0.18l-4.81,4.76c-1.24,1.15 -2.41,2.38 -3.48,3.68c-0.26,0.28 -0.55,0.55 -0.81,0.81c-0.73,0.79 0.45,2.03 1.18,1.2l0.84,-0.81c1.3,-1.08 2.53,-2.24 3.69,-3.48l4.77,-4.8c0.28,-0.27 0.35,-0.69 0.18,-1.04z" />
							<path id="Shape" class="shp11" d="M979.13,423.5c0.26,0.26 0.41,0.62 0.41,0.99v32.93c0,0.78 -0.63,1.4 -1.41,1.4h-33.04c-0.78,0 -1.41,-0.63 -1.41,-1.4v-32.93c0,-0.78 0.63,-1.4 1.41,-1.4h33.04c0.37,0 0.73,0.15 0.99,0.41zM946.17,439.69h14.14v-14.12h-14.14zM960.31,456.41v-14.12h-14.14v14.12zM977.06,442.29h-14.14v14.12h14.14zM977.06,425.57h-14.14v14.12h14.14z" />
							<path id="Rectangle" class="shp15" d="M1070.34,439.69h14.14v-14.12h-14.14z" />
							<path id="Rectangle" class="shp15" d="M1053.59,456.41h14.14v-14.12h-14.14z" />
							<path id="Rectangle" class="shp15" d="M1070.34,456.41h14.14v-14.12h-14.14z" />
							<path id="Rectangle" class="shp15" d="M1053.59,439.69h14.14v-14.12h-14.14z" />
							<path id="Path" class="shp16" d="M1056.93,424.29c-0.69,0.67 -1.32,1.34 -2.04,2.03c-0.71,0.69 -1.75,1.81 -2.61,2.73c-0.49,0.47 0.26,1.22 0.75,0.75l2.73,-2.6c0.69,-0.63 1.36,-1.28 2.04,-2.03c0.67,-0.75 -0.26,-1.51 -0.88,-0.87z" />
							<path id="Path" class="shp16" d="M1062.8,425.27c0.1,-0.15 0.08,-0.34 -0.04,-0.46c-0.12,-0.12 -0.32,-0.14 -0.47,-0.04v0c-0.34,-0.16 -0.75,-0.09 -1.02,0.18l-4.81,4.76c-1.25,1.14 -2.42,2.37 -3.48,3.68l-0.81,0.81c-0.75,0.79 0.43,2.03 1.18,1.2l0.84,-0.81c1.3,-1.08 2.52,-2.24 3.67,-3.48l4.77,-4.8c0.29,-0.26 0.37,-0.68 0.2,-1.04z" />
							<path id="Path" class="shp16" d="M1073.58,424.29c-0.67,0.67 -1.32,1.34 -2.04,2.03c-0.71,0.69 -1.73,1.81 -2.61,2.73c-0.49,0.47 0.26,1.22 0.75,0.75l2.73,-2.6c0.69,-0.63 1.36,-1.28 2.04,-2.03c0.67,-0.75 -0.33,-1.51 -0.88,-0.87z" />
							<path id="Path" class="shp16" d="M1079.46,425.27c0.1,-0.15 0.08,-0.34 -0.04,-0.46c-0.12,-0.12 -0.32,-0.14 -0.47,-0.04v0c-0.34,-0.16 -0.75,-0.09 -1.02,0.18l-4.81,4.76c-1.25,1.14 -2.42,2.37 -3.48,3.68l-0.81,0.81c-0.75,0.79 0.45,2.03 1.18,1.2l0.84,-0.81c1.3,-1.07 2.53,-2.24 3.67,-3.48l4.77,-4.8c0.29,-0.26 0.37,-0.68 0.2,-1.04z" />
							<path id="Path" class="shp16" d="M1056.93,440.72c-0.69,0.67 -1.32,1.34 -2.04,2.03c-0.71,0.69 -1.75,1.81 -2.61,2.73c-0.49,0.47 0.26,1.22 0.75,0.75l2.73,-2.6c0.69,-0.63 1.36,-1.28 2.04,-2.03c0.67,-0.75 -0.26,-1.51 -0.88,-0.87z" />
							<path id="Path" class="shp16" d="M1062.8,441.7c0.1,-0.15 0.08,-0.34 -0.04,-0.46c-0.12,-0.12 -0.32,-0.14 -0.47,-0.04v0c-0.34,-0.16 -0.75,-0.09 -1.02,0.18l-4.81,4.76c-1.25,1.14 -2.42,2.37 -3.48,3.68c-0.26,0.28 -0.55,0.55 -0.81,0.81c-0.75,0.79 0.43,2.03 1.18,1.2l0.84,-0.81c1.3,-1.08 2.52,-2.24 3.67,-3.48l4.77,-4.8c0.29,-0.26 0.37,-0.68 0.2,-1.04z" />
							<path id="Path" class="shp16" d="M1073.58,440.72c-0.67,0.67 -1.32,1.34 -2.04,2.03c-0.71,0.69 -1.73,1.81 -2.61,2.73c-0.49,0.47 0.26,1.22 0.75,0.75l2.73,-2.6c0.69,-0.63 1.36,-1.28 2.04,-2.03c0.67,-0.75 -0.33,-1.51 -0.88,-0.87z" />
							<path id="Path" class="shp16" d="M1079.46,441.7c0.1,-0.15 0.08,-0.34 -0.04,-0.46c-0.12,-0.12 -0.32,-0.14 -0.47,-0.04v0c-0.34,-0.16 -0.75,-0.09 -1.02,0.18l-4.81,4.76c-1.25,1.14 -2.42,2.37 -3.48,3.68c-0.26,0.28 -0.55,0.55 -0.81,0.81c-0.75,0.79 0.45,2.03 1.18,1.2l0.84,-0.81c1.3,-1.07 2.53,-2.24 3.67,-3.48l4.77,-4.8c0.29,-0.26 0.37,-0.68 0.2,-1.04z" />
							<path id="Shape" class="shp11" d="M1086.55,423.5c0.26,0.26 0.41,0.62 0.41,0.99v32.93c0,0.78 -0.63,1.4 -1.41,1.4h-33.04c-0.78,0 -1.41,-0.63 -1.41,-1.4v-32.93c0,-0.78 0.63,-1.4 1.41,-1.4h33.04c0.37,0 0.73,0.15 0.99,0.41zM1053.59,439.69h14.14v-14.12h-14.14zM1067.73,456.41v-14.12h-14.14v14.12zM1084.48,442.29h-14.14v14.12h14.14zM1084.48,425.57h-14.14v14.12h14.14z" />
							<path id="Rectangle" class="shp15" d="M1119.35,439.69h14.14v-14.12h-14.14z" />
							<path id="Rectangle" class="shp15" d="M1102.61,456.41h14.14v-14.12h-14.14z" />
							<path id="Rectangle" class="shp15" d="M1119.35,456.41h14.14v-14.12h-14.14z" />
							<path id="Rectangle" class="shp15" d="M1102.61,439.69h14.14v-14.12h-14.14z" />
							<path id="Path" class="shp16" d="M1105.97,424.29c-0.69,0.67 -1.34,1.34 -2.04,2.03c-0.69,0.69 -1.75,1.81 -2.61,2.73c-0.51,0.47 0.24,1.22 0.75,0.75l2.71,-2.6c0.69,-0.63 1.36,-1.28 2.04,-2.03c0.67,-0.75 -0.24,-1.51 -0.86,-0.87z" />
							<path id="Path" class="shp16" d="M1111.84,425.27c0.1,-0.15 0.08,-0.34 -0.04,-0.46c-0.12,-0.12 -0.32,-0.14 -0.47,-0.04v0c-0.34,-0.17 -0.76,-0.09 -1.02,0.18l-4.83,4.76c-1.24,1.15 -2.41,2.38 -3.48,3.68l-0.81,0.81c-0.73,0.79 0.45,2.03 1.2,1.2l0.81,-0.81c1.31,-1.07 2.54,-2.24 3.69,-3.48l4.77,-4.8c0.29,-0.26 0.37,-0.69 0.18,-1.04z" />
							<path id="Path" class="shp16" d="M1122.61,424.29c-0.69,0.67 -1.32,1.34 -2.04,2.03c-0.71,0.69 -1.75,1.81 -2.61,2.73c-0.51,0.47 0.24,1.22 0.75,0.75l2.71,-2.6c0.69,-0.63 1.39,-1.28 2.04,-2.03c0.65,-0.75 -0.24,-1.51 -0.86,-0.87z" />
							<path id="Path" class="shp16" d="M1128.48,425.27c0.1,-0.15 0.08,-0.34 -0.04,-0.46c-0.12,-0.12 -0.32,-0.14 -0.47,-0.04v0c-0.34,-0.16 -0.75,-0.09 -1.02,0.18l-4.81,4.76c-1.26,1.14 -2.43,2.37 -3.5,3.68l-0.79,0.81c-0.75,0.79 0.43,2.03 1.18,1.2l0.81,-0.81c1.31,-1.07 2.54,-2.24 3.69,-3.48l4.77,-4.8c0.29,-0.26 0.37,-0.69 0.18,-1.04z" />
							<path id="Path" class="shp16" d="M1105.97,440.72c-0.69,0.67 -1.34,1.34 -2.04,2.03c-0.69,0.69 -1.75,1.81 -2.61,2.73c-0.51,0.47 0.24,1.22 0.75,0.75c0.92,-0.85 1.81,-1.75 2.71,-2.6c0.9,-0.85 1.36,-1.28 2.04,-2.03c0.67,-0.75 -0.24,-1.51 -0.86,-0.87z" />
							<path id="Path" class="shp16" d="M1111.84,441.7c0.1,-0.15 0.08,-0.34 -0.04,-0.46c-0.12,-0.12 -0.32,-0.14 -0.47,-0.04v0c-0.34,-0.17 -0.76,-0.09 -1.02,0.18l-4.83,4.76c-1.24,1.15 -2.41,2.38 -3.48,3.68c-0.26,0.28 -0.55,0.55 -0.81,0.81c-0.73,0.79 0.45,2.03 1.2,1.2l0.81,-0.81c1.31,-1.07 2.54,-2.24 3.69,-3.48l4.77,-4.8c0.29,-0.26 0.37,-0.69 0.18,-1.04z" />
							<path id="Path" class="shp16" d="M1122.61,440.72c-0.69,0.67 -1.32,1.34 -2.04,2.03c-0.71,0.69 -1.75,1.81 -2.61,2.73c-0.51,0.47 0.24,1.22 0.75,0.75c0.92,-0.85 1.81,-1.75 2.71,-2.6c0.9,-0.85 1.39,-1.28 2.04,-2.03c0.65,-0.75 -0.24,-1.51 -0.86,-0.87z" />
							<path id="Path" class="shp16" d="M1128.48,441.7c0.1,-0.15 0.08,-0.34 -0.04,-0.46c-0.12,-0.12 -0.32,-0.14 -0.47,-0.04v0c-0.34,-0.16 -0.75,-0.09 -1.02,0.18l-4.81,4.76c-1.26,1.14 -2.43,2.37 -3.5,3.68l-0.79,0.81c-0.75,0.79 0.43,2.03 1.18,1.2l0.81,-0.81c1.31,-1.07 2.54,-2.24 3.69,-3.48l4.77,-4.8c0.29,-0.26 0.37,-0.69 0.18,-1.04z" />
							<path id="Shape" class="shp11" d="M1135.56,423.5c0.26,0.26 0.41,0.62 0.41,0.99v32.93c0,0.78 -0.63,1.4 -1.41,1.4h-33.04c-0.37,0 -0.73,-0.15 -0.99,-0.41c-0.26,-0.26 -0.4,-0.62 -0.4,-0.99v-32.93c-0.01,-0.37 0.14,-0.73 0.4,-0.99c0.26,-0.26 0.62,-0.41 0.99,-0.41h33.04c0.37,0 0.73,0.15 0.99,0.41zM1102.65,439.69h14.14v-14.12h-14.14zM1116.79,456.41v-14.12h-14.14v14.12zM1133.49,442.29h-14.14v14.12h14.18zM1133.49,425.57h-14.14v14.12h14.18z" />
							<path id="Rectangle" class="shp15" d="M1168.39,439.69h14.14v-14.12h-14.14z" />
							<path id="Rectangle" class="shp15" d="M1151.64,456.41h14.14v-14.12h-14.14z" />
							<path id="Rectangle" class="shp15" d="M1168.39,456.41h14.14v-14.12h-14.14z" />
							<path id="Rectangle" class="shp15" d="M1151.64,439.69h14.14v-14.12h-14.14z" />
							<path id="Path" class="shp16" d="M1154.98,424.29c-0.69,0.67 -1.32,1.34 -2.04,2.03c-0.71,0.69 -1.75,1.81 -2.61,2.73c-0.49,0.47 0.26,1.22 0.75,0.75l2.73,-2.6c0.69,-0.63 1.36,-1.28 2.04,-2.03c0.67,-0.75 -0.24,-1.51 -0.88,-0.87z" />
							<path id="Path" class="shp16" d="M1160.85,425.27c0.31,-0.37 -0.12,-0.79 -0.51,-0.51v0c-0.34,-0.16 -0.75,-0.09 -1.02,0.18l-4.81,4.76c-1.25,1.14 -2.42,2.37 -3.48,3.68l-0.81,0.81c-0.75,0.79 0.45,2.03 1.18,1.2l0.84,-0.81c1.3,-1.08 2.52,-2.24 3.67,-3.48l4.77,-4.8c0.29,-0.26 0.37,-0.68 0.2,-1.04z" />
							<path id="Path" class="shp16" d="M1171.63,424.29c-0.67,0.67 -1.32,1.34 -2.04,2.03c-0.71,0.69 -1.73,1.81 -2.61,2.73c-0.49,0.47 0.26,1.22 0.75,0.75l2.73,-2.6c0.69,-0.63 1.36,-1.28 2.04,-2.03c0.67,-0.75 -0.26,-1.51 -0.88,-0.87z" />
							<path id="Path" class="shp16" d="M1177.51,425.27c0.1,-0.15 0.08,-0.34 -0.04,-0.46c-0.12,-0.12 -0.32,-0.14 -0.47,-0.04v0c-0.34,-0.16 -0.75,-0.09 -1.02,0.18l-4.81,4.76c-1.25,1.14 -2.41,2.37 -3.48,3.68l-0.81,0.81c-0.73,0.79 0.45,2.03 1.18,1.2l0.84,-0.81c1.3,-1.07 2.53,-2.24 3.67,-3.48l4.77,-4.8c0.29,-0.26 0.37,-0.68 0.2,-1.04z" />
							<path id="Path" class="shp16" d="M1154.98,440.72c-0.69,0.67 -1.32,1.34 -2.04,2.03c-0.71,0.69 -1.75,1.81 -2.61,2.73c-0.49,0.47 0.26,1.22 0.75,0.75l2.73,-2.6c0.69,-0.63 1.36,-1.28 2.04,-2.03c0.67,-0.75 -0.24,-1.51 -0.88,-0.87z" />
							<path id="Path" class="shp16" d="M1160.85,441.7c0.31,-0.37 -0.12,-0.79 -0.51,-0.51v0c-0.34,-0.16 -0.75,-0.09 -1.02,0.18l-4.81,4.76c-1.25,1.14 -2.42,2.37 -3.48,3.68c-0.26,0.28 -0.55,0.55 -0.81,0.81c-0.75,0.79 0.45,2.03 1.18,1.2l0.84,-0.81c1.3,-1.08 2.52,-2.24 3.67,-3.48l4.77,-4.8c0.29,-0.26 0.37,-0.68 0.2,-1.04z" />
							<path id="Path" class="shp16" d="M1171.63,440.72c-0.67,0.67 -1.32,1.34 -2.04,2.03c-0.71,0.69 -1.73,1.81 -2.61,2.73c-0.49,0.47 0.26,1.22 0.75,0.75l2.73,-2.6c0.69,-0.63 1.36,-1.28 2.04,-2.03c0.67,-0.75 -0.26,-1.51 -0.88,-0.87z" />
							<path id="Path" class="shp16" d="M1177.51,441.7c0.1,-0.15 0.08,-0.34 -0.04,-0.46c-0.12,-0.12 -0.32,-0.14 -0.47,-0.04v0c-0.34,-0.16 -0.75,-0.09 -1.02,0.18l-4.81,4.76c-1.25,1.14 -2.41,2.37 -3.48,3.68c-0.26,0.28 -0.55,0.55 -0.81,0.81c-0.73,0.79 0.45,2.03 1.18,1.2l0.84,-0.81c1.3,-1.07 2.53,-2.24 3.67,-3.48l4.77,-4.8c0.29,-0.26 0.37,-0.68 0.2,-1.04z" />
							<path id="Shape" class="shp11" d="M1184.6,423.5c0.26,0.26 0.41,0.62 0.41,0.99v32.93c0,0.78 -0.63,1.4 -1.41,1.4h-33.04c-0.78,0 -1.41,-0.63 -1.41,-1.4v-32.93c0,-0.78 0.63,-1.4 1.41,-1.4h33.04c0.37,0 0.73,0.15 0.99,0.41zM1151.66,439.69h14.14v-14.12h-14.16zM1165.8,456.41v-14.12h-14.16v14.12zM1182.52,442.29h-14.14v14.12h14.14zM1182.52,425.57h-14.14v14.12h14.14z" />
							<path id="Rectangle" class="shp15" d="M1070.34,497.19h14.14v-14.12h-14.14z" />
							<path id="Rectangle" class="shp15" d="M1053.59,513.9h14.14v-14.12h-14.14z" />
							<path id="Rectangle" class="shp15" d="M1070.34,513.9h14.14v-14.12h-14.14z" />
							<path id="Rectangle" class="shp15" d="M1053.59,497.19h14.14v-14.12h-14.14z" />
							<path id="Path" class="shp16" d="M1056.93,481.83c-0.69,0.67 -1.32,1.36 -2.04,2.03c-0.71,0.67 -1.75,1.79 -2.61,2.71c-0.49,0.47 0.26,1.22 0.75,0.75l2.73,-2.6c0.69,-0.61 1.36,-1.26 2.04,-2.03c0.09,-0.25 0.03,-0.52 -0.16,-0.71c-0.19,-0.18 -0.47,-0.24 -0.71,-0.15z" />
							<path id="Path" class="shp16" d="M1062.8,482.79c0.1,-0.15 0.08,-0.34 -0.04,-0.46c-0.12,-0.12 -0.32,-0.14 -0.47,-0.04v0c-0.34,-0.17 -0.76,-0.1 -1.02,0.18l-4.81,4.76c-1.25,1.14 -2.42,2.37 -3.48,3.68l-0.81,0.81c-0.75,0.77 0.43,2.03 1.18,1.18l0.84,-0.79c1.3,-1.08 2.53,-2.25 3.67,-3.5l4.77,-4.8c0.28,-0.26 0.37,-0.67 0.2,-1.02z" />
							<path id="Path" class="shp16" d="M1073.58,481.83c-0.67,0.67 -1.32,1.36 -2.04,2.03l-2.61,2.71c-0.49,0.47 0.26,1.22 0.75,0.75l2.73,-2.6c0.69,-0.61 1.36,-1.26 2.04,-2.03c0.09,-0.25 0.03,-0.52 -0.16,-0.71c-0.19,-0.18 -0.47,-0.24 -0.71,-0.15z" />
							<path id="Path" class="shp16" d="M1079.46,482.79c0.1,-0.15 0.08,-0.34 -0.04,-0.46c-0.12,-0.12 -0.32,-0.14 -0.47,-0.04v0c-0.34,-0.17 -0.76,-0.1 -1.02,0.18l-4.81,4.76c-1.25,1.14 -2.42,2.37 -3.48,3.68l-0.81,0.81c-0.75,0.77 0.45,2.03 1.18,1.18l0.84,-0.79c1.31,-1.08 2.53,-2.25 3.67,-3.5l4.77,-4.8c0.28,-0.26 0.37,-0.67 0.2,-1.02z" />
							<path id="Path" class="shp16" d="M1056.93,498.22c-0.69,0.67 -1.32,1.36 -2.04,2.03c-0.71,0.67 -1.75,1.79 -2.61,2.71c-0.49,0.47 0.26,1.22 0.75,0.75l2.73,-2.6c0.69,-0.61 1.36,-1.26 2.04,-2.03c0.09,-0.25 0.03,-0.52 -0.16,-0.71c-0.19,-0.18 -0.47,-0.24 -0.71,-0.15z" />
							<path id="Path" class="shp16" d="M1062.8,499.22c0.1,-0.15 0.08,-0.34 -0.04,-0.46c-0.12,-0.12 -0.32,-0.14 -0.47,-0.04v0c-0.34,-0.17 -0.76,-0.1 -1.02,0.18l-4.81,4.76c-1.25,1.14 -2.42,2.37 -3.48,3.68l-0.81,0.81c-0.75,0.77 0.43,2.03 1.18,1.18l0.84,-0.79c1.3,-1.08 2.53,-2.25 3.67,-3.5l4.77,-4.8c0.28,-0.26 0.37,-0.67 0.2,-1.02z" />
							<path id="Path" class="shp16" d="M1073.58,498.22c-0.67,0.67 -1.32,1.36 -2.04,2.03l-2.61,2.71c-0.49,0.47 0.26,1.22 0.75,0.75l2.73,-2.6c0.69,-0.61 1.36,-1.26 2.04,-2.03c0.09,-0.25 0.03,-0.52 -0.16,-0.71c-0.19,-0.18 -0.47,-0.24 -0.71,-0.15z" />
							<path id="Path" class="shp16" d="M1079.46,499.22c0.1,-0.15 0.08,-0.34 -0.04,-0.46c-0.12,-0.12 -0.32,-0.14 -0.47,-0.04v0c-0.34,-0.17 -0.76,-0.1 -1.02,0.18l-4.81,4.76c-1.25,1.14 -2.42,2.37 -3.48,3.68l-0.81,0.81c-0.75,0.77 0.45,2.03 1.18,1.18l0.84,-0.79c1.31,-1.08 2.53,-2.25 3.67,-3.5l4.77,-4.8c0.28,-0.26 0.37,-0.67 0.2,-1.02z" />
							<path id="Shape" class="shp11" d="M1086.55,481.01c0.26,0.26 0.41,0.61 0.41,0.99v33.01c-0.01,0.77 -0.64,1.38 -1.41,1.38h-33.04c-0.77,0 -1.39,-0.62 -1.41,-1.38v-33.01c0,-0.37 0.15,-0.73 0.41,-0.99c0.26,-0.26 0.62,-0.4 0.99,-0.4h33.04c0.37,-0.01 0.73,0.14 0.99,0.4zM1053.59,497.19h14.14v-14.12h-14.14zM1067.73,513.9v-14.1h-14.14v14.1zM1084.48,499.81h-14.14v14.1h14.14zM1084.48,483.07h-14.14v14.12h14.14z" />
							<path id="Rectangle" class="shp15" d="M1168.39,497.19h14.14v-14.12h-14.14z" />
							<path id="Rectangle" class="shp15" d="M1151.64,513.9h14.14v-14.12h-14.14z" />
							<path id="Rectangle" class="shp15" d="M1168.39,513.9h14.14v-14.12h-14.14z" />
							<path id="Rectangle" class="shp15" d="M1151.64,497.19h14.14v-14.12h-14.14z" />
							<path id="Path" class="shp16" d="M1154.98,481.83c-0.69,0.67 -1.32,1.36 -2.04,2.03c-0.71,0.67 -1.75,1.79 -2.61,2.71c-0.49,0.47 0.26,1.22 0.75,0.75l2.73,-2.6c0.69,-0.61 1.36,-1.26 2.04,-2.03c0.09,-0.25 0.03,-0.52 -0.16,-0.71c-0.19,-0.18 -0.47,-0.24 -0.71,-0.15z" />
							<path id="Path" class="shp16" d="M1160.85,482.79c0.31,-0.37 -0.12,-0.79 -0.51,-0.51v0c-0.34,-0.17 -0.76,-0.1 -1.02,0.18l-4.81,4.76c-1.25,1.14 -2.42,2.37 -3.48,3.68l-0.81,0.81c-0.75,0.77 0.45,2.03 1.18,1.18l0.84,-0.79c1.3,-1.08 2.53,-2.25 3.67,-3.5l4.77,-4.8c0.28,-0.26 0.37,-0.67 0.2,-1.02z" />
							<path id="Path" class="shp16" d="M1171.63,481.83c-0.67,0.67 -1.32,1.36 -2.04,2.03l-2.61,2.71c-0.49,0.47 0.26,1.22 0.75,0.75l2.73,-2.6c0.69,-0.61 1.36,-1.26 2.04,-2.03c0.09,-0.25 0.03,-0.52 -0.16,-0.71c-0.19,-0.18 -0.47,-0.24 -0.71,-0.15z" />
							<path id="Path" class="shp16" d="M1177.51,482.79c0.1,-0.15 0.08,-0.34 -0.04,-0.46c-0.12,-0.12 -0.32,-0.14 -0.47,-0.04v0c-0.34,-0.17 -0.76,-0.1 -1.02,0.18l-4.81,4.76c-1.25,1.14 -2.41,2.37 -3.48,3.68l-0.81,0.81c-0.73,0.77 0.45,2.03 1.18,1.18l0.84,-0.79c1.31,-1.08 2.53,-2.25 3.67,-3.5l4.77,-4.8c0.28,-0.26 0.37,-0.67 0.2,-1.02z" />
							<path id="Path" class="shp16" d="M1154.98,498.22c-0.69,0.67 -1.32,1.36 -2.04,2.03c-0.71,0.67 -1.75,1.79 -2.61,2.71c-0.49,0.47 0.26,1.22 0.75,0.75l2.73,-2.6c0.69,-0.61 1.36,-1.26 2.04,-2.03c0.09,-0.25 0.03,-0.52 -0.16,-0.71c-0.19,-0.18 -0.47,-0.24 -0.71,-0.15z" />
							<path id="Path" class="shp16" d="M1160.85,499.22c0.31,-0.37 -0.12,-0.79 -0.51,-0.51v0c-0.34,-0.17 -0.76,-0.1 -1.02,0.18l-4.81,4.76c-1.25,1.14 -2.42,2.37 -3.48,3.68l-0.81,0.81c-0.75,0.77 0.45,2.03 1.18,1.18l0.84,-0.79c1.3,-1.08 2.53,-2.25 3.67,-3.5l4.77,-4.8c0.28,-0.26 0.37,-0.67 0.2,-1.02z" />
							<path id="Path" class="shp16" d="M1171.63,498.22c-0.67,0.67 -1.32,1.36 -2.04,2.03l-2.61,2.71c-0.49,0.47 0.26,1.22 0.75,0.75l2.73,-2.6c0.69,-0.61 1.36,-1.26 2.04,-2.03c0.09,-0.25 0.03,-0.52 -0.16,-0.71c-0.19,-0.18 -0.47,-0.24 -0.71,-0.15z" />
							<path id="Path" class="shp16" d="M1177.51,499.22c0.1,-0.15 0.08,-0.34 -0.04,-0.46c-0.12,-0.12 -0.32,-0.14 -0.47,-0.04v0c-0.34,-0.17 -0.76,-0.1 -1.02,0.18l-4.81,4.76c-1.25,1.14 -2.41,2.37 -3.48,3.68l-0.81,0.81c-0.73,0.77 0.45,2.03 1.18,1.18l0.84,-0.79c1.31,-1.08 2.53,-2.25 3.67,-3.5l4.77,-4.8c0.28,-0.26 0.37,-0.67 0.2,-1.02z" />
							<path id="Shape" class="shp11" d="M1184.6,481.01c0.26,0.26 0.41,0.61 0.41,0.99v33.01c-0.01,0.77 -0.64,1.38 -1.41,1.38h-33.04c-0.77,0 -1.39,-0.62 -1.41,-1.38v-33.01c0,-0.37 0.15,-0.73 0.41,-0.99c0.26,-0.26 0.62,-0.4 0.99,-0.4h33.04c0.37,-0.01 0.73,0.14 0.99,0.4zM1151.66,497.19h14.14v-14.12h-14.16zM1165.8,513.9v-14.1h-14.16v14.1zM1182.52,499.81h-14.14v14.1h14.14zM1182.52,483.07h-14.14v14.12h14.14z" />
							<path id="Rectangle" class="shp15" d="M962.92,495.88h14.14v-14.12h-14.14z" />
							<path id="Rectangle" class="shp15" d="M946.17,512.6h14.14v-14.12h-14.14z" />
							<path id="Rectangle" class="shp15" d="M962.92,512.6h14.14v-14.12h-14.14z" />
							<path id="Rectangle" class="shp15" d="M946.17,495.88h14.14v-14.12h-14.14z" />
							<path id="Path" class="shp16" d="M949.52,480.49c-0.67,0.67 -1.32,1.34 -2.04,2.03c-0.71,0.69 -1.75,1.79 -2.61,2.71c-0.49,0.47 0.26,1.22 0.75,0.75l2.73,-2.6c0.69,-0.63 1.36,-1.26 2.04,-2.03c0.09,-0.25 0.03,-0.52 -0.16,-0.71c-0.19,-0.18 -0.47,-0.24 -0.71,-0.15z" />
							<path id="Path" class="shp16" d="M955.4,481.48c0.1,-0.15 0.08,-0.34 -0.04,-0.46c-0.12,-0.12 -0.32,-0.14 -0.47,-0.04v0c-0.34,-0.18 -0.76,-0.11 -1.02,0.18l-4.85,4.74c-1.25,1.13 -2.41,2.36 -3.48,3.66l-0.81,0.83c-0.75,0.77 0.45,2.03 1.18,1.18l0.84,-0.81c1.31,-1.06 2.54,-2.23 3.67,-3.48l4.77,-4.8c0.28,-0.26 0.37,-0.67 0.2,-1.02z" />
							<path id="Path" class="shp16" d="M966.16,480.49c-0.67,0.67 -1.32,1.34 -2.04,2.03c-0.71,0.69 -1.73,1.79 -2.59,2.71c-0.51,0.47 0.24,1.22 0.73,0.75l2.73,-2.6c0.69,-0.63 1.36,-1.26 2.04,-2.03c0.09,-0.25 0.03,-0.52 -0.16,-0.71c-0.19,-0.18 -0.47,-0.24 -0.71,-0.15z" />
							<path id="Path" class="shp16" d="M972.05,481.48c0.1,-0.15 0.08,-0.34 -0.04,-0.46c-0.12,-0.12 -0.32,-0.14 -0.47,-0.04v0c-0.35,-0.18 -0.78,-0.11 -1.04,0.18l-4.83,4.74c-1.24,1.14 -2.4,2.37 -3.48,3.66l-0.81,0.83c-0.73,0.77 0.45,2.03 1.18,1.18l0.84,-0.81c1.31,-1.07 2.54,-2.23 3.69,-3.48l4.77,-4.8c0.28,-0.26 0.36,-0.68 0.18,-1.02z" />
							<path id="Path" class="shp16" d="M949.52,496.92c-0.67,0.67 -1.32,1.34 -2.04,2.03c-0.71,0.69 -1.75,1.79 -2.61,2.71c-0.49,0.47 0.26,1.22 0.75,0.75l2.73,-2.6c0.69,-0.61 1.36,-1.26 2.04,-2.03c0.09,-0.25 0.03,-0.52 -0.16,-0.71c-0.19,-0.18 -0.47,-0.24 -0.71,-0.15z" />
							<path id="Path" class="shp16" d="M955.4,497.92c0.1,-0.15 0.08,-0.34 -0.04,-0.46c-0.12,-0.12 -0.32,-0.14 -0.47,-0.04v0c-0.34,-0.18 -0.76,-0.11 -1.02,0.18l-4.81,4.76c-1.25,1.14 -2.42,2.37 -3.48,3.68l-0.81,0.81c-0.75,0.77 0.45,2.03 1.18,1.18l0.84,-0.81c1.31,-1.06 2.54,-2.23 3.67,-3.48l4.77,-4.8c0.28,-0.26 0.37,-0.67 0.2,-1.02z" />
							<path id="Path" class="shp16" d="M966.16,496.92c-0.67,0.67 -1.32,1.34 -2.04,2.03c-0.71,0.69 -1.73,1.79 -2.59,2.71c-0.51,0.47 0.24,1.22 0.73,0.75l2.73,-2.6c0.69,-0.61 1.36,-1.26 2.04,-2.03c0.09,-0.25 0.03,-0.52 -0.16,-0.71c-0.19,-0.18 -0.47,-0.24 -0.71,-0.15z" />
							<path id="Path" class="shp16" d="M972.05,497.92c0.1,-0.15 0.08,-0.34 -0.04,-0.46c-0.12,-0.12 -0.32,-0.14 -0.47,-0.04v0c-0.35,-0.18 -0.78,-0.11 -1.04,0.18l-4.81,4.76c-1.24,1.15 -2.41,2.38 -3.48,3.68l-0.81,0.81c-0.73,0.77 0.45,2.03 1.18,1.18l0.84,-0.81c1.31,-1.07 2.54,-2.23 3.69,-3.48l4.77,-4.8c0.28,-0.26 0.36,-0.68 0.18,-1.02z" />
							<path id="Shape" class="shp11" d="M979.13,479.71c0.26,0.26 0.41,0.61 0.41,0.99v32.99c0,0.78 -0.63,1.4 -1.41,1.4h-33.04c-0.78,0 -1.41,-0.63 -1.41,-1.4v-32.99c0,-0.37 0.15,-0.73 0.41,-0.99c0.26,-0.26 0.62,-0.4 0.99,-0.4h33.04c0.37,-0.01 0.73,0.14 0.99,0.4zM946.17,495.95h14.14v-14.12h-14.14zM960.31,512.66v-14.12h-14.14v14.12zM977.06,498.55h-14.14v14.12h14.14zM977.06,481.83h-14.14v14.12h14.14z" />
							<path id="Oval" class="shp11" d="M974.31,384.32c0,-7.27 -5.88,-13.14 -13.16,-13.14c-7.28,0 -13.16,5.87 -13.16,13.14c0,7.27 5.88,13.14 13.16,13.14c7.28,0 13.16,-5.87 13.16,-13.14z" />
							<path id="Path" class="shp15" d="M970.23,384.34c0,5 -4.06,9.05 -9.07,9.05c-5.01,0 -9.07,-4.05 -9.07,-9.05c0,-5 4.06,-9.05 9.07,-9.05c2.41,-0.01 4.71,0.95 6.42,2.64c1.7,1.7 2.65,4 2.65,6.41z" />
							<path id="Path" class="shp11" d="M1101.83,475.02h32.11c1.13,0 2.04,0.91 2.04,2.03v71.04h-36.18v-71.04c0,-1.12 0.91,-2.03 2.04,-2.03z" />
							<path id="Path" class="shp15" d="M1105.09,478.8h25.57c1.13,0 2.04,0.91 2.04,2.03v67.32h-29.64v-67.32c0,-1.12 0.91,-2.03 2.04,-2.03z" />
							<path id="Rectangle" class="shp16" d="M1105.32,482.96v8.99c0,0.27 0.21,0.48 0.48,0.48h24.16c0.27,0 0.48,-0.21 0.48,-0.48v-8.99c0,-0.27 -0.21,-0.48 -0.48,-0.48h-24.16c-0.27,0 -0.48,0.21 -0.48,0.48z" />
							<path id="Rectangle" class="shp16" d="M1105.32,495.31v8.99c0,0.27 0.21,0.48 0.48,0.48h24.16c0.27,0 0.48,-0.21 0.48,-0.48v-8.99c0,-0.27 -0.21,-0.48 -0.48,-0.48h-24.16c-0.27,0 -0.48,0.21 -0.48,0.48z" />
							<path id="Rectangle" class="shp16" d="M1105.32,507.65v8.99c0,0.27 0.21,0.48 0.48,0.48h24.16c0.27,0 0.48,-0.21 0.48,-0.48v-8.99c0,-0.27 -0.21,-0.48 -0.48,-0.48h-24.16c-0.27,0 -0.48,0.21 -0.48,0.48z" />
							<path id="Rectangle" class="shp16" d="M1105.32,520v8.99c0,0.27 0.21,0.48 0.48,0.48h24.16c0.27,0 0.48,-0.21 0.48,-0.48v-8.99c0,-0.27 -0.21,-0.48 -0.48,-0.48h-24.16c-0.27,0 -0.48,0.21 -0.48,0.48z" />
							<path id="Rectangle" class="shp16" d="M1105.32,532.34v8.99c0,0.27 0.21,0.48 0.48,0.48h24.16c0.27,0 0.48,-0.21 0.48,-0.48v-8.99c0,-0.27 -0.21,-0.48 -0.48,-0.48h-24.16c-0.27,0 -0.48,0.21 -0.48,0.48z" />
							<path id="Path" class="shp17" d="M1130.25,330.1h-146.51c-0.27,-0.01 -0.53,0.1 -0.71,0.29c-0.19,0.19 -0.28,0.46 -0.26,0.72c-0.01,0.39 0.2,0.75 0.55,0.92c0.14,0.03 0.29,0.03 0.43,0h146.51c0.37,-0.18 0.6,-0.56 0.6,-0.97c0,-0.41 -0.23,-0.78 -0.6,-0.97z" />
							<path id="Path" class="shp17" d="M1146.26,344.58c-48.89,0 -97.74,0 -146.53,0c-0.27,-0.01 -0.53,0.1 -0.71,0.29c-0.19,0.19 -0.28,0.46 -0.26,0.72c-0.01,0.39 0.2,0.75 0.55,0.92c0.14,0.03 0.29,0.03 0.43,0c48.89,0 97.74,0 146.53,0c0.37,-0.18 0.6,-0.56 0.6,-0.97c0,-0.41 -0.23,-0.78 -0.6,-0.97z" />
							<path id="Path" class="shp17" d="M1161.13,359.06c-48.89,0 -97.73,0 -146.51,0c-0.27,-0.01 -0.53,0.1 -0.71,0.29c-0.19,0.19 -0.28,0.46 -0.26,0.72c-0.01,0.39 0.2,0.75 0.55,0.92c0.14,0.03 0.29,0.03 0.43,0h146.51c0.37,-0.18 0.6,-0.56 0.6,-0.97c0,-0.41 -0.23,-0.78 -0.6,-0.97z" />
							<path id="Path" class="shp17" d="M1178.98,373.56c-48.89,0 -97.73,0 -146.51,0c-0.56,-0.12 -1.11,0.24 -1.23,0.8c-0.12,0.56 0.24,1.11 0.8,1.23c0.14,0.03 0.29,0.03 0.43,0c48.89,0 97.73,0 146.51,0c0.43,-0.15 0.72,-0.56 0.72,-1.02c0,-0.46 -0.29,-0.87 -0.72,-1.02z" />
							<path id="Path" class="shp17" d="M1194.32,388.05h-146.51c-0.27,-0.01 -0.53,0.09 -0.71,0.28c-0.19,0.19 -0.28,0.45 -0.27,0.72c-0.01,0.39 0.2,0.76 0.55,0.94c0.14,0.02 0.29,0.02 0.43,0c48.89,0 97.73,0 146.51,0c0.37,-0.18 0.6,-0.56 0.6,-0.97c0,-0.41 -0.23,-0.78 -0.6,-0.97z" />
							<path id="Rectangle" class="shp12" d="M820.81,549.22v4.45c0,0.62 0.51,1.13 1.13,1.13h442.59c0.62,0 1.13,-0.51 1.13,-1.13v-4.45c0,-0.62 -0.51,-1.13 -1.13,-1.13h-442.59c-0.62,0 -1.13,0.51 -1.13,1.13z" />
							<path id="Path" class="shp11" d="M1128.58,510.3c-0.79,0.09 -1.39,0.76 -1.39,1.56c0,0.8 0.6,1.47 1.39,1.56c0.79,-0.09 1.39,-0.76 1.39,-1.56c0,-0.8 -0.6,-1.47 -1.39,-1.56z" />
							<path id="Shape" class="shp8" d="M1225.41,243.96c49.95,49.87 78.02,117.51 78.02,188.04c0.01,107.56 -64.88,204.54 -164.41,245.71c-99.53,41.17 -214.1,18.42 -290.28,-57.63c-76.18,-76.06 -98.97,-190.44 -57.75,-289.82c41.23,-99.38 138.35,-164.17 246.08,-164.17c70.64,-0.01 138.39,28.01 188.34,77.88zM1037.07,638.44c114.21,0 206.8,-92.42 206.83,-206.44c0,-114.05 -92.6,-206.5 -206.83,-206.5c-114.23,0 -206.83,92.45 -206.83,206.5c0,114.05 92.6,206.5 206.83,206.5z" />
							<path id="Path" class="shp18" d="M1045.99,652.37c77.1,0.01 147.8,-42.8 183.43,-111.07c35.62,-68.27 30.25,-150.65 -13.94,-213.73c56.28,95.61 26.85,218.54 -66.65,278.41c-93.51,59.87 -217.68,35.29 -281.23,-55.67c37.09,63.24 104.99,102.09 178.39,102.06z" />
							<path id="Path" class="shp9" d="M779.66,445.87c-0.03,-116.55 75.95,-219.54 187.45,-254.07c111.5,-34.53 232.52,7.45 298.56,103.56c-49.68,-83.63 -141.11,-133.53 -238.44,-130.12c-97.33,3.41 -185.04,59.57 -228.73,146.47c-43.69,86.9 -36.41,190.68 19,270.64c-24.79,-41.22 -37.87,-88.4 -37.83,-136.48z" />
							<path id="Shape" class="shp19" d="M1194.55,274.78c41.76,41.7 65.23,98.25 65.23,157.22c0,122.81 -90.47,222.35 -222.7,222.35c-122.99,0 -222.7,-99.55 -222.7,-222.35c0,-122.8 99.71,-222.35 222.7,-222.35c59.06,0 115.71,23.43 157.47,65.12zM1037.07,638.44c114.21,0 206.8,-92.42 206.83,-206.44c0,-114.05 -92.6,-206.5 -206.83,-206.5c-114.23,0 -206.83,92.45 -206.83,206.5c0,114.05 92.6,206.5 206.83,206.5z" />
							<path id="Path" class="shp14" d="M877.3,343.75l32.7,0.24c1.69,-0.53 3.4,-0.97 5.13,-1.32c1.67,-0.59 3.3,-2.03 2.97,-3.86c-0.36,-1.23 -1.4,-2.14 -2.67,-2.34c-1.25,-0.19 -2.53,-0.12 -3.75,0.2c0.73,-1.91 0.45,-4.05 -0.73,-5.72c-0.64,-0.77 -1.58,-1.24 -2.58,-1.29c-1,-0.05 -1.98,0.33 -2.69,1.05c1.45,-3.52 0.16,-7.57 -3.06,-9.6c-3.27,-1.88 -7.34,-1.68 -10.41,0.51c-2.99,2.22 -4.85,5.66 -5.05,9.38c-0.63,-1.28 -1.76,-2.24 -3.12,-2.66c-1.36,-0.43 -2.84,-0.28 -4.09,0.41c-2.48,1.57 -3.69,4.55 -2.99,7.4c-1.8,-0.39 -3.68,-0.02 -5.19,1.04c-2.04,2.03 -0.2,6.1 2.65,6.22c1.18,0.12 1.75,0.75 2.89,0.35z" />
							<path id="Path" class="shp14" d="M990.6,284.15l30.68,-0.22c7.05,0 14.81,1.26 21.72,-0.51c10.86,-2.79 9.43,-12.2 -2.32,-9.56c2.44,-3.27 3.43,-7.39 2.75,-11.41c-0.68,-4.02 -2.98,-7.58 -6.36,-9.87c-1.73,-1.03 -3.65,-1.72 -5.64,-2.03c-10.55,-1.83 -21.57,7.44 -21.55,18.12c-0.59,-4.23 -6.68,-5.76 -10.19,-3.29c-3.5,2.46 -4.64,7.16 -4.62,11.41c-1.77,-2.92 -5.57,-3.86 -8.49,-2.09c-2.93,1.76 -3.86,5.56 -2.1,8.48c3.28,0.02 2.91,0.94 6.13,0.98z" />
							<path id="Path" class="shp14" d="M1118.17,310.98l55.88,0.47c0.94,-0.37 1.85,-0.8 2.73,-1.28c0.88,-2.59 0.14,-5.45 -1.87,-7.3c-2.01,-1.85 -4.93,-2.35 -7.44,-1.26c1.94,-3.86 -1.59,-8.79 -5.85,-9.5c-4.26,-0.71 -8.52,1.67 -11.55,4.74c1.53,-3.29 1.09,-7.16 -1.14,-10.03c-2.19,-2.78 -4.98,-5.05 -8.15,-6.63c-14.04,-7.93 -21.72,8.14 -19.78,19.97c-2.21,-1.68 -5.31,-1.54 -7.35,0.34c-2.04,1.88 -2.44,4.95 -0.94,7.29c1.71,1.69 3.1,3.95 5.46,3.19z" />
							<path id="Path" class="shp20" d="M1026.54,599.51c0,1.65 -6.78,2.97 -15.14,2.97c-8.35,0 -15.14,-1.32 -15.14,-2.97c0,-1.65 6.78,-2.97 15.14,-2.97c8.35,0 15.14,1.32 15.14,2.97z" />
							<path id="Path" class="shp20" d="M1107.99,564.67c0,2.26 -13.02,4.07 -29.07,4.07c-16.05,0 -29.09,-1.83 -29.09,-4.07c0,-2.24 13.02,-4.07 29.09,-4.07c16.07,0 29.07,1.81 29.07,4.07z" />
							<path id="Path" class="shp20" d="M1187.41,576.04c0,2.03 -11.84,3.72 -26.48,3.72c-14.65,0 -26.48,-1.67 -26.48,-3.72c0,-2.05 11.84,-3.7 26.48,-3.7c14.65,0 26.48,1.67 26.48,3.7z" />
							<path id="Path" class="shp20" d="M942.79,579.09c0,1.42 -5.91,2.58 -13.22,2.58c-7.31,0 -13.24,-1.16 -13.24,-2.58c0,-1.42 5.93,-2.6 13.24,-2.6c7.31,0 13.22,1.16 13.22,2.6z" />
							<path id="Path" class="shp1" d="M950.21,502.29c6.89,9.83 4.7,23.35 -4.95,30.51c5.36,1.81 8.66,7.42 9.37,13.02c0.86,6.65 -2.04,14.24 -8.15,16.84c-3.11,1.09 -6.41,1.53 -9.7,1.28c-4.36,0.15 -8.71,-0.27 -12.96,-1.26c-4.29,-1.02 -8,-3.72 -10.29,-7.48c-2.19,-3.9 -1.58,-8.77 1.51,-12c-4.6,-3.8 -9.39,-7.89 -11.39,-13.51c-2,-5.61 0.12,-13.16 5.83,-14.91c-5.52,-12.85 -0.48,-27.79 11.71,-34.68c6.42,-3.34 15.42,-3.38 19.8,2.38c3.54,4.66 2.81,11.19 1.89,16.98c2.44,-1.53 5.58,0.53 7.31,2.83z" />
							<path id="Path" class="shp11" d="M942.77,508.76c4.49,6.4 3.06,15.21 -3.22,19.87c3.45,1.49 5.8,4.75 6.11,8.48c0.55,4.33 -1.3,9.25 -5.32,10.98c-2.02,0.72 -4.17,1 -6.32,0.83c-2.84,0.1 -5.68,-0.18 -8.45,-0.81c-2.8,-0.66 -5.22,-2.42 -6.7,-4.88c-1.46,-2.54 -1.06,-5.73 0.98,-7.83c-2.99,-2.48 -6.11,-5.15 -7.44,-8.81c-1.32,-3.66 0,-8.58 3.81,-9.7c-3.6,-8.38 -0.31,-18.13 7.64,-22.62c4.18,-2.18 10.04,-2.2 12.9,1.55c2.32,3.05 1.83,7.3 1.24,11.08c1.67,-0.98 3.71,0.35 4.77,1.85z" />
							<path id="Path" class="shp12" d="M944.08,536.54c-3.71,2.95 -7.13,7.28 -11.67,9.01c0,-1.59 -0.12,-3.15 -0.16,-4.72c0,-3.93 -0.12,-7.87 -0.18,-11.8c1.57,-0.46 3.02,-1.25 4.24,-2.34c1.59,-1.06 2.88,-2.51 3.75,-4.21c0,-0.26 -0.26,-0.55 -0.49,-0.39c-1.69,1.47 -3.47,2.83 -5.34,4.07c-0.69,0.4 -1.43,0.72 -2.2,0.96c0,-4.54 -0.12,-9.09 -0.22,-13.63c0.53,-0.14 0.86,-0.69 1.22,-1.1c0.63,-0.71 1.34,-1.38 2.04,-2.03c1.3,-1.14 2.08,-2.75 2.16,-4.47c-0.03,-0.12 -0.15,-0.21 -0.28,-0.21c-0.13,0 -0.24,0.09 -0.28,0.21c-0.63,1.79 -1.75,3.36 -3.24,4.54c-0.41,0.37 -1.12,0.87 -1.65,1.44c0,-3.44 -0.2,-6.87 -0.39,-10.29c-0.04,-0.21 -0.23,-0.35 -0.44,-0.35c-0.21,0 -0.39,0.15 -0.44,0.35c-0.31,6.28 -0.45,12.59 -0.55,18.9c-0.51,-0.43 -1.06,-0.73 -1.53,-1.2c-0.81,-0.84 -1.54,-1.77 -2.16,-2.77c-1.06,-1.55 -1.83,-3.25 -2.83,-4.8c-0.08,-0.1 -0.21,-0.14 -0.33,-0.09c-0.12,0.05 -0.19,0.17 -0.18,0.29c0.63,2.14 1.53,4.19 2.69,6.1c0.77,1.4 2.24,3.68 4.07,3.74c0.09,0.03 0.19,0.03 0.29,0c0,5.19 -0.14,10.35 -0.22,15.52c-1.45,-0.79 -2.82,-1.73 -4.07,-2.81c-1.82,-1.69 -3.33,-3.7 -4.44,-5.92c-0.18,-0.39 -0.81,-0.12 -0.69,0.28c0.86,2.47 2.25,4.73 4.07,6.61c1.32,1.6 3.01,2.86 4.93,3.66c0,0.65 0,1.28 0,1.91c-0.1,4.8 -0.41,9.74 -0.63,14.71c-1,-0.65 -2.04,-1.22 -2.93,-1.85c-2.36,-1.57 -4.34,-3.65 -5.77,-6.1c-0.35,-0.65 -1.26,0 -0.98,0.57c1.18,2.29 2.82,4.31 4.81,5.94c1.41,1.46 3.02,2.72 4.79,3.72c-0.41,6.86 -0.2,13.74 0.63,20.56c0.17,0.62 0.73,1.05 1.38,1.05c0.64,0 1.21,-0.43 1.38,-1.05c1.45,-9.97 0.65,-20.6 0.18,-30.85c4.99,-1.63 8.68,-6.87 12.41,-10.17c0.67,-0.69 -0.16,-1.46 -0.73,-1z" />
							<path id="Path" class="shp1" d="M1026.36,537.84c5.59,8 3.78,18.98 -4.07,24.77c4.34,1.46 7.03,6.1 7.6,10.58c0.69,5.39 -1.61,11.51 -6.6,13.67c-2.53,0.89 -5.21,1.24 -7.88,1.04c-3.54,0.12 -7.08,-0.22 -10.53,-1.02c-3.49,-0.84 -6.5,-3.04 -8.35,-6.1c-1.82,-3.16 -1.31,-7.14 1.24,-9.74c-3.75,-3.09 -7.64,-6.41 -9.27,-10.98c-1.63,-4.58 0.1,-10.68 4.75,-12.08c-4.41,-10.45 -0.29,-22.55 9.59,-28.15c5.19,-2.73 12.51,-2.75 16.07,1.93c2.87,3.78 2.28,9.09 1.53,13.79c1.98,-1.22 4.52,0.45 5.93,2.3z" />
							<path id="Path" class="shp11" d="M1020.33,543.09c3.63,5.21 2.47,12.36 -2.63,16.15c2.82,1.18 4.74,3.85 4.97,6.89c0.63,3.59 -1.11,7.18 -4.32,8.91c-1.65,0.58 -3.39,0.81 -5.13,0.67c-2.31,0.09 -4.62,-0.13 -6.87,-0.65c-2.27,-0.55 -4.23,-1.97 -5.44,-3.97c-1.18,-2.06 -0.85,-4.64 0.79,-6.35c-2.65,-1.79 -4.76,-4.27 -6.11,-7.16c-1.06,-2.97 0,-6.96 3.1,-7.89c-2.9,-6.77 -0.28,-14.63 6.11,-18.31c3.38,-1.75 8.15,-1.77 10.47,1.26c1.89,2.48 1.49,5.94 1,9.01c1.47,-0.85 3.12,0.22 4.05,1.42z" />
							<path id="Path" class="shp12" d="M1021.37,565.67c-2.99,2.4 -5.79,5.92 -9.47,7.32c0,-1.27 -0.04,-2.56 -0.12,-3.84c0,-3.17 -0.12,-6.39 -0.16,-9.58c1.28,-0.36 2.46,-1.01 3.44,-1.89c1.3,-0.86 2.35,-2.03 3.06,-3.42c0,-0.22 -0.22,-0.45 -0.41,-0.31c-1.37,1.2 -2.81,2.32 -4.32,3.34c-0.56,0.34 -1.16,0.6 -1.79,0.77c0,-3.69 -0.06,-7.37 -0.18,-11.04c0.43,-0.12 0.69,-0.57 0.98,-0.89c0.29,-0.33 1.12,-1.12 1.65,-1.71c1.05,-0.93 1.68,-2.24 1.75,-3.64c0,-0.12 -0.1,-0.22 -0.22,-0.22c-0.12,0 -0.22,0.1 -0.22,0.22c-0.51,1.45 -1.42,2.73 -2.63,3.68c-0.33,0.31 -0.92,0.71 -1.34,1.18c0,-2.78 -0.1,-5.57 -0.31,-8.36c-0.04,-0.16 -0.19,-0.28 -0.36,-0.28c-0.17,0 -0.32,0.12 -0.36,0.28c-0.24,5.11 -0.37,10.17 -0.45,15.34c-0.41,-0.33 -0.86,-0.59 -1.24,-0.96c-0.65,-0.7 -1.24,-1.45 -1.75,-2.26c-0.86,-1.26 -1.49,-2.64 -2.3,-3.91c-0.06,-0.1 -0.18,-0.14 -0.29,-0.1c-0.11,0.05 -0.16,0.17 -0.12,0.28c0.51,1.73 1.24,3.4 2.18,4.94c0.63,1.14 1.81,2.99 3.26,3.03c0.08,0.02 0.16,0.02 0.24,0l-0.18,12.59c-1.15,-0.65 -2.24,-1.42 -3.24,-2.28c-1.5,-1.38 -2.73,-3.02 -3.63,-4.84c-0.14,-0.31 -0.67,0 -0.55,0.24c0.72,2.01 1.86,3.85 3.36,5.37c1.1,1.3 2.5,2.32 4.07,2.97c0,0.53 0,1.04 0,1.55c0,3.91 -0.31,7.91 -0.49,11.94c-0.81,-0.53 -1.69,-1 -2.38,-1.48c-1.91,-1.28 -3.52,-2.98 -4.69,-4.96c-0.29,-0.53 -1.02,0 -0.79,0.45c0.95,1.87 2.28,3.52 3.91,4.84c1.13,1.19 2.44,2.2 3.87,3.01c-0.34,5.57 -0.16,11.16 0.53,16.7c0.15,0.49 0.6,0.82 1.11,0.82c0.51,0 0.96,-0.33 1.11,-0.82c1.18,-8.14 0.53,-16.72 0.14,-25.06c4.07,-1.32 7.05,-5.57 10.08,-8.24c0.39,-0.51 -0.29,-1.22 -0.75,-0.77z" />
							<path id="Path" class="shp1" d="M1055.55,564.94l47.04,-0.16c1.81,-2.28 1.7,-5.53 -0.25,-7.69c-1.95,-2.16 -5.18,-2.6 -7.63,-1.04c1.53,-3.77 1.93,-7.9 1.16,-11.9c-0.45,-3.14 -2.13,-5.98 -4.67,-7.89c-4.07,-2.68 -9.84,-1.2 -13.28,2.22c-3.25,3.66 -5.33,8.19 -5.99,13.04c-0.41,-3.84 -5.72,-5.65 -9,-3.6c-3.16,2.4 -4.48,6.51 -3.32,10.29c-0.18,-0.87 -0.74,-1.62 -1.53,-2.04c-0.79,-0.42 -1.72,-0.47 -2.55,-0.14c-1.66,0.86 -2.6,2.66 -2.36,4.52c0.28,1.69 1.12,3.23 2.38,4.39z" />
							<path id="Path" class="shp11" d="M1061.9,564.94l33.94,-0.1c1.24,-1.44 1.16,-3.6 -0.18,-4.94c-1.51,-1.35 -3.71,-1.61 -5.5,-0.65c1.1,-2.39 1.39,-5.08 0.84,-7.65c-0.38,-2.08 -1.6,-3.92 -3.38,-5.06c-3.18,-1.51 -6.97,-0.95 -9.57,1.42c-2.29,2.26 -3.79,5.19 -4.3,8.36c-0.31,-2.46 -4.07,-3.62 -6.5,-2.3c-2.23,1.38 -3.22,4.1 -2.4,6.59c-0.12,-1.16 -1.79,-1.85 -2.99,-1.38c-1.15,0.47 -1.84,1.66 -1.69,2.89c0.23,1.12 0.85,2.12 1.75,2.83z" />
							<path id="Path" class="shp12" d="M1068.63,562.82c-0.84,-1.03 -2,-1.75 -3.3,-2.03c-0.39,-0.1 -0.77,0.43 -0.41,0.71c0.92,0.85 1.98,1.54 3.14,2.03c0.19,0.04 0.39,-0.03 0.51,-0.18c0.12,-0.15 0.15,-0.36 0.06,-0.53z" />
							<path id="Path" class="shp12" d="M1068.14,554.34c-0.09,-0.17 -0.29,-0.24 -0.47,-0.16c-0.17,0.07 -0.26,0.27 -0.21,0.45c0.4,1.2 0.94,2.36 1.61,3.44c0.77,1.36 1.45,2.76 2.04,4.21c0.24,0.55 1.16,0.26 1.14,-0.31c-0.16,-2.85 -2.79,-5.25 -4.12,-7.63z" />
							<path id="Path" class="shp12" d="M1078.67,560.73c-0.49,-0.81 -0.88,-1.68 -1.16,-2.58c0,-0.47 -0.79,-0.35 -0.79,0.1c0,1.14 0.22,2.56 1.41,3.03c0.16,0.04 0.32,0 0.43,-0.12c0.11,-0.11 0.16,-0.28 0.12,-0.43z" />
							<path id="Path" class="shp12" d="M1083.46,544.88c-0.45,3.29 -1.43,6.51 -2.2,9.74c-0.55,2.34 -1.47,5.53 -0.24,7.77c0.24,0.47 1.14,0.43 1.2,-0.16c0.39,-2.73 0.14,-5.47 0.61,-8.26c0.47,-2.79 1.16,-5.96 1.36,-8.99c0.12,-0.53 -0.67,-0.63 -0.73,-0.1z" />
							<path id="Path" class="shp12" d="M1086.72,555.88c-0.58,1.59 -1.08,3.2 -1.49,4.84c-0.05,0.22 0.07,0.45 0.28,0.53c0.21,0.09 0.45,0.01 0.57,-0.19c0.82,-1.53 1.34,-3.2 1.53,-4.92c0.1,-0.59 -0.73,-0.85 -0.9,-0.26z" />
							<path id="Path" class="shp12" d="M1094.68,559.12c-0.91,0.73 -1.66,1.63 -2.22,2.64c-0.07,0.17 -0.01,0.37 0.14,0.47c0.15,0.11 0.35,0.11 0.49,-0.01c0.75,-0.83 1.47,-1.73 2.24,-2.56c0.13,-0.18 0.1,-0.43 -0.07,-0.58c-0.17,-0.14 -0.42,-0.13 -0.58,0.03z" />
							<path id="Path" class="shp1" d="M1180.47,575.39l-40.48,-0.14c-1.53,-1.96 -1.42,-4.74 0.25,-6.58c1.67,-1.84 4.43,-2.22 6.54,-0.9c-1.31,-3.22 -1.65,-6.75 -1,-10.17c0.4,-2.72 1.86,-5.16 4.07,-6.79c3.5,-2.3 8.47,-1.04 11.45,1.89c2.77,3.16 4.56,7.06 5.13,11.23c0.35,-3.29 4.93,-4.86 7.74,-3.09c2.73,2.06 3.87,5.6 2.87,8.87c0.15,-0.77 0.64,-1.42 1.33,-1.79c0.69,-0.37 1.51,-0.4 2.23,-0.1c1.43,0.74 2.24,2.29 2.04,3.88c-0.29,1.44 -1.06,2.75 -2.18,3.7z" />
							<path id="Path" class="shp11" d="M1174.99,575.39h-29.21c-1.07,-1.24 -0.99,-3.09 0.16,-4.25c1.3,-1.15 3.18,-1.38 4.73,-0.57c-0.94,-2.05 -1.19,-4.36 -0.71,-6.57c0.31,-1.8 1.36,-3.38 2.89,-4.37c2.75,-1.29 6.01,-0.8 8.25,1.24c1.97,1.95 3.27,4.47 3.71,7.2c0.26,-2.03 3.57,-3.13 5.6,-2.03c1.9,1.21 2.74,3.55 2.04,5.69c0.1,-1.02 1.53,-1.61 2.57,-1.22c0.99,0.42 1.59,1.44 1.47,2.5c-0.2,0.94 -0.72,1.79 -1.49,2.38z" />
							<path id="Path" class="shp12" d="M1169.22,573.6c0.72,-0.88 1.72,-1.49 2.83,-1.73c0.33,0 0.65,0.37 0.37,0.61c-0.8,0.72 -1.72,1.31 -2.71,1.75c-0.17,0.05 -0.35,-0.01 -0.46,-0.15c-0.11,-0.14 -0.12,-0.33 -0.03,-0.48z" />
							<path id="Path" class="shp12" d="M1169.63,566.3c0.09,-0.13 0.25,-0.18 0.4,-0.12c0.14,0.06 0.23,0.21 0.2,0.36c-0.35,1.04 -0.82,2.04 -1.41,2.97c-0.63,1.16 -1.18,2.37 -1.65,3.6c-0.12,0.19 -0.35,0.29 -0.58,0.23c-0.22,-0.06 -0.38,-0.25 -0.4,-0.48c0.1,-2.46 2.3,-4.52 3.44,-6.57z" />
							<path id="Path" class="shp12" d="M1160.56,571.79c0.43,-0.69 0.76,-1.44 1,-2.22c0,-0.41 0.69,-0.31 0.69,0c0,1 -0.2,2.22 -1.2,2.62c-0.12,0.02 -0.25,-0.01 -0.34,-0.09c-0.1,-0.08 -0.15,-0.2 -0.15,-0.32z" />
							<path id="Path" class="shp12" d="M1156.45,558.06c0.49,2.83 1.12,5.63 1.89,8.4c0.49,2.03 1.26,4.76 0.2,6.69c-0.12,0.2 -0.34,0.3 -0.57,0.27c-0.23,-0.03 -0.41,-0.19 -0.47,-0.41c-0.31,-2.36 0,-4.72 -0.51,-7.12c-0.51,-2.4 -1,-5.13 -1.18,-7.73c-0.02,-0.37 0.59,-0.45 0.63,-0.1z" />
							<path id="Path" class="shp12" d="M1153.58,567.64c0.5,1.33 0.93,2.69 1.28,4.07c0.03,0.19 -0.07,0.37 -0.24,0.44c-0.18,0.07 -0.38,0.02 -0.49,-0.14c-0.7,-1.32 -1.15,-2.76 -1.32,-4.25c-0.02,-0.41 0.77,-0.63 0.77,-0.12z" />
							<path id="Path" class="shp12" d="M1146.79,570.37c0.83,0.62 1.53,1.41 2.04,2.32c0.18,0.33 -0.26,0.71 -0.53,0.41c-0.65,-0.73 -1.26,-1.48 -2.04,-2.22c-0.33,-0.35 0.18,-0.81 0.53,-0.51z" />
						</g>
					</g>
				</g>
			</g>
		</g>
	</g>
</svg>