<?xml version="1.0" encoding="UTF-8"?>
<svg width="320px" height="342px" viewBox="0 0 320 342" version="1.1" xmlns="http://www.w3.org/2000/svg" xmlns:xlink="http://www.w3.org/1999/xlink">
    <!-- Generator: sketchtool 58 (101010) - https://sketch.com -->
    <title>875A3AB1-4F23-4DD5-A143-B684A50ACEDB</title>
    <desc>Created with sketchtool.</desc>
    <g id="Screens_B2C" stroke="none" stroke-width="1" fill="none" fill-rule="evenodd">
        <g id="Hero_Mobile" fill-rule="nonzero">
            <g id="ill" transform="translate(-38.000000, 0.000000)">
                <path d="M327.129725,197.107523 C324.074725,202.660813 320.94335,208.371751 315.973883,212.282446 C303.901542,221.771859 286.620425,217.433987 271.2996,216.35079 C257.470633,215.374388 243.056125,217.673002 231.37075,225.128243 C208.967417,239.433557 201.090608,269.015504 180.581375,285.9449 C167.922114,296.393813 96.4636971,301.101866 80.1846419,298.937265 C63.9055867,296.772664 49.2657492,287.931186 39.7844781,274.538281 C33.4453531,265.577753 29.6826114,254.969546 23.0634448,246.212436 C17.5797198,238.960612 9.00535309,232.990317 0.237503089,232.883523 C0.0874989705,279.435733 0.00833127428,308.005216 0,318.591974 C47.4017068,304.533711 167.48504,305.481568 360.25,321.435544 L360.75,116 L358.071783,116 C355.317192,144.488579 341.04525,171.548152 327.129725,197.107523 Z" id="Path" fill="#F0F4FF"></path>
                <path d="M264.117353,258 L275.442326,257.959424 C275.875158,257.409832 275.848662,256.628393 275.379595,256.109358 C274.910528,255.590323 274.13549,255.484843 273.544682,255.859632 C273.91537,254.950385 274.014076,253.953133 273.828822,252.988902 C273.716203,252.230813 273.312063,251.546587 272.702413,251.081845 C271.723148,250.437706 270.332896,250.792743 269.500774,251.619473 C268.720562,252.502013 268.220712,253.596669 268.064857,254.764089 C267.963379,253.83592 266.679679,253.399731 265.893223,253.896783 C265.13486,254.475594 264.815368,255.464022 265.091544,256.376972 C265.043891,256.162136 264.901877,255.980228 264.704978,255.881817 C264.50808,255.783405 264.277289,255.778982 264.076762,255.869776 C263.678698,256.079556 263.452326,256.513942 263.508484,256.960248 C263.590154,257.36486 263.8044,257.730721 264.117353,258 Z" id="Path" fill="#83CBA8"></path>
                <path d="M360.762497,153.75 C357.982682,159.162708 354.782063,164.348711 351.190164,169.260168 C339.275664,185.376281 321.14933,198.141872 301.093255,198.584874 C294.183864,198.737634 287.264289,197.439179 280.380355,198.075677 C258.007572,200.188848 243.083897,221.101605 229.035989,238.643473 C216.530855,254.250388 202.228364,268.726884 185.059264,278.98213 C167.890164,289.237375 139.868368,298.779173 113.105613,298.779173 C61.213366,300.423587 18.546056,244.515134 0.25,244.601088 L0.25,311.25 C30.7241506,302.436546 68.3426883,302.436546 113.105613,311.25 C189.221555,326.622951 310.866848,308.785835 360.25,278.98213 C360.25,236.675073 360.420832,194.93103 360.762497,153.75 Z" id="Path" fill="#BACCFB"></path>
                <path d="M229.332468,286.216462 C222.780971,289.64305 206.534669,306.730818 181.375,316.885829 C244.350066,316.026271 244.392657,313.248391 285.25,305.615793 C312.488229,300.527395 337.445193,291.686606 360.120893,279.093424 L361,223.75 C357.464433,229.682979 353.984906,235.661713 350.209898,241.442174 C341.070407,255.43831 329.546701,268.773531 314.039113,275.092891 C285.703634,286.633476 256.480935,272.016968 229.332468,286.216462 Z" id="Path" fill="#85A6FF"></path>
                <path d="M15.8794015,281.683535 C11.7125787,277.095166 7.64750971,272.282477 2.34613067,269.111405 C1.6682356,268.702792 0.968473221,268.331766 0.25,268 L0.25,311.25 C13.6747899,307.598022 26.7732154,305.495265 39.5452765,304.941729 C31.3337355,299.272545 22.6002477,289.06571 15.8794015,281.683535 Z" id="Path" fill="#85A6FF"></path>
                <path d="M30.25,0 L30.25,46.75 C33.9049307,35.2186325 38.7071079,22.2613077 52.541679,13.5 C66.3762501,4.73869233 91.7705217,3.07133381 114.440446,0.583171835 C114.950104,0.400613695 115.459762,0.202842377 116,0 L30.25,0 Z" id="Path" fill="#F0F4FF"></path>
                <g id="Group" transform="translate(184.250000, 148.750000)">
                    <path d="M171.146487,178.252281 L137.070038,144.229974 C139.880271,141.054637 139.733074,136.244944 136.733908,133.246835 L128.636231,125.167109 C128.623964,125.152298 128.610322,125.138678 128.595488,125.12643 L128.595488,125.12643 C128.326648,124.863517 128.038989,124.620499 127.734792,124.399306 C143.314957,102.859753 144.560455,74.1288493 130.902562,51.3258366 L130.902562,51.3258366 C130.182768,50.1359965 129.43072,48.9681905 128.646417,47.8224186 C128.615859,47.7817403 128.590395,47.741062 128.559838,47.7054685 C128.182965,47.1563115 127.800999,46.6173242 127.403754,46.0834216 L127.373197,46.0376585 C126.548151,44.929175 125.69764,43.8461154 124.826758,42.7884798 L124.729993,42.6715297 C124.31747,42.163051 123.894761,41.6952507 123.466959,41.2121959 L123.375288,41.115585 C122.463662,40.0986276 121.516387,39.0816703 120.543647,38.1460696 L120.421418,38.0291195 C119.973245,37.5918278 119.525072,37.159621 119.066712,36.7375837 L118.908833,36.5901248 C117.890258,35.6748632 116.871682,34.7850256 115.853106,33.9307814 L115.695227,33.8036618 C115.231775,33.4273875 114.758137,33.0561981 114.279407,32.6900935 L114.040042,32.5070412 C112.970537,31.6934753 111.880661,30.9155029 110.760228,30.1680393 L110.561606,30.0409196 C110.077782,29.7154933 109.588866,29.4053213 109.094857,29.0951493 L108.774005,28.8917578 C108.264717,28.5663315 107.704501,28.2409051 107.164656,27.9256484 L107.088263,27.8849701 C106.504279,27.5459843 105.913505,27.2154732 105.315941,26.8934367 L105.071483,26.766317 C104.562195,26.5019081 104.052907,26.2578383 103.543619,25.9883446 L103.141282,25.790038 C102.631994,25.5357986 102.122706,25.2815593 101.613418,25.0527439 L101.374053,24.9408786 C100.768,24.6663001 100.156855,24.3968064 99.5406168,24.1374823 L99.2656013,24.0307018 C98.7563135,23.8171407 98.2470256,23.6086645 97.7122734,23.4103578 L97.22845,23.2273055 C96.7191621,23.0391684 96.2098743,22.8612008 95.7311437,22.6832333 L95.3542707,22.5510289 C94.7329396,22.3374678 94.1014226,22.1340764 93.4648128,21.9357697 L93.1847045,21.8544131 C92.6754167,21.6916999 92.1152001,21.5340715 91.575355,21.3866127 L91.0253241,21.2391539 C90.5160363,21.1069494 90.0423986,20.9849146 89.5534822,20.8628797 L89.0747517,20.7459296 C88.4279561,20.5984708 87.7811606,20.4560968 87.1292721,20.3238923 L86.8695353,20.2730444 C86.3093187,20.1611791 85.7440092,20.0543986 85.1736068,19.9577877 L84.5828329,19.8611767 C84.0735451,19.7798201 83.6050003,19.7086331 83.1109911,19.6374461 L82.5558673,19.5611743 C81.8937931,19.4747329 81.231719,19.3933763 80.5645519,19.3272741 L80.3863011,19.3272741 C79.7751557,19.2662567 79.1640103,19.2154088 78.5528649,19.1747305 L77.9366266,19.1340522 C77.4273388,19.1035435 76.918051,19.0781196 76.4444133,19.0577804 L75.8383607,19.0577804 C75.1610079,19.0577804 74.4785622,19.0221744 73.8012094,19.0221744 C56.1397235,19.0113953 39.197387,26.006246 26.701667,38.4678085 C14.2059469,50.929371 7.1805336,67.8367536 7.17108143,85.4701791 C7.17108143,86.2481514 7.17108143,86.9956151 7.21691734,87.7888418 C7.21691734,87.9718941 7.21691734,88.1600312 7.21691734,88.3430835 C7.24747461,89.1108863 7.28821763,89.8685195 7.34933217,90.6312375 C7.34682432,90.6684839 7.34682432,90.7058564 7.34933217,90.7431028 C7.40535384,91.4753121 7.47665413,92.2024366 7.55814019,92.9295611 L7.61925473,93.4380398 C7.71092654,94.195673 7.80769123,94.9634758 7.92482743,95.6956851 C7.93083634,95.7452328 7.93933519,95.7944478 7.95029182,95.8431439 C8.06233515,96.555014 8.18965711,97.2668841 8.32207195,97.9787543 C8.34753634,98.1211283 8.37809361,98.2635023 8.403558,98.4058763 C8.55125147,99.1584248 8.71422358,99.9058884 8.88738145,100.648267 L8.91793872,100.780472 C9.0860037,101.497427 9.26934733,102.204212 9.4628767,102.910997 C9.4628767,103.017778 9.51889837,103.129643 9.54945564,103.236424 C9.75826365,103.983887 9.97725742,104.731351 10.2115298,105.468645 C10.2115298,105.499154 10.2115298,105.529662 10.2420871,105.565256 C10.4712666,106.287296 10.7106319,107.004251 10.9652758,107.716121 L11.0365761,107.924597 C11.3064987,108.666976 11.586607,109.409355 11.8819939,110.141564 C11.8799657,110.158453 11.8799657,110.175523 11.8819939,110.192412 C12.1773809,110.924621 12.4846512,111.651746 12.8038049,112.373785 C12.8135567,112.400149 12.8254809,112.425661 12.8394551,112.450057 C13.1789803,113.192436 13.5185055,113.924645 13.8580308,114.646685 L13.8580308,114.646685 C15.30681,117.575163 16.9698998,120.392995 18.8337729,123.077261 L18.8337729,123.077261 C37.7874857,150.638374 74.2834895,159.8752 104.098743,144.657096 C104.491256,145.821719 105.148407,146.879843 106.018758,147.748646 L109.492101,151.216471 L109.492101,151.216471 L114.111342,155.828372 C117.114223,158.822773 121.931569,158.969736 125.111959,156.163968 L159.188408,190.186276 C162.225154,193.216781 167.147188,193.216781 170.183933,190.186276 L171.146487,189.225251 C174.178423,186.193914 174.178423,181.283618 171.146487,178.252281 L171.146487,178.252281 Z" id="Path" fill="#5777CA" opacity="0.200000003"></path>
                    <ellipse id="Oval" fill="#DCF0FB" transform="translate(75.263061, 75.249559) rotate(-45.000000) translate(-75.263061, -75.249559) " cx="75.2630613" cy="75.2495591" rx="53.1533986" ry="53.1528728"></ellipse>
                    <path d="M121.170071,104.965251 L28.5815422,104.965251 C28.5815422,104.965251 34.7184606,131.889197 74.7077417,131.889197 C114.697023,131.889197 121.170071,104.965251 121.170071,104.965251 Z" id="Path" fill="#99D5CD"></path>
                    <path d="M59.6277288,54.4885739 C60.6463045,53.3648361 61.2574499,51.9461806 62.174168,50.7461709 C64.0126971,48.335982 66.8799877,46.9834288 69.6352349,45.7122321 C72.3904821,44.4410355 75.1457293,43.1698388 78.1097845,42.6613601 C81.0738397,42.1528815 84.2976317,42.3613577 86.8440709,43.9783199 C90.0984202,46.0376585 91.9063921,50.0800639 95.4612212,51.5495672 C99.1230007,53.0750032 103.304254,51.3715997 107.241049,51.8139761 C110.698158,52.2318391 113.750923,54.2644109 115.466047,57.2902914 C116.280908,58.7547099 116.729081,60.6106571 115.929499,62.0852452 C115.426467,62.8814362 114.738033,63.544353 113.922905,64.0174641 C110.200344,66.4809875 105.892968,67.9209294 101.435168,68.192074 C92.3851226,68.7310614 83.6100932,64.4140775 74.5498625,64.6835712 C68.9476963,64.8513691 63.5492452,66.7683337 58.0540294,67.9225803 C54.1630703,68.7463157 50.2059038,69.1886922 46.2589231,69.6259838 C40.8859364,70.2259886 34.8763399,70.6429411 30.6594366,67.2818972 C30.0976428,66.8797284 29.6529715,66.33574 29.3709383,65.7056133 C28.9482294,64.5869602 29.4524244,63.2801701 30.3182137,62.4564346 C31.2339792,61.6793685 32.3214049,61.1304201 33.4910769,60.8547268 C40.147469,58.8818296 47.3437062,59.4259018 54.0306555,57.5597851 C56.103457,56.9546954 58.1915371,56.0902817 59.6277288,54.4885739 Z" id="Path" fill="#EEF7FC"></path>
                    <path d="M174.258236,177.408207 L170.087168,181.577732 C167.935875,183.722301 164.45145,183.722301 162.300157,181.577732 L111.065801,130.419693 C110.033281,129.38969 109.453143,127.99218 109.453143,126.534916 C109.453143,125.077652 110.033281,123.680142 111.065801,122.650139 L115.236868,118.480614 C117.388161,116.336045 120.872586,116.336045 123.023879,118.480614 L174.258236,169.638653 C175.290755,170.668656 175.870893,172.066166 175.870893,173.52343 C175.870893,174.980694 175.290755,176.378204 174.258236,177.408207 Z" id="Path" fill="#D5DFF9"></path>
                    <path d="M110.841238,116.515706 L134.914276,116.534845 C137.091969,116.536577 138.856905,118.301513 138.858637,120.479205 L138.874228,140.089338 C138.875961,142.269481 137.110011,144.038242 134.929867,144.039975 C134.927775,144.039977 134.925683,144.039977 134.92359,144.039975 L110.850552,144.020836 C108.672859,144.019104 106.907923,142.254168 106.906192,140.076475 L106.890601,120.466343 C106.888867,118.2862 108.654818,116.517439 110.834961,116.515706 C110.837053,116.515704 110.839145,116.515704 110.841238,116.515706 Z" id="Rectangle" fill="#3964CF" transform="translate(122.882414, 130.277840) rotate(-45.000000) translate(-122.882414, -130.277840) "></path>
                    <path d="M118.776418,114.946687 L107.52625,126.178981 C106.016965,127.684017 105.168902,129.726394 105.168902,131.856145 C105.168902,133.985896 106.016965,136.028274 107.52625,137.53331 L110.999593,141.006219 C119.416643,134.005667 125.977588,125.043452 130.10298,114.911094 C126.960354,111.810425 121.899433,111.826329 118.776418,114.946687 L118.776418,114.946687 Z" id="Path" fill="#1C4BC7"></path>
                    <path d="M40.9928868,79.7192853 C43.3101465,82.7701573 42.5207503,87.6820613 39.3478871,89.8380108 C41.1202088,90.4380156 42.2202705,92.3041323 42.4596358,94.1600795 C42.7397441,96.3617921 41.7975616,98.8685919 39.7553174,99.7533448 C38.7234637,100.11587 37.6272367,100.259608 36.5366182,100.175382 C35.0918365,100.230089 33.6462178,100.091571 32.2382289,99.7635144 C30.8150489,99.4234774 29.5867297,98.5302425 28.8260003,97.2821385 C28.1384618,96.0109418 28.2505051,94.2617752 29.3352882,93.2956657 C27.8074247,92.0346387 26.2133537,90.6820854 25.5512795,88.8159687 C24.8892053,86.949852 25.5920226,84.4481369 27.4865733,83.8735561 C25.5818368,79.8057267 27.3999944,74.4311072 31.3724395,72.361599 C33.5012627,71.2582003 36.4907823,71.2480308 37.9422527,73.1548258 C39.1187076,74.7056857 38.8691565,76.86672 38.5686767,78.7887694 C39.3784444,78.2853755 40.4173915,78.9616521 40.9928868,79.7192853 Z" id="Path" fill="#83CBA8"></path>
                    <path d="M38.5279337,81.8650653 C40.0226134,83.9952516 39.5461009,86.9264463 37.4533363,88.475288 C38.6094197,88.8668166 39.3275156,90.0820806 39.4904877,91.2922598 C39.6738313,92.7312544 39.0626859,94.3431318 37.7283518,94.9329671 C37.0559009,95.1701663 36.3410488,95.2637117 35.6300859,95.2075455 C34.6885191,95.2432793 33.7464093,95.1526384 32.8290027,94.9380518 C31.9002483,94.7182606 31.0985592,94.1358072 30.6034149,93.3210897 C30.1231359,92.4786058 30.2558103,91.4209664 30.9293591,90.7227637 C29.9107834,89.904113 28.8922078,89.0193602 28.464406,87.8040961 C28.0366042,86.5888321 28.4949632,84.9566156 29.7274398,84.5803414 C28.5343477,81.797863 29.6320301,78.5648449 32.273879,77.0802811 C33.6591419,76.3582414 35.6046215,76.3531566 36.5518969,77.5887597 C37.3209215,78.6057171 37.1579494,80.0091182 36.9593271,81.2650605 C37.4737078,80.9294646 38.1510607,81.371841 38.5279337,81.8650653 Z" id="Path" fill="#6CA88C"></path>
                    <path d="M38.9557355,91.0837835 C37.7232589,92.0651474 36.587547,93.504142 35.080055,94.0787229 C35.080055,93.5702442 35.039312,93.0312568 35.0291262,92.5126086 C35.0036618,91.2058184 34.9883832,89.8990283 34.9680117,88.5973229 C35.4891443,88.446721 35.9695885,88.180811 36.3736461,87.8193505 C36.9025494,87.468996 37.3308498,86.9870473 37.6163084,86.4210342 C37.6468657,86.3345928 37.5297295,86.2379819 37.4533363,86.2989993 C36.8922922,86.7899371 36.302148,87.2466996 35.6861075,87.6668069 C35.4563953,87.7996987 35.2119962,87.9054936 34.9578259,87.9820637 C34.9578259,86.4566277 34.9170829,84.97187 34.8814327,83.4667731 C35.0596835,83.4159253 35.1615411,83.2328729 35.2837701,83.1006685 C35.497671,82.8616835 35.7370363,82.6379529 35.9560301,82.4040527 C36.3851103,82.0231438 36.6436947,81.4866556 36.6741259,80.9142102 C36.6811577,80.8636617 36.6458153,80.8169927 36.5951863,80.8099721 C36.5445574,80.8029515 36.4978141,80.8382378 36.4907823,80.8887863 C36.2879188,81.4916785 35.9125572,82.0220066 35.4110921,82.4142223 C35.2786773,82.5362572 35.039312,82.7040551 34.8661541,82.8921922 C34.8355968,81.7532 34.7999467,80.6142078 34.743925,79.4803004 C34.743925,79.3988611 34.6778004,79.3328416 34.5962316,79.3328416 C34.5146627,79.3328416 34.4485381,79.3988611 34.4485381,79.4803004 C34.3466805,81.5650629 34.2957517,83.6549102 34.2651945,85.7498423 C34.0971295,85.6125531 33.9188787,85.5057726 33.7559066,85.353229 C33.4842832,85.072953 33.243542,84.7644074 33.0378108,84.4328826 C32.6864022,83.9244039 32.4317582,83.3549078 32.1007211,82.8413444 C32.0742201,82.8062327 32.0273167,82.7934132 31.9865987,82.8101528 C31.9458807,82.8268924 31.9216177,82.8689692 31.9275633,82.9125314 C32.1369585,83.6255305 32.4364526,84.3090007 32.818817,84.946446 C33.0785538,85.4040768 33.5623772,86.1667948 34.158244,86.1820492 C34.1901741,86.1796506 34.2213212,86.1710124 34.2499158,86.1566253 C34.2499158,87.8701984 34.2040799,89.5888563 34.1786155,91.3024294 C33.7075431,91.0372026 33.2654658,90.7236389 32.85956,90.3668286 C32.2504917,89.808883 31.749794,89.1434959 31.3826253,88.404101 C31.3215107,88.2769813 31.1127027,88.3685075 31.1534458,88.5007119 C31.4475536,89.3231543 31.9186678,90.0712268 32.5336158,90.692255 C32.973088,91.2223424 33.5337876,91.6391471 34.1684298,91.907519 C34.1684298,92.12108 34.1684298,92.3295563 34.1684298,92.5431173 C34.1327796,94.1346555 34.0360149,95.7719569 33.9596218,97.4194277 C33.6336775,97.2007819 33.2720832,97.0126448 32.986882,96.8041685 C32.2023317,96.2799747 31.5475018,95.5844539 31.0719597,94.7702539 C30.9599164,94.5516081 30.6543437,94.7448299 30.7511084,94.958391 C31.1412857,95.7182379 31.6838947,96.3897963 32.3451793,96.9312882 C32.8143537,97.4132104 33.347237,97.8289175 33.9290645,98.1668914 C33.7977934,100.441628 33.8693756,102.723514 34.1429654,104.98559 C34.2039134,105.187461 34.3901464,105.325613 34.6013244,105.325613 C34.8125025,105.325613 34.9987354,105.187461 35.0596835,104.98559 C35.5333212,101.680479 35.2735844,98.1567218 35.1157051,94.7499147 C36.7708906,94.2109273 37.9982743,92.4719303 39.2358438,91.3787012 C39.4191874,91.1905641 39.144172,90.9312399 38.9557355,91.0837835 Z" id="Path" fill="#305848"></path>
                    <path d="M127.11346,79.7192853 C129.43072,82.7701573 128.641324,87.6820613 125.468461,89.8380108 C127.240782,90.4380156 128.340844,92.3041323 128.575116,94.1600795 C128.855225,96.3617921 127.913042,98.8685919 125.875891,99.7533448 C124.843968,100.115579 123.747802,100.259309 122.657192,100.175382 C121.21072,100.230299 119.763391,100.091782 118.35371,99.7635144 C116.931252,99.4219145 115.703479,98.5290764 114.941481,97.2821385 C114.253942,96.0109418 114.371079,94.2617752 115.450769,93.2956657 C113.922905,92.0346387 112.328834,90.6820854 111.66676,88.8159687 C111.004686,86.949852 111.712596,84.4481369 113.607147,83.8735561 C111.697317,79.8057267 113.520568,74.4311072 117.493013,72.361599 C119.616743,71.2582003 122.585891,71.2480308 124.057733,73.1548258 C125.234188,74.7056857 124.98973,76.86672 124.684157,78.7887694 C125.493925,78.2853755 126.532872,78.9616521 127.11346,79.7192853 Z" id="Path" fill="#83CBA8"></path>
                    <path d="M124.643414,81.8650653 C126.140926,83.9946035 125.664063,86.9279555 123.568817,88.475288 C124.729993,88.8668166 125.442996,90.0820806 125.605968,91.2922598 C125.789312,92.7312544 125.173074,94.3431318 123.843832,94.9329671 C123.171382,95.1701663 122.456529,95.2637117 121.745567,95.2075455 C120.802317,95.2432445 119.85853,95.1526069 118.939391,94.9380518 C118.010636,94.7182606 117.208947,94.1358072 116.713803,93.3210897 C116.233098,92.4778602 116.368003,91.4189861 117.04484,90.7227637 C116.026264,89.904113 115.007688,89.0193602 114.579887,87.8040961 C114.152085,86.5888321 114.579887,84.9566156 115.84292,84.5803414 C114.647329,81.7979604 115.745586,78.5632499 118.38936,77.0802811 C119.774623,76.3582414 121.725195,76.3531566 122.67247,77.5887597 C123.436402,78.6057171 123.278523,80.0091182 123.079901,81.2650605 C123.589189,80.9294646 124.256356,81.371841 124.643414,81.8650653 Z" id="Path" fill="#6CA88C"></path>
                    <path d="M125.071216,91.0837835 C123.843832,92.0651474 122.703028,93.504142 121.200629,94.0787229 C121.200629,93.5702442 121.159886,93.0312568 121.1497,92.5126086 C121.119142,91.2058184 121.103864,89.8990283 121.083492,88.5973229 C121.605239,88.4481995 122.086,88.1821146 122.489127,87.8193505 C123.019286,87.4704417 123.447918,86.9881207 123.731789,86.4210342 C123.767439,86.3345928 123.650303,86.2379819 123.57391,86.2989993 C123.011875,86.7887358 122.421803,87.2454419 121.806681,87.6668069 C121.576062,87.7978943 121.331871,87.903599 121.078399,87.9820637 C121.058028,86.4769668 121.030866,84.97187 120.996913,83.4667731 C121.175164,83.4159253 121.282115,83.2328729 121.399251,83.1006685 C121.618245,82.8616835 121.852517,82.6379529 122.071511,82.4040527 C122.50246,82.0245543 122.761445,81.4872338 122.789607,80.9142102 C122.796638,80.8636617 122.761296,80.8169927 122.710667,80.8099721 C122.660038,80.8029515 122.613295,80.8382378 122.606263,80.8887863 C122.405329,81.4913169 122.031688,82.0217163 121.531666,82.4142223 C121.34146,82.5635462 121.159544,82.723106 120.986728,82.8921922 C120.95617,81.7532 120.91373,80.6159027 120.859406,79.4803004 C120.846271,79.410598 120.785297,79.3601057 120.714259,79.3601057 C120.643221,79.3601057 120.582246,79.410598 120.569112,79.4803004 C120.467254,81.5650629 120.416325,83.6549102 120.380675,85.7498423 C120.217703,85.6125531 120.034359,85.5057726 119.871387,85.353229 C119.601286,85.0716357 119.360674,84.7632559 119.153291,84.4328826 C118.806976,83.9244039 118.552332,83.3549078 118.216202,82.8413444 C118.193769,82.7997042 118.143261,82.7819773 118.099665,82.800443 C118.05607,82.8189088 118.033737,82.8674888 118.048137,82.9125314 C118.257956,83.6245502 118.555626,84.3077618 118.934298,84.946446 C119.194034,85.4040768 119.677858,86.1667948 120.273725,86.1820492 C120.307176,86.1790337 120.339884,86.1704399 120.370489,86.1566253 C120.370489,87.8701984 120.324653,89.5888563 120.294096,91.3024294 C119.824609,91.0347163 119.382776,90.7213258 118.975041,90.3668286 C118.369015,89.8061359 117.868764,89.1413427 117.498106,88.404101 C117.436991,88.2769813 117.228183,88.3685075 117.268926,88.5007119 C117.564955,89.3222216 118.035823,90.0699028 118.649096,90.692255 C119.089527,91.2213336 119.649961,91.6379408 120.28391,91.907519 C120.28391,92.12108 120.28391,92.3295563 120.28391,92.5431173 C120.253353,94.1346555 120.151496,95.7719569 120.080195,97.4194277 C119.749158,97.2007819 119.387564,97.0126448 119.107456,96.8041685 C118.322905,96.2799747 117.668075,95.5844539 117.192533,94.7702539 C117.08049,94.5516081 116.774917,94.7448299 116.871682,94.958391 C117.260123,95.719363 117.803,96.3912527 118.465753,96.9312882 C118.932626,97.4157635 119.465886,97.831764 120.049638,98.1668914 C119.913289,100.441559 119.984885,102.7239 120.263539,104.98559 C120.321155,105.189298 120.507341,105.329965 120.719352,105.329965 C120.931362,105.329965 121.117548,105.189298 121.175164,104.98559 C121.653895,101.680479 121.389065,98.1567218 121.231186,94.7499147 C122.886371,94.2109273 124.113755,92.4719303 125.351324,91.3787012 C125.539761,91.1905641 125.274931,90.9312399 125.071216,91.0837835 Z" id="Path" fill="#305848"></path>
                    <rect id="Rectangle" fill="#E3DED6" x="74.5804198" y="66.046294" width="41.2319434" height="38.2274262"></rect>
                    <polygon id="Path" fill="#FFFFFF" points="56.4039368 49.8715876 37.9931814 65.5581545 37.9931814 104.27372 74.5804198 104.27372 74.5804198 65.5581545"></polygon>
                    <polygon id="Path" fill="#99D5CD" points="118.027765 65.8632417 97.5798586 47.5681793 56.2868006 47.5681793 76.7296145 68.548009 118.007394 68.548009 118.007394 68.5327547 118.027765 68.548009"></polygon>
                    <polygon id="Path" fill="#6CA88C" points="76.7296145 65.8632417 56.2868006 47.5681793 35.8388939 65.8632417 35.8388939 68.548009 56.2868006 51.7580435 76.7296145 68.548009"></polygon>
                    <rect id="Rectangle" fill="#6CA88C" x="76.7296145" y="65.8632417" width="41.2777793" height="2.68476736"></rect>
                    <rect id="Rectangle" fill="#A4DCED" x="56.729881" y="73.6429653" width="3.5344576" height="3.52884195"></rect>
                    <rect id="Rectangle" fill="#A4DCED" x="52.543535" y="77.8226599" width="3.5344576" height="3.52884195"></rect>
                    <rect id="Rectangle" fill="#A4DCED" x="56.729881" y="77.8226599" width="3.5344576" height="3.52884195"></rect>
                    <rect id="Rectangle" fill="#A4DCED" x="52.543535" y="73.6429653" width="3.5344576" height="3.52884195"></rect>
                    <path d="M53.378767,73.3226237 C53.2107021,73.4904217 53.04773,73.6582196 52.8694792,73.8311024 C52.6912285,74.0039851 52.4314917,74.2836484 52.2175908,74.5124638 C52.0953617,74.6294139 52.2837982,74.817551 52.4060273,74.7006009 L53.088473,74.0497482 C53.2616308,73.8921198 53.4296958,73.7294067 53.5977608,73.5412695 C53.7658258,73.3531324 53.5315534,73.1649953 53.378767,73.3226237 Z" id="Path" fill="#DCF1FC"></path>
                    <path d="M54.8506089,73.5666935 C54.8752857,73.5303595 54.8706485,73.4816495 54.8395574,73.4506078 C54.8084663,73.4195661 54.7596788,73.4149362 54.7232869,73.4395738 L54.7232869,73.4395738 C54.6372676,73.3994205 54.5352395,73.4177564 54.468643,73.4853369 L53.2667237,74.675177 C52.9533085,74.9592976 52.662162,75.2669805 52.3958415,75.5955234 L52.1921264,75.7989148 C52.0036899,75.9972215 52.3041697,76.3073935 52.4875133,76.0989172 L52.6963213,75.8955258 C53.0213087,75.6268053 53.32759,75.3363004 53.6130395,75.0260273 L54.804773,73.8260176 C54.8765297,73.7598891 54.8971327,73.6549804 54.8557018,73.5666935 L54.8506089,73.5666935 Z" id="Path" fill="#DCF1FC"></path>
                    <path d="M57.5396487,73.3226237 C57.3715837,73.4904217 57.2086116,73.6582196 57.0303609,73.8311024 L56.3835653,74.5124638 C56.2562433,74.6294139 56.4446798,74.817551 56.5669089,74.7006009 L57.2493546,74.0497482 C57.4225125,73.8921198 57.5905775,73.7294067 57.7586425,73.5412695 C57.9267074,73.3531324 57.692435,73.1649953 57.5396487,73.3226237 Z" id="Path" fill="#DCF1FC"></path>
                    <path d="M59.0114905,73.5666935 C59.0361674,73.5303595 59.0315301,73.4816495 59.000439,73.4506078 C58.9693479,73.4195661 58.9205604,73.4149362 58.8841686,73.4395738 L58.8841686,73.4395738 C58.796592,73.3985756 58.6926632,73.4168868 58.6244318,73.4853369 L57.4225125,74.675177 C57.1116926,74.9619291 56.8207295,75.2694182 56.5516303,75.5955234 L56.3479151,75.7989148 C56.1645715,75.9972215 56.4599585,76.3073935 56.6433021,76.0989172 L56.8521101,75.8955258 C57.177574,75.6255442 57.4854686,75.3351224 57.7739211,75.0260273 L58.9656546,73.8260176 C59.0356625,73.7586574 59.0541768,73.6539093 59.0114905,73.5666935 L59.0114905,73.5666935 Z" id="Path" fill="#DCF1FC"></path>
                    <path d="M53.378767,77.4311313 C53.2107021,77.5989293 53.04773,77.7667273 52.8694792,77.93961 C52.6912285,78.1124928 52.4314917,78.392156 52.2175908,78.6209714 C52.0953617,78.7379215 52.2837982,78.9260586 52.4060273,78.8091085 L53.088473,78.1582558 C53.2616308,78.0006275 53.4296958,77.8379143 53.5977608,77.6497772 C53.7658258,77.4616401 53.5315534,77.273503 53.378767,77.4311313 Z" id="Path" fill="#DCF1FC"></path>
                    <path d="M54.8506089,77.6752011 C54.8752857,77.6388671 54.8706485,77.5901571 54.8395574,77.5591154 C54.8084663,77.5280737 54.7596788,77.5234438 54.7232869,77.5480814 L54.7232869,77.5480814 C54.6372676,77.5079281 54.5352395,77.526264 54.468643,77.5938445 L53.2667237,78.7836846 C52.9533085,79.0678052 52.662162,79.3754882 52.3958415,79.704031 C52.3296341,79.775218 52.2583338,79.8413202 52.1921264,79.9074225 C52.0036899,80.1057291 52.3041697,80.4159011 52.4875133,80.2074249 L52.6963213,80.0040334 C53.0213087,79.7353129 53.32759,79.444808 53.6130395,79.1345349 L54.804773,77.9345252 C54.8765297,77.8683967 54.8971327,77.763488 54.8557018,77.6752011 L54.8506089,77.6752011 Z" id="Path" fill="#DCF1FC"></path>
                    <path d="M57.5396487,77.4311313 C57.3715837,77.5989293 57.2086116,77.7667273 57.0303609,77.93961 L56.3835653,78.6209714 C56.2562433,78.7379215 56.4446798,78.9260586 56.5669089,78.8091085 L57.2493546,78.1582558 C57.4225125,78.0006275 57.5905775,77.8379143 57.7586425,77.6497772 C57.9267074,77.4616401 57.692435,77.273503 57.5396487,77.4311313 Z" id="Path" fill="#DCF1FC"></path>
                    <path d="M59.0114905,77.6752011 C59.0361674,77.6388671 59.0315301,77.5901571 59.000439,77.5591154 C58.9693479,77.5280737 58.9205604,77.5234438 58.8841686,77.5480814 L58.8841686,77.5480814 C58.796592,77.5070832 58.6926632,77.5253945 58.6244318,77.5938445 L57.4225125,78.7836846 C57.1116926,79.0704367 56.8207295,79.3779258 56.5516303,79.704031 C56.4854229,79.775218 56.4141226,79.8413202 56.3479151,79.9074225 C56.1645715,80.1057291 56.4599585,80.4159011 56.6433021,80.2074249 L56.8521101,80.0040334 C57.177574,79.7340518 57.4854686,79.44363 57.7739211,79.1345349 L58.9656546,77.9345252 C59.0356625,77.867165 59.0541768,77.7624169 59.0114905,77.6752011 L59.0114905,77.6752011 Z" id="Path" fill="#DCF1FC"></path>
                    <path d="M60.5342612,73.0226213 L52.2736124,73.0226213 C52.0795348,73.0226213 51.9222038,73.1797023 51.9222038,73.3734716 L51.9222038,81.6057412 C51.9222038,81.7995105 52.0795348,81.9565915 52.2736124,81.9565915 L60.5342612,81.9565915 C60.7283388,81.9565915 60.8856698,81.7995105 60.8856698,81.6057412 L60.8856698,73.3734716 C60.8856698,73.2804203 60.8486465,73.1911802 60.7827446,73.125383 C60.7168427,73.0595858 60.6274605,73.0226213 60.5342612,73.0226213 L60.5342612,73.0226213 Z M52.543535,73.6429653 L56.0779926,73.6429653 L56.0779926,77.1718072 L52.543535,77.1718072 L52.543535,73.6429653 Z M52.543535,81.3515019 L52.543535,77.8226599 L56.0779926,77.8226599 L56.0779926,81.3515019 L52.543535,81.3515019 Z M60.2643386,81.3515019 L56.729881,81.3515019 L56.729881,77.8226599 L60.2643386,77.8226599 L60.2643386,81.3515019 Z M60.2643386,77.1718072 L56.729881,77.1718072 L56.729881,73.6429653 L60.2643386,73.6429653 L60.2643386,77.1718072 Z" id="Shape" fill="#6CA88C"></path>
                    <rect id="Rectangle" fill="#A4DCED" x="83.5846288" y="73.6429653" width="3.5344576" height="3.52884195"></rect>
                    <rect id="Rectangle" fill="#A4DCED" x="79.3982827" y="77.8226599" width="3.5344576" height="3.52884195"></rect>
                    <rect id="Rectangle" fill="#A4DCED" x="83.5846288" y="77.8226599" width="3.5344576" height="3.52884195"></rect>
                    <rect id="Rectangle" fill="#A4DCED" x="79.3982827" y="73.6429653" width="3.5344576" height="3.52884195"></rect>
                    <path d="M80.2335148,73.3226237 C80.0603569,73.4904217 79.9024777,73.6582196 79.7242269,73.8311024 C79.5459762,74.0039851 79.2862394,74.2836484 79.0723385,74.5124638 C78.9501094,74.6294139 79.1385459,74.817551 79.260775,74.7006009 L79.9432207,74.0497482 C80.1163786,73.8921198 80.2844436,73.7294067 80.4525086,73.5412695 C80.6205735,73.3531324 80.3863011,73.1649953 80.2335148,73.3226237 Z" id="Path" fill="#DCF1FC"></path>
                    <path d="M81.7002638,73.5666935 C81.7249406,73.5303595 81.7203033,73.4816495 81.6892122,73.4506078 C81.6581212,73.4195661 81.6093336,73.4149362 81.5729418,73.4395738 L81.5729418,73.4395738 C81.4869224,73.3994205 81.3848943,73.4177564 81.3182979,73.4853369 L80.1163786,74.675177 C79.8029633,74.9592976 79.5118168,75.2669805 79.2454964,75.5955234 L79.0417812,75.7989148 C78.8533447,75.9972215 79.1487317,76.3073935 79.3371682,76.0989172 L79.5459762,75.8955258 C79.8698023,75.6255012 80.1759999,75.3350756 80.4626943,75.0260273 L81.6544279,73.8260176 C81.7261845,73.7598891 81.7467876,73.6549804 81.7053566,73.5666935 L81.7002638,73.5666935 Z" id="Path" fill="#DCF1FC"></path>
                    <path d="M84.3943964,73.3226237 C84.2263314,73.4904217 84.0633593,73.6582196 83.8851086,73.8311024 C83.7068578,74.0039851 83.4522139,74.2836484 83.2332202,74.5124638 C83.1109911,74.6294139 83.2994276,74.817551 83.4216567,74.7006009 L84.1041024,74.0497482 C84.2772602,73.8921198 84.4453252,73.7294067 84.6133902,73.5412695 C84.7814552,73.3531324 84.5319041,73.1649953 84.3943964,73.3226237 Z" id="Path" fill="#DCF1FC"></path>
                    <path d="M85.8662383,73.5666935 C85.8909151,73.5303595 85.8862779,73.4816495 85.8551868,73.4506078 C85.8240957,73.4195661 85.7753082,73.4149362 85.7389163,73.4395738 L85.7389163,73.4395738 C85.6528969,73.3994205 85.5508688,73.4177564 85.4842724,73.4853369 L84.2823531,74.675177 C83.9689378,74.9592976 83.6777914,75.2669805 83.4114709,75.5955234 L83.2077558,75.7989148 C83.0193193,75.9972215 83.3197991,76.3073935 83.5031427,76.0989172 L83.7119507,75.8955258 C84.0369381,75.6268053 84.3432194,75.3363004 84.6286688,75.0260273 L85.8204024,73.8260176 C85.892159,73.7598891 85.9127621,73.6549804 85.8713312,73.5666935 L85.8662383,73.5666935 Z" id="Path" fill="#DCF1FC"></path>
                    <path d="M80.2335148,77.4311313 C80.0603569,77.5989293 79.9024777,77.7667273 79.7242269,77.93961 C79.5459762,78.1124928 79.2862394,78.392156 79.0723385,78.6209714 C78.9501094,78.7379215 79.1385459,78.9260586 79.260775,78.8091085 L79.9432207,78.1582558 C80.1163786,78.0006275 80.2844436,77.8379143 80.4525086,77.6497772 C80.6205735,77.4616401 80.3863011,77.273503 80.2335148,77.4311313 Z" id="Path" fill="#DCF1FC"></path>
                    <path d="M81.7002638,77.6752011 C81.7249406,77.6388671 81.7203033,77.5901571 81.6892122,77.5591154 C81.6581212,77.5280737 81.6093336,77.5234438 81.5729418,77.5480814 L81.5729418,77.5480814 C81.4869224,77.5079281 81.3848943,77.526264 81.3182979,77.5938445 L80.1163786,78.7836846 C79.8029633,79.0678052 79.5118168,79.3754882 79.2454964,79.704031 C79.179289,79.775218 79.1079887,79.8413202 79.0417812,79.9074225 C78.8533447,80.1057291 79.1487317,80.4159011 79.3371682,80.2074249 L79.5459762,80.0040334 C79.8698023,79.7340088 80.1759999,79.4435833 80.4626943,79.1345349 L81.6544279,77.9345252 C81.7261845,77.8683967 81.7467876,77.763488 81.7053566,77.6752011 L81.7002638,77.6752011 Z" id="Path" fill="#DCF1FC"></path>
                    <path d="M84.3943964,77.4311313 C84.2263314,77.5989293 84.0633593,77.7667273 83.8851086,77.93961 C83.7068578,78.1124928 83.4522139,78.392156 83.2332202,78.6209714 C83.1109911,78.7379215 83.2994276,78.9260586 83.4216567,78.8091085 L84.1041024,78.1582558 C84.2772602,78.0006275 84.4453252,77.8379143 84.6133902,77.6497772 C84.7814552,77.4616401 84.5319041,77.273503 84.3943964,77.4311313 Z" id="Path" fill="#DCF1FC"></path>
                    <path d="M85.8662383,77.6752011 C85.8909151,77.6388671 85.8862779,77.5901571 85.8551868,77.5591154 C85.8240957,77.5280737 85.7753082,77.5234438 85.7389163,77.5480814 L85.7389163,77.5480814 C85.6528969,77.5079281 85.5508688,77.526264 85.4842724,77.5938445 L84.2823531,78.7836846 C83.9689378,79.0678052 83.6777914,79.3754882 83.4114709,79.704031 C83.3452635,79.775218 83.2739632,79.8413202 83.2077558,79.9074225 C83.0193193,80.1057291 83.3197991,80.4159011 83.5031427,80.2074249 L83.7119507,80.0040334 C84.0369381,79.7353129 84.3432194,79.444808 84.6286688,79.1345349 L85.8204024,77.9345252 C85.892159,77.8683967 85.9127621,77.763488 85.8713312,77.6752011 L85.8662383,77.6752011 Z" id="Path" fill="#DCF1FC"></path>
                    <path d="M87.3890089,73.0226213 L79.1283602,73.0226213 C78.9342826,73.0226213 78.7769516,73.1797023 78.7769516,73.3734716 L78.7769516,81.6057412 C78.7769516,81.7995105 78.9342826,81.9565915 79.1283602,81.9565915 L87.3890089,81.9565915 C87.5830865,81.9565915 87.7404175,81.7995105 87.7404175,81.6057412 L87.7404175,73.3734716 C87.7404175,73.2804203 87.7033942,73.1911802 87.6374923,73.125383 C87.5715904,73.0595858 87.4822083,73.0226213 87.3890089,73.0226213 L87.3890089,73.0226213 Z M79.3982827,73.6429653 L82.9327403,73.6429653 L82.9327403,77.1718072 L79.3982827,77.1718072 L79.3982827,73.6429653 Z M79.3982827,81.3515019 L79.3982827,77.8226599 L82.9327403,77.8226599 L82.9327403,81.3515019 L79.3982827,81.3515019 Z M87.1190864,81.3515019 L83.5846288,81.3515019 L83.5846288,77.8226599 L87.1190864,77.8226599 L87.1190864,81.3515019 Z M87.1190864,77.1718072 L83.5846288,77.1718072 L83.5846288,73.6429653 L87.1190864,73.6429653 L87.1190864,77.1718072 Z" id="Shape" fill="#6CA88C"></path>
                    <rect id="Rectangle" fill="#A4DCED" x="95.8380942" y="73.6429653" width="3.5344576" height="3.52884195"></rect>
                    <rect id="Rectangle" fill="#A4DCED" x="91.6517481" y="77.8226599" width="3.5344576" height="3.52884195"></rect>
                    <rect id="Rectangle" fill="#A4DCED" x="95.8380942" y="77.8226599" width="3.5344576" height="3.52884195"></rect>
                    <rect id="Rectangle" fill="#A4DCED" x="91.6517481" y="73.6429653" width="3.5344576" height="3.52884195"></rect>
                    <path d="M92.4920731,73.3226237 C92.3189152,73.4904217 92.1559431,73.6582196 91.9827852,73.8311024 C91.8096274,74.0039851 91.5447977,74.2836484 91.3308968,74.5124638 C91.2035748,74.6294139 91.3920113,74.817551 91.5193333,74.7006009 L92.1966861,74.0497482 C92.369844,73.8921198 92.537909,73.7294067 92.705974,73.5412695 C92.8740389,73.3531324 92.6448594,73.1649953 92.4920731,73.3226237 Z" id="Path" fill="#DCF1FC"></path>
                    <path d="M93.958822,73.5666935 C93.9834989,73.5303595 93.9788616,73.4816495 93.9477705,73.4506078 C93.9166794,73.4195661 93.8678919,73.4149362 93.8315001,73.4395738 L93.8315001,73.4395738 C93.7457014,73.3977833 93.642674,73.4162988 93.5768562,73.4853369 L92.369844,74.675177 C92.0590241,74.9619291 91.768061,75.2694182 91.4989618,75.5955234 L91.2952466,75.7989148 C91.111903,75.9972215 91.40729,76.3073935 91.5957265,76.0989172 L91.7994416,75.8955258 C92.1260657,75.6268541 92.4340441,75.3363533 92.7212526,75.0260273 L93.9129861,73.8260176 C93.986176,73.760385 94.0050904,73.6533734 93.958822,73.5666935 L93.958822,73.5666935 Z" id="Path" fill="#DCF1FC"></path>
                    <path d="M96.6529547,73.3226237 C96.4797968,73.4904217 96.3219176,73.6582196 96.1436669,73.8311024 C95.9654161,74.0039851 95.7056793,74.2836484 95.4917784,74.5124638 C95.3644565,74.6294139 95.552893,74.817551 95.6802149,74.7006009 L96.3575678,74.0497482 C96.5307256,73.8921198 96.7038835,73.7294067 96.8668556,73.5412695 C97.0298277,73.3531324 96.8057411,73.1649953 96.6529547,73.3226237 Z" id="Path" fill="#DCF1FC"></path>
                    <path d="M98.1197037,73.5666935 C98.1443805,73.5303595 98.1397433,73.4816495 98.1086522,73.4506078 C98.0775611,73.4195661 98.0287736,73.4149362 97.9923817,73.4395738 L97.9923817,73.4395738 C97.9063623,73.3994205 97.8043342,73.4177564 97.7377378,73.4853369 L96.5358185,74.675177 C96.2220545,74.9605437 95.9293041,75.2681231 95.6598434,75.5955234 L95.4612212,75.7989148 C95.2727847,75.9972215 95.5681716,76.3073935 95.7566081,76.0989172 L95.9603233,75.8955258 C96.2869473,75.6268541 96.5949258,75.3363533 96.8821342,75.0260273 L98.0738678,73.8260176 C98.1470576,73.760385 98.1659721,73.6533734 98.1197037,73.5666935 L98.1197037,73.5666935 Z" id="Path" fill="#DCF1FC"></path>
                    <path d="M92.4920731,77.4311313 C92.3189152,77.5989293 92.1559431,77.7667273 91.9827852,77.93961 C91.8096274,78.1124928 91.5447977,78.392156 91.3308968,78.6209714 C91.2035748,78.7379215 91.3920113,78.9260586 91.5193333,78.8091085 C91.7485128,78.5955475 91.9725995,78.3718169 92.1966861,78.1582558 C92.4207728,77.9446948 92.537909,77.8379143 92.705974,77.6497772 C92.8740389,77.4616401 92.6448594,77.273503 92.4920731,77.4311313 Z" id="Path" fill="#DCF1FC"></path>
                    <path d="M93.958822,77.6752011 C93.9834989,77.6388671 93.9788616,77.5901571 93.9477705,77.5591154 C93.9166794,77.5280737 93.8678919,77.5234438 93.8315001,77.5480814 L93.8315001,77.5480814 C93.7457014,77.5062909 93.642674,77.5248064 93.5768562,77.5938445 L92.369844,78.7836846 C92.0590241,79.0704367 91.768061,79.3779258 91.4989618,79.704031 C91.4327544,79.775218 91.3614541,79.8413202 91.2952466,79.9074225 C91.111903,80.1057291 91.40729,80.4159011 91.5957265,80.2074249 L91.7994416,80.0040334 C92.1260657,79.7353617 92.4340441,79.4448609 92.7212526,79.1345349 L93.9129861,77.9345252 C93.986176,77.8688927 94.0050904,77.761881 93.958822,77.6752011 L93.958822,77.6752011 Z" id="Path" fill="#DCF1FC"></path>
                    <path d="M96.6529547,77.4311313 C96.4797968,77.5989293 96.3219176,77.7667273 96.1436669,77.93961 C95.9654161,78.1124928 95.7056793,78.392156 95.4917784,78.6209714 C95.3644565,78.7379215 95.552893,78.9260586 95.6802149,78.8091085 C95.9093945,78.5955475 96.1334811,78.3718169 96.3575678,78.1582558 C96.5816544,77.9446948 96.7038835,77.8379143 96.8668556,77.6497772 C97.0298277,77.4616401 96.8057411,77.273503 96.6529547,77.4311313 Z" id="Path" fill="#DCF1FC"></path>
                    <path d="M98.1197037,77.6752011 C98.1443805,77.6388671 98.1397433,77.5901571 98.1086522,77.5591154 C98.0775611,77.5280737 98.0287736,77.5234438 97.9923817,77.5480814 L97.9923817,77.5480814 C97.9063623,77.5079281 97.8043342,77.526264 97.7377378,77.5938445 L96.5358185,78.7836846 C96.2220545,79.0690514 95.9293041,79.3766307 95.6598434,79.704031 L95.4612212,79.9074225 C95.2727847,80.1057291 95.5681716,80.4159011 95.7566081,80.2074249 L95.9603233,80.0040334 C96.2869473,79.7353617 96.5949258,79.4448609 96.8821342,79.1345349 L98.0738678,77.9345252 C98.1470576,77.8688927 98.1659721,77.761881 98.1197037,77.6752011 L98.1197037,77.6752011 Z" id="Path" fill="#DCF1FC"></path>
                    <path d="M99.6424743,73.0226213 L91.3818256,73.0226213 C91.2890877,73.0226213 91.2002202,73.0597372 91.135125,73.1256848 C91.0700298,73.1916323 91.0341461,73.2808911 91.0354723,73.3734716 L91.0354723,81.6057412 C91.0341461,81.6983217 91.0700298,81.7875805 91.135125,81.853528 C91.2002202,81.9194756 91.2890877,81.9565915 91.3818256,81.9565915 L99.6424743,81.9565915 C99.8365519,81.9565915 99.9938829,81.7995105 99.9938829,81.6057412 L99.9938829,73.3734716 C99.9938829,73.2804203 99.9568596,73.1911802 99.8909577,73.125383 C99.8250558,73.0595858 99.7356737,73.0226213 99.6424743,73.0226213 L99.6424743,73.0226213 Z M91.6619339,73.6429653 L95.1963915,73.6429653 L95.1963915,77.1718072 L91.6619339,77.1718072 L91.6619339,73.6429653 Z M91.6619339,81.3515019 L91.6619339,77.8226599 L95.1963915,77.8226599 L95.1963915,81.3515019 L91.6619339,81.3515019 Z M99.3827375,81.3515019 L95.8380942,81.3515019 L95.8380942,77.8226599 L99.3725518,77.8226599 L99.3827375,81.3515019 Z M99.3827375,77.1718072 L95.8380942,77.1718072 L95.8380942,73.6429653 L99.3725518,73.6429653 L99.3827375,77.1718072 Z" id="Shape" fill="#6CA88C"></path>
                    <rect id="Rectangle" fill="#A4DCED" x="108.096652" y="73.6429653" width="3.5344576" height="3.52884195"></rect>
                    <rect id="Rectangle" fill="#A4DCED" x="103.910306" y="77.8226599" width="3.5344576" height="3.52884195"></rect>
                    <rect id="Rectangle" fill="#A4DCED" x="108.096652" y="77.8226599" width="3.5344576" height="3.52884195"></rect>
                    <rect id="Rectangle" fill="#A4DCED" x="103.910306" y="73.6429653" width="3.5344576" height="3.52884195"></rect>
                    <path d="M104.745538,73.3226237 C104.572381,73.4904217 104.414501,73.6582196 104.236251,73.8311024 C104.058,74.0039851 103.798263,74.2836484 103.584362,74.5124638 C103.462133,74.6294139 103.65057,74.817551 103.772799,74.7006009 L104.455244,74.0497482 C104.628402,73.8921198 104.796467,73.7294067 104.964532,73.5412695 C105.132597,73.3531324 104.903418,73.1649953 104.745538,73.3226237 Z" id="Path" fill="#DCF1FC"></path>
                    <path d="M106.212287,73.5666935 C106.288681,73.4751673 106.18173,73.3683868 106.084965,73.4395738 L106.084965,73.4395738 C105.998946,73.3994205 105.896918,73.4177564 105.830322,73.4853369 L104.628402,74.675177 C104.314987,74.9592976 104.023841,75.2669805 103.75752,75.5955234 L103.553805,75.7989148 C103.365368,75.9972215 103.665848,76.3073935 103.849192,76.0989172 L104.058,75.8955258 C104.381826,75.6255012 104.688024,75.3350756 104.974718,75.0260273 L106.166452,73.8260176 C106.238208,73.7598891 106.258811,73.6549804 106.21738,73.5666935 L106.212287,73.5666935 Z" id="Path" fill="#DCF1FC"></path>
                    <path d="M108.90642,73.3226237 C108.738355,73.4904217 108.575383,73.6582196 108.397132,73.8311024 C108.218882,74.0039851 107.964238,74.2836484 107.745244,74.5124638 C107.623015,74.6294139 107.811451,74.817551 107.93368,74.7006009 L108.616126,74.0497482 C108.789284,73.8921198 108.957349,73.7294067 109.125414,73.5412695 C109.293479,73.3531324 109.059206,73.1649953 108.90642,73.3226237 Z" id="Path" fill="#DCF1FC"></path>
                    <path d="M110.378262,73.5666935 C110.402939,73.5303595 110.398302,73.4816495 110.36721,73.4506078 C110.336119,73.4195661 110.287332,73.4149362 110.25094,73.4395738 L110.25094,73.4395738 C110.164921,73.3994205 110.062893,73.4177564 109.996296,73.4853369 L108.794377,74.675177 C108.482256,74.9606127 108.191204,75.2681959 107.923495,75.5955234 L107.719779,75.7989148 C107.536436,75.9972215 107.831823,76.3073935 108.015166,76.0989172 L108.223974,75.8955258 C108.548962,75.6268053 108.855243,75.3363004 109.140693,75.0260273 L110.332426,73.8260176 C110.404183,73.7598891 110.424786,73.6549804 110.383355,73.5666935 L110.378262,73.5666935 Z" id="Path" fill="#DCF1FC"></path>
                    <path d="M104.745538,77.4311313 C104.572381,77.5989293 104.414501,77.7667273 104.236251,77.93961 C104.058,78.1124928 103.798263,78.392156 103.584362,78.6209714 C103.462133,78.7379215 103.65057,78.9260586 103.772799,78.8091085 L104.455244,78.1582558 C104.628402,78.0006275 104.796467,77.8379143 104.964532,77.6497772 C105.132597,77.4616401 104.903418,77.273503 104.745538,77.4311313 Z" id="Path" fill="#DCF1FC"></path>
                    <path d="M106.212287,77.6752011 C106.288681,77.5836749 106.18173,77.4768944 106.084965,77.5480814 L106.084965,77.5480814 C105.998946,77.5079281 105.896918,77.526264 105.830322,77.5938445 L104.628402,78.7836846 C104.314987,79.0678052 104.023841,79.3754882 103.75752,79.704031 C103.691313,79.775218 103.620012,79.8413202 103.553805,79.9074225 C103.365368,80.1057291 103.665848,80.4159011 103.849192,80.2074249 L104.058,80.0040334 C104.381826,79.7340088 104.688024,79.4435833 104.974718,79.1345349 L106.166452,77.9345252 C106.238208,77.8683967 106.258811,77.763488 106.21738,77.6752011 L106.212287,77.6752011 Z" id="Path" fill="#DCF1FC"></path>
                    <path d="M108.90642,77.4311313 C108.738355,77.5989293 108.575383,77.7667273 108.397132,77.93961 C108.218882,78.1124928 107.964238,78.392156 107.745244,78.6209714 C107.623015,78.7379215 107.811451,78.9260586 107.93368,78.8091085 L108.616126,78.1582558 C108.789284,78.0006275 108.957349,77.8379143 109.125414,77.6497772 C109.293479,77.4616401 109.059206,77.273503 108.90642,77.4311313 Z" id="Path" fill="#DCF1FC"></path>
                    <path d="M110.378262,77.6752011 C110.402939,77.6388671 110.398302,77.5901571 110.36721,77.5591154 C110.336119,77.5280737 110.287332,77.5234438 110.25094,77.5480814 L110.25094,77.5480814 C110.164921,77.5079281 110.062893,77.526264 109.996296,77.5938445 L108.794377,78.7836846 C108.482256,79.0691203 108.191204,79.3767036 107.923495,79.704031 C107.857287,79.775218 107.785987,79.8413202 107.719779,79.9074225 C107.536436,80.1057291 107.831823,80.4159011 108.015166,80.2074249 L108.223974,80.0040334 C108.548962,79.7353129 108.855243,79.444808 109.140693,79.1345349 L110.332426,77.9345252 C110.404183,77.8683967 110.424786,77.763488 110.383355,77.6752011 L110.378262,77.6752011 Z" id="Path" fill="#DCF1FC"></path>
                    <path d="M111.901033,73.0226213 L103.640384,73.0226213 C103.446306,73.0226213 103.288975,73.1797023 103.288975,73.3734716 L103.288975,81.6057412 C103.288975,81.7995105 103.446306,81.9565915 103.640384,81.9565915 L111.901033,81.9565915 C112.09511,81.9565915 112.252441,81.7995105 112.252441,81.6057412 L112.252441,73.3734716 C112.252441,73.2804203 112.215418,73.1911802 112.149516,73.125383 C112.083614,73.0595858 111.994232,73.0226213 111.901033,73.0226213 L111.901033,73.0226213 Z M103.910306,73.6429653 L107.449857,73.6429653 L107.449857,77.1718072 L103.915399,77.1718072 L103.910306,73.6429653 Z M103.910306,81.3515019 L103.910306,77.8226599 L107.449857,77.8226599 L107.449857,81.3515019 L103.910306,81.3515019 Z M111.63111,81.3515019 L108.096652,81.3515019 L108.096652,77.8226599 L111.63111,77.8226599 L111.63111,81.3515019 Z M111.63111,77.1718072 L108.096652,77.1718072 L108.096652,73.6429653 L111.63111,73.6429653 L111.63111,77.1718072 Z" id="Shape" fill="#6CA88C"></path>
                    <rect id="Rectangle" fill="#A4DCED" x="83.5846288" y="88.0176572" width="3.5344576" height="3.52884195"></rect>
                    <rect id="Rectangle" fill="#A4DCED" x="79.3982827" y="92.1973518" width="3.5344576" height="3.52884195"></rect>
                    <rect id="Rectangle" fill="#A4DCED" x="83.5846288" y="92.1973518" width="3.5344576" height="3.52884195"></rect>
                    <rect id="Rectangle" fill="#A4DCED" x="79.3982827" y="88.0176572" width="3.5344576" height="3.52884195"></rect>
                    <path d="M80.2335148,87.7074852 C80.0603569,87.8752832 79.9024777,88.0481659 79.7242269,88.2159639 C79.5459762,88.3837618 79.2862394,88.6634251 79.0723385,88.8922405 C78.9501094,89.0091906 79.1385459,89.1973277 79.260775,89.0803776 L79.9432207,88.4295249 C80.1163786,88.2769813 80.2844436,88.1142681 80.4525086,87.9210462 C80.4749949,87.8591368 80.4591308,87.7898182 80.4119452,87.7438031 C80.3647595,87.697788 80.2949766,87.6835843 80.2335148,87.7074852 L80.2335148,87.7074852 Z" id="Path" fill="#DCF1FC"></path>
                    <path d="M81.7002638,87.9464702 C81.7249406,87.9101362 81.7203033,87.8614262 81.6892122,87.8303845 C81.6581212,87.7993428 81.6093336,87.7947129 81.5729418,87.8193505 L81.5729418,87.8193505 C81.4873941,87.7758108 81.3832695,87.7945234 81.3182979,87.8651136 L80.1163786,89.0549537 C79.8029633,89.3390743 79.5118168,89.6467572 79.2454964,89.9753001 L79.0417812,90.1786915 C78.8533447,90.3719134 79.1487317,90.6871702 79.3371682,90.4736091 L79.5459762,90.2753025 C79.8710904,90.0049016 80.1773725,89.7126971 80.4626943,89.4007192 L81.6544279,88.2007095 C81.7253285,88.1362379 81.7459671,88.0332086 81.7053566,87.9464702 L81.7002638,87.9464702 Z" id="Path" fill="#DCF1FC"></path>
                    <path d="M84.3943964,87.7074852 C84.2263314,87.8752832 84.0633593,88.0481659 83.8851086,88.2159639 L83.2332202,88.8922405 C83.1109911,89.0091906 83.2994276,89.1973277 83.4216567,89.0803776 L84.1041024,88.4295249 C84.2772602,88.2769813 84.4453252,88.1142681 84.6133902,87.9210462 C84.6358766,87.8591368 84.6200125,87.7898182 84.5728268,87.7438031 C84.5256412,87.697788 84.4558582,87.6835843 84.3943964,87.7074852 L84.3943964,87.7074852 Z" id="Path" fill="#DCF1FC"></path>
                    <path d="M85.8662383,87.9464702 C85.8909151,87.9101362 85.8862779,87.8614262 85.8551868,87.8303845 C85.8240957,87.7993428 85.7753082,87.7947129 85.7389163,87.8193505 L85.7389163,87.8193505 C85.6533686,87.7758108 85.5492441,87.7945234 85.4842724,87.8651136 L84.2823531,89.0549537 C83.9689378,89.3390743 83.6777914,89.6467572 83.4114709,89.9753001 L83.2077558,90.1786915 C83.0193193,90.3719134 83.3197991,90.6871702 83.5031427,90.4736091 L83.7119507,90.2753025 C84.0382352,90.0062136 84.3446065,89.7139238 84.6286688,89.4007192 L85.8204024,88.2007095 C85.891303,88.1362379 85.9119417,88.0332086 85.8713312,87.9464702 L85.8662383,87.9464702 Z" id="Path" fill="#DCF1FC"></path>
                    <path d="M80.2335148,91.8058233 C80.0603569,91.9736212 79.9024777,92.146504 79.7242269,92.3143019 C79.5459762,92.4820999 79.2862394,92.7617631 79.0723385,92.9905785 C78.9501094,93.1075286 79.1385459,93.2956657 79.260775,93.1787157 L79.9432207,92.527863 C80.1163786,92.3753194 80.2844436,92.2126062 80.4525086,92.0193843 C80.4749949,91.9574749 80.4591308,91.8881562 80.4119452,91.8421411 C80.3647595,91.796126 80.2949766,91.7819223 80.2335148,91.8058233 Z" id="Path" fill="#DCF1FC"></path>
                    <path d="M81.7002638,92.0549778 C81.7249406,92.0186438 81.7203033,91.9699338 81.6892122,91.9388921 C81.6581212,91.9078504 81.6093336,91.9032205 81.5729418,91.9278581 L81.5729418,91.9278581 C81.4873941,91.8843184 81.3832695,91.903031 81.3182979,91.9736212 L80.1163786,93.1634613 C79.8029633,93.4475819 79.5118168,93.7552649 79.2454964,94.0838077 L79.0417812,94.2871991 C78.8533447,94.480421 79.1487317,94.7956778 79.3371682,94.5821168 L79.5459762,94.3838101 C79.8710904,94.1134092 80.1773725,93.8212047 80.4626943,93.5092268 L81.6544279,92.3092171 C81.7253285,92.2447455 81.7459671,92.1417162 81.7053566,92.0549778 L81.7002638,92.0549778 Z" id="Path" fill="#DCF1FC"></path>
                    <path d="M84.3943964,91.8058233 C84.2263314,91.9736212 84.0633593,92.146504 83.8851086,92.3143019 L83.2332202,92.9905785 C83.1109911,93.1075286 83.2994276,93.2956657 83.4216567,93.1787157 L84.1041024,92.527863 C84.2772602,92.3753194 84.4453252,92.2126062 84.6133902,92.0193843 C84.6358766,91.9574749 84.6200125,91.8881562 84.5728268,91.8421411 C84.5256412,91.796126 84.4558582,91.7819223 84.3943964,91.8058233 L84.3943964,91.8058233 Z" id="Path" fill="#DCF1FC"></path>
                    <path d="M85.8662383,92.0549778 C85.8909151,92.0186438 85.8862779,91.9699338 85.8551868,91.9388921 C85.8240957,91.9078504 85.7753082,91.9032205 85.7389163,91.9278581 L85.7389163,91.9278581 C85.6533686,91.8843184 85.5492441,91.903031 85.4842724,91.9736212 L84.2823531,93.1634613 C83.9689378,93.4475819 83.6777914,93.7552649 83.4114709,94.0838077 L83.2077558,94.2871991 C83.0193193,94.480421 83.3197991,94.7956778 83.5031427,94.5821168 L83.7119507,94.3838101 C84.0382352,94.1147212 84.3446065,93.8224315 84.6286688,93.5092268 L85.8204024,92.3092171 C85.891303,92.2447455 85.9119417,92.1417162 85.8713312,92.0549778 L85.8662383,92.0549778 Z" id="Path" fill="#DCF1FC"></path>
                    <path d="M87.3890089,87.4023606 L79.1283602,87.4023606 C79.0356323,87.4010364 78.9462315,87.4368631 78.880179,87.5018549 C78.8141265,87.5668467 78.7769516,87.6555729 78.7769516,87.7481635 L78.7769516,96.0007723 C78.7797357,96.1925529 78.9362542,96.3465377 79.1283602,96.3465377 L87.3890089,96.3465377 C87.5811149,96.3465377 87.7376334,96.1925529 87.7404175,96.0007723 L87.7404175,87.7481635 C87.7404175,87.6555729 87.7032426,87.5668467 87.6371901,87.5018549 C87.5711376,87.4368631 87.4817368,87.4010364 87.3890089,87.4023606 Z M79.3982827,88.0176572 L82.9327403,88.0176572 L82.9327403,91.5464991 L79.3982827,91.5464991 L79.3982827,88.0176572 Z M79.3982827,95.7261938 L79.3982827,92.2024366 L82.9327403,92.2024366 L82.9327403,95.7261938 L79.3982827,95.7261938 Z M87.1190864,95.7261938 L83.5846288,95.7261938 L83.5846288,92.2024366 L87.1190864,92.2024366 L87.1190864,95.7261938 Z M87.1190864,91.5464991 L83.5846288,91.5464991 L83.5846288,88.0176572 L87.1190864,88.0176572 L87.1190864,91.5464991 Z" id="Shape" fill="#6CA88C"></path>
                    <rect id="Rectangle" fill="#A4DCED" x="108.096652" y="88.0176572" width="3.5344576" height="3.52884195"></rect>
                    <rect id="Rectangle" fill="#A4DCED" x="103.910306" y="92.1973518" width="3.5344576" height="3.52884195"></rect>
                    <rect id="Rectangle" fill="#A4DCED" x="108.096652" y="92.1973518" width="3.5344576" height="3.52884195"></rect>
                    <rect id="Rectangle" fill="#A4DCED" x="103.910306" y="88.0176572" width="3.5344576" height="3.52884195"></rect>
                    <path d="M104.745538,87.7074852 C104.572381,87.8752832 104.414501,88.0481659 104.236251,88.2159639 C104.058,88.3837618 103.798263,88.6634251 103.584362,88.8922405 C103.462133,89.0091906 103.65057,89.1973277 103.772799,89.0803776 L104.455244,88.4295249 C104.628402,88.2769813 104.796467,88.1142681 104.964532,87.9210462 C104.987019,87.8591368 104.971155,87.7898182 104.923969,87.7438031 C104.876783,87.697788 104.807,87.6835843 104.745538,87.7074852 L104.745538,87.7074852 Z" id="Path" fill="#DCF1FC"></path>
                    <path d="M106.212287,87.9464702 C106.288681,87.854944 106.18173,87.7481635 106.084965,87.8193505 L106.084965,87.8193505 C105.999418,87.7758108 105.895293,87.7945234 105.830322,87.8651136 L104.628402,89.0549537 C104.314987,89.3390743 104.023841,89.6467572 103.75752,89.9753001 L103.553805,90.1786915 C103.365368,90.3719134 103.665848,90.6871702 103.849192,90.4736091 L104.058,90.2753025 C104.383114,90.0049016 104.689396,89.7126971 104.974718,89.4007192 L106.166452,88.2007095 C106.237352,88.1362379 106.257991,88.0332086 106.21738,87.9464702 L106.212287,87.9464702 Z" id="Path" fill="#DCF1FC"></path>
                    <path d="M108.90642,87.7074852 C108.738355,87.8752832 108.575383,88.0481659 108.397132,88.2159639 L107.745244,88.8922405 C107.623015,89.0091906 107.811451,89.1973277 107.93368,89.0803776 L108.616126,88.4295249 C108.789284,88.2769813 108.957349,88.1142681 109.125414,87.9210462 C109.1479,87.8591368 109.132036,87.7898182 109.084851,87.7438031 C109.037665,87.697788 108.967882,87.6835843 108.90642,87.7074852 L108.90642,87.7074852 Z" id="Path" fill="#DCF1FC"></path>
                    <path d="M110.378262,87.9464702 C110.402939,87.9101362 110.398302,87.8614262 110.36721,87.8303845 C110.336119,87.7993428 110.287332,87.7947129 110.25094,87.8193505 L110.25094,87.8193505 C110.165392,87.7758108 110.061268,87.7945234 109.996296,87.8651136 L108.794377,89.0549537 C108.482256,89.3403894 108.191204,89.6479726 107.923495,89.9753001 L107.719779,90.1786915 C107.536436,90.3719134 107.831823,90.6871702 108.015166,90.4736091 L108.223974,90.2753025 C108.550259,90.0062136 108.85663,89.7139238 109.140693,89.4007192 L110.332426,88.2007095 C110.403327,88.1362379 110.423965,88.0332086 110.383355,87.9464702 L110.378262,87.9464702 Z" id="Path" fill="#DCF1FC"></path>
                    <path d="M104.745538,91.8058233 C104.572381,91.9736212 104.414501,92.146504 104.236251,92.3143019 C104.058,92.4820999 103.798263,92.7617631 103.584362,92.9905785 C103.462133,93.1075286 103.65057,93.2956657 103.772799,93.1787157 L104.455244,92.527863 C104.628402,92.3753194 104.796467,92.2126062 104.964532,92.0193843 C104.987019,91.9574749 104.971155,91.8881562 104.923969,91.8421411 C104.876783,91.796126 104.807,91.7819223 104.745538,91.8058233 Z" id="Path" fill="#DCF1FC"></path>
                    <path d="M106.212287,92.0549778 C106.288681,91.9634516 106.18173,91.8566711 106.084965,91.9278581 L106.084965,91.9278581 C105.999418,91.8843184 105.895293,91.903031 105.830322,91.9736212 L104.628402,93.1634613 C104.314987,93.4475819 104.023841,93.7552649 103.75752,94.0838077 L103.553805,94.2871991 C103.365368,94.480421 103.665848,94.7956778 103.849192,94.5821168 L104.058,94.3838101 C104.383114,94.1134092 104.689396,93.8212047 104.974718,93.5092268 L106.166452,92.3092171 C106.237352,92.2447455 106.257991,92.1417162 106.21738,92.0549778 L106.212287,92.0549778 Z" id="Path" fill="#DCF1FC"></path>
                    <path d="M108.90642,91.8058233 C108.738355,91.9736212 108.575383,92.146504 108.397132,92.3143019 L107.745244,92.9905785 C107.623015,93.1075286 107.811451,93.2956657 107.93368,93.1787157 L108.616126,92.527863 C108.789284,92.3753194 108.957349,92.2126062 109.125414,92.0193843 C109.1479,91.9574749 109.132036,91.8881562 109.084851,91.8421411 C109.037665,91.796126 108.967882,91.7819223 108.90642,91.8058233 Z" id="Path" fill="#DCF1FC"></path>
                    <path d="M110.378262,92.0549778 C110.402939,92.0186438 110.398302,91.9699338 110.36721,91.9388921 C110.336119,91.9078504 110.287332,91.9032205 110.25094,91.9278581 L110.25094,91.9278581 C110.165392,91.8843184 110.061268,91.903031 109.996296,91.9736212 L108.794377,93.1634613 C108.482256,93.448897 108.191204,93.7564803 107.923495,94.0838077 L107.719779,94.2871991 C107.536436,94.480421 107.831823,94.7956778 108.015166,94.5821168 L108.223974,94.3838101 C108.550259,94.1147212 108.85663,93.8224315 109.140693,93.5092268 L110.332426,92.3092171 C110.403327,92.2447455 110.423965,92.1417162 110.383355,92.0549778 L110.378262,92.0549778 Z" id="Path" fill="#DCF1FC"></path>
                    <path d="M111.901033,87.4023606 L103.640384,87.4023606 C103.547656,87.4010364 103.458255,87.4368631 103.392203,87.5018549 C103.32615,87.5668467 103.288975,87.6555729 103.288975,87.7481635 L103.288975,96.0007723 C103.291759,96.1925529 103.448278,96.3465377 103.640384,96.3465377 L111.901033,96.3465377 C112.093139,96.3465377 112.249657,96.1925529 112.252441,96.0007723 L112.252441,87.7481635 C112.252441,87.6555729 112.215266,87.5668467 112.149214,87.5018549 C112.083161,87.4368631 111.99376,87.4010364 111.901033,87.4023606 Z M103.910306,88.0176572 L107.449857,88.0176572 L107.449857,91.5464991 L103.915399,91.5464991 L103.910306,88.0176572 Z M103.910306,95.7261938 L103.910306,92.2024366 L107.449857,92.2024366 L107.449857,95.7261938 L103.910306,95.7261938 Z M111.63111,95.7261938 L108.096652,95.7261938 L108.096652,92.2024366 L111.63111,92.2024366 L111.63111,95.7261938 Z M111.63111,91.5464991 L108.096652,91.5464991 L108.096652,88.0176572 L111.63111,88.0176572 L111.63111,91.5464991 Z" id="Shape" fill="#6CA88C"></path>
                    <rect id="Rectangle" fill="#A4DCED" x="56.729881" y="87.6922308" width="3.5344576" height="3.52884195"></rect>
                    <rect id="Rectangle" fill="#A4DCED" x="52.543535" y="91.8719255" width="3.5344576" height="3.52884195"></rect>
                    <rect id="Rectangle" fill="#A4DCED" x="56.729881" y="91.8719255" width="3.5344576" height="3.52884195"></rect>
                    <rect id="Rectangle" fill="#A4DCED" x="52.543535" y="87.6922308" width="3.5344576" height="3.52884195"></rect>
                    <path d="M53.378767,87.3718893 C53.2107021,87.5396872 53.04773,87.7074852 52.8694792,87.8803679 C52.6912285,88.0532507 52.4314917,88.3278292 52.2175908,88.5566446 C52.0953617,88.6735947 52.2837982,88.8617318 52.4060273,88.7447817 L53.088473,88.093929 C53.2616308,87.9363006 53.4296958,87.7786722 53.5977608,87.5854503 C53.6202472,87.5235409 53.6043831,87.4542223 53.5571974,87.4082072 C53.5100118,87.362192 53.4402288,87.3479884 53.378767,87.3718893 Z" id="Path" fill="#DCF1FC"></path>
                    <path d="M54.8506089,87.6210438 C54.8752857,87.5847098 54.8706485,87.5359998 54.8395574,87.5049581 C54.8084663,87.4739164 54.7596788,87.4692865 54.7232869,87.4939242 L54.7232869,87.4939242 C54.6380255,87.4485099 54.5326916,87.4674399 54.468643,87.5396872 L53.256538,88.7244425 C52.9444149,89.0080584 52.6533539,89.3139516 52.3856558,89.6397041 L52.1819406,89.8481804 C51.9935041,90.0414023 52.2939839,90.3566591 52.4773276,90.143098 L52.6861356,89.9397065 C53.0135757,89.6737584 53.3200515,89.3830689 53.6028537,89.070208 L54.7945872,87.8701984 C54.8654879,87.8057268 54.8861265,87.7026975 54.845516,87.615959 L54.8506089,87.6210438 Z" id="Path" fill="#DCF1FC"></path>
                    <path d="M57.5396487,87.3718893 C57.3715837,87.5396872 57.2086116,87.7074852 57.0303609,87.8803679 C56.8521101,88.0532507 56.5974662,88.3278292 56.3835653,88.5566446 C56.2562433,88.6735947 56.4446798,88.8617318 56.5669089,88.7447817 L57.2493546,88.093929 C57.4225125,87.9363006 57.5905775,87.7786722 57.7586425,87.5854503 C57.7811288,87.5235409 57.7652647,87.4542223 57.7180791,87.4082072 C57.6708934,87.362192 57.6011105,87.3479884 57.5396487,87.3718893 Z" id="Path" fill="#DCF1FC"></path>
                    <path d="M59.0114905,87.6210438 C59.0361674,87.5847098 59.0315301,87.5359998 59.000439,87.5049581 C58.9693479,87.4739164 58.9205604,87.4692865 58.8841686,87.4939242 L58.8841686,87.4939242 C58.7973507,87.4477293 58.6901688,87.4666137 58.6244318,87.5396872 L57.4174196,88.7244425 C57.1078794,89.0106814 56.8169917,89.3163926 56.5465374,89.6397041 L56.3428223,89.8481804 C56.1594786,90.0414023 56.4548656,90.3566591 56.6382092,90.143098 L56.8470172,89.9397065 C57.1749361,89.6725031 57.4830145,89.3819081 57.7688282,89.070208 L58.9605618,87.8701984 C59.0312643,87.8053299 59.0500067,87.7013708 59.0063977,87.615959 L59.0114905,87.6210438 Z" id="Path" fill="#DCF1FC"></path>
                    <path d="M53.378767,91.4803969 C53.2107021,91.6481949 53.04773,91.8159928 52.8694792,91.9888756 C52.6912285,92.1617583 52.4314917,92.4363368 52.2175908,92.6651522 C52.0953617,92.7821023 52.2837982,92.9702394 52.4060273,92.8532893 L53.088473,92.2024366 C53.2616308,92.049893 53.4296958,91.8871798 53.5977608,91.6939579 C53.6202472,91.6320485 53.6043831,91.5627299 53.5571974,91.5167148 C53.5100118,91.4706997 53.4402288,91.456496 53.378767,91.4803969 Z" id="Path" fill="#DCF1FC"></path>
                    <path d="M54.8506089,91.7295515 C54.8752857,91.6932174 54.8706485,91.6445074 54.8395574,91.6134657 C54.8084663,91.582424 54.7596788,91.5777942 54.7232869,91.6024318 L54.7232869,91.6024318 C54.6380255,91.5570175 54.5326916,91.5759475 54.468643,91.6481949 L53.2667237,92.8380349 C52.9533085,93.1221556 52.662162,93.4298385 52.3958415,93.7583813 L52.1921264,93.9617728 C52.0036899,94.1549947 52.3041697,94.4702515 52.4875133,94.2566904 L52.6963213,94.053299 C53.0237615,93.7873508 53.3302373,93.4966613 53.6130395,93.1838004 L54.804773,91.9837908 C54.8756736,91.9193192 54.8963123,91.8162899 54.8557018,91.7295515 L54.8506089,91.7295515 Z" id="Path" fill="#DCF1FC"></path>
                    <path d="M57.5396487,91.4803969 C57.3715837,91.6481949 57.2086116,91.8159928 57.0303609,91.9888756 C56.8521101,92.1617583 56.5974662,92.4363368 56.3835653,92.6651522 C56.2562433,92.7821023 56.4446798,92.9702394 56.5669089,92.8532893 L57.2493546,92.2024366 C57.4225125,92.049893 57.5905775,91.8871798 57.7586425,91.6939579 C57.7811288,91.6320485 57.7652647,91.5627299 57.7180791,91.5167148 C57.6708934,91.4706997 57.6011105,91.456496 57.5396487,91.4803969 Z" id="Path" fill="#DCF1FC"></path>
                    <path d="M59.0114905,91.7295515 C59.0361674,91.6932174 59.0315301,91.6445074 59.000439,91.6134657 C58.9693479,91.582424 58.9205604,91.5777942 58.8841686,91.6024318 L58.8841686,91.6024318 C58.7973507,91.5562369 58.6901688,91.5751213 58.6244318,91.6481949 L57.4225125,92.8380349 C57.1116926,93.1247871 56.8207295,93.4322762 56.5516303,93.7583813 L56.3479151,93.9617728 C56.1645715,94.1549947 56.4599585,94.4702515 56.6433021,94.2566904 L56.8521101,94.053299 C57.180029,93.7860955 57.4881074,93.4955005 57.7739211,93.1838004 L58.9656546,91.9837908 C59.0363571,91.9189224 59.0550995,91.8149633 59.0114905,91.7295515 L59.0114905,91.7295515 Z" id="Path" fill="#DCF1FC"></path>
                    <path d="M60.5342612,87.0769342 L52.2736124,87.0769342 C52.1808846,87.07561 52.0914838,87.1114368 52.0254313,87.1764286 C51.9593788,87.2414203 51.9222038,87.3301466 51.9222038,87.4227371 L51.9222038,95.6702611 C51.9222038,95.8640304 52.0795348,96.0211114 52.2736124,96.0211114 L60.5342612,96.0211114 C60.7283388,96.0211114 60.8856698,95.8640304 60.8856698,95.6702611 L60.8856698,87.4227371 C60.8856698,87.3301466 60.8484948,87.2414203 60.7824423,87.1764286 C60.7163898,87.1114368 60.626989,87.07561 60.5342612,87.0769342 L60.5342612,87.0769342 Z M52.543535,87.7074852 L56.0779926,87.7074852 L56.0779926,91.2363271 L52.543535,91.2363271 L52.543535,87.7074852 Z M52.543535,95.4160218 L52.543535,91.8871798 L56.0779926,91.8871798 L56.0779926,95.4160218 L52.543535,95.4160218 Z M60.2643386,95.4160218 L56.729881,95.4160218 L56.729881,91.8871798 L60.2643386,91.8871798 L60.2643386,95.4160218 Z M60.2643386,91.2363271 L56.729881,91.2363271 L56.729881,87.7074852 L60.2643386,87.7074852 L60.2643386,91.2363271 Z" id="Shape" fill="#6CA88C"></path>
                    <ellipse id="Oval" fill="#6CA88C" cx="56.2868006" cy="63.3310179" rx="3.28999944" ry="3.28477219"></ellipse>
                    <path d="M58.5582301,63.3361027 C58.5582301,64.585774 57.5435535,65.5988328 56.2918935,65.5988328 C55.0402335,65.5988328 54.0255626,64.585774 54.0255626,63.3361027 C54.0255626,62.0864314 55.0402335,61.0733669 56.2918935,61.0733669 C56.8933765,61.0720186 57.470615,61.3099778 57.8959288,61.7346159 C58.3212427,62.159254 58.5595806,62.7355753 58.5582301,63.3361027 L58.5582301,63.3361027 Z" id="Path" fill="#A4DCED"></path>
                    <path d="M91.4582188,86.0040817 L99.4845951,86.0040817 C99.765867,86.0040817 99.9938829,86.2317353 99.9938829,86.5125603 L99.9938829,104.27372 L90.9489309,104.27372 L90.9489309,86.5125603 C90.9489309,86.2317353 91.1769468,86.0040817 91.4582188,86.0040817 Z" id="Path" fill="#6CA88C"></path>
                    <path d="M92.2730793,86.949852 L98.6646417,86.949852 C98.9459136,86.949852 99.1739295,87.1775056 99.1739295,87.4583307 L99.1739295,104.288975 L91.7637915,104.288975 L91.7637915,87.4583307 C91.7637915,87.1775056 91.9918074,86.949852 92.2730793,86.949852 Z" id="Path" fill="#A4DCED"></path>
                    <rect id="Rectangle" fill="#DCF1FC" x="92.329101" y="87.8701984" width="6.27951905" height="2.48646068" rx="0.12"></rect>
                    <rect id="Rectangle" fill="#DCF1FC" x="92.329101" y="90.9566639" width="6.27951905" height="2.48646068" rx="0.12"></rect>
                    <rect id="Rectangle" fill="#DCF1FC" x="92.329101" y="94.0431294" width="6.27951905" height="2.48646068" rx="0.12"></rect>
                    <rect id="Rectangle" fill="#DCF1FC" x="92.329101" y="97.1295949" width="6.27951905" height="2.48646068" rx="0.12"></rect>
                    <rect id="Rectangle" fill="#DCF1FC" x="92.329101" y="100.21606" width="6.27951905" height="2.48646068" rx="0.12"></rect>
                    <path d="M98.5627841,49.7749767 L61.9348027,49.7749767 C61.8677013,49.773413 61.8030251,49.8000495 61.7565425,49.8483919 C61.7100599,49.8967343 61.6860421,49.9623407 61.6903446,50.029216 C61.6866661,50.1259672 61.7406167,50.2157419 61.8278523,50.2580314 C61.8630256,50.2662647 61.8996295,50.2662647 61.9348027,50.2580314 L98.5627841,50.2580314 C98.6547656,50.2125765 98.7129699,50.118973 98.7129699,50.016504 C98.7129699,49.9140351 98.6547656,49.8204316 98.5627841,49.7749767 Z" id="Path" fill="#87BDB7"></path>
                    <path d="M102.565787,53.3953448 C90.3428784,53.3953448 78.1318536,53.3953448 65.9327123,53.3953448 C65.8656108,53.3937811 65.8009346,53.4204176 65.754452,53.46876 C65.7079695,53.5171024 65.6839516,53.5827088 65.6882541,53.6495841 C65.6845757,53.7463353 65.7385262,53.83611 65.8257618,53.8783995 C65.8609351,53.8866328 65.897539,53.8866328 65.9327123,53.8783995 C78.1556204,53.8783995 90.3666452,53.8783995 102.565787,53.8783995 C102.657768,53.8329446 102.715972,53.7393411 102.715972,53.6368721 C102.715972,53.5344032 102.657768,53.4407997 102.565787,53.3953448 L102.565787,53.3953448 Z" id="Path" fill="#87BDB7"></path>
                    <path d="M106.283588,57.0157129 C94.0606796,57.0157129 81.8513525,57.0157129 69.6556064,57.0157129 C69.5885049,57.0141493 69.5238287,57.0407857 69.4773461,57.0891281 C69.4308636,57.1374705 69.4068457,57.2030769 69.4111482,57.2699522 C69.4074698,57.3667035 69.4614203,57.4564781 69.5486559,57.4987676 C69.5838292,57.5070009 69.6204331,57.5070009 69.6556064,57.4987676 L106.283588,57.4987676 C106.375569,57.4533127 106.433773,57.3597092 106.433773,57.2572403 C106.433773,57.1547713 106.375569,57.0611678 106.283588,57.0157129 Z" id="Path" fill="#87BDB7"></path>
                    <path d="M110.744949,60.6411658 C98.5220411,60.6411658 86.312714,60.6411658 74.1169678,60.6411658 C73.9763319,60.6116792 73.8383823,60.7016024 73.8088487,60.8420149 C73.7793152,60.9824273 73.8693815,61.1201578 74.0100174,61.1496444 C74.0451907,61.1578777 74.0817946,61.1578777 74.1169678,61.1496444 C86.339876,61.1496444 98.5492031,61.1496444 110.744949,61.1496444 C110.853028,61.1117078 110.925347,61.0097866 110.925347,60.8954051 C110.925347,60.7810236 110.853028,60.6791025 110.744949,60.6411658 L110.744949,60.6411658 Z" id="Path" fill="#87BDB7"></path>
                    <path d="M114.579887,64.2615339 L77.9519053,64.2615339 C77.8852828,64.2584925 77.8205199,64.283945 77.7738502,64.3315113 C77.7271804,64.3790777 77.703028,64.4442487 77.7074471,64.5106884 C77.7043254,64.6085926 77.7578157,64.6995795 77.8449548,64.7445886 C77.8803693,64.7503763 77.9164908,64.7503763 77.9519053,64.7445886 C90.1748134,64.7445886 102.384141,64.7445886 114.579887,64.7445886 C114.671868,64.6991337 114.730072,64.6055302 114.730072,64.5030612 C114.730072,64.4005923 114.671868,64.3069888 114.579887,64.2615339 L114.579887,64.2615339 Z" id="Path" fill="#87BDB7"></path>
                    <rect id="Rectangle" fill="#305848" x="21.2019614" y="104.27372" width="111.213185" height="1.6779796" rx="0.2825"></rect>
                    <path d="M98.1451681,94.8261865 C97.9471457,94.8488278 97.7976337,95.0161728 97.7976337,95.2151727 C97.7976337,95.4141726 97.9471457,95.5815176 98.1451681,95.6041589 C98.3431904,95.5815176 98.4927025,95.4141726 98.4927025,95.2151727 C98.4927025,95.0161728 98.3431904,94.8488278 98.1451681,94.8261865 Z" id="Path" fill="#6CA88C"></path>
                    <path d="M75.2679584,8.771257 C48.3346028,8.771257 24.0533746,24.9700129 13.7469015,49.8138505 C3.44042834,74.657688 9.13846697,103.253862 28.1839536,122.267635 C47.2294403,141.281407 75.8715572,146.968205 100.754142,136.676207 C125.636727,126.384209 141.859403,102.140321 141.857343,75.2497579 C141.857343,57.6176822 134.841534,40.7078447 122.353455,28.2405613 C109.865377,15.7732778 92.928093,8.76990836 75.2679584,8.771257 Z M75.2679584,126.875597 C46.7104217,126.875597 23.5599641,103.761921 23.5599641,75.2497579 C23.5599641,46.7375943 46.7104217,23.6239188 75.2679584,23.6239188 C103.825495,23.6239188 126.975953,46.7375943 126.975953,75.2497579 C126.967516,103.755964 103.819529,126.860344 75.2679584,126.860343 L75.2679584,126.875597 Z" id="Shape" fill="#D5DFF9"></path>
                    <path d="M77.4986391,130.343424 C96.7734744,130.346694 114.449559,119.643879 123.355637,102.577148 C132.261715,85.5104182 130.918673,64.9142014 119.871387,49.1444631 C133.941925,73.0478671 126.584493,103.779662 103.208128,118.74645 C79.8317625,133.713239 48.7883148,127.567723 32.900303,104.827962 C42.17286,120.637357 59.1488883,130.349629 77.4986391,130.343424 Z" id="Path" fill="#C6E7E5"></path>
                    <path d="M10.914347,78.7175824 C10.9059127,49.5796761 29.902019,23.8316515 57.7761632,15.1993448 C85.6503073,6.56703816 115.906285,17.0622502 132.415147,41.090161 C119.995045,20.18249 97.1370009,7.70850716 72.804824,8.55989939 C48.4726471,9.41129162 26.5453293,23.4523315 15.6216941,45.1768089 C4.69805882,66.9012862 6.51953255,92.8459235 20.3718222,112.836501 C14.1733406,102.532537 10.9037678,90.7371808 10.914347,78.7175824 L10.914347,78.7175824 Z" id="Path" fill="#3964CF"></path>
                    <path d="M75.2679584,19.66287 C44.5193135,19.66287 19.5926118,44.5499674 19.5926118,75.2497579 C19.5926118,105.949548 44.5193135,130.836646 75.2679584,130.836646 C108.325832,130.836646 130.943305,105.9517 130.943305,75.2497579 C130.943305,60.5071986 125.077526,46.3684562 114.636373,35.9438925 C104.195221,25.5193289 90.0339783,19.66287 75.2679584,19.66287 L75.2679584,19.66287 Z M75.2679584,126.875597 C46.7104217,126.875597 23.5599641,103.761921 23.5599641,75.2497579 C23.5599641,46.7375943 46.7104217,23.6239188 75.2679584,23.6239188 C103.825495,23.6239188 126.975953,46.7375943 126.975953,75.2497579 C126.967516,103.755964 103.819529,126.860344 75.2679584,126.860343 L75.2679584,126.875597 Z" id="Shape" fill="#80A0F1"></path>
                    <path d="M35.3245132,53.1868685 L43.498583,53.247886 C43.9200466,53.1144963 44.348485,53.0041619 44.7819883,52.9173748 C45.1996044,52.769916 45.6070346,52.4088962 45.5255486,51.9512654 C45.4360983,51.6433217 45.1758035,51.4151816 44.8583815,51.3665149 C44.5457871,51.3200448 44.2270008,51.3373426 43.9212919,51.4173628 C44.1034466,50.9404567 44.0346347,50.4041951 43.7379483,49.9885377 C43.5778111,49.7949165 43.3431923,49.6778587 43.0919613,49.6662372 C42.8407304,49.6546156 42.5962756,49.7495122 42.4188928,49.9275203 C42.7818074,49.0484455 42.4595837,48.0361259 41.654961,47.527501 C40.8370779,47.0586919 39.8206423,47.1083406 39.0525001,47.6546206 C38.3039122,48.2101103 37.8411721,49.0689179 37.7894663,49.9987073 C37.6309454,49.6797242 37.3489117,49.4391416 37.0085939,49.3326013 C36.6682761,49.226061 36.2991502,49.2627908 35.9865874,49.434296 C35.365737,49.8274731 35.064669,50.5717902 35.2379342,51.2851583 C34.787757,51.1873811 34.317132,51.2813566 33.9392502,51.5444824 C33.4299624,52.0529611 33.8883215,53.0699184 34.6013244,53.1004272 C34.8967114,53.1309359 35.039312,53.2885643 35.3245132,53.1868685 Z" id="Path" fill="#FFFFFF"></path>
                    <path d="M63.6511028,38.2884436 L71.3209776,38.2325109 C73.0831135,38.2325109 75.0235002,38.5477677 76.749986,38.1053913 C79.4644902,37.4087755 79.1079887,35.0545193 76.1693978,35.7155415 C76.7787199,34.8984926 77.0270729,33.8682874 76.8568453,32.8639079 C76.6866178,31.8595285 76.112603,30.96826 75.2679584,30.3968547 C74.8345352,30.1390104 74.355671,29.9664099 73.857231,29.888376 C71.21912,29.4307452 68.4638728,31.7494079 68.4689657,34.4189209 C68.3212722,33.3612853 66.7985016,32.9799263 65.9225265,33.5951855 C65.0465514,34.2104447 64.7613502,35.3850304 64.7664431,36.4477508 C64.3248462,35.7176059 63.3740198,35.4831227 62.6427129,35.9240179 C61.911406,36.3649132 61.6765496,37.3142288 62.1181464,38.0443738 C62.9380998,38.0494586 62.846428,38.278274 63.6511028,38.2884436 Z" id="Path" fill="#FFFFFF"></path>
                    <path d="M95.5427072,44.9952772 L109.512473,45.1122273 C109.746528,45.0200029 109.97447,44.9130063 110.194918,44.7918857 C110.414102,44.1447407 110.231048,43.4294192 109.727809,42.9665587 C109.224569,42.5036983 108.495528,42.3801097 107.867473,42.6511906 C108.351296,41.6850811 107.470228,40.4545627 106.405817,40.2765952 C105.341405,40.0986276 104.276994,40.6935477 103.518155,41.4613505 C103.901294,40.6384434 103.791192,39.6706963 103.232954,38.9545506 C102.684588,38.2588337 101.988935,37.6927766 101.195802,37.2969102 C97.686809,35.3138434 95.7667939,39.3308249 96.2506173,42.2901707 C95.6984801,41.8699367 94.9238817,41.9059877 94.413295,42.3756825 C93.9027084,42.8453773 93.8034325,43.6132138 94.1778158,44.1969657 C94.6056176,44.619003 94.9519333,45.1834143 95.5427072,44.9952772 Z" id="Path" fill="#FFFFFF"></path>
                    <path d="M72.6349402,117.128061 C72.6349402,117.539929 70.9390117,117.87044 68.8509316,117.87044 C66.7628515,117.87044 65.0669229,117.539929 65.0669229,117.128061 C65.0669229,116.716193 66.7628515,116.385682 68.8509316,116.385682 C70.9390117,116.385682 72.6349402,116.716193 72.6349402,117.128061 Z" id="Path" fill="#71B1A8"></path>
                    <path d="M92.996268,108.417821 C92.996268,108.982233 89.7419187,109.434779 85.7287306,109.434779 C81.7155424,109.434779 78.4561002,108.977148 78.4561002,108.417821 C78.4561002,107.858495 81.7104495,107.400864 85.7287306,107.400864 C89.7470116,107.400864 92.996268,107.85341 92.996268,108.417821 Z" id="Path" fill="#71B1A8"></path>
                    <path d="M112.853401,111.260217 C112.853401,111.768696 109.894439,112.190733 106.232659,112.190733 C102.570879,112.190733 99.6119171,111.77378 99.6119171,111.260217 C99.6119171,110.746654 102.570879,110.334786 106.232659,110.334786 C109.894439,110.334786 112.853401,110.751738 112.853401,111.260217 Z" id="Path" fill="#71B1A8"></path>
                    <path d="M51.6981172,112.022935 C51.6981172,112.37887 50.2211824,112.668703 48.3928391,112.668703 C46.5644958,112.668703 45.0824682,112.37887 45.0824682,112.022935 C45.0824682,111.667 46.5644958,111.372082 48.3928391,111.372082 C50.2211824,111.372082 51.6981172,111.661915 51.6981172,112.022935 Z" id="Path" fill="#71B1A8"></path>
                    <path d="M53.5519249,92.8227806 C55.2748885,95.280583 54.7263953,98.6609644 52.3143555,100.449961 C53.6537825,100.902507 54.4788288,102.305908 54.6570795,103.704224 C54.8709804,105.366949 54.1477917,107.263575 52.6199282,107.914427 C51.8426603,108.187099 51.0172715,108.296168 50.1957181,108.234769 C49.1068152,108.273154 48.0176239,108.167143 46.9566474,107.919512 C45.883186,107.66432 44.9568748,106.990377 44.3847438,106.048311 C43.8364404,105.074265 43.9893615,103.856966 44.7616168,103.048287 C43.6106263,102.097431 42.4137999,101.075389 41.9146978,99.6719882 C41.4155957,98.2685871 41.9452551,96.3821313 43.371261,95.9448396 C41.9900602,92.7322433 43.2518851,88.9966029 46.2996661,87.2752783 C47.9039228,86.4413733 50.154975,86.4312037 51.2499439,87.8701984 C52.1361047,89.0346145 51.9527611,90.666831 51.7235816,92.1159952 C52.334727,91.7346362 53.1190302,92.2481997 53.5519249,92.8227806 Z" id="Path" fill="#83CBA8"></path>
                    <path d="M51.6930243,94.4397427 C52.8154164,96.0402646 52.45881,98.2418524 50.8883495,99.4075793 C51.7501588,99.7791612 52.3373108,100.594006 52.416213,101.527935 C52.5537207,102.610995 52.0902688,103.841513 51.0869718,104.27372 C50.5810812,104.452599 50.0432529,104.523618 49.5081795,104.482196 C48.797795,104.506726 48.0872492,104.438349 47.3946349,104.278805 C46.6946551,104.113142 46.0908249,103.673357 45.719078,103.058456 C45.3534612,102.424643 45.4532412,101.625595 45.9635361,101.100813 C45.214883,100.480469 44.4356726,99.8143622 44.1046355,98.8991006 C43.7735984,97.9838391 44.1046355,96.7533207 45.0570038,96.4736574 C44.1557623,94.3784391 44.9787834,91.9417847 46.9668332,90.8193746 C48.0108732,90.2753025 49.4776222,90.2702177 50.1906252,91.2058184 C50.7712133,91.9685364 50.6489842,93.0312568 50.5012908,93.9770272 C50.9189068,93.7329574 51.4281946,94.0634685 51.6930243,94.4397427 Z" id="Path" fill="#6CA88C"></path>
                    <path d="M52.0189685,101.385561 C51.0920647,102.122855 50.2364611,103.205915 49.1007492,103.638122 C49.1007492,103.241508 49.0701919,102.84998 49.0600062,102.458451 C49.0600062,101.477087 49.0294489,100.490639 49.0141703,99.509275 C49.406457,99.3954827 49.7683607,99.1957097 50.073489,98.9245246 C50.4712673,98.6599168 50.7940136,98.2974042 51.0105786,97.8719737 C51.0105786,97.8058715 50.9443712,97.7346845 50.8883495,97.7753628 C50.4657366,98.1423976 50.0200492,98.4820764 49.5540154,98.7923201 C49.3803488,98.8925623 49.1958172,98.9727401 49.0039845,99.0313051 C49.0039845,97.8973977 48.9734272,96.7584055 48.9479628,95.624498 C49.0803777,95.5889045 49.1618637,95.4516153 49.2535356,95.3499196 C49.4114148,95.171952 49.5896655,95.0041541 49.7628234,94.8414409 C50.0875304,94.5572769 50.2824275,94.153416 50.3026685,93.7227878 C50.294165,93.6918786 50.2660196,93.6704557 50.2339146,93.6704557 C50.2018097,93.6704557 50.1736642,93.6918786 50.1651608,93.7227878 C50.0081712,94.1696595 49.7273676,94.5628652 49.3553931,94.8566953 C49.2535356,94.9482214 49.0752848,95.0753411 48.94287,95.2177151 C48.94287,94.3583862 48.8919412,93.4990572 48.8461053,92.6448131 C48.8349279,92.5933662 48.7893355,92.5566616 48.7366084,92.5566616 C48.6838813,92.5566616 48.6382889,92.5933662 48.6271115,92.6448131 C48.5507183,94.2160121 48.5150682,95.792296 48.4896038,97.3685799 C48.3622818,97.2617993 48.2247741,97.1855275 48.1076379,97.0685775 C47.9040464,96.8574779 47.7231149,96.6257081 47.5677928,96.3770465 C47.3029631,95.9906027 47.1094338,95.5634806 46.8598827,95.1770368 C46.8403984,95.1518882 46.8065731,95.1426889 46.7770057,95.154497 C46.7474383,95.1663052 46.7292986,95.1962575 46.7325607,95.2278847 C46.8899284,95.7631415 47.1158844,96.2758621 47.4048207,96.7533207 C47.5983501,97.104171 47.9650373,97.6736671 48.4233964,97.6889214 C48.4467498,97.6951804 48.4713433,97.6951804 48.4946967,97.6889214 C48.4946967,98.985542 48.4590465,100.277078 48.438675,101.568614 C48.0758309,101.370394 47.7344902,101.135243 47.4200993,100.866913 C46.9641606,100.444132 46.5880925,99.9429306 46.3098518,99.3872402 C46.2640159,99.2906292 46.1061367,99.3567314 46.136694,99.4584272 C46.3519608,100.076609 46.6995472,100.640539 47.1552697,101.110983 C47.4859536,101.511052 47.9088588,101.82511 48.3877462,102.026244 C48.3877462,102.188958 48.3877462,102.346586 48.3877462,102.504214 C48.3622818,103.704224 48.2858887,104.939827 48.229867,106.180515 C47.980316,106.017802 47.7205792,105.875428 47.4964925,105.7178 C46.9057029,105.32587 46.4126696,104.80405 46.0552079,104.192364 C45.968629,104.02965 45.7394495,104.192364 45.8107498,104.334738 C46.1057612,104.906327 46.5147887,105.411608 47.0126691,105.819495 C47.3650643,106.185131 47.7680992,106.498485 48.2094955,106.750011 C48.1057997,108.464818 48.1586441,110.185489 48.3673747,111.890731 C48.409892,112.045277 48.5506191,112.152391 48.711144,112.152391 C48.8716689,112.152391 49.012396,112.045277 49.0549133,111.890731 C49.4165077,109.399185 49.2178854,106.739842 49.1007492,104.177109 C50.3485044,103.770326 51.2703154,102.458451 52.2023121,101.634716 C52.3703771,101.461833 52.1615691,101.268611 52.0189685,101.385561 Z" id="Path" fill="#305848"></path>
                    <path d="M72.5891043,101.710988 C73.9854459,103.710168 73.5338735,106.455874 71.5705286,107.904258 C72.6553117,108.270362 73.3275717,109.429694 73.4701723,110.548347 C73.6433302,111.895815 73.0678349,113.426336 71.8200797,113.965324 C71.1880568,114.186613 70.517001,114.274906 69.8491358,114.224648 C68.9641018,114.255291 68.0788676,114.169815 67.2161176,113.970408 C66.3441085,113.76047 65.592318,113.211254 65.1280375,112.444972 C64.6737455,111.655222 64.8006589,110.660223 65.4387031,110.00936 C64.5016134,109.236472 63.5288737,108.407652 63.1214434,107.263575 C62.7140131,106.119498 63.1469078,104.594062 64.3080841,104.243211 C63.2048723,101.629504 64.2357636,98.605116 66.7068298,97.2058667 C68.0055138,96.5245053 69.8338571,96.5194205 70.7251108,97.6889214 C71.4432067,98.6346917 71.2955132,99.9618211 71.1070767,101.136407 C71.6010859,100.83132 72.2376957,101.248272 72.5891043,101.710988 Z" id="Path" fill="#83CBA8"></path>
                    <path d="M71.0816123,103.022863 C71.9903407,104.325001 71.6995072,106.112248 70.424631,107.060183 C71.1302863,107.356078 71.6102841,108.021901 71.6672933,108.783926 C71.825162,109.68096 71.3902029,110.578174 70.5876031,111.011062 C70.1762398,111.155896 69.7390429,111.213057 69.3041978,111.17886 C68.7273869,111.201393 68.1501523,111.146668 67.5878977,111.016147 C67.0203923,110.879778 66.5308987,110.522851 66.2280992,110.024614 C65.933803,109.510494 66.0147265,108.864135 66.4267215,108.43816 C65.7653584,107.989724 65.2375032,107.371358 64.898858,106.648316 C64.6340283,105.905937 64.898858,104.909318 65.6729755,104.675418 C64.9469118,102.983838 65.6034246,101.017429 67.200839,100.09911 C68.0462568,99.6618186 69.2379903,99.6567339 69.8185785,100.414367 C70.2922162,101.034711 70.1903586,101.899125 70.0681295,102.666928 C70.4348168,102.453367 70.8473399,102.72286 71.0816123,103.022863 Z" id="Path" fill="#6CA88C"></path>
                    <path d="M71.3413491,108.666976 C70.592696,109.266981 69.8949717,110.146649 68.9731607,110.497499 C68.9731607,110.178852 68.9629749,109.858511 68.9426034,109.536474 C68.9426034,108.743248 68.9120461,107.939851 68.9018604,107.14154 C69.2212004,107.051691 69.5156472,106.889915 69.7625568,106.668655 C70.0869627,106.454721 70.3501908,106.160374 70.5264886,105.814411 C70.5264886,105.758478 70.4704669,105.702545 70.424631,105.738139 C70.0828868,106.038778 69.7222557,106.317313 69.3449408,106.572044 C69.2048442,106.656109 69.0541173,106.721092 68.8967675,106.765266 C68.8967675,105.843224 68.8814889,104.922878 68.8509316,104.004226 C68.957882,103.973718 69.0240895,103.861852 69.0953898,103.780496 C69.16669,103.699139 69.3754981,103.500833 69.5079129,103.353374 C69.7701581,103.120828 69.9279486,102.792926 69.9459004,102.443197 C69.9459004,102.412306 69.9208187,102.387264 69.8898788,102.387264 C69.8589389,102.387264 69.8338571,102.412306 69.8338571,102.443197 C69.7063446,102.805785 69.4785559,103.124888 69.1768758,103.363543 C69.0953898,103.439815 68.9476963,103.541511 68.8407458,103.658461 C68.8407458,102.96354 68.8152814,102.266924 68.7643527,101.568614 C68.754437,101.527492 68.717591,101.49851 68.6752273,101.49851 C68.6328636,101.49851 68.5960176,101.527492 68.5861019,101.568614 C68.5249874,102.844895 68.4944301,104.111007 68.4740586,105.402543 C68.372201,105.321186 68.2601577,105.255084 68.163393,105.163558 C68.0003973,104.989206 67.8537856,104.800275 67.7254055,104.599147 C67.5115046,104.28389 67.3536253,103.938124 67.1499102,103.622867 C67.1358542,103.59728 67.104457,103.586783 67.0778021,103.598759 C67.0511471,103.610734 67.0381937,103.641158 67.0480526,103.668631 C67.1757057,104.102188 67.3588643,104.517485 67.5929906,104.904234 C67.7508699,105.188982 68.0462568,105.651697 68.4078512,105.661867 C68.427894,105.667034 68.4489229,105.667034 68.4689657,105.661867 L68.4231298,108.80935 C68.1353152,108.646237 67.8641104,108.455504 67.6133621,108.239854 C67.2388383,107.895893 66.9314622,107.48556 66.7068298,107.029675 C66.6711796,106.953403 66.5387648,107.029675 66.5693221,107.090692 C66.7483232,107.593841 67.0350973,108.05195 67.409647,108.433076 C67.6844827,108.758666 68.0338755,109.013318 68.4282227,109.175455 C68.4282227,109.307659 68.4282227,109.434779 68.4282227,109.561898 C68.4282227,110.538177 68.3518295,111.53988 68.3059936,112.546668 C68.1022785,112.414464 67.8832847,112.297514 67.7101268,112.175479 C67.231463,111.854806 66.831137,111.430787 66.5387648,110.934791 C66.4674645,110.802586 66.2841209,110.934791 66.3401425,111.046656 C66.5776331,111.513949 66.9107663,111.92624 67.3179752,112.256835 C67.6015174,112.554034 67.9276086,112.807638 68.2856221,113.009384 C68.2014811,114.402031 68.245806,115.799453 68.4180369,117.183994 C68.4554041,117.305777 68.5680262,117.388932 68.6955988,117.388932 C68.8231714,117.388932 68.9357935,117.305777 68.9731607,117.183994 C69.2685476,115.150079 69.1055755,113.004299 69.0088108,110.919536 C70.0273865,110.589025 70.7709467,109.526305 71.5297856,108.860198 C71.6265503,108.733078 71.4584853,108.555111 71.3413491,108.666976 Z" id="Path" fill="#305848"></path>
                    <path d="M79.8871991,108.483924 L91.6466553,108.443245 C92.0980879,107.873122 92.0716361,107.060994 91.5840575,106.521358 C91.0964789,105.981723 90.290072,105.872072 89.6757113,106.261872 C90.0580733,105.319112 90.1588964,104.285993 89.9660054,103.287272 C89.8528815,102.501874 89.4337366,101.792836 88.7997362,101.314374 C87.7811606,100.643182 86.339876,101.014372 85.4791795,101.868616 C84.6675317,102.782873 84.1463639,103.917355 83.9818733,105.127964 C83.8800157,104.16694 82.5507745,103.714394 81.730821,104.227957 C80.9419595,104.827546 80.6106853,105.854285 80.9006819,106.800859 C80.8549815,106.583036 80.7150584,106.396579 80.5185134,106.291594 C80.3219685,106.18661 80.0889611,106.173866 79.8821062,106.256787 C79.4678233,106.472392 79.2320282,106.922938 79.2913323,107.38561 C79.3623146,107.80761 79.5719538,108.194022 79.8871991,108.483924 L79.8871991,108.483924 Z" id="Path" fill="#83CBA8"></path>
                    <path d="M81.4761771,108.483924 L89.9609125,108.4585 C90.2711777,108.097884 90.2512098,107.559609 89.9150766,107.222896 C89.5365493,106.885452 88.9870444,106.820429 88.5399994,107.060183 C88.8142319,106.462033 88.8874751,105.791406 88.7488075,105.148303 C88.6546051,104.627655 88.348521,104.169259 87.9033896,103.882192 C87.1071815,103.504254 86.1610792,103.644939 85.5097368,104.238127 C84.937915,104.802818 84.5614617,105.534934 84.4351395,106.327974 C84.3587463,105.712715 83.4165638,105.422882 82.8105113,105.753393 C82.2535919,106.098439 82.0053207,106.77905 82.2095516,107.400864 C82.1789943,107.111031 81.7613783,106.938148 81.4608985,107.055098 C81.1736737,107.173801 81.000841,107.469021 81.0381896,107.777138 C81.0951992,108.057301 81.2505171,108.307939 81.4761771,108.483924 L81.4761771,108.483924 Z" id="Path" fill="#6CA88C"></path>
                    <path d="M83.156827,107.955106 C82.9480413,107.696517 82.6568863,107.517077 82.3317807,107.446627 C82.235016,107.421203 82.1382513,107.553408 82.2299231,107.624595 C82.4610318,107.836692 82.7261466,108.008571 83.0142264,108.133073 C83.0615381,108.143419 83.1106317,108.126068 83.1408877,108.088308 C83.1711436,108.050548 83.1773217,107.998919 83.156827,107.955106 L83.156827,107.955106 Z" id="Path" fill="#305848"></path>
                    <path d="M83.0345979,105.83475 C83.012165,105.79311 82.9616572,105.775383 82.9180614,105.793848 C82.8744657,105.812314 82.8521328,105.860894 82.8665329,105.905937 C82.9671758,106.206844 83.1021768,106.495185 83.2688703,106.765266 C83.4614521,107.104646 83.6315784,107.456248 83.7781581,107.817816 C83.8392727,107.955106 84.0684522,107.883919 84.0633593,107.741545 C84.0226163,107.029675 83.365635,106.42967 83.0345979,105.83475 Z" id="Path" fill="#305848"></path>
                    <path d="M85.667616,107.431373 C85.5452357,107.228533 85.4477692,107.011716 85.377322,106.785605 C85.377322,106.668655 85.1786997,106.699163 85.1786997,106.811029 C85.1786997,107.095777 85.2347214,107.451712 85.5301083,107.568662 C85.5688747,107.579182 85.6103153,107.568175 85.6387218,107.539814 C85.6671282,107.511452 85.6781526,107.470077 85.667616,107.431373 L85.667616,107.431373 Z" id="Path" fill="#305848"></path>
                    <path d="M86.8644424,103.470324 C86.7523991,104.294059 86.507941,105.097456 86.3144116,105.905937 C86.1769039,106.490687 85.9477243,107.288999 86.253297,107.848325 C86.3144116,107.965275 86.5384982,107.955106 86.5537769,107.807647 C86.6505416,107.126285 86.589427,106.439839 86.7065632,105.743224 C86.8236994,105.046608 86.9968573,104.253381 87.0477861,103.495748 C87.0783433,103.363543 86.8797211,103.338119 86.8644424,103.470324 Z" id="Path" fill="#305848"></path>
                    <path d="M87.679303,106.221193 C87.5338006,106.617662 87.4096958,107.021635 87.3075229,107.431373 C87.2955965,107.486915 87.3253695,107.542982 87.378108,107.564294 C87.4308464,107.585607 87.4912975,107.566001 87.5214238,107.517814 C87.7275023,107.136268 87.857236,106.718326 87.9033896,106.287296 C87.928854,106.139837 87.720046,106.073735 87.679303,106.221193 Z" id="Path" fill="#305848"></path>
                    <path d="M89.6706184,107.029675 C89.4439187,107.211505 89.2552908,107.436117 89.1154947,107.690697 C89.0987425,107.733436 89.1127389,107.782082 89.1496562,107.809429 C89.1865736,107.836776 89.2372621,107.836046 89.2733739,107.807647 C89.4618104,107.599171 89.6400612,107.37544 89.8335905,107.166964 C89.8660895,107.121687 89.8582686,107.059074 89.8156274,107.023152 C89.7729862,106.987231 89.7098519,106.990071 89.6706184,107.029675 Z" id="Path" fill="#305848"></path>
                    <path d="M111.116729,111.097504 L100.99718,111.06191 C100.615338,110.57095 100.641497,109.877181 101.059232,109.416274 C101.476966,108.955367 102.165777,108.860273 102.693108,109.190709 C102.366257,108.384966 102.279596,107.502082 102.443557,106.648316 C102.542648,105.969241 102.909347,105.357829 103.462133,104.949997 C104.338108,104.375416 105.580771,104.690673 106.324331,105.422882 C107.017954,106.212974 107.464182,107.188872 107.607736,108.229684 C107.694315,107.405949 108.840213,107.01442 109.54303,107.456797 C110.224645,107.972114 110.511443,108.857543 110.261126,109.673764 C110.299405,109.482266 110.421779,109.318048 110.59449,109.22641 C110.767201,109.134772 110.971996,109.1254 111.152379,109.200878 C111.509667,109.385613 111.713156,109.77366 111.661667,110.172073 C111.589351,110.532928 111.397381,110.858937 111.116729,111.097504 Z" id="Path" fill="#83CBA8"></path>
                    <path d="M109.746745,111.097504 L102.443557,111.097504 C102.177172,110.786968 102.194918,110.32408 102.4843,110.034783 C102.81048,109.747306 103.280531,109.690666 103.665848,109.892409 C103.429781,109.378687 103.367226,108.802308 103.487598,108.250023 C103.564575,107.800536 103.826939,107.403927 104.210786,107.156794 C104.897759,106.833352 105.712329,106.955845 106.273402,107.466966 C106.76586,107.953563 107.090485,108.583973 107.200306,109.266981 C107.266513,108.758502 108.09156,108.483924 108.600847,108.758502 C109.075529,109.061922 109.284905,109.647244 109.110135,110.182242 C109.1356,109.928003 109.492101,109.780544 109.751838,109.877155 C109.99942,109.981419 110.14868,110.236 110.118525,110.502584 C110.069161,110.738626 109.937396,110.949475 109.746745,111.097504 L109.746745,111.097504 Z" id="Path" fill="#6CA88C"></path>
                    <path d="M108.30546,110.650043 C108.48486,110.429247 108.73477,110.276667 109.013371,110.217836 C109.094857,110.217836 109.176343,110.309362 109.105042,110.370379 C108.903962,110.551148 108.67531,110.698763 108.42769,110.807671 C108.385298,110.820389 108.339441,110.80572 108.312344,110.770776 C108.285247,110.735831 108.28251,110.687832 108.30546,110.650043 Z" id="Path" fill="#305848"></path>
                    <path d="M108.407318,108.824604 C108.428905,108.792328 108.470322,108.779769 108.506241,108.794609 C108.54216,108.809448 108.562579,108.847553 108.555012,108.885622 C108.468189,109.146284 108.350202,109.395543 108.203603,109.628001 C108.046502,109.918659 107.908698,110.219309 107.79108,110.528008 C107.760682,110.57666 107.702336,110.6002 107.646617,110.586292 C107.590898,110.572385 107.550512,110.524201 107.546622,110.46699 C107.572086,109.851731 108.122117,109.338168 108.407318,108.824604 Z" id="Path" fill="#305848"></path>
                    <path d="M106.140987,110.197497 C106.247652,110.024209 106.331525,109.83793 106.390538,109.643255 C106.390538,109.541559 106.563696,109.566983 106.563696,109.643255 C106.563696,109.892409 106.512767,110.197497 106.263216,110.299192 C106.232891,110.305379 106.201394,110.297464 106.177616,110.27768 C106.153839,110.257897 106.140361,110.228393 106.140987,110.197497 L106.140987,110.197497 Z" id="Path" fill="#305848"></path>
                    <path d="M105.112226,106.765266 C105.234434,107.472818 105.392516,108.173724 105.585863,108.865283 C105.708092,109.373761 105.901622,110.055123 105.636792,110.538177 C105.607406,110.587009 105.551695,110.613651 105.495167,110.605905 C105.438638,110.598158 105.392177,110.557515 105.377055,110.502584 C105.300662,109.912749 105.377055,109.322913 105.249733,108.722908 C105.122411,108.122904 105.000182,107.441542 104.954346,106.79069 C104.949254,106.699163 105.10204,106.678824 105.112226,106.765266 Z" id="Path" fill="#305848"></path>
                    <path d="M104.39413,109.1602 C104.519603,109.493081 104.626714,109.832576 104.714981,110.177157 C104.723057,110.223926 104.697658,110.270054 104.65378,110.288307 C104.609902,110.306561 104.559213,110.292086 104.531638,110.253429 C104.356963,109.92245 104.244751,109.562217 104.2006,109.190709 C104.195508,109.089013 104.39413,109.03308 104.39413,109.1602 Z" id="Path" fill="#305848"></path>
                    <path d="M102.698201,109.841562 C102.906945,109.996831 103.080494,110.194362 103.207489,110.421227 C103.253325,110.502584 103.141282,110.599195 103.075074,110.522923 C102.912102,110.339871 102.759316,110.151734 102.565787,109.968681 C102.4843,109.88224 102.611622,109.76529 102.698201,109.841562 Z" id="Path" fill="#305848"></path>
                </g>
            </g>
        </g>
    </g>
</svg>