<svg xmlns="http://www.w3.org/2000/svg" xmlns:xlink="http://www.w3.org/1999/xlink" width="70" height="64" viewBox="0 0 70 64">
    <defs>
        <path id="a" d="M28.345 12.871l-.153.094c.279-1.336.429-2.673.429-3.974 0-7.062-4.409-10.348-9.848-7.339-5.437 3.009-9.846 11.174-9.846 18.236 0 1.309.152 2.488.433 3.522-.173.082-.345.157-.521.255C4.252 26.202.534 33.088.534 39.044c0 5.956 3.718 8.727 8.305 6.189L28.345 34.44c4.586-2.538 8.303-9.423 8.303-15.38 0-5.956-3.717-8.727-8.303-6.189"/>
        <linearGradient id="b" x1="18.691%" x2="81.311%" y1="28.861%" y2="84.563%">
            <stop offset="0%" stop-color="#4BB382"/>
            <stop offset="100%" stop-color="#14A29B"/>
        </linearGradient>
    </defs>
    <g fill="none" fill-rule="evenodd">
        <path fill="#E9E9E4" d="M52.349 63.526a53.71 53.71 0 0 1-9.506-.87c-3.584-.659-7.049-1.845-10.316-3.46L7.168 46.666l29.581-13.96 19.506 10.318s25.929 13.032 6.45 19.113c-3.229 1.008-6.851 1.39-10.356 1.39"/>
        <path fill="#90CBAF" d="M41.28 17.805a4.42 4.42 0 0 0-1.952-1.393l-4.469-3.19c0-3.393-1.018-5.91-2.679-7.28l-.011-.033L24.83.743l-.006.01c-1.744-1.074-4.053-1.039-6.584.362-5.439 3.01-9.848 11.174-9.848 18.236 0 1.31.153 2.488.435 3.522-.174.082-.347.157-.523.254C3.717 25.665 0 32.551 0 38.507c0 2.541.678 4.5 1.81 5.717l-.049.093 7.709 5.426.005-.004c1.477.936 3.443.92 5.602-.276L34.583 38.67c4.586-2.538 8.303-9.423 8.303-15.38 0-2.385-.596-4.257-1.606-5.485"/>
        <g transform="translate(6.238 4.23)">
            <mask id="c" fill="#fff">
                <use xlink:href="#a"/>
            </mask>
            <path fill="url(#b)" d="M28.345 12.871l-.153.094c.279-1.336.429-2.673.429-3.974 0-7.062-4.409-10.348-9.848-7.339-5.437 3.009-9.846 11.174-9.846 18.236 0 1.309.152 2.488.433 3.522-.173.082-.345.157-.521.255C4.252 26.202.534 33.088.534 39.044c0 5.956 3.718 8.727 8.305 6.189L28.345 34.44c4.586-2.538 8.303-9.423 8.303-15.38 0-5.956-3.717-8.727-8.303-6.189" mask="url(#c)"/>
        </g>
    </g>
</svg>
