<?xml version="1.0" encoding="UTF-8"?>
<svg width="88px" height="88px" viewBox="0 0 88 88" version="1.1" xmlns="http://www.w3.org/2000/svg" xmlns:xlink="http://www.w3.org/1999/xlink">
    <!-- Generator: sketchtool 58 (101010) - https://sketch.com -->
    <title>2169FA65-42AC-4D8E-AA90-71149E31C4D5</title>
    <desc>Created with sketchtool.</desc>
    <g id="Screens_B2C" stroke="none" stroke-width="1" fill="none" fill-rule="evenodd">
        <g id="Hero" transform="translate(-235.000000, -1024.000000)" fill="#29292A" fill-rule="nonzero">
            <g id="Features" transform="translate(211.000000, 1001.000000)">
                <g id="Feature_1" transform="translate(0.000000, 2.000000)">
                    <g id="Icon" transform="translate(24.000000, 0.000000)">
                        <g id="sketch" transform="translate(0.000000, 21.000000)">
                            <path d="M63.76173,24.12827 C63.4457,23.81207 63.0071,23.63017 62.56,23.63017 C62.1129,23.63017 61.6743,23.81207 61.3581,24.12827 C61.0419,24.44447 60.86,24.88137 60.86,25.33017 C60.86,25.77727 61.04173,26.21587 61.3581,26.53207 C61.67447,26.84827 62.1129,27.03017 62.56,27.03017 C63.0071,27.03017 63.4457,26.84827 63.76173,26.53207 C64.07793,26.21587 64.26,25.77727 64.26,25.33017 C64.26,24.88307 64.0781,24.44447 63.76173,24.12827 Z" id="Path"></path>
                            <path d="M25.5,47.94017 L11.9,47.94017 C10.96126,47.94017 10.2,48.70126 10.2,49.64017 L10.2,63.24017 C10.2,64.17908 10.96126,64.94017 11.9,64.94017 L25.5,64.94017 C26.43874,64.94017 27.2,64.17908 27.2,63.24017 L27.2,49.64017 C27.2,48.70126 26.43891,47.94017 25.5,47.94017 Z M23.8,61.54017 L13.6,61.54017 L13.6,51.34017 L23.8,51.34017 L23.8,61.54017 Z" id="Shape"></path>
                            <path d="M85.99059,35.65954 C85.3553,35.39621 84.62396,35.54207 84.13793,36.02793 L66.81527,53.35059 C66.8151,53.35093 66.81476,53.3511 66.81442,53.35144 C66.81408,53.35178 66.81391,53.35195 66.81374,53.35229 L46.62046,73.54557 C46.62012,73.54591 46.61995,73.54608 46.61961,73.54642 C46.61927,73.54676 46.6191,73.54693 46.61876,73.54727 L36.02793,84.1381 C35.5419,84.6243 35.39638,85.35564 35.65937,85.99076 C35.92253,86.62605 36.54235,87.04017 37.23,87.04017 L85.34,87.04017 C86.27874,87.04017 87.04,86.27908 87.04,85.34017 L87.04,37.23017 C87.04,36.54269 86.62588,35.9227 85.99059,35.65954 Z M83.64,83.64017 L41.33431,83.64017 L47.82168,77.1528 L49.4445,78.77562 C49.77651,79.10763 50.21154,79.27355 50.64657,79.27355 C51.0816,79.27355 51.51663,79.10763 51.84864,78.77562 C52.51249,78.11177 52.51249,77.03533 51.84864,76.37131 L50.22582,74.74849 L54.55334,70.42097 L56.17599,72.04362 C56.508,72.37563 56.94303,72.54155 57.37806,72.54155 C57.81309,72.54155 58.24812,72.37546 58.58013,72.04362 C59.24398,71.37977 59.24398,70.30333 58.58013,69.63948 L56.95731,68.01666 L61.28483,63.68914 L62.90765,65.31196 C63.23966,65.64397 63.67469,65.80989 64.10972,65.80989 C64.54475,65.80989 64.97978,65.64397 65.31179,65.31196 C65.97564,64.64811 65.97564,63.57167 65.31179,62.90765 L63.68897,61.28483 L68.01632,56.95748 L69.63914,58.5803 C69.97115,58.91231 70.40618,59.07823 70.84121,59.07823 C71.27624,59.07823 71.71127,58.91231 72.04328,58.5803 C72.70713,57.91645 72.70713,56.84001 72.04328,56.17599 L70.42046,54.55317 L74.74798,50.22565 L76.37063,51.8483 C76.70264,52.18031 77.13767,52.34623 77.5727,52.34623 C78.00773,52.34623 78.44276,52.18014 78.77477,51.8483 C79.43862,51.18445 79.43862,50.10801 78.77477,49.44416 L77.15195,47.82134 L83.64,41.33431 L83.64,83.64017 Z" id="Shape"></path>
                            <path d="M77.49059,56.18041 C76.8553,55.91708 76.12396,56.06277 75.63793,56.5488 L56.5488,75.6381 C56.06277,76.1243 55.91708,76.85547 56.18024,77.49076 C56.4434,78.12605 57.06322,78.54017 57.75087,78.54017 L76.84,78.54017 C77.77874,78.54017 78.54,77.77908 78.54,76.84017 L78.54,57.75104 C78.54,57.06356 78.12588,56.44357 77.49059,56.18041 Z M75.14,75.14017 L61.85518,75.14017 L75.14,61.85518 L75.14,75.14017 Z" id="Shape"></path>
                            <path d="M78.7202,25.37437 C78.25219,24.90653 77.55553,24.75251 76.9335,24.98014 L65.32573,29.23099 C65.09368,29.31599 64.88305,29.45046 64.70812,29.62522 L61.44429,32.88905 L40.13207,11.57666 C39.81315,11.25791 39.38084,11.07873 38.93,11.07873 C38.47916,11.07873 38.04668,11.25791 37.72793,11.57666 L12.07442,37.23017 L5.80431,37.23017 L38.93,4.10431 L57.10793,22.28224 C57.77195,22.94609 58.84805,22.94609 59.51224,22.28224 C60.17609,21.61839 60.17609,20.54195 59.51224,19.87793 L40.13224,0.49793 C39.46822,-0.16592 38.39212,-0.16592 37.72793,0.49793 L0.49793,37.72793 C0.0119,38.21413 -0.13362,38.9453 0.12937,39.58059 C0.39253,40.21605 1.01235,40.63017 1.7,40.63017 L3.4,40.63017 L3.4,85.34017 C3.4,86.27908 4.16126,87.04017 5.1,87.04017 L32.12762,87.04017 C33.06636,87.04017 33.82762,86.27908 33.82762,85.34017 C33.82762,84.40126 33.06636,83.64017 32.12762,83.64017 L6.8,83.64017 L6.8,40.63017 L12.77856,40.63017 C13.2294,40.63017 13.66171,40.45099 13.98063,40.13224 L38.93,15.18287 L59.03998,35.29302 L33.83,60.50317 L33.83,45.22017 L45.73,45.22017 C46.66874,45.22017 47.43,44.45908 47.43,43.52017 C47.43,42.58126 46.66874,41.82017 45.73,41.82017 L32.13,41.82017 C31.19126,41.82017 30.43,42.58126 30.43,43.52017 L30.43,63.24017 C30.43,63.43856 30.4657,63.62794 30.52809,63.80491 L29.00506,65.32794 C26.31396,68.01904 26.31396,72.3979 29.00506,75.089 C30.35078,76.43472 32.11793,77.10758 33.88559,77.10741 C35.65291,77.10741 37.42074,76.43455 38.76612,75.08917 L53.10256,60.75273 C53.76641,60.08888 53.76641,59.01244 53.10256,58.34859 C52.43871,57.68474 51.36261,57.68474 50.69825,58.34859 L39.83661,69.21023 L34.884,64.25762 L65.94419,33.19743 L70.8968,38.15004 L59.02825,50.01876 C58.3644,50.68261 58.3644,51.75905 59.02825,52.4229 C59.69227,53.08675 60.76837,53.08675 61.43256,52.4229 L74.46918,39.38628 C74.64377,39.21152 74.77841,39.00072 74.86324,38.76884 L79.11426,27.16107 C79.34189,26.53955 79.18821,25.84238 78.7202,25.37437 Z M37.43264,71.6142 L36.36198,72.68486 C35.70051,73.34633 34.82127,73.71064 33.88576,73.71064 C32.95025,73.71064 32.07084,73.34633 31.40954,72.68486 C30.7479,72.02339 30.38376,71.14398 30.38376,70.20864 C30.38376,69.2733 30.74773,68.39372 31.40937,67.73225 L32.48003,66.66159 L37.43264,71.6142 Z M72.60462,35.04907 L69.04516,31.48961 L74.66162,29.43278 L72.60462,35.04907 Z" id="Shape"></path>
                            <path d="M57.23713,54.21317 C56.9211,53.89697 56.4825,53.71507 56.0354,53.71507 C55.5883,53.71507 55.1497,53.89697 54.8335,54.21317 C54.5173,54.53107 54.3354,54.96797 54.3354,55.41507 C54.3354,55.86387 54.51713,56.30077 54.8335,56.61867 C55.1497,56.93487 55.5866,57.11507 56.0354,57.11507 C56.4825,57.11507 56.9211,56.93487 57.23713,56.61867 C57.55333,56.30077 57.7354,55.86217 57.7354,55.41507 C57.7354,54.96797 57.5535,54.53107 57.23713,54.21317 Z" id="Path"></path>
                            <path d="M38.93,25.67017 C35.36799,25.67017 32.47,28.56816 32.47,32.13017 C32.47,35.69218 35.36799,38.59017 38.93,38.59017 C42.49201,38.59017 45.39,35.69218 45.39,32.13017 C45.39,28.56816 42.49201,25.67017 38.93,25.67017 Z M38.93,35.19017 C37.24275,35.19017 35.87,33.81759 35.87,32.13017 C35.87,30.44292 37.24275,29.07017 38.93,29.07017 C40.61725,29.07017 41.99,30.44292 41.99,32.13017 C41.99,33.81742 40.61725,35.19017 38.93,35.19017 Z" id="Shape"></path>
                        </g>
                    </g>
                </g>
            </g>
        </g>
    </g>
</svg>