<svg xmlns="http://www.w3.org/2000/svg" width="20" height="20" viewBox="0 0 20 20">
    <path fill="#3368F5" fill-rule="nonzero" d="M19.543 8.673c.393-.383.532-.945.362-1.468a1.424 1.424 0 0 0-1.157-.975l-4.836-.703a.632.632 0 0 1-.476-.346L11.273.798A1.424 1.424 0 0 0 9.988 0C9.44 0 8.947.306 8.704.798L6.54 5.181a.632.632 0 0 1-.476.346l-4.837.703a1.424 1.424 0 0 0-1.157.975c-.17.523-.03 1.085.363 1.469l3.5 3.41c.148.146.217.356.182.56l-.826 4.818c-.073.424.038.836.312 1.161.427.507 1.171.661 1.766.349l4.326-2.275a.647.647 0 0 1 .589 0l4.326 2.275c.21.11.435.166.666.166.423 0 .824-.188 1.1-.515.274-.325.385-.738.312-1.161l-.826-4.817a.633.633 0 0 1 .182-.56l3.5-3.412z"/>
</svg>
