<?xml version="1.0" encoding="UTF-8"?>
<svg width="1440px" height="422px" viewBox="0 0 1440 422" version="1.1" xmlns="http://www.w3.org/2000/svg" xmlns:xlink="http://www.w3.org/1999/xlink">
    <!-- Generator: sketchtool 58 (101010) - https://sketch.com -->
    <title>88CE459D-C251-44A0-ABBC-158FC81B206A</title>
    <desc>Created with sketchtool.</desc>
    <g id="Screens_B2C" stroke="none" stroke-width="1" fill="none" fill-rule="evenodd">
        <g id="Hero" transform="translate(0.000000, -1689.000000)" fill-rule="nonzero">
            <g id="Group-3" transform="translate(-14.000000, 1689.000000)">
                <path d="M1454,231.656761 C1372.2777,131.83629 1296.68119,31.7038805 1153.63661,31.2005505 C1010.59202,30.7038805 926.746753,86.5650347 850.5,161.285842 C774.253247,236.006649 633.267425,363.397815 468.729535,363.397815 C261.160547,369.975469 69.3827865,212.203315 14,151.991671 L14,280.857315 C122.177572,371.254394 243.46659,414.879737 377.867053,411.733345 C579.467748,407.013757 966.79712,212.085018 1153.63661,212.085018 C1340.47609,212.085018 1382.12957,328.442188 1454,422 C1454,354.448792 1454,291.001045 1454,231.656761 Z" id="Path-Copy" fill="#F0F4FF"></path>
                <path d="M1454,200.456211 C1372.2777,100.63574 1296.68119,0.50333004 1153.63661,5.63886715e-11 C1010.59202,-0.49666996 926.746753,55.3644842 850.5,130.085291 C774.253247,204.806099 701.108454,316.625723 456.088023,316.625723 C211.067593,316.625723 69.3827865,181.002765 14,120.791121 C-3.52490193,133.907418 -3.52490193,212.028405 14,355.154081 C277.661467,449.943619 556.109607,379.44741 770.70391,291.630432 C937.52822,223.362046 988,141 1153.63661,141 C1307.95764,136.476341 1389.85898,275.230095 1454,365.79257 C1454,298.241362 1454,243.129242 1454,200.456211 Z" id="Path" fill="#BACCFB"></path>
                <path d="M14,120.964036 L14,245.443946 C138.686006,291.285588 238.730425,309.841287 314.133256,301.111043 C115.799544,251.592595 16.8738929,122.291099 14,120.964036 Z" id="Path" fill="#85A6FF"></path>
                <path d="M1192.41823,37.589404 C1172.26306,-46.3441404 1172.26306,10.2839987 1192.41823,207.473821 C1282.3329,333.217543 1374.52295,400.321825 1468.98838,408.786668 C1348.2141,354.532338 1222.65099,163.48972 1192.41823,37.589404 Z" id="Path-Copy-2" fill="#85A6FF" transform="translate(1323.145119, 204.393334) rotate(-180.000000) translate(-1323.145119, -204.393334) "></path>
            </g>
        </g>
    </g>
</svg>